<svg width="56" height="63" viewBox="0 0 56 63" version="1.1" xmlns="http://www.w3.org/2000/svg" xmlns:xlink="http://www.w3.org/1999/xlink" xmlns:figma="http://www.figma.com/figma/ns">
<title>icon product_3</title>
<desc>Created using Figma</desc>
<g id="Canvas" transform="translate(-19114 -800)" figma:type="canvas">
<g id="icon product_3" style="mix-blend-mode:normal;" figma:type="frame">
<g id="Vector" style="mix-blend-mode:normal;" figma:type="vector">
<use xlink:href="#path0_stroke" transform="translate(19135 802.12)" fill="#E2112E" style="mix-blend-mode:normal;"/>
</g>
<g id="Vector" style="mix-blend-mode:normal;" figma:type="vector">
<use xlink:href="#path1_stroke" transform="translate(19115 829.745)" fill="#E2112E" style="mix-blend-mode:normal;"/>
</g>
<g id="Vector" style="mix-blend-mode:normal;" figma:type="vector">
<use xlink:href="#path2_stroke" transform="translate(19139 809.064)" fill="#E2112E" style="mix-blend-mode:normal;"/>
</g>
<g id="Vector" style="mix-blend-mode:normal;" figma:type="vector">
<use xlink:href="#path3_stroke" transform="translate(19127 843.558)" fill="#E2112E" style="mix-blend-mode:normal;"/>
</g>
<g id="Vector" style="mix-blend-mode:normal;" figma:type="vector">
<use xlink:href="#path4_stroke" transform="translate(19135 801)" fill="#E2112E" style="mix-blend-mode:normal;"/>
</g>
<g id="Vector" style="mix-blend-mode:normal;" figma:type="vector">
<use xlink:href="#path5_stroke" transform="translate(19115 841.318)" fill="#E2112E" style="mix-blend-mode:normal;"/>
</g>
<g id="Vector" style="mix-blend-mode:normal;" figma:type="vector">
<use xlink:href="#path6_stroke" transform="translate(19147 819.442)" fill="#E2112E" style="mix-blend-mode:normal;"/>
</g>
</g>
</g>
<defs>
<path id="path0_stroke" d="M 5.71411e-07 27.6255L -0.999999 27.6255C -0.999999 27.9829 -0.809204 28.3132 -0.49955 28.4917L 5.71411e-07 27.6255ZM 5.71411e-07 0L 0.499551 -0.866285C 0.190137 -1.04471 -0.19095 -1.04456 -0.500224 -0.865896C -0.809499 -0.687229 -0.999999 -0.357173 -0.999999 1.92354e-16L 5.71411e-07 0ZM 31.9806 18.4419L 32.9806 18.4419C 32.9806 18.0844 32.7898 17.7541 32.4801 17.5756L 31.9806 18.4419ZM 31.9806 46.0673L 31.481 46.9336C 31.7904 47.112 32.1715 47.1119 32.4808 46.9332C 32.7901 46.7545 32.9806 46.4245 32.9806 46.0673L 31.9806 46.0673ZM 1 27.6255L 1 0L -0.999999 0L -0.999999 27.6255L 1 27.6255ZM -0.49955 0.866285L 31.481 19.3081L 32.4801 17.5756L 0.499551 -0.866285L -0.49955 0.866285ZM 30.9806 18.4419L 30.9806 46.0673L 32.9806 46.0673L 32.9806 18.4419L 30.9806 18.4419ZM 32.4801 45.201L 0.499551 26.7592L -0.49955 28.4917L 31.481 46.9336L 32.4801 45.201Z"/>
<path id="path1_stroke" d="M 0 11.5728L -0.50089 10.7073C -0.8103 10.8864 -1.00059 11.217 -0.999999 11.5745C -0.999409 11.932 -0.808029 12.2619 -0.49803 12.44L 0 11.5728ZM 19.9972 0L 20.4968 -0.866285C 20.1871 -1.04485 19.8057 -1.04455 19.4963 -0.865511L 19.9972 0ZM 51.9778 18.4419L 52.4763 19.3088C 52.7863 19.1305 52.9776 18.8002 52.9778 18.4425C 52.978 18.0848 52.7872 17.7543 52.4774 17.5756L 51.9778 18.4419ZM 31.9806 29.94L 31.4826 30.8072C 31.7911 30.9844 32.1706 30.9843 32.479 30.8069L 31.9806 29.94ZM 0.50089 12.4383L 20.4981 0.865511L 19.4963 -0.865511L -0.50089 10.7073L 0.50089 12.4383ZM 19.4977 0.866285L 51.4783 19.3081L 52.4774 17.5756L 20.4968 -0.866285L 19.4977 0.866285ZM 51.4793 17.5749L 31.4821 29.0731L 32.479 30.8069L 52.4763 19.3088L 51.4793 17.5749ZM 32.4786 29.0729L 0.49803 10.7057L -0.49803 12.44L 31.4826 30.8072L 32.4786 29.0729Z"/>
<path id="path2_stroke" d="M 0 1.42409e-07L 0.498168 -0.867081C 0.188717 -1.04487 -0.19203 -1.04427 -0.500915 -0.865496C -0.8098 -0.686726 -1 -0.356888 -1 1.42409e-07L 0 1.42409e-07ZM 0 18.4419L -1 18.4419C -1 18.7999 -0.808601 19.1306 -0.498168 19.3089L 0 18.4419ZM 24.0416 32.2546L 23.5434 33.1217C 23.8529 33.2995 24.2336 33.2989 24.5425 33.1201C 24.8514 32.9413 25.0416 32.6115 25.0416 32.2546L 24.0416 32.2546ZM 24.0416 13.8127L 25.0416 13.8127C 25.0416 13.4547 24.8502 13.124 24.5398 12.9457L 24.0416 13.8127ZM -1 1.42409e-07L -1 18.4419L 1 18.4419L 1 1.42409e-07L -1 1.42409e-07ZM -0.498168 19.3089L 23.5434 33.1217L 24.5398 31.3875L 0.498168 17.5748L -0.498168 19.3089ZM 25.0416 32.2546L 25.0416 13.8127L 23.0416 13.8127L 23.0416 32.2546L 25.0416 32.2546ZM 24.5398 12.9457L 0.498168 -0.867081L -0.498168 0.867081L 23.5434 14.6798L 24.5398 12.9457Z"/>
<path id="path3_stroke" d="M -0.500188 3.76321C -0.978421 4.03946 -1.14216 4.65108 -0.865917 5.12932C -0.589671 5.60755 0.0219553 5.77129 0.500188 5.49505L -0.500188 3.76321ZM 8.01387 0L 8.51406 -0.865917C 8.20456 -1.04469 7.82318 -1.04469 7.51368 -0.865917L 8.01387 0ZM 16.0277 4.62913L 16.5279 5.49505C 16.8372 5.31638 17.0277 4.98632 17.0277 4.62913C 17.0277 4.27194 16.8372 3.94187 16.5279 3.76321L 16.0277 4.62913ZM 7.51368 8.39235C 7.03545 8.66859 6.87171 9.28022 7.14795 9.75845C 7.4242 10.2367 8.03582 10.4004 8.51406 10.1242L 7.51368 8.39235ZM 0.500188 5.49505L 8.51406 0.865917L 7.51368 -0.865917L -0.500188 3.76321L 0.500188 5.49505ZM 7.51368 0.865917L 15.5275 5.49505L 16.5279 3.76321L 8.51406 -0.865917L 7.51368 0.865917ZM 15.5275 3.76321L 7.51368 8.39235L 8.51406 10.1242L 16.5279 5.49505L 15.5275 3.76321Z"/>
<path id="path4_stroke" d="M -0.484489 0.245154C -0.967626 0.51273 -1.14237 1.1213 -0.874797 1.60444C -0.60722 2.08758 0.00135296 2.26232 0.48449 1.99475L -0.484489 0.245154ZM 2.02219 0L 2.52174 -0.866285C 2.21792 -1.04149 1.84451 -1.04472 1.5377 -0.874797L 2.02219 0ZM 34.0028 18.4419L 34.4873 19.3167C 34.8027 19.142 34.9996 18.811 35.0027 18.4505C 35.0059 18.09 34.8147 17.7557 34.5023 17.5756L 34.0028 18.4419ZM 31.4961 18.687C 31.013 18.9546 30.8382 19.5632 31.1058 20.0463C 31.3734 20.5294 31.9819 20.7042 32.4651 20.4366L 31.4961 18.687ZM 0.48449 1.99475L 2.50668 0.874797L 1.5377 -0.874797L -0.484489 0.245154L 0.48449 1.99475ZM 1.52264 0.866285L 33.5032 19.3081L 34.5023 17.5756L 2.52174 -0.866285L 1.52264 0.866285ZM 33.5183 17.5671L 31.4961 18.687L 32.4651 20.4366L 34.4873 19.3167L 33.5183 17.5671Z"/>
<path id="path5_stroke" d="M 1 0C 1 -0.552285 0.552285 -1 0 -1C -0.552285 -1 -1 -0.552285 -1 0L 1 0ZM 0 2.2399L -1 2.2399C -1 2.59735 -0.809205 2.92762 -0.49955 3.10619L 0 2.2399ZM 31.9806 20.6818L 31.481 21.548C 31.7904 21.7265 32.1715 21.7263 32.4808 21.5477C 32.7901 21.369 32.9806 21.0389 32.9806 20.6818L 31.9806 20.6818ZM 32.9806 18.3672C 32.9806 17.8149 32.5329 17.3672 31.9806 17.3672C 31.4283 17.3672 30.9806 17.8149 30.9806 18.3672L 32.9806 18.3672ZM -1 0L -1 2.2399L 1 2.2399L 1 0L -1 0ZM -0.49955 3.10619L 31.481 21.548L 32.4801 19.8155L 0.49955 1.37362L -0.49955 3.10619ZM 32.9806 20.6818L 32.9806 18.3672L 30.9806 18.3672L 30.9806 20.6818L 32.9806 20.6818Z"/>
<path id="path6_stroke" d="M 23.0194 5.69637e-07C 23.0194 -0.552284 22.5717 -0.999999 22.0194 -0.999999C 21.4671 -0.999999 21.0194 -0.552284 21.0194 5.69637e-07L 23.0194 5.69637e-07ZM 22.0194 27.6255L 22.5039 28.5003C 22.822 28.3241 23.0194 27.9891 23.0194 27.6255L 22.0194 27.6255ZM 19.9972 28.7454L 19.5127 27.8706C 19.1946 28.0468 18.9972 28.3818 18.9972 28.7454L 19.9972 28.7454ZM 19.9972 31.06L 20.4957 31.9269C 20.806 31.7485 20.9972 31.4179 20.9972 31.06L 19.9972 31.06ZM -0.498463 41.6912C -0.977244 41.9665 -1.1422 42.5778 -0.86691 43.0566C -0.591617 43.5354 0.0196821 43.7003 0.498464 43.425L -0.498463 41.6912ZM 21.0194 5.69637e-07L 21.0194 27.6255L 23.0194 27.6255L 23.0194 5.69637e-07L 21.0194 5.69637e-07ZM 21.5349 26.7507L 19.5127 27.8706L 20.4817 29.6202L 22.5039 28.5003L 21.5349 26.7507ZM 18.9972 28.7454L 18.9972 31.06L 20.9972 31.06L 20.9972 28.7454L 18.9972 28.7454ZM 19.4988 30.1931L -0.498463 41.6912L 0.498464 43.425L 20.4957 31.9269L 19.4988 30.1931Z"/>
</defs>
</svg>
