<svg width="65" height="46" viewBox="0 0 65 46" version="1.1" xmlns="http://www.w3.org/2000/svg" xmlns:xlink="http://www.w3.org/1999/xlink" xmlns:figma="http://www.figma.com/figma/ns">
<title>icon product_1</title>
<desc>Created using Figma</desc>
<g id="Canvas" transform="translate(-18517 -815)" figma:type="canvas">
<g id="icon product_1" style="mix-blend-mode:normal;" figma:type="frame">
<g id="Vector" style="mix-blend-mode:normal;" figma:type="vector">
<use xlink:href="#path0_stroke" transform="translate(18553.4 835.83)" fill="#E2112E" style="mix-blend-mode:normal;"/>
</g>
<g id="Vector" style="mix-blend-mode:normal;" figma:type="vector">
<use xlink:href="#path1_stroke" transform="translate(18518 816)" fill="#E2112E" style="mix-blend-mode:normal;"/>
</g>
<g id="Vector" style="mix-blend-mode:normal;" figma:type="vector">
<use xlink:href="#path2_stroke" transform="translate(18518 831.415)" fill="#E2112E" style="mix-blend-mode:normal;"/>
</g>
<g id="Vector" style="mix-blend-mode:normal;" figma:type="vector">
<use xlink:href="#path3_stroke" transform="translate(18553.4 840.17)" fill="#E2112E" style="mix-blend-mode:normal;"/>
</g>
<g id="Vector" style="mix-blend-mode:normal;" figma:type="vector">
<use xlink:href="#path4_stroke" transform="translate(18551.5 839.122)" fill="#E2112E" style="mix-blend-mode:normal;"/>
</g>
<g id="Vector" style="mix-blend-mode:normal;" figma:type="vector">
<use xlink:href="#path5_stroke" transform="translate(18549.5 838)" fill="#E2112E" style="mix-blend-mode:normal;"/>
</g>
<g id="Vector" style="mix-blend-mode:normal;" figma:type="vector">
<use xlink:href="#path6_stroke" transform="translate(18547.6 836.952)" fill="#E2112E" style="mix-blend-mode:normal;"/>
</g>
<g id="Vector" style="mix-blend-mode:normal;" figma:type="vector">
<use xlink:href="#path7_stroke" transform="translate(18545.6 835.83)" fill="#E2112E" style="mix-blend-mode:normal;"/>
</g>
<g id="Group" style="mix-blend-mode:normal;" figma:type="frame">
<g id="Vector" style="mix-blend-mode:normal;" figma:type="vector">
<use xlink:href="#path8_fill" transform="translate(18525.6 820.265)" fill="#E2112E" style="mix-blend-mode:normal;"/>
</g>
</g>
<g id="Vector" style="mix-blend-mode:normal;" figma:type="vector">
<use xlink:href="#path9_stroke" transform="translate(18540.4 821.5)" fill="#E2112E" style="mix-blend-mode:normal;"/>
</g>
<g id="Vector" style="mix-blend-mode:normal;" figma:type="vector">
<use xlink:href="#path10_stroke" transform="translate(18545.7 825.727)" fill="#E2112E" style="mix-blend-mode:normal;"/>
</g>
<g id="Vector" style="mix-blend-mode:normal;" figma:type="vector">
<use xlink:href="#path11_fill" transform="translate(18527.8 825.952)" fill="#E2112E" style="mix-blend-mode:normal;"/>
</g>
<g id="Vector" style="mix-blend-mode:normal;" figma:type="vector">
<use xlink:href="#path12_fill" transform="translate(18541 826.925)" fill="#E2112E" style="mix-blend-mode:normal;"/>
</g>
</g>
</g>
<defs>
<path id="path0_stroke" d="M -5.90481e-07 15.3401L -0.486443 14.4664C -0.803461 14.6429 -1 14.9773 -1 15.3401L -5.90481e-07 15.3401ZM -5.90481e-07 24.1701L -1 24.1701C -1 24.5249 -0.811946 24.8532 -0.505841 25.0327C -0.199736 25.2122 0.178569 25.216 0.48825 25.0428L -5.90481e-07 24.1701ZM 27.5528 8.7551L 28.0411 9.62781C 28.3571 9.45101 28.5528 9.1172 28.5528 8.7551L 27.5528 8.7551ZM 27.5528 0L 28.5528 0C 28.5528 -0.354483 28.3652 -0.682474 28.0596 -0.862103C 27.754 -1.04173 27.3761 -1.04615 27.0664 -0.873713L 27.5528 0ZM -1 15.3401L -1 24.1701L 0.999999 24.1701L 0.999999 15.3401L -1 15.3401ZM 0.48825 25.0428L 28.0411 9.62781L 27.0646 7.8824L -0.488251 23.2974L 0.48825 25.0428ZM 28.5528 8.7551L 28.5528 0L 26.5528 0L 26.5528 8.7551L 28.5528 8.7551ZM 27.0664 -0.873713L -0.486443 14.4664L 0.486442 16.2138L 28.0393 0.873713L 27.0664 -0.873713Z"/>
<path id="path1_stroke" d="M 0 15.415L -0.488251 14.5423C -0.804512 14.7192 -1.0003 15.0534 -1 15.4158C -0.999701 15.7782 -0.803366 16.1121 -0.486814 16.2885L 0 15.415ZM 35.4472 35.1701L 34.9604 36.0436C 35.2629 36.2122 35.631 36.2122 35.9336 36.0438L 35.4472 35.1701ZM 63 19.8299L 63.4864 20.7036C 63.8031 20.5273 63.9996 20.1934 64 19.8309C 64.0004 19.4685 63.8046 19.1342 63.4882 18.9572L 63 19.8299ZM 27.5528 0L 28.041 -0.872721C 27.7377 -1.04243 27.3679 -1.04243 27.0646 -0.872703L 27.5528 0ZM -0.486814 16.2885L 34.9604 36.0436L 35.934 34.2966L 0.486814 14.5415L -0.486814 16.2885ZM 35.9336 36.0438L 63.4864 20.7036L 62.5136 18.9562L 34.9607 34.2964L 35.9336 36.0438ZM 63.4882 18.9572L 28.041 -0.872721L 27.0646 0.872721L 62.5118 20.7027L 63.4882 18.9572ZM 27.0646 -0.872703L -0.488251 14.5423L 0.488251 16.2877L 28.0411 0.872703L 27.0646 -0.872703Z"/>
<path id="path2_stroke" d="M 0 2.85454e-07L 0.486814 -0.873505C 0.177105 -1.04611 -0.200845 -1.04181 -0.50655 -0.86221C -0.812254 -0.682609 -1 -0.354559 -1 2.85454e-07L 0 2.85454e-07ZM 0 8.53061L -1 8.53061C -1 8.891 -0.806082 9.22351 -0.492412 9.40097L 0 8.53061ZM 35.4472 28.585L 34.9548 29.4554C 35.2644 29.6306 35.6437 29.6281 35.951 29.4489C 36.2582 29.2697 36.4472 28.9407 36.4472 28.585L 35.4472 28.585ZM 35.4472 19.7551L 36.4472 19.7551C 36.4472 19.3924 36.2508 19.0582 35.934 18.8816L 35.4472 19.7551ZM -1 2.85454e-07L -1 8.53061L 1 8.53061L 1 2.85454e-07L -1 2.85454e-07ZM -0.492412 9.40097L 34.9548 29.4554L 35.9396 27.7147L 0.492412 7.66025L -0.492412 9.40097ZM 36.4472 28.585L 36.4472 19.7551L 34.4472 19.7551L 34.4472 28.585L 36.4472 28.585ZM 35.934 18.8816L 0.486814 -0.873505L -0.486814 0.873506L 34.9604 20.6286L 35.934 18.8816Z"/>
<path id="path3_stroke" d="M -0.243003 6.14805C -0.484339 6.28226 -0.571185 6.5867 -0.436979 6.82803C -0.302772 7.06937 0.00166521 7.15622 0.243002 7.02201L -0.243003 6.14805ZM 12.0845 0.436978C 12.3259 0.302771 12.4127 -0.00166637 12.2785 -0.243003C 12.1443 -0.484339 11.8399 -0.571185 11.5985 -0.436979L 12.0845 0.436978ZM 0.243002 7.02201L 12.0845 0.436978L 11.5985 -0.436979L -0.243003 6.14805L 0.243002 7.02201Z"/>
<path id="path4_stroke" d="M -0.244221 6.14874C -0.485182 6.28362 -0.571178 6.58829 -0.436299 6.82926C -0.30142 7.07022 0.00325888 7.15621 0.24422 7.02133L -0.244221 6.14874ZM 12.0083 0.436298C 12.2493 0.301419 12.3353 -0.00325976 12.2004 -0.244221C 12.0655 -0.485182 11.7609 -0.571178 11.5199 -0.436299L 12.0083 0.436298ZM 0.24422 7.02133L 12.0083 0.436298L 11.5199 -0.436299L -0.244221 6.14874L 0.24422 7.02133Z"/>
<path id="path5_stroke" d="M -0.243002 6.14806C -0.484338 6.28226 -0.571184 6.5867 -0.436978 6.82804C -0.302771 7.06937 0.00166645 7.15622 0.243003 7.02201L -0.243002 6.14806ZM 12.0845 0.436978C 12.3259 0.302771 12.4127 -0.00166614 12.2785 -0.243003C 12.1443 -0.484339 11.8399 -0.571185 11.5985 -0.436978L 12.0845 0.436978ZM 0.243003 7.02201L 12.0845 0.436978L 11.5985 -0.436978L -0.243002 6.14806L 0.243003 7.02201Z"/>
<path id="path6_stroke" d="M -0.24422 6.14873C -0.485181 6.28361 -0.571177 6.58829 -0.436298 6.82925C -0.301419 7.07021 0.00325999 7.15621 0.244221 7.02133L -0.24422 6.14873ZM 12.0083 0.436299C 12.2493 0.301419 12.3353 -0.0032594 12.2004 -0.24422C 12.0655 -0.485181 11.7609 -0.571178 11.5199 -0.436299L 12.0083 0.436299ZM 0.244221 7.02133L 12.0083 0.436299L 11.5199 -0.436299L -0.24422 6.14873L 0.244221 7.02133Z"/>
<path id="path7_stroke" d="M -0.243003 6.14806C -0.48434 6.28226 -0.571186 6.5867 -0.436979 6.82804C -0.302773 7.06937 0.00166456 7.15622 0.243001 7.02201L -0.243003 6.14806ZM 12.0845 0.436978C 12.3259 0.302772 12.4127 -0.00166574 12.2785 -0.243002C 12.1443 -0.484339 11.8399 -0.571185 11.5985 -0.436978L 12.0845 0.436978ZM 0.243001 7.02201L 12.0845 0.436978L 11.5985 -0.436978L -0.243003 6.14806L 0.243001 7.02201Z"/>
<path id="path8_fill" d="M 0.447174 24.3197C -0.558968 23.7211 0.447174 26.4898 0.447174 21.102C 0.447174 18.932 0.447174 16.8367 0.447174 16.8367L 0.447174 15.7891L 27.5356 -1.42727e-07L 31.328 2.09524L 4.23956 17.8844C 4.23956 21.2517 4.23956 26.0408 4.23956 26.4898L 2.45946 25.3673L 0.447174 24.3197Z"/>
<path id="path9_stroke" d="M 0.988037 0.561149L 0.0872574 -1.22454L 0.0789857 -1.22032L 0.988037 0.561149ZM 7.85221 4.23584C 7.69578 2.799 7.33281 0.804031 6.15133 -0.54871C 5.55388 -1.19362 4.4266 -1.8319 3.40233 -1.97895C 2.29788 -2.0866 1.17902 -1.77525 0.0872671 -1.22452L 1.88881 2.34682C 2.57715 1.99959 2.91914 1.99291 3.01431 2.00218C 3.04837 2.0055 3.06581 1.9992 3.13863 2.08257C 3.42766 2.4135 3.72256 3.26207 3.87571 4.66877L 7.85221 4.23584ZM 0.0789857 -1.22032C -0.993167 -0.673219 -2.01156 0.32887 -1.99991 1.84281C -1.99003 3.12511 -1.21371 4.11399 -0.585959 4.72093C 0.741491 6.00438 2.89052 7.02311 4.90206 7.4553L 5.74231 3.54455C 4.27105 3.22844 2.85989 2.48867 2.1944 1.84524C 1.82569 1.48875 1.99736 1.4721 1.99997 1.81201C 2.00437 2.38356 1.57612 2.5064 1.89709 2.34262L 0.0789857 -1.22032Z"/>
<path id="path10_stroke" d="M 6.26904 3.29309L 7.39647 4.94504L 7.40151 4.94158L 6.26904 3.29309ZM 1.05171 2.15896C 2.28281 1.83434 3.97729 2.03817 4.95524 2.4843C 5.53259 2.74768 5.30145 2.82932 5.17499 2.39917C 4.93987 1.5994 5.60521 1.32267 5.13658 1.6446L 7.40151 4.94158C 8.40339 4.25332 9.51376 2.97574 9.01259 1.27098C 8.62009 -0.0641396 7.41182 -0.791596 6.6154 -1.15491C 4.84581 -1.96218 2.20613 -2.28217 0.0318266 -1.70883L 1.05171 2.15896ZM 5.14162 1.64115C 4.30923 2.20924 3.86354 2.12321 3.53902 1.98539C 3.02882 1.76871 2.38607 1.19278 1.63797 0.125051L -1.63797 2.42032C -0.760762 3.67232 0.415285 5.00455 1.97542 5.66712C 3.72123 6.40855 5.59741 6.17286 7.39647 4.94504L 5.14162 1.64115Z"/>
<path id="path11_fill" d="M 15.6339 1.04762L 2.95241e-07 1.42727e-07L 2.08968 2.09524L 0.386978 4.11565L 13.5442 2.39456"/>
<path id="path12_fill" d="M 2.01228 1.72109L 5.90481e-07 9.80272L 3.01843 8.38095L 5.95946 10.2517L 4.72113 2.85454e-07L 2.01228 1.72109Z"/>
</defs>
</svg>
