<svg width="62" height="55" viewBox="0 0 62 55" version="1.1" xmlns="http://www.w3.org/2000/svg" xmlns:xlink="http://www.w3.org/1999/xlink" xmlns:figma="http://www.figma.com/figma/ns">
<title>icon product_2</title>
<desc>Created using Figma</desc>
<g id="Canvas" transform="translate(-18816 -809)" figma:type="canvas">
<g id="icon product_2" style="mix-blend-mode:normal;" figma:type="frame">
<g id="XMLID 2" style="mix-blend-mode:normal;" figma:type="frame">
<g id="Group" style="mix-blend-mode:normal;" figma:type="frame">
<g id="Vector" style="mix-blend-mode:normal;" figma:type="vector">
<use xlink:href="#path0_fill" transform="translate(18828.3 834.132)" fill="#E2112E" style="mix-blend-mode:normal;"/>
</g>
<g id="Vector" style="mix-blend-mode:normal;" figma:type="vector">
<use xlink:href="#path1_fill" transform="translate(18831.8 834.282)" fill="#E2112E" style="mix-blend-mode:normal;"/>
</g>
</g>
<g id="Group" style="mix-blend-mode:normal;" figma:type="frame">
<g id="Vector" style="mix-blend-mode:normal;" figma:type="vector">
<use xlink:href="#path2_stroke" transform="translate(18817 810)" fill="#E2112E" style="mix-blend-mode:normal;"/>
</g>
<g id="Vector" style="mix-blend-mode:normal;" figma:type="vector">
<use xlink:href="#path3_stroke" transform="translate(18828.3 834.207)" fill="#E2112E" style="mix-blend-mode:normal;"/>
</g>
<g id="Vector" style="mix-blend-mode:normal;" figma:type="vector">
<use xlink:href="#path4_stroke" transform="translate(18828.9 855.482)" fill="#E2112E" style="mix-blend-mode:normal;"/>
</g>
<g id="Vector" style="mix-blend-mode:normal;" figma:type="vector">
<use xlink:href="#path5_stroke" transform="translate(18831.8 827.584)" fill="#E2112E" style="mix-blend-mode:normal;"/>
</g>
</g>
</g>
</g>
</g>
<defs>
<path id="path0_fill" d="M 3.55995 2.10497L 3.55995 11.0511C 1.33498 9.84823 5.65839e-07 8.79574 5.65839e-07 8.79574L 5.65839e-07 -1.14711e-06L 3.55995 2.10497Z"/>
<path id="path1_fill" d="M 33.8195 -5.73557e-07L 33.9679 8.72057C 33.9679 8.72057 25.068 15.3362 15.204 15.3362C 9.19654 15.3362 3.48578 12.8553 0 10.9759L 0 1.95461L 15.204 10.8255L 33.8195 -5.73557e-07Z"/>
<path id="path2_stroke" d="M 14.8331 26.2369L 15.3371 25.3731L 15.3343 25.3716L 14.8331 26.2369ZM 30.0371 35.1078L 29.5331 35.9715C 29.8441 36.153 30.2286 36.1532 30.5398 35.9723L 30.0371 35.1078ZM 48.6527 24.2823L 49.1554 25.1467L 49.1606 25.1437L 48.6527 24.2823ZM 60 17.5915L 60.5079 18.4529C 60.8131 18.2729 61.0003 17.9449 61 17.5905C 60.9997 17.2362 60.8119 16.9085 60.5063 16.7291L 60 17.5915ZM 30.0371 0L 30.5434 -0.862359C 30.2311 -1.04569 29.8442 -1.04589 29.5317 -0.862904L 30.0371 0ZM 0 17.5915L -0.505368 16.7286C -0.811929 16.9081 -1.00022 17.2368 -1 17.5921C -0.999783 17.9474 -0.811092 18.2758 -0.504312 18.455L 0 17.5915ZM 11.199 24.1319L 10.6947 24.9954L 10.6978 24.9972L 11.199 24.1319ZM 14.3292 27.1006L 29.5331 35.9715L 30.541 34.2441L 15.3371 25.3731L 14.3292 27.1006ZM 30.5398 35.9723L 49.1554 25.1467L 48.1499 23.4178L 29.5344 34.2433L 30.5398 35.9723ZM 49.1606 25.1437L 60.5079 18.4529L 59.4921 16.7301L 48.1447 23.4209L 49.1606 25.1437ZM 60.5063 16.7291L 30.5434 -0.862359L 29.5308 0.862359L 59.4937 18.4538L 60.5063 16.7291ZM 29.5317 -0.862904L -0.505368 16.7286L 0.505368 18.4544L 30.5424 0.862904L 29.5317 -0.862904ZM -0.504312 18.455L 10.6947 24.9954L 11.7033 23.2684L 0.504312 16.728L -0.504312 18.455ZM 10.6978 24.9972L 14.3319 27.1022L 15.3343 25.3716L 11.7002 23.2666L 10.6978 24.9972Z"/>
<path id="path3_stroke" d="M 38.3793 0.0581694C 38.3699 -0.494035 37.9147 -0.934071 37.3625 -0.924679C 36.8103 -0.915286 36.3702 -0.460021 36.3796 0.092184L 38.3793 0.0581694ZM 37.5278 8.79575L 38.1244 9.59831C 38.383 9.40606 38.5331 9.10095 38.5277 8.77874L 37.5278 8.79575ZM 3.55995 11.0511L 3.08439 11.9307L 3.08537 11.9313L 3.55995 11.0511ZM 5.65839e-07 8.79575L -0.999999 8.79575C -0.999999 9.10203 -0.85964 9.39142 -0.619118 9.58104L 5.65839e-07 8.79575ZM 1 5.73557e-07C 1 -0.552284 0.552285 -0.999999 5.65839e-07 -0.999999C -0.552284 -0.999999 -0.999999 -0.552284 -0.999999 5.73557e-07L 1 5.73557e-07ZM 36.3796 0.092184L 36.528 8.81275L 38.5277 8.77874L 38.3793 0.0581694L 36.3796 0.092184ZM 37.5278 8.79575C 36.9312 7.99319 36.9314 7.99306 36.9316 7.99295C 36.9316 7.99295 36.9317 7.99287 36.9317 7.99287C 36.9318 7.99277 36.9315 7.99296 36.9313 7.99315C 36.9305 7.99374 36.9297 7.99432 36.9281 7.99549C 36.9244 7.99825 36.9196 8.00173 36.9122 8.00714C 36.8963 8.01881 36.8742 8.0348 36.8428 8.0573C 36.7777 8.10398 36.685 8.16964 36.5589 8.25647C 36.3018 8.43357 35.9335 8.68016 35.4516 8.98236C 34.4773 9.59386 33.1062 10.3927 31.4134 11.2014C 28.0044 12.8335 23.5272 14.4257 18.7639 14.4113L 18.7639 16.4113C 23.8646 16.397 28.7694 14.6814 32.2763 13.0057C 34.0415 12.1605 35.5119 11.3054 36.5146 10.6765C 37.0212 10.3585 37.4252 10.0882 37.6934 9.90355C 37.8299 9.80949 37.938 9.73301 38.0081 9.68279C 38.0443 9.65683 38.0734 9.63567 38.0917 9.6223C 38.1015 9.6152 38.1096 9.60919 38.1145 9.60559C 38.1173 9.60359 38.1197 9.60176 38.1211 9.60075C 38.1219 9.60014 38.1227 9.59953 38.1231 9.59923C 38.1234 9.59902 38.1237 9.59879 38.1239 9.59869C 38.1241 9.59849 38.1244 9.59831 37.5278 8.79575ZM 18.7639 14.4113C 12.96 14.4323 7.48264 12.031 4.03453 10.1709L 3.08537 11.9313C 6.60883 13.83 12.553 16.3904 18.7639 16.4113L 18.7639 14.4113ZM 4.03551 10.1714C 2.95313 9.58692 2.10508 9.04907 1.50552 8.64379C 1.21063 8.44462 0.99023 8.28683 0.835343 8.17304C 0.760164 8.11784 0.706377 8.07733 0.667814 8.04793C 0.649619 8.03407 0.637509 8.02473 0.628279 8.01758C 0.624196 8.01441 0.621921 8.01264 0.619861 8.01103C 0.619093 8.01043 0.618912 8.01028 0.618525 8.00998C 0.618463 8.00993 0.618549 8.01 0.61858 8.01002C 0.618531 8.00998 0.618814 8.01021 0.618789 8.01019C 0.618834 8.01022 0.618917 8.01029 0.618939 8.01031C 0.619027 8.01038 0.619119 8.01045 5.65839e-07 8.79575C -0.619118 9.58104 -0.619015 9.58112 -0.618907 9.58121C -0.618865 9.58124 -0.618752 9.58133 -0.618666 9.5814C -0.61856 9.58148 -0.618303 9.58169 -0.618091 9.58185C -0.617797 9.58208 -0.617159 9.58258 -0.616572 9.58305C -0.615658 9.58376 -0.613891 9.58515 -0.612064 9.58658C -0.608938 9.58902 -0.603444 9.5933 -0.597206 9.59814C -0.585795 9.60699 -0.567051 9.62144 -0.544397 9.6387C -0.501261 9.67157 -0.433371 9.72267 -0.34863 9.78494C -0.183678 9.90608 0.0687259 10.0866 0.385706 10.3009C 1.00988 10.7226 1.9418 11.3124 3.08439 11.9307L 4.03551 10.1714ZM 1 8.79575L 1 5.73557e-07L -0.999999 5.73557e-07L -0.999999 8.79575L 1 8.79575Z"/>
<path id="path4_stroke" d="M 2.96663 0L 3.8528 -0.463352C 3.67147 -0.810157 3.30449 -1.01931 2.91369 -0.998598C 2.52289 -0.977882 2.18009 -0.731102 2.03643 -0.36707L 2.96663 0ZM 0 7.51773L -0.930193 7.15066C -1.05169 7.45856 -1.01297 7.80662 -0.826762 8.08028C -0.640556 8.35394 -0.331001 8.51773 2.06544e-16 8.51773L 0 7.51773ZM 6.8974 7.51773L 6.8974 8.51773C 7.24721 8.51773 7.57159 8.33495 7.75278 8.03573C 7.93398 7.73651 7.94566 7.36437 7.78358 7.05438L 6.8974 7.51773ZM 2.03643 -0.36707L -0.930193 7.15066L 0.930193 7.8848L 3.89682 0.36707L 2.03643 -0.36707ZM 0 8.51773L 6.8974 8.51773L 6.8974 6.51773L 0 6.51773L 0 8.51773ZM 7.78358 7.05438L 3.8528 -0.463352L 2.08045 0.463352L 6.01123 7.98108L 7.78358 7.05438Z"/>
<path id="path5_stroke" d="M 14.7027 0.872798C 15.1806 1.14961 15.7925 0.986595 16.0693 0.508691C 16.3461 0.0307862 16.1831 -0.581034 15.7052 -0.857847L 14.7027 0.872798ZM 0 8.57769L -0.517067 7.72174C -0.816813 7.90282 -1 8.2275 -1 8.57769L 0 8.57769ZM -1 27.8983C -1 28.4505 -0.552285 28.8983 0 28.8983C 0.552285 28.8983 1 28.4505 1 27.8983L -1 27.8983ZM 15.7052 -0.857847C 15.4865 -0.984495 15.2795 -0.998025 15.1887 -0.999784C 15.1128 -0.999394 14.9938 -0.98819 14.9326 -0.977676C 14.8399 -0.95921 14.7074 -0.921367 14.6122 -0.887888C 14.4449 -0.827716 14.2143 -0.728273 13.9734 -0.61431C 13.5047 -0.392032 12.8636 -0.0573173 12.1311 0.341461C 10.6717 1.13616 8.77458 2.22416 6.90329 3.31611C 5.03198 4.4081 3.17581 5.51014 1.78991 6.33774C 1.09663 6.75173 0.519733 7.09783 0.116807 7.34003C -0.0848088 7.46122 -0.243308 7.55667 -0.351149 7.62166C -0.405141 7.65421 -0.446628 7.67923 -0.474502 7.69605C -0.488475 7.70448 -0.499118 7.71091 -0.506213 7.71519C -0.509778 7.71734 -0.512492 7.71898 -0.514288 7.72007C -0.515195 7.72061 -0.51589 7.72103 -0.516345 7.72131C -0.516577 7.72145 -0.516757 7.72156 -0.516873 7.72163C -0.516998 7.7217 -0.517067 7.72174 0 8.57769C 0.517067 9.43363 0.51711 9.43361 0.517209 9.43355C 0.517317 9.43348 0.517471 9.43339 0.517686 9.43326C 0.518124 9.43299 0.518767 9.43261 0.519639 9.43208C 0.5214 9.43102 0.524009 9.42944 0.527504 9.42733C 0.534529 9.42309 0.544957 9.41679 0.558785 9.40845C 0.586512 9.39172 0.627548 9.36697 0.681237 9.33461C 0.788759 9.26981 0.94626 9.17496 1.1472 9.05418C 1.54937 8.81242 2.12378 8.46783 2.81531 8.05487C 4.19903 7.22857 6.04651 6.13168 7.91129 5.04352C 9.7761 3.95533 11.6475 2.88198 13.0875 2.09796C 13.8048 1.70737 14.396 1.39838 14.8298 1.19309C 15.0401 1.09327 15.1783 1.03296 15.2831 0.996224C 15.3239 0.981249 15.2901 0.991418 15.2968 0.988883C 15.2807 0.99185 15.2267 1.00133 15.15 0.999841C 15.089 0.99866 14.9052 0.990049 14.7027 0.872798L 15.7052 -0.857847ZM -1 8.57769L -1 8.65287L 1 8.65287L 1 8.57769L -1 8.57769ZM -1 8.65287L -1 17.599L 1 17.599L 1 8.65287L -1 8.65287ZM -1 17.599L -1 27.8983L 1 27.8983L 1 17.599L -1 17.599Z"/>
</defs>
</svg>
