<?xml version="1.0" encoding="utf-8"?>
<!-- Generator: Adobe Illustrator 19.0.0, SVG Export Plug-In . SVG Version: 6.00 Build 0)  -->
<svg version="1.1" id="Layer_1" xmlns="http://www.w3.org/2000/svg" xmlns:xlink="http://www.w3.org/1999/xlink" x="0px" y="0px"
	 viewBox="474 274.1 11 11.8" style="enable-background:new 474 274.1 11 11.8;" xml:space="preserve">
<style type="text/css">
	.st0{fill:#A9B7D3;}
</style>
<path class="st0" d="M474.8,285.1h9.3v-6.8h-9.3V285.1z M477.4,277v-1.9c0-0.1,0-0.1-0.1-0.2c0,0-0.1-0.1-0.2-0.1h-0.4
	c-0.1,0-0.1,0-0.2,0.1c0,0-0.1,0.1-0.1,0.2v1.9c0,0.1,0,0.1,0.1,0.2s0.1,0.1,0.2,0.1h0.4c0.1,0,0.1,0,0.2-0.1
	C477.4,277.2,477.4,277.1,477.4,277z M482.5,277v-1.9c0-0.1,0-0.1-0.1-0.2c0,0-0.1-0.1-0.2-0.1h-0.4c-0.1,0-0.1,0-0.2,0.1
	c0,0-0.1,0.1-0.1,0.2v1.9c0,0.1,0,0.1,0.1,0.2c0,0,0.1,0.1,0.2,0.1h0.4c0.1,0,0.1,0,0.2-0.1S482.5,277.1,482.5,277z M485,276.6v8.5
	c0,0.2-0.1,0.4-0.3,0.6c-0.2,0.2-0.4,0.3-0.6,0.3h-9.3c-0.2,0-0.4-0.1-0.6-0.3c-0.2-0.2-0.3-0.4-0.3-0.6v-8.5c0-0.2,0.1-0.4,0.3-0.6
	c0.2-0.2,0.4-0.3,0.6-0.3h0.8v-0.6c0-0.3,0.1-0.5,0.3-0.7c0.2-0.2,0.5-0.3,0.7-0.3h0.4c0.3,0,0.5,0.1,0.7,0.3s0.3,0.5,0.3,0.7v0.6
	h2.5v-0.6c0-0.3,0.1-0.5,0.3-0.7s0.5-0.3,0.7-0.3h0.4c0.3,0,0.5,0.1,0.7,0.3c0.2,0.2,0.3,0.5,0.3,0.7v0.6h0.8c0.2,0,0.4,0.1,0.6,0.3
	C484.9,276.2,485,276.4,485,276.6z"/>
</svg>
