<?xml version="1.0" encoding="utf-8"?>
<!-- Generator: Adobe Illustrator 19.0.0, SVG Export Plug-In . SVG Version: 6.00 Build 0)  -->
<svg version="1.1" id="Layer_1" xmlns="http://www.w3.org/2000/svg" xmlns:xlink="http://www.w3.org/1999/xlink" x="0px" y="0px"
	 viewBox="450 254.2 60 52" style="enable-background:new 450 254.2 60 52;" xml:space="preserve">
<style type="text/css">
	.st0{fill:#EFF7FF;}
</style>
<path class="st0" d="M505.7,271.6c1.2,0,2.2,0.4,3,1.3c0.8,0.8,1.3,1.8,1.3,3s-0.4,2.2-1.3,3c-0.8,0.8-1.8,1.3-3,1.3V293
	c0,1.2-0.4,2.2-1.3,3c-0.8,0.8-1.9,1.3-3,1.3c-9.3-7.7-18.4-12-27.2-12.7c-1.3,0.4-2.3,1.2-3,2.2c-0.7,1-1.1,2.2-1,3.4
	c0,1.2,0.5,2.2,1.3,3.1c-0.4,0.7-0.7,1.5-0.8,2.2c-0.1,0.7,0,1.4,0.2,1.9c0.2,0.6,0.6,1.2,1.1,1.8s1.1,1.2,1.6,1.7
	c0.5,0.5,1.2,1,2.1,1.7c-0.6,1.3-1.9,2.2-3.7,2.8c-1.8,0.6-3.7,0.7-5.6,0.4s-3.4-0.9-4.4-1.9c-0.2-0.5-0.5-1.5-1-2.9
	c-0.5-1.4-0.9-2.5-1.1-3.2c-0.2-0.7-0.5-1.7-0.8-3c-0.3-1.3-0.5-2.4-0.5-3.4s0-2,0.1-3.3c0.1-1.3,0.4-2.5,0.7-3.7h-4.1
	c-1.5,0-2.7-0.5-3.8-1.6s-1.6-2.3-1.6-3.8v-6.4c0-1.5,0.5-2.7,1.6-3.8s2.3-1.6,3.8-1.6h16.1c9.7,0,19.7-4.3,30-12.9
	c1.2,0,2.2,0.4,3,1.3c0.8,0.8,1.3,1.9,1.3,3V271.6z M501.4,291.8v-31.9c-8.8,6.7-17.4,10.6-25.7,11.5v9
	C484.1,281.3,492.7,285.1,501.4,291.8z"/>
</svg>
