<?xml version="1.0" encoding="utf-8"?>
<!-- Generator: Adobe Illustrator 19.0.0, SVG Export Plug-In . SVG Version: 6.00 Build 0)  -->
<svg version="1.1" id="Layer_1" xmlns="http://www.w3.org/2000/svg" xmlns:xlink="http://www.w3.org/1999/xlink" x="0px" y="0px"
	 viewBox="0 0 13 9" style="enable-background:new 0 0 13 9;" xml:space="preserve">
<style type="text/css">
	.st0{fill:#8494B3;}
</style>
<g id="XMLID_449_">
	<g id="XMLID_515_">
		<path id="XMLID_516_" class="st0" d="M6.5,2.1c-1.3,0-2.4,1.1-2.4,2.5C4.1,5.9,5.2,7,6.5,7S9,5.9,9,4.5C9,3.2,7.9,2.1,6.5,2.1z
			 M6.5,6.2c-0.9,0-1.6-0.8-1.6-1.7c0-0.9,0.7-1.6,1.6-1.6c0.9,0,1.6,0.7,1.6,1.6C8.1,5.4,7.4,6.2,6.5,6.2z M13,4.4
			C13,4.4,13,4.4,13,4.4C13,4.3,13,4.3,13,4.4c0-0.1,0-0.1,0-0.1C11.8,1.6,9.2,0,6.5,0C3.8,0,1.2,1.6,0,4.3c0,0,0,0,0,0c0,0,0,0,0,0
			c0,0,0,0,0,0.1c0,0,0,0.1,0,0.1c0,0,0,0.1,0,0.1c0,0,0,0,0,0.1c0,0,0,0,0,0c0,0,0,0,0,0C1.2,7.5,3.8,9,6.5,9
			c2.7,0,5.3-1.5,6.5-4.3c0,0,0,0,0,0c0,0,0,0,0,0c0,0,0,0,0-0.1c0,0,0-0.1,0-0.1C13,4.5,13,4.4,13,4.4z M6.5,8.2
			C4.2,8.2,1.9,7,0.8,4.5c1.1-2.4,3.4-3.7,5.7-3.7c2.3,0,4.5,1.3,5.6,3.7C11.1,7,8.8,8.2,6.5,8.2z"/>
	</g>
</g>
</svg>
