<?xml version="1.0" encoding="utf-8"?>
<!-- Generator: Adobe Illustrator 19.0.0, SVG Export Plug-In . SVG Version: 6.00 Build 0)  -->
<svg version="1.1" id="Layer_1" xmlns="http://www.w3.org/2000/svg" xmlns:xlink="http://www.w3.org/1999/xlink" x="0px" y="0px"
	 viewBox="0 0 27 17" style="enable-background:new 0 0 27 17;" xml:space="preserve">
<style type="text/css">
	.st0{fill:#FFFFFF;}
</style>
<g>
	<g>
		<path class="st0" d="M8.5,6.8v3.4c0,0,3.3,0,4.6,0c-0.7,2.2-1.8,3.4-4.6,3.4c-2.8,0-5-2.3-5-5c0-2.8,2.2-5,5-5
			c1.5,0,2.4,0.5,3.3,1.2c0.7-0.7,0.6-0.8,2.4-2.5C12.7,0.8,10.7,0,8.5,0C3.8,0,0,3.8,0,8.5C0,13.2,3.8,17,8.5,17
			c7,0,8.7-6.1,8.2-10.2C15,6.8,8.5,6.8,8.5,6.8z M24,7V4h-2.1v3h-3.1v2.1h3.1v3.1H24V9.1h3V7H24z"/>
	</g>
</g>
</svg>
