<?xml version="1.0" encoding="utf-8"?>
<!-- Generator: Adobe Illustrator 19.0.0, SVG Export Plug-In . SVG Version: 6.00 Build 0)  -->
<svg version="1.1" id="Layer_1" xmlns="http://www.w3.org/2000/svg" xmlns:xlink="http://www.w3.org/1999/xlink" x="0px" y="0px"
	 viewBox="466 250 25 19" style="enable-background:new 466 250 25 19;" xml:space="preserve">
<style type="text/css">
	.st0{fill:#76A4D7;}
</style>
<path class="st0" d="M478.5,264.3l1.6-1.6l-2.1-2.1l-1.6,1.6v0.8h1.3v1.3H478.5z M484.4,254.5c-0.1-0.1-0.3-0.1-0.4,0l-4.7,4.7
	c-0.2,0.2-0.2,0.3,0,0.4c0.1,0.1,0.3,0.1,0.4,0l4.7-4.7C484.6,254.8,484.6,254.7,484.4,254.5z M485.5,262.5v2.6c0,1.1-0.4,2-1.1,2.7
	c-0.8,0.8-1.7,1.1-2.7,1.1h-11.2c-1.1,0-2-0.4-2.7-1.1c-0.8-0.8-1.1-1.7-1.1-2.7v-11.2c0-1.1,0.4-2,1.1-2.7c0.8-0.8,1.7-1.1,2.7-1.1
	h11.2c0.6,0,1.1,0.1,1.6,0.3c0.1,0.1,0.2,0.2,0.2,0.3c0,0.2,0,0.3-0.1,0.4l-0.7,0.7c-0.1,0.1-0.3,0.2-0.4,0.1
	c-0.2-0.1-0.4-0.1-0.6-0.1h-11.2c-0.6,0-1.1,0.2-1.5,0.6s-0.6,0.9-0.6,1.5v11.2c0,0.6,0.2,1.1,0.6,1.5s0.9,0.6,1.5,0.6h11.2
	c0.6,0,1.1-0.2,1.5-0.6s0.6-0.9,0.6-1.5v-1.7c0-0.1,0-0.2,0.1-0.3l0.9-0.9c0.1-0.1,0.3-0.2,0.5-0.1
	C485.4,262.2,485.5,262.4,485.5,262.5z M484.2,252.6l3.9,3.9l-9.1,9.1h-3.9v-3.9L484.2,252.6z M490.2,254.4l-1.2,1.2l-3.9-3.9
	l1.2-1.2c0.3-0.3,0.6-0.4,0.9-0.4c0.4,0,0.7,0.1,0.9,0.4l2.1,2.1c0.3,0.3,0.4,0.6,0.4,0.9S490.4,254.1,490.2,254.4z"/>
</svg>
