<?xml version="1.0" encoding="utf-8"?>
<!-- Generator: Adobe Illustrator 19.0.0, SVG Export Plug-In . SVG Version: 6.00 Build 0)  -->
<svg version="1.1" id="Layer_1" xmlns="http://www.w3.org/2000/svg" xmlns:xlink="http://www.w3.org/1999/xlink" x="0px" y="0px"
	 viewBox="0 0 21 11" style="enable-background:new 0 0 21 11;" xml:space="preserve">
<style type="text/css">
	.st0{fill:#414042;}
</style>
<path class="st0" d="M20.5,6.7l-1.5-2.6c-0.1-0.1-0.3-0.2-0.4-0.2H9.2C8.6,1.9,6.9,0.5,5,0.5c-2.5,0-4.5,2.2-4.5,5c0,2.8,2,5,4.5,5
	c2,0,3.7-1.4,4.2-3.4h3.4c0.1,0,0.4,0.1,0.5,0.2l1.8,1.9c0.1,0.1,0.3,0.1,0.4,0l1.3-1.3c0.1-0.1,0.3-0.1,0.4,0l1.3,1.3
	c0.1,0.1,0.3,0.1,0.4,0l1.8-2C20.5,7.1,20.5,6.9,20.5,6.7L20.5,6.7z M5,7C4.2,7,3.6,6.3,3.6,5.5C3.6,4.7,4.2,4,5,4
	c0.8,0,1.4,0.7,1.4,1.5C6.3,6.3,5.7,7,5,7L5,7z"/>
</svg>
