<?xml version="1.0" encoding="utf-8"?>
<!-- Generator: Adobe Illustrator 19.0.0, SVG Export Plug-In . SVG Version: 6.00 Build 0)  -->
<svg version="1.1" id="Layer_1" xmlns="http://www.w3.org/2000/svg" xmlns:xlink="http://www.w3.org/1999/xlink" x="0px" y="0px"
	 viewBox="0 0 24 24" style="enable-background:new 0 0 24 24;" xml:space="preserve">
<style type="text/css">
	.st0{fill-rule:evenodd;clip-rule:evenodd;fill:#FFA930;}
</style>
<path class="st0" d="M11.6,5.3c1.8,0,3.6,0.8,4.8,2.1v0c0-0.6,0.4-1.1,1-1.1l0.1,0c0.9,0,1.1,0.8,1.1,1.1l0,9.5
	c-0.1,0.6,0.6,0.9,1,0.5c1.5-1.6,3.3-8-0.9-11.8c-4-3.5-9.4-2.9-12.2-1c-3,2.1-5,6.7-3.1,11.1c2.1,4.7,7.9,6.2,11.4,4.7
	c1.8-0.7,2.6,1.7,0.7,2.5C12.8,24.1,5.1,24,1.5,17.7C-1,13.5-0.8,6.1,5.6,2.2c4.9-2.9,11.5-2.1,15.4,2c4.1,4.3,3.9,12.3-0.1,15.5
	c-1.8,1.4-4.5,0-4.5-2l0-0.7c-1.3,1.3-2.9,2-4.8,2c-3.6,0-6.8-3.2-6.8-6.8C4.8,8.5,8,5.3,11.6,5.3L11.6,5.3L11.6,5.3L11.6,5.3z
	 M16.1,11.9C16,9.2,14,7.6,11.7,7.6h-0.1c-2.7,0-4.3,2.2-4.3,4.6c0,2.7,1.8,4.5,4.3,4.5c2.7,0,4.5-2,4.6-4.3L16.1,11.9z"/>
</svg>
