<?xml version="1.0" encoding="utf-8"?>
<!-- Generator: Adobe Illustrator 19.0.0, SVG Export Plug-In . SVG Version: 6.00 Build 0)  -->
<svg version="1.1" id="Layer_1" xmlns="http://www.w3.org/2000/svg" xmlns:xlink="http://www.w3.org/1999/xlink" x="0px" y="0px"
	 viewBox="0 0 40 40" style="enable-background:new 0 0 40 40;" xml:space="preserve">
<style type="text/css">
	.st0{fill-rule:evenodd;clip-rule:evenodd;fill:#FFFFFF;}
	.st1{fill-rule:evenodd;clip-rule:evenodd;fill:#FCB655;}
</style>
<path id="XMLID_438_" class="st0" d="M20,40C9,40,0,31,0,20S9,0,20,0s20,9,20,20S31,40,20,40z"/>
<path id="XMLID_445_" class="st1" d="M20,5C11.7,5,5,11.7,5,20s6.7,15,15,15s15-6.7,15-15S28.3,5,20,5z M27.5,24.5c0,1.1-0.9,2-2,2
	h-11c-1.1,0-2-0.9-2-2v-7c0-1.1,0.9-2,2-2h1.8l0.4-1.1c0.2-0.5,0.8-0.9,1.4-0.9h4c0.5,0,1.2,0.4,1.4,0.9l0.4,1.1h1.8
	c1.1,0,2,0.9,2,2V24.5z"/>
<path id="XMLID_448_" class="st1" d="M20,17.5c-1.9,0-3.5,1.6-3.5,3.5s1.6,3.5,3.5,3.5s3.5-1.6,3.5-3.5S21.9,17.5,20,17.5z M20,23.3
	c-1.2,0-2.3-1-2.3-2.3s1-2.3,2.3-2.3s2.3,1,2.3,2.3S21.2,23.3,20,23.3z"/>
</svg>
