<?xml version="1.0" encoding="utf-8"?>
<!-- Generator: Adobe Illustrator 19.0.0, SVG Export Plug-In . SVG Version: 6.00 Build 0)  -->
<svg version="1.1" id="Layer_1" xmlns="http://www.w3.org/2000/svg" xmlns:xlink="http://www.w3.org/1999/xlink" x="0px" y="0px"
	 viewBox="0 0 11 12" style="enable-background:new 0 0 11 12;" xml:space="preserve">
<style type="text/css">
	.st0{fill:#B8B8B8;}
</style>
<g id="XMLID_314_">
	<path id="XMLID_315_" class="st0" d="M11,2.8C11,2.9,10.9,3,10.8,3H10v7.4c0,0.9-0.6,1.6-1.3,1.6H2.3C1.6,12,1,11.3,1,10.4V3H0.3
		C0.1,3,0,2.9,0,2.8V2.3C0,2.1,0.1,2,0.3,2h2.4l0.5-1.3C3.4,0.3,3.8,0,4.3,0h2.5c0.4,0,0.9,0.3,1,0.7L8.3,2h2.4
		C10.9,2,11,2.1,11,2.3V2.8z M9,3H2v7.4C2,10.8,2.2,11,2.3,11h6.5c0,0,0.3-0.2,0.3-0.6V3z M4,9.3c0,0.1-0.1,0.3-0.3,0.3H3.3
		C3.1,9.5,3,9.4,3,9.3V4.8c0-0.1,0.1-0.3,0.3-0.3h0.5C3.9,4.5,4,4.6,4,4.8V9.3z M7.3,2L6.9,1.1c0,0-0.1-0.1-0.1-0.1H4.3
		c0,0-0.1,0.1-0.1,0.1L3.8,2H7.3z M6,9.3c0,0.1-0.1,0.3-0.3,0.3H5.3C5.1,9.5,5,9.4,5,9.3V4.8c0-0.1,0.1-0.3,0.3-0.3h0.5
		C5.9,4.5,6,4.6,6,4.8V9.3z M8,9.3c0,0.1-0.1,0.3-0.3,0.3H7.3C7.1,9.5,7,9.4,7,9.3V4.8c0-0.1,0.1-0.3,0.3-0.3h0.5
		C7.9,4.5,8,4.6,8,4.8V9.3z"/>
</g>
</svg>
