<?xml version="1.0" encoding="utf-8"?>
<!-- Generator: Adobe Illustrator 19.0.0, SVG Export Plug-In . SVG Version: 6.00 Build 0)  -->
<svg version="1.1" id="Layer_1" xmlns="http://www.w3.org/2000/svg" xmlns:xlink="http://www.w3.org/1999/xlink" x="0px" y="0px"
	 viewBox="466 250 28 20" style="enable-background:new 466 250 28 20;" xml:space="preserve">
<style type="text/css">
	.st0{fill:#76A4D7;}
</style>
<path class="st0" d="M480,255.6h-5.3v5.3h5.3V255.6z M481.8,264.4v1.8H473v-1.8H481.8z M481.8,253.9v8.8H473v-8.8H481.8z
	 M490.5,264.4v1.8h-7v-1.8H490.5z M490.5,260.9v1.8h-7v-1.8H490.5z M490.5,257.4v1.8h-7v-1.8H490.5z M490.5,253.9v1.8h-7v-1.8H490.5
	z M469.5,267v-13.1h-1.8V267c0,0.2,0.1,0.4,0.3,0.6s0.4,0.3,0.6,0.3s0.4-0.1,0.6-0.3S469.5,267.2,469.5,267z M492.3,267v-14.9h-21
	V267c0,0.3-0.1,0.6-0.2,0.9h20.3c0.2,0,0.4-0.1,0.6-0.3S492.3,267.2,492.3,267z M494,250.4V267c0,0.7-0.3,1.3-0.8,1.9
	s-1.1,0.8-1.9,0.8h-22.8c-0.7,0-1.3-0.3-1.9-0.8s-0.8-1.1-0.8-1.9v-14.9h3.5v-1.8H494z"/>
</svg>
