<?xml version="1.0" encoding="utf-8"?>
<!-- Generator: Adobe Illustrator 19.0.0, SVG Export Plug-In . SVG Version: 6.00 Build 0)  -->
<svg version="1.1" id="Layer_1" xmlns="http://www.w3.org/2000/svg" xmlns:xlink="http://www.w3.org/1999/xlink" x="0px" y="0px"
	 viewBox="0 0 19 19" style="enable-background:new 0 0 19 19;" xml:space="preserve">
<style type="text/css">
	.st0{fill:#76A4D7;}
</style>
<g id="XMLID_379_">
	<path id="XMLID_380_" class="st0" d="M18.7,18.7c-0.2,0.2-0.4,0.3-0.6,0.3h-1.9c-0.5,0-0.8-0.3-0.9-0.8c-0.4-7.8-6.6-14-14.4-14.4
		c-0.5,0-0.8-0.4-0.8-0.8V0.9c0-0.2,0.1-0.5,0.3-0.6c0.2-0.2,0.4-0.2,0.6-0.2c0,0,0,0,0,0c4.7,0.2,9.1,2.2,12.4,5.5
		c3.3,3.3,5.3,7.7,5.5,12.4C18.9,18.3,18.9,18.5,18.7,18.7z M11.8,18.7c-0.2,0.2-0.4,0.3-0.6,0.3H9.4c-0.4,0-0.8-0.3-0.8-0.8
		c-0.4-4.1-3.6-7.3-7.7-7.7c-0.4,0-0.8-0.4-0.8-0.8V7.8c0-0.2,0.1-0.5,0.3-0.6C0.5,7,0.7,6.9,0.9,6.9c0,0,0,0,0.1,0
		c2.9,0.2,5.5,1.5,7.6,3.5c2,2,3.3,4.7,3.5,7.6C12.1,18.2,12,18.5,11.8,18.7z M2.6,18.9c-1.4,0-2.6-1.2-2.6-2.6s1.2-2.6,2.6-2.6
		s2.6,1.2,2.6,2.6S4.1,18.9,2.6,18.9z"/>
</g>
</svg>
