<?xml version="1.0" encoding="utf-8"?>
<!-- Generator: Adobe Illustrator 19.0.0, SVG Export Plug-In . SVG Version: 6.00 Build 0)  -->
<svg version="1.1" id="Layer_1" xmlns="http://www.w3.org/2000/svg" xmlns:xlink="http://www.w3.org/1999/xlink" x="0px" y="0px"
	 viewBox="0 0 21 21" style="enable-background:new 0 0 21 21;" xml:space="preserve">
<style type="text/css">
	.st0{fill:#76A4D7;}
</style>
<g id="XMLID_379_">
	<path id="XMLID_380_" class="st0" d="M20.8,18.1c0,1.4-1.2,2.6-2.6,2.6H2.8c-1.4,0-2.6-1.2-2.6-2.6V2.9c0-1.4,1.2-2.6,2.6-2.6h15.3
		c1.4,0,2.6,1.2,2.6,2.6V18.1z M18.5,8.9h-1.8c0.2,0.5,0.3,1.2,0.3,1.8c0,3.4-2.9,6.2-6.4,6.2c-3.5,0-6.4-2.8-6.4-6.2
		c0-0.6,0.1-1.2,0.3-1.8H2.5v8.7c0,0.5,0.4,0.8,0.8,0.8h14.3c0.5,0,0.8-0.4,0.8-0.8V8.9z M10.5,6.5c-2.3,0-4.1,1.8-4.1,4
		c0,2.2,1.8,4,4.1,4c2.3,0,4.1-1.8,4.1-4C14.7,8.2,12.8,6.5,10.5,6.5z M18.5,3.4c0-0.5-0.4-0.9-0.9-0.9h-2.3c-0.5,0-0.9,0.4-0.9,0.9
		v2.2c0,0.5,0.4,0.9,0.9,0.9h2.3c0.5,0,0.9-0.4,0.9-0.9V3.4z"/>
</g>
</svg>
