<?xml version="1.0" encoding="utf-8"?>
<!-- Generator: Adobe Illustrator 19.0.0, SVG Export Plug-In . SVG Version: 6.00 Build 0)  -->
<svg version="1.1" id="Layer_1" xmlns="http://www.w3.org/2000/svg" xmlns:xlink="http://www.w3.org/1999/xlink" x="0px" y="0px"
	 viewBox="0 0 26 15" style="enable-background:new 0 0 26 15;" xml:space="preserve">
<style type="text/css">
	.st0{fill:#76A4D7;}
</style>
<g id="XMLID_379_">
	<path id="XMLID_380_" class="st0" d="M23.8,5.2c-2.6,3.5-2.9,3.1-0.7,5.1c2.1,1.9,2.5,2.8,2.6,3c0,0,0.9,1.5-1,1.5l-3.4,0.1
		c-0.7,0.1-1.7-0.5-1.7-0.5c-1.3-0.9-2.5-3.2-3.4-2.9c0,0-1,0.3-0.9,2.4c0,0.4-0.2,0.7-0.2,0.7s-0.2,0.3-0.7,0.3h-1.5
		c-3.4,0.2-6.4-2.9-6.4-2.9S3.1,8.5,0.2,1.7c-0.2-0.4,0-0.7,0-0.7S0.4,0.8,1,0.8l3.7,0C5,0.9,5.3,1,5.3,1s0.2,0.1,0.3,0.4
		C6.2,3,7,4.3,7,4.3c1.3,2.8,2.3,3.2,2.8,2.9c0,0,0.7-0.4,0.5-3.8c-0.1-1.2-0.4-1.8-0.4-1.8C9.6,1.4,9,1.2,8.7,1.2
		c-0.2,0,0.1-0.5,0.6-0.7c0.7-0.3,1.8-0.3,3.2-0.3c1.1,0,1.4,0.1,1.8,0.2c1.3,0.3,0.8,1.5,0.8,4.3c0,0.9-0.2,2.2,0.5,2.6
		c0.3,0.2,1,0,2.7-2.9c0,0,0.8-1.4,1.4-3c0.1-0.3,0.3-0.4,0.3-0.4s0.2-0.1,0.5-0.1l3.9,0c1.2-0.1,1.4,0.4,1.4,0.4
		C26,1.8,25.4,3.1,23.8,5.2z"/>
</g>
</svg>
