<?xml version="1.0" encoding="utf-8"?>
<!-- Generator: Adobe Illustrator 19.0.0, SVG Export Plug-In . SVG Version: 6.00 Build 0)  -->
<svg version="1.1" id="Capa_1" xmlns="http://www.w3.org/2000/svg" xmlns:xlink="http://www.w3.org/1999/xlink" x="0px" y="0px"
	 viewBox="-399 269 21 25" style="enable-background:new -399 269 21 25;" xml:space="preserve">
<style type="text/css">
	.st0{fill:#76A4D7;stroke:#76A4D7;stroke-miterlimit:10;}
</style>
<path id="LiveJournal" class="st0" d="M-379.5,292.9C-379.5,292.9-379.5,292.9-379.5,292.9l-8.2-3.4c-0.1,0-0.1-0.1-0.1-0.2
	c0-0.1,0-0.1,0.1-0.2c0.9-0.9,1.4-2.1,1.4-3.4c0-0.5-0.1-1.1-0.3-1.6c0,0,0,0,0-0.1l-5.9-7.9c-1.2,1-2.3,2.6-2.2,4.1
	c0,0.1-0.1,0.2-0.2,0.2c-0.1,0-0.2-0.1-0.2-0.2c-0.2-1.8,1.3-3.6,2.6-4.7c1.7-1.3,3.5-1.9,4.7-1.5c0.1,0,0.2,0.2,0.1,0.3
	c0,0.1-0.2,0.2-0.3,0.1c-1.1-0.4-2.8,0.2-4.3,1.4l6,8.1c1.6,1,3.7,0.9,5.2-0.1c0.1,0,0.1,0,0.2,0c0.1,0,0.1,0.1,0.1,0.2l1.4,8.7
	c0,0.1,0,0.2-0.1,0.2C-379.4,292.9-379.4,292.9-379.5,292.9z M-387.2,289.2l7.5,3.1l-1.2-8c-1.5,0.9-3.5,1-5,0.2
	c0.1,0.4,0.1,0.8,0.1,1.2C-385.9,287-386.3,288.2-387.2,289.2z M-396.5,278.1c-0.1,0-0.2-0.1-0.2-0.2c-0.2-1.8,1.3-3.6,2.6-4.7
	c1.7-1.3,3.5-1.9,4.7-1.5c0.1,0,0.2,0.2,0.1,0.3c0,0.1-0.2,0.2-0.3,0.1c-1.1-0.4-2.8,0.2-4.3,1.4c-1.3,1-2.6,2.7-2.5,4.3
	C-396.3,278-396.4,278.1-396.5,278.1C-396.5,278.1-396.5,278.1-396.5,278.1z M-382.3,291.5c0.3-1.1,1.2-1.9,2.3-2.1l0.5,3.2
	L-382.3,291.5L-382.3,291.5z M-391.7,270.3c-2.8,0-7,3.9-5.5,6.6l9.1,12.1l8.6,3.6l-1.5-9.4l-9.1-12
	C-390.4,270.6-391,270.3-391.7,270.3 M-391.7,269.5c1,0,1.9,0.4,2.4,1.2l9.1,12c0.1,0.1,0.1,0.2,0.2,0.4l1.5,9.4
	c0,0.3-0.1,0.6-0.3,0.8c-0.2,0.1-0.3,0.2-0.5,0.2c-0.1,0-0.2,0-0.3-0.1l-8.6-3.6c-0.1-0.1-0.3-0.2-0.3-0.3l-9.1-12.1
	c0,0,0-0.1-0.1-0.1c-0.7-1.2-0.6-2.6,0.3-4C-396.4,271.2-393.8,269.5-391.7,269.5L-391.7,269.5z"/>
</svg>
