<?xml version="1.0" encoding="utf-8"?>
<!-- Generator: Adobe Illustrator 19.0.0, SVG Export Plug-In . SVG Version: 6.00 Build 0)  -->
<svg version="1.1" id="Layer_1" xmlns="http://www.w3.org/2000/svg" xmlns:xlink="http://www.w3.org/1999/xlink" x="0px" y="0px"
	 viewBox="-412 273 15 15" style="enable-background:new -412 273 15 15;" xml:space="preserve">
<style type="text/css">
	.st0{fill:#FCB655;}
</style>
<path class="st0" d="M-400.5,282.5l0.8,4.5c0.1,0.4-0.1,0.6-0.4,0.6c-0.1,0-0.2,0-0.4-0.1l-4-2.1l-4,2.1c-0.1,0.1-0.3,0.1-0.4,0.1
	c-0.3,0-0.4-0.2-0.4-0.6l0.8-4.5l-3.2-3.2c-0.4-0.4-0.3-0.8,0.3-0.8l4.5-0.7l2-4.1c0.1-0.2,0.3-0.4,0.4-0.4s0.3,0.1,0.4,0.4l2,4.1
	l4.5,0.7c0.5,0.1,0.7,0.5,0.3,0.8L-400.5,282.5z M-399,279.4l-3.2-0.5l-0.6-0.1l-0.3-0.5l-1.4-2.9v8.6l0.5,0.3l2.8,1.5l-0.5-3.2
	l-0.1-0.6l0.4-0.4L-399,279.4z"/>
</svg>
