<?xml version="1.0" encoding="utf-8"?>
<!-- Generator: Adobe Illustrator 19.0.0, SVG Export Plug-In . SVG Version: 6.00 Build 0)  -->
<svg version="1.1" id="Layer_1" xmlns="http://www.w3.org/2000/svg" xmlns:xlink="http://www.w3.org/1999/xlink" x="0px" y="0px"
	 viewBox="-441.7 273 15 15" style="enable-background:new -441.7 273 15 15;" xml:space="preserve">
<style type="text/css">
	.st0{fill:#FCB655;}
</style>
<path class="st0" d="M-427,279.3l-3.2,3.2l0.8,4.5c0,0.1,0,0.1,0,0.2c0,0.2-0.1,0.4-0.4,0.4c-0.1,0-0.3,0-0.4-0.1l-4-2.1l-4,2.1
	c-0.1,0.1-0.2,0.1-0.4,0.1c-0.3,0-0.4-0.2-0.4-0.4c0-0.1,0-0.1,0-0.2l0.8-4.5l-3.2-3.2c-0.1-0.1-0.2-0.3-0.2-0.4
	c0-0.3,0.3-0.4,0.5-0.4l4.5-0.7l2-4.1c0.1-0.2,0.2-0.4,0.4-0.4s0.4,0.2,0.4,0.4l2,4.1l4.5,0.7c0.2,0,0.5,0.1,0.5,0.4
	C-426.8,279.1-426.9,279.2-427,279.3z"/>
</svg>
