<?xml version="1.0" encoding="utf-8"?>
<!-- Generator: Adobe Illustrator 19.0.0, SVG Export Plug-In . SVG Version: 6.00 Build 0)  -->
<svg version="1.1" id="Layer_1" xmlns="http://www.w3.org/2000/svg" xmlns:xlink="http://www.w3.org/1999/xlink" x="0px" y="0px"
	 viewBox="0 0 7 12" style="enable-background:new 0 0 7 12;" xml:space="preserve">
<style type="text/css">
	.st0{fill:#666666;}
	.st1{fill:#76A4D7;}
	.st2{fill:#388DEC;}
</style>
<g id="XMLID_41_">
	<path id="XMLID_42_" class="st0" d="M6.9,0.7L3.7,3.9C3.6,4,3.6,4,3.5,4S3.4,4,3.3,3.9L0.1,0.7C0,0.7,0,0.6,0,0.6
		c0-0.1,0-0.1,0.1-0.2l0.4-0.3C0.5,0,0.5,0,0.6,0c0.1,0,0.1,0,0.2,0.1l2.8,2.7l2.8-2.7C6.3,0,6.4,0,6.4,0c0.1,0,0.1,0,0.2,0.1
		l0.4,0.3C7,0.5,7,0.5,7,0.6C7,0.6,7,0.7,6.9,0.7z"/>
</g>
<g id="XMLID_213_">
	<path id="XMLID_214_" class="st1" d="M6.9,4.7L3.7,7.9C3.6,8,3.6,8,3.5,8S3.4,8,3.3,7.9L0.1,4.7C0,4.7,0,4.6,0,4.6s0-0.1,0.1-0.2
		l0.4-0.3C0.5,4,0.5,4,0.6,4c0.1,0,0.1,0,0.2,0.1l2.8,2.7l2.8-2.7C6.3,4,6.4,4,6.4,4c0.1,0,0.1,0,0.2,0.1l0.4,0.3C7,4.5,7,4.5,7,4.6
		S7,4.7,6.9,4.7z"/>
</g>
<g id="XMLID_216_">
	<path id="XMLID_217_" class="st2" d="M6.9,8.7l-3.3,3.2c0,0-0.1,0.1-0.2,0.1s-0.1,0-0.2-0.1L0.1,8.7C0,8.7,0,8.6,0,8.6
		c0-0.1,0-0.1,0.1-0.2l0.4-0.3C0.5,8,0.5,8,0.6,8c0.1,0,0.1,0,0.2,0.1l2.8,2.7l2.8-2.7C6.3,8,6.4,8,6.4,8c0.1,0,0.1,0,0.2,0.1
		l0.4,0.3C7,8.5,7,8.5,7,8.6C7,8.6,7,8.7,6.9,8.7z"/>
</g>
</svg>
