<?xml version="1.0" encoding="utf-8"?>
<!-- Generator: Adobe Illustrator 19.0.0, SVG Export Plug-In . SVG Version: 6.00 Build 0)  -->
<svg version="1.1" id="Layer_1" xmlns="http://www.w3.org/2000/svg" xmlns:xlink="http://www.w3.org/1999/xlink" x="0px" y="0px"
	 viewBox="0 0 42 55" style="enable-background:new 0 0 42 55;" xml:space="preserve">
<style type="text/css">
	.st0{fill:#FFFFFF;}
</style>
<path class="st0" d="M21,0c7.3,0,13.2,5.7,13.2,12.6c0,7-5.9,12.6-13.2,12.6c-7.3,0-13.2-5.7-13.2-12.6C7.8,5.7,13.7,0,21,0z M21,55
	c-7.3,0-13.9-2.5-19-6.7c-1.2-1-2-2.5-2-4.1c0-7.1,6-12.7,13.3-12.7h15.3c7.4,0,13.3,5.7,13.3,12.7c0,1.6-0.7,3.1-2,4.1
	C34.9,52.5,28.3,55,21,55z"/>
</svg>
