<?xml version="1.0" encoding="utf-8"?>
<!-- Generator: Adobe Illustrator 19.0.0, SVG Export Plug-In . SVG Version: 6.00 Build 0)  -->
<svg version="1.1" id="Layer_1" xmlns="http://www.w3.org/2000/svg" xmlns:xlink="http://www.w3.org/1999/xlink" x="0px" y="0px"
	 viewBox="0 0 41 28" style="enable-background:new 0 0 41 28;" xml:space="preserve">
<style type="text/css">
	.st0{fill:#A9B7D3;}
</style>
<path class="st0" d="M20.6,8.9c2.8,0,5.1,2.3,5.1,5.1c0,2.8-2.2,5.1-5.1,5.1c-2.8,0-5.2-2.3-5.2-5.1C15.5,11.2,17.8,8.9,20.6,8.9
	 M20.6,6.4c-4.2,0-7.7,3.4-7.7,7.6c0,4.2,3.4,7.6,7.7,7.6c4.2,0,7.7-3.4,7.7-7.6C28.3,9.8,24.9,6.4,20.6,6.4L20.6,6.4z"/>
<path class="st0" d="M20.6,2.5c7.3,0,14.3,3.9,17.8,11.5c-3.5,7.6-10.6,11.4-17.9,11.4c-7.2,0-14.4-3.8-17.9-11.4
	C6.1,6.4,13.3,2.5,20.6,2.5 M20.6,0C12,0,3.9,4.9,0.1,13.3c0,0,0,0.1,0,0.1c0,0,0,0,0,0.1c0,0.1,0,0.1,0,0.2c0,0.1,0,0.2,0,0.3
	c0,0.1,0,0.2,0,0.3c0,0.1,0,0.1,0,0.2c0,0,0,0,0,0.1c0,0,0,0.1,0,0.1C3.9,23.2,12,28,20.5,28c8.5,0,16.6-4.8,20.4-13.2
	c0,0,0-0.1,0-0.1c0,0,0,0,0-0.1c0-0.1,0-0.1,0-0.2c0-0.1,0-0.2,0-0.3c0-0.1,0-0.2,0-0.3c0-0.1,0-0.1,0-0.2c0,0,0,0,0-0.1
	c0,0,0-0.1,0-0.1C37.1,4.9,29.1,0,20.6,0L20.6,0z"/>
</svg>
