<svg width="77" height="79" viewBox="0 0 77 79" version="1.1" xmlns="http://www.w3.org/2000/svg" xmlns:xlink="http://www.w3.org/1999/xlink" xmlns:figma="http://www.figma.com/figma/ns">
<title>auto</title>
<desc>Created using Figma</desc>
<g id="Canvas" transform="translate(-1915 -1262)" figma:type="canvas">
<g id="auto" style="mix-blend-mode:normal;" figma:type="frame">
<g id="Vector" style="mix-blend-mode:normal;" figma:type="vector">
<use xlink:href="#path0_stroke" transform="translate(1916.25 1305.35)" fill="#E2112E" style="mix-blend-mode:normal;"/>
</g>
<g id="Vector" style="mix-blend-mode:normal;" figma:type="vector">
<use xlink:href="#path1_stroke" transform="translate(1916.25 1314.05)" fill="#E2112E" style="mix-blend-mode:normal;"/>
</g>
<g id="Group" style="mix-blend-mode:normal;" figma:type="frame">
<g id="Vector" style="mix-blend-mode:normal;" figma:type="vector">
<use xlink:href="#path2_stroke" transform="translate(1953.15 1288.75)" fill="#E2112E" style="mix-blend-mode:normal;"/>
</g>
<g id="Vector" style="mix-blend-mode:normal;" figma:type="vector">
<use xlink:href="#path3_stroke" transform="translate(1931.05 1288.75)" fill="#E2112E" style="mix-blend-mode:normal;"/>
</g>
<g id="Vector" style="mix-blend-mode:normal;" figma:type="vector">
<use xlink:href="#path4_stroke" transform="translate(1934.65 1282.25)" fill="#E2112E" style="mix-blend-mode:normal;"/>
</g>
<g id="Vector" style="mix-blend-mode:normal;" figma:type="vector">
<use xlink:href="#path5_stroke" transform="translate(1953.15 1282.25)" fill="#E2112E" style="mix-blend-mode:normal;"/>
</g>
<g id="Vector" style="mix-blend-mode:normal;" figma:type="vector">
<use xlink:href="#path6_stroke" transform="translate(1927.35 1263.15)" fill="#E2112E" style="mix-blend-mode:normal;"/>
</g>
<g id="Vector" style="mix-blend-mode:normal;" figma:type="vector">
<use xlink:href="#path7_stroke" transform="translate(1934.65 1282.25)" fill="#E2112E" style="mix-blend-mode:normal;"/>
</g>
<g id="Vector" style="mix-blend-mode:normal;" figma:type="vector">
<use xlink:href="#path8_stroke" transform="translate(1927.35 1278.05)" fill="#E2112E" style="mix-blend-mode:normal;"/>
</g>
<g id="Vector" style="mix-blend-mode:normal;" figma:type="vector">
<use xlink:href="#path9_stroke" transform="translate(1971.75 1278.05)" fill="#E2112E" style="mix-blend-mode:normal;"/>
</g>
<g id="Vector" style="mix-blend-mode:normal;" figma:type="vector">
<use xlink:href="#path10_stroke" transform="translate(1953.15 1288.75)" fill="#E2112E" style="mix-blend-mode:normal;"/>
</g>
<g id="Vector" style="mix-blend-mode:normal;" figma:type="vector">
<use xlink:href="#path11_stroke" transform="translate(1953.15 1297.05)" fill="#E2112E" style="mix-blend-mode:normal;"/>
</g>
<g id="Vector" style="mix-blend-mode:normal;" figma:type="vector">
<use xlink:href="#path12_stroke" transform="translate(1931.05 1288.75)" fill="#E2112E" style="mix-blend-mode:normal;"/>
</g>
</g>
<g id="Vector" style="mix-blend-mode:normal;" figma:type="vector">
<use xlink:href="#path13_stroke" transform="translate(1931.05 1300.45)" fill="#E2112E" style="mix-blend-mode:normal;"/>
</g>
<g id="Vector" style="mix-blend-mode:normal;" figma:type="vector">
<use xlink:href="#path14_stroke" transform="translate(1960.55 1309.05)" fill="#E2112E" style="mix-blend-mode:normal;"/>
</g>
<g id="Vector" style="mix-blend-mode:normal;" figma:type="vector">
<use xlink:href="#path15_stroke" transform="translate(1967.95 1304.75)" fill="#E2112E" style="mix-blend-mode:normal;"/>
</g>
<g id="Group" style="mix-blend-mode:normal;" figma:type="frame">
<g id="Vector" style="mix-blend-mode:normal;" figma:type="vector">
<use xlink:href="#path16_stroke" transform="translate(1929.55 1282.25)" fill="#E2112E" style="mix-blend-mode:normal;"/>
</g>
<g id="Vector" style="mix-blend-mode:normal;" figma:type="vector">
<use xlink:href="#path17_stroke" transform="translate(1931.95 1283.65)" fill="#E2112E" style="mix-blend-mode:normal;"/>
</g>
<g id="Vector" style="mix-blend-mode:normal;" figma:type="vector">
<use xlink:href="#path18_stroke" transform="translate(1934.35 1285.05)" fill="#E2112E" style="mix-blend-mode:normal;"/>
</g>
<g id="Vector" style="mix-blend-mode:normal;" figma:type="vector">
<use xlink:href="#path19_stroke" transform="translate(1936.75 1286.45)" fill="#E2112E" style="mix-blend-mode:normal;"/>
</g>
<g id="Vector" style="mix-blend-mode:normal;" figma:type="vector">
<use xlink:href="#path20_stroke" transform="translate(1939.15 1287.85)" fill="#E2112E" style="mix-blend-mode:normal;"/>
</g>
<g id="Vector" style="mix-blend-mode:normal;" figma:type="vector">
<use xlink:href="#path21_stroke" transform="translate(1941.55 1289.25)" fill="#E2112E" style="mix-blend-mode:normal;"/>
</g>
<g id="Vector" style="mix-blend-mode:normal;" figma:type="vector">
<use xlink:href="#path22_stroke" transform="translate(1943.95 1290.65)" fill="#E2112E" style="mix-blend-mode:normal;"/>
</g>
<g id="Vector" style="mix-blend-mode:normal;" figma:type="vector">
<use xlink:href="#path23_stroke" transform="translate(1946.35 1292.05)" fill="#E2112E" style="mix-blend-mode:normal;"/>
</g>
<g id="Vector" style="mix-blend-mode:normal;" figma:type="vector">
<use xlink:href="#path24_stroke" transform="translate(1948.75 1293.45)" fill="#E2112E" style="mix-blend-mode:normal;"/>
</g>
<g id="Vector" style="mix-blend-mode:normal;" figma:type="vector">
<use xlink:href="#path25_stroke" transform="translate(1951.15 1294.85)" fill="#E2112E" style="mix-blend-mode:normal;"/>
</g>
</g>
<g id="Group" style="mix-blend-mode:normal;" figma:type="frame">
<g id="Vector" style="mix-blend-mode:normal;" figma:type="vector">
<use xlink:href="#path26_stroke" transform="translate(1931.05 1275.75)" fill="#E2112E" style="mix-blend-mode:normal;"/>
</g>
<g id="Vector" style="mix-blend-mode:normal;" figma:type="vector">
<use xlink:href="#path27_stroke" transform="translate(1933.05 1275.95)" fill="#E2112E" style="mix-blend-mode:normal;"/>
</g>
<g id="Vector" style="mix-blend-mode:normal;" figma:type="vector">
<use xlink:href="#path28_stroke" transform="translate(1935.15 1276.25)" fill="#E2112E" style="mix-blend-mode:normal;"/>
</g>
<g id="Vector" style="mix-blend-mode:normal;" figma:type="vector">
<use xlink:href="#path29_stroke" transform="translate(1937.15 1276.45)" fill="#E2112E" style="mix-blend-mode:normal;"/>
</g>
<g id="Vector" style="mix-blend-mode:normal;" figma:type="vector">
<use xlink:href="#path30_stroke" transform="translate(1939.25 1276.75)" fill="#E2112E" style="mix-blend-mode:normal;"/>
</g>
<g id="Vector" style="mix-blend-mode:normal;" figma:type="vector">
<use xlink:href="#path31_stroke" transform="translate(1941.25 1276.95)" fill="#E2112E" style="mix-blend-mode:normal;"/>
</g>
<g id="Vector" style="mix-blend-mode:normal;" figma:type="vector">
<use xlink:href="#path32_stroke" transform="translate(1943.35 1277.15)" fill="#E2112E" style="mix-blend-mode:normal;"/>
</g>
<g id="Vector" style="mix-blend-mode:normal;" figma:type="vector">
<use xlink:href="#path33_stroke" transform="translate(1945.35 1277.45)" fill="#E2112E" style="mix-blend-mode:normal;"/>
</g>
<g id="Vector" style="mix-blend-mode:normal;" figma:type="vector">
<use xlink:href="#path34_stroke" transform="translate(1947.45 1277.65)" fill="#E2112E" style="mix-blend-mode:normal;"/>
</g>
<g id="Vector" style="mix-blend-mode:normal;" figma:type="vector">
<use xlink:href="#path35_stroke" transform="translate(1949.45 1277.85)" fill="#E2112E" style="mix-blend-mode:normal;"/>
</g>
</g>
<g id="Vector" style="mix-blend-mode:normal;" figma:type="vector">
<use xlink:href="#path36_stroke" transform="translate(1941.45 1294.95)" fill="#E2112E" style="mix-blend-mode:normal;"/>
</g>
<g id="Vector" style="mix-blend-mode:normal;" figma:type="vector">
<use xlink:href="#path37_stroke" transform="translate(1964.25 1295.25)" fill="#E2112E" style="mix-blend-mode:normal;"/>
</g>
</g>
</g>
<defs>
<path id="path0_stroke" d="M 37 29.9L 36.5028 30.7677C 36.8108 30.9441 37.1892 30.9441 37.4972 30.7677L 37 29.9ZM 74 8.7L 74.4971 9.56767C 74.8064 9.39046 74.998 9.06201 75 8.70556C 75.002 8.34911 74.8141 8.01856 74.5068 7.83792L 74 8.7ZM 59.2 7.62939e-07L 59.7068 -0.862083C 59.3993 -1.0428 59.0189 -1.04613 58.7084 -0.870815C 58.3979 -0.695502 58.2042 -0.368081 58.2001 -0.011493L 59.2 7.62939e-07ZM 59.1 8.7L 59.6012 9.56534C 59.9064 9.38858 60.0959 9.06414 60.0999 8.7115L 59.1 8.7ZM 37 21.5L 36.4988 22.3653C 36.8088 22.5449 37.1912 22.5449 37.5012 22.3653L 37 21.5ZM 14.9 8.7L 13.9001 8.71177C 13.9042 9.06432 14.0937 9.38863 14.3988 9.56534L 14.9 8.7ZM 14.8 0.200002L 15.7999 0.188238C 15.7958 -0.166497 15.604 -0.492467 15.2959 -0.668387C 14.9878 -0.844307 14.6096 -0.843839 14.302 -0.667158L 14.8 0.200002ZM 0 8.7L -0.498031 7.83284C -0.808699 8.01127 -1.00018 8.34225 -1 8.70051C -0.999818 9.05877 -0.807998 9.38956 -0.497149 9.56767L 0 8.7ZM 37.4972 30.7677L 74.4971 9.56767L 73.5029 7.83234L 36.5028 29.0323L 37.4972 30.7677ZM 74.5068 7.83792L 59.7068 -0.862083L 58.6932 0.862085L 73.4932 9.56209L 74.5068 7.83792ZM 58.2001 -0.011493L 58.1001 8.68851L 60.0999 8.7115L 60.1999 0.0114945L 58.2001 -0.011493ZM 58.5988 7.83466L 36.4988 20.6347L 37.5012 22.3653L 59.6012 9.56534L 58.5988 7.83466ZM 37.5012 20.6347L 15.4012 7.83466L 14.3988 9.56534L 36.4988 22.3653L 37.5012 20.6347ZM 15.8999 8.68824L 15.7999 0.188238L 13.8001 0.211765L 13.9001 8.71177L 15.8999 8.68824ZM 14.302 -0.667158L -0.498031 7.83284L 0.498031 9.56716L 15.298 1.06716L 14.302 -0.667158ZM -0.497149 9.56767L 36.5028 30.7677L 37.4972 29.0323L 0.497149 7.83234L -0.497149 9.56767Z"/>
<path id="path1_stroke" d="M 1 1.52588e-06C 1 -0.552283 0.552285 -0.999998 0 -0.999998C -0.552285 -0.999998 -1 -0.552283 -1 1.52588e-06L 1 1.52588e-06ZM 0 4.6L -1 4.6C -1 4.96031 -0.806163 5.29277 -0.492598 5.47026L 0 4.6ZM 37.1 25.6L 36.6074 26.4703C 36.9163 26.6451 37.2947 26.6431 37.6017 26.4651L 37.1 25.6ZM 74 4.2L 74.5017 5.06505C 74.8101 4.88616 75 4.55657 75 4.2L 74 4.2ZM 75 1.52588e-06C 75 -0.552283 74.5523 -0.999998 74 -0.999998C 73.4477 -0.999998 73 -0.552283 73 1.52588e-06L 75 1.52588e-06ZM -1 1.52588e-06L -1 4.6L 1 4.6L 1 1.52588e-06L -1 1.52588e-06ZM -0.492598 5.47026L 36.6074 26.4703L 37.5926 24.7297L 0.492598 3.72974L -0.492598 5.47026ZM 37.6017 26.4651L 74.5017 5.06505L 73.4983 3.33495L 36.5983 24.7349L 37.6017 26.4651ZM 75 4.2L 75 1.52588e-06L 73 1.52588e-06L 73 4.2L 75 4.2Z"/>
<path id="path2_stroke" d="M 1.52588e-06 12.7L -0.496558 11.832C -0.807897 12.0101 -0.999998 12.3413 -0.999998 12.7L 1.52588e-06 12.7ZM 1.52588e-06 38.1L -0.999998 38.1C -0.999998 38.4566 -0.810149 38.7861 -0.501716 38.965C -0.193282 39.1439 0.187069 39.1451 0.496561 38.968L 1.52588e-06 38.1ZM 22.2 25.4L 22.6966 26.268C 23.0079 26.0899 23.2 25.7587 23.2 25.4L 22.2 25.4ZM 22.2 3.8147e-07L 23.2 3.8147e-07C 23.2 -0.356557 23.0101 -0.686141 22.7017 -0.865031C 22.3933 -1.04392 22.0129 -1.04505 21.7034 -0.868002L 22.2 3.8147e-07ZM -0.999998 12.7L -0.999998 38.1L 1 38.1L 1 12.7L -0.999998 12.7ZM 0.496561 38.968L 22.6966 26.268L 21.7034 24.532L -0.496558 37.232L 0.496561 38.968ZM 23.2 25.4L 23.2 3.8147e-07L 21.2 3.8147e-07L 21.2 25.4L 23.2 25.4ZM 21.7034 -0.868002L -0.496558 11.832L 0.496561 13.568L 22.6966 0.868003L 21.7034 -0.868002Z"/>
<path id="path3_stroke" d="M 22.1 12.7L 23.1 12.7C 23.1 12.342 22.9086 12.0113 22.5983 11.833L 22.1 12.7ZM 1.90735e-07 3.8147e-07L 0.49825 -0.867033C 0.188802 -1.04486 -0.191966 -1.04428 -0.500874 -0.86552C -0.809782 -0.686755 -1 -0.356904 -1 3.8147e-07L 1.90735e-07 3.8147e-07ZM 1.90735e-07 25.4L -1 25.4C -1 25.758 -0.808637 26.0887 -0.49825 26.267L 1.90735e-07 25.4ZM 22.1 38.1L 21.6018 38.967C 21.9112 39.1449 22.292 39.1443 22.6009 38.9655C 22.9098 38.7868 23.1 38.4569 23.1 38.1L 22.1 38.1ZM 22.5983 11.833L 0.49825 -0.867033L -0.49825 0.867034L 21.6018 13.567L 22.5983 11.833ZM -1 3.8147e-07L -1 25.4L 1 25.4L 1 3.8147e-07L -1 3.8147e-07ZM -0.49825 26.267L 21.6018 38.967L 22.5983 37.233L 0.49825 24.533L -0.49825 26.267ZM 23.1 38.1L 23.1 12.7L 21.1 12.7L 21.1 38.1L 23.1 38.1Z"/>
<path id="path4_stroke" d="M 17.5 14.8C 17.5 15.3523 17.9477 15.8 18.5 15.8C 19.0523 15.8 19.5 15.3523 19.5 14.8L 17.5 14.8ZM 18.5 10.6L 19.5 10.6C 19.5 10.2416 19.3082 9.91053 18.9972 9.73234L 18.5 10.6ZM 0.497148 -0.867665C 0.01795 -1.14223 -0.593098 -0.976347 -0.867666 -0.497148C -1.14223 -0.01795 -0.976347 0.593098 -0.497149 0.867666L 0.497148 -0.867665ZM 19.5 14.8L 19.5 10.6L 17.5 10.6L 17.5 14.8L 19.5 14.8ZM 18.9972 9.73234L 0.497148 -0.867665L -0.497149 0.867666L 18.0029 11.4677L 18.9972 9.73234Z"/>
<path id="path5_stroke" d="M 19.0951 0.868818C 19.575 0.595364 19.7423 -0.0152975 19.4688 -0.495132C 19.1954 -0.974967 18.5847 -1.14227 18.1049 -0.868817L 19.0951 0.868818ZM 1.52588e-06 10.6L -0.495131 9.73118C -0.807272 9.90907 -0.999998 10.2407 -0.999998 10.6L 1.52588e-06 10.6ZM -0.999998 14.8C -0.999998 15.3523 -0.552283 15.8 1.52588e-06 15.8C 0.552286 15.8 1 15.3523 1 14.8L -0.999998 14.8ZM 18.1049 -0.868817L -0.495131 9.73118L 0.495134 11.4688L 19.0951 0.868818L 18.1049 -0.868817ZM -0.999998 10.6L -0.999998 14.8L 1 14.8L 1 10.6L -0.999998 10.6Z"/>
<path id="path6_stroke" d="M 43.9013 18.2332C 43.4226 18.5086 43.2578 19.12 43.5332 19.5987C 43.8086 20.0774 44.42 20.2422 44.8987 19.9668L 43.9013 18.2332ZM 51.7 14.9L 52.1987 15.7668C 52.5088 15.5883 52.7 15.2578 52.7 14.9C 52.7 14.5422 52.5088 14.2116 52.1987 14.0332L 51.7 14.9ZM 25.8 0L 26.2987 -0.866798C 25.9894 -1.0447 25.6088 -1.04438 25.2999 -0.865962L 25.8 0ZM 3.8147e-07 14.9L -0.500109 14.034C -0.809701 14.2128 -1.00029 14.5433 -0.999999 14.9008C -0.999707 15.2583 -0.808578 15.5885 -0.498694 15.7668L 3.8147e-07 14.9ZM 6.80131 19.9668C 7.28001 20.2422 7.89136 20.0774 8.16678 19.5987C 8.4422 19.12 8.2774 18.5086 7.79869 18.2332L 6.80131 19.9668ZM 44.8987 19.9668L 52.1987 15.7668L 51.2013 14.0332L 43.9013 18.2332L 44.8987 19.9668ZM 52.1987 14.0332L 26.2987 -0.866798L 25.3013 0.866798L 51.2013 15.7668L 52.1987 14.0332ZM 25.2999 -0.865962L -0.500109 14.034L 0.50011 15.766L 26.3001 0.865962L 25.2999 -0.865962ZM -0.498694 15.7668L 6.80131 19.9668L 7.79869 18.2332L 0.498695 14.0332L -0.498694 15.7668Z"/>
<path id="path7_stroke" d="M 0.497148 -0.867665C 0.01795 -1.14223 -0.593098 -0.976347 -0.867666 -0.497148C -1.14223 -0.01795 -0.976347 0.593098 -0.497149 0.867666L 0.497148 -0.867665ZM 18.5 10.6L 18.0029 11.4677C 18.3101 11.6437 18.6875 11.6441 18.9951 11.4688L 18.5 10.6ZM 37.5951 0.868818C 38.075 0.595364 38.2423 -0.0152976 37.9688 -0.495132C 37.6954 -0.974967 37.0847 -1.14227 36.6049 -0.868817L 37.5951 0.868818ZM -0.497149 0.867666L 18.0029 11.4677L 18.9972 9.73234L 0.497148 -0.867665L -0.497149 0.867666ZM 18.9951 11.4688L 37.5951 0.868818L 36.6049 -0.868817L 18.0049 9.73118L 18.9951 11.4688Z"/>
<path id="path8_stroke" d="M 6.80131 5.06678C 7.28001 5.3422 7.89136 5.1774 8.16678 4.69869C 8.4422 4.21999 8.2774 3.60864 7.79869 3.33322L 6.80131 5.06678ZM 3.8147e-07 -3.8147e-07L 0.498695 -0.866778C 0.189258 -1.04481 -0.191619 -1.04438 -0.500652 -0.865649C -0.809685 -0.686918 -1 -0.356997 -1 -3.8147e-07L 3.8147e-07 -3.8147e-07ZM 3.8147e-07 8.5L -1 8.5C -1 8.85268 -0.814219 9.17929 -0.511075 9.35954L 3.8147e-07 8.5ZM 3.18892 11.5595C 3.66363 11.8418 4.27728 11.6858 4.55954 11.2111C 4.8418 10.7364 4.68578 10.1227 4.21108 9.84046L 3.18892 11.5595ZM 7.79869 3.33322L 0.498695 -0.866778L -0.498694 0.866778L 6.80131 5.06678L 7.79869 3.33322ZM -1 -3.8147e-07L -1 8.5L 1 8.5L 1 -3.8147e-07L -1 -3.8147e-07ZM -0.511075 9.35954L 3.18892 11.5595L 4.21108 9.84046L 0.511076 7.64046L -0.511075 9.35954Z"/>
<path id="path9_stroke" d="M 3.08892 9.84046C 2.61421 10.1227 2.4582 10.7364 2.74046 11.2111C 3.02272 11.6858 3.63637 11.8418 4.11107 11.5595L 3.08892 9.84046ZM 7.3 8.5L 7.81107 9.35954C 8.11422 9.17929 8.3 8.85268 8.3 8.5L 7.3 8.5ZM 7.3 -3.8147e-07L 8.3 -3.8147e-07C 8.3 -0.356997 8.10968 -0.686918 7.80065 -0.865649C 7.49162 -1.04438 7.11074 -1.04481 6.8013 -0.866778L 7.3 -3.8147e-07ZM -0.498694 3.33322C -0.977403 3.60864 -1.1422 4.21999 -0.866778 4.69869C -0.591357 5.1774 0.0199861 5.3422 0.498694 5.06678L -0.498694 3.33322ZM 4.11107 11.5595L 7.81107 9.35954L 6.78892 7.64046L 3.08892 9.84046L 4.11107 11.5595ZM 8.3 8.5L 8.3 -3.8147e-07L 6.3 -3.8147e-07L 6.3 8.5L 8.3 8.5ZM 6.8013 -0.866778L -0.498694 3.33322L 0.498694 5.06678L 7.79869 0.866778L 6.8013 -0.866778Z"/>
<path id="path10_stroke" d="M 1 8.3C 1 7.74772 0.552286 7.3 1.52588e-06 7.3C -0.552283 7.3 -0.999998 7.74772 -0.999998 8.3L 1 8.3ZM 1.52588e-06 12.7L -0.999998 12.7C -0.999998 13.0566 -0.810149 13.3861 -0.501716 13.565C -0.193282 13.7439 0.187069 13.7451 0.496561 13.568L 1.52588e-06 12.7ZM 22.6966 0.868003C 23.1759 0.59376 23.3422 -0.0171751 23.068 -0.49656C 22.7938 -0.975944 22.1828 -1.14224 21.7034 -0.868002L 22.6966 0.868003ZM -0.999998 8.3L -0.999998 12.7L 1 12.7L 1 8.3L -0.999998 8.3ZM 0.496561 13.568L 22.6966 0.868003L 21.7034 -0.868002L -0.496558 11.832L 0.496561 13.568Z"/>
<path id="path11_stroke" d="M -0.999998 4.4C -0.999998 4.95228 -0.552283 5.4 1.52588e-06 5.4C 0.552286 5.4 1 4.95228 1 4.4L -0.999998 4.4ZM 1 1.52588e-06C 1 -0.552283 0.552286 -0.999998 1.52588e-06 -0.999998C -0.552283 -0.999998 -0.999998 -0.552283 -0.999998 1.52588e-06L 1 1.52588e-06ZM 1 4.4L 1 1.52588e-06L -0.999998 1.52588e-06L -0.999998 4.4L 1 4.4ZM -0.999998 1.52588e-06L -0.999998 4.4L 1 4.4L 1 1.52588e-06L -0.999998 1.52588e-06Z"/>
<path id="path12_stroke" d="M 23.1 8.3C 23.1 7.74772 22.6523 7.3 22.1 7.3C 21.5477 7.3 21.1 7.74772 21.1 8.3L 23.1 8.3ZM 22.1 12.7L 21.6018 13.567C 21.9112 13.7449 22.292 13.7443 22.6009 13.5655C 22.9098 13.3868 23.1 13.0569 23.1 12.7L 22.1 12.7ZM 0.49825 -0.867033C 0.0194007 -1.14221 -0.591857 -0.977099 -0.867033 -0.49825C -1.14221 -0.0194002 -0.977099 0.591858 -0.49825 0.867034L 0.49825 -0.867033ZM 21.1 8.3L 21.1 12.7L 23.1 12.7L 23.1 8.3L 21.1 8.3ZM 22.5983 11.833L 0.49825 -0.867033L -0.49825 0.867034L 21.6018 13.567L 22.5983 11.833Z"/>
<path id="path13_stroke" d="M 0.501191 -0.865338C 0.0232783 -1.14214 -0.588537 -0.979104 -0.865337 -0.501191C -1.14214 -0.0232789 -0.979103 0.588536 -0.50119 0.865336L 0.501191 -0.865338ZM 22.1 12.8L 21.5988 13.6653C 21.9082 13.8445 22.2897 13.8449 22.5995 13.6663L 22.1 12.8ZM 44.7995 0.866315C 45.278 0.59045 45.4422 -0.0210452 45.1663 -0.499498C 44.8904 -0.977951 44.279 -1.14218 43.8005 -0.866316L 44.7995 0.866315ZM -0.50119 0.865336L 21.5988 13.6653L 22.6012 11.9347L 0.501191 -0.865338L -0.50119 0.865336ZM 22.5995 13.6663L 44.7995 0.866315L 43.8005 -0.866316L 21.6005 11.9337L 22.5995 13.6663Z"/>
<path id="path14_stroke" d="M -1 1.52588e-06L -1 13.6L 0.999999 13.6L 0.999999 1.52588e-06L -1 1.52588e-06Z"/>
<path id="path15_stroke" d="M -0.999999 -1.52588e-06L -0.999999 13.6L 1 13.6L 1 -1.52588e-06L -0.999999 -1.52588e-06Z"/>
<path id="path16_stroke" d="M -0.5 5.4C -0.5 5.67614 -0.276142 5.9 1.90735e-07 5.9C 0.276143 5.9 0.5 5.67614 0.5 5.4L -0.5 5.4ZM 0.5 3.8147e-07C 0.5 -0.276142 0.276143 -0.5 1.90735e-07 -0.5C -0.276142 -0.5 -0.5 -0.276142 -0.5 3.8147e-07L 0.5 3.8147e-07ZM 0.5 5.4L 0.5 3.8147e-07L -0.5 3.8147e-07L -0.5 5.4L 0.5 5.4Z"/>
<path id="path17_stroke" d="M -0.472199 5.4C -0.472199 5.66079 -0.260788 5.8722 7.62939e-07 5.8722C 0.26079 5.8722 0.472201 5.66079 0.472201 5.4L -0.472199 5.4ZM 0.472201 0C 0.472201 -0.260789 0.26079 -0.4722 7.62939e-07 -0.4722C -0.260788 -0.4722 -0.472199 -0.260789 -0.472199 0L 0.472201 0ZM 0.472201 5.4L 0.472201 0L -0.472199 0L -0.472199 5.4L 0.472201 5.4Z"/>
<path id="path18_stroke" d="M -0.44445 5.4C -0.44445 5.64546 -0.245463 5.84445 3.8147e-07 5.84445C 0.245463 5.84445 0.44445 5.64546 0.44445 5.4L -0.44445 5.4ZM 0.44445 -3.8147e-07C 0.44445 -0.245463 0.245463 -0.44445 3.8147e-07 -0.44445C -0.245463 -0.44445 -0.44445 -0.245463 -0.44445 -3.8147e-07L 0.44445 -3.8147e-07ZM 0.44445 5.4L 0.44445 -3.8147e-07L -0.44445 -3.8147e-07L -0.44445 5.4L 0.44445 5.4Z"/>
<path id="path19_stroke" d="M -0.41665 5.4C -0.41665 5.63011 -0.230109 5.81665 0 5.81665C 0.230109 5.81665 0.41665 5.63011 0.41665 5.4L -0.41665 5.4ZM 0.41665 -7.62939e-07C 0.41665 -0.23011 0.230109 -0.416651 0 -0.416651C -0.230109 -0.416651 -0.41665 -0.23011 -0.41665 -7.62939e-07L 0.41665 -7.62939e-07ZM 0.41665 5.4L 0.41665 -7.62939e-07L -0.41665 -7.62939e-07L -0.41665 5.4L 0.41665 5.4Z"/>
<path id="path20_stroke" d="M -0.3889 5.4C -0.3889 5.61478 -0.214784 5.7889 -3.8147e-07 5.7889C 0.214783 5.7889 0.3889 5.61478 0.3889 5.4L -0.3889 5.4ZM 0.3889 7.62939e-07C 0.3889 -0.214783 0.214783 -0.388899 -3.8147e-07 -0.388899C -0.214784 -0.388899 -0.3889 -0.214783 -0.3889 7.62939e-07L 0.3889 7.62939e-07ZM 0.3889 5.4L 0.3889 7.62939e-07L -0.3889 7.62939e-07L -0.3889 5.4L 0.3889 5.4Z"/>
<path id="path21_stroke" d="M -0.361101 5.4C -0.361101 5.59943 -0.199431 5.7611 -7.62939e-07 5.7611C 0.199429 5.7611 0.361099 5.59943 0.361099 5.4L -0.361101 5.4ZM 0.361099 3.8147e-07C 0.361099 -0.19943 0.199429 -0.3611 -7.62939e-07 -0.3611C -0.199431 -0.3611 -0.361101 -0.19943 -0.361101 3.8147e-07L 0.361099 3.8147e-07ZM 0.361099 5.4L 0.361099 3.8147e-07L -0.361101 3.8147e-07L -0.361101 5.4L 0.361099 5.4Z"/>
<path id="path22_stroke" d="M -0.333349 5.4C -0.333349 5.58411 -0.184103 5.73335 7.62939e-07 5.73335C 0.184105 5.73335 0.333351 5.58411 0.333351 5.4L -0.333349 5.4ZM 0.333351 0C 0.333351 -0.184104 0.184105 -0.33335 7.62939e-07 -0.33335C -0.184103 -0.33335 -0.333349 -0.184104 -0.333349 0L 0.333351 0ZM 0.333351 5.4L 0.333351 0L -0.333349 0L -0.333349 5.4L 0.333351 5.4Z"/>
<path id="path23_stroke" d="M -0.30555 5.4C -0.30555 5.56875 -0.16875 5.70555 3.8147e-07 5.70555C 0.168751 5.70555 0.30555 5.56875 0.30555 5.4L -0.30555 5.4ZM 0.30555 -3.8147e-07C 0.30555 -0.168751 0.168751 -0.30555 3.8147e-07 -0.30555C -0.16875 -0.30555 -0.30555 -0.168751 -0.30555 -3.8147e-07L 0.30555 -3.8147e-07ZM 0.30555 5.4L 0.30555 -3.8147e-07L -0.30555 -3.8147e-07L -0.30555 5.4L 0.30555 5.4Z"/>
<path id="path24_stroke" d="M -0.2778 5.4C -0.2778 5.55343 -0.153425 5.6778 0 5.6778C 0.153425 5.6778 0.2778 5.55343 0.2778 5.4L -0.2778 5.4ZM 0.2778 -7.62939e-07C 0.2778 -0.153425 0.153425 -0.277801 0 -0.277801C -0.153425 -0.277801 -0.2778 -0.153425 -0.2778 -7.62939e-07L 0.2778 -7.62939e-07ZM 0.2778 5.4L 0.2778 -7.62939e-07L -0.2778 -7.62939e-07L -0.2778 5.4L 0.2778 5.4Z"/>
<path id="path25_stroke" d="M -0.249998 5.4C -0.249998 5.53807 -0.13807 5.65 1.52588e-06 5.65C 0.138073 5.65 0.250002 5.53807 0.250002 5.4L -0.249998 5.4ZM 0.250002 7.62939e-07C 0.250002 -0.13807 0.138073 -0.249999 1.52588e-06 -0.249999C -0.13807 -0.249999 -0.249998 -0.13807 -0.249998 7.62939e-07L 0.250002 7.62939e-07ZM 0.250002 5.4L 0.250002 7.62939e-07L -0.249998 7.62939e-07L -0.249998 5.4L 0.250002 5.4Z"/>
<path id="path26_stroke" d="M -0.251208 3.86769C -0.489968 4.00643 -0.571051 4.31245 -0.432312 4.55121C -0.293574 4.78997 0.0124492 4.87105 0.251209 4.73231L -0.251208 3.86769ZM 7.65121 0.432313C 7.88997 0.293574 7.97105 -0.0124486 7.83231 -0.251208C 7.69357 -0.489968 7.38755 -0.571051 7.14879 -0.432312L 7.65121 0.432313ZM 0.251209 4.73231L 7.65121 0.432313L 7.14879 -0.432312L -0.251208 3.86769L 0.251209 4.73231Z"/>
<path id="path27_stroke" d="M -0.23765 4.89196C -0.463003 5.02321 -0.53929 5.3123 -0.40804 5.53765C -0.27679 5.763 0.0122946 5.83929 0.237648 5.70804L -0.23765 4.89196ZM 9.33765 0.408039C 9.563 0.276789 9.63929 -0.0122952 9.50804 -0.237649C 9.37679 -0.463003 9.0877 -0.539289 8.86235 -0.408039L 9.33765 0.408039ZM 0.237648 5.70804L 9.33765 0.408039L 8.86235 -0.408039L -0.23765 4.89196L 0.237648 5.70804Z"/>
<path id="path28_stroke" d="M -0.220121 5.71389C -0.433365 5.83546 -0.507682 6.10688 -0.386113 6.32012C -0.264544 6.53337 0.00687578 6.60768 0.22012 6.48611L -0.220121 5.71389ZM 10.9201 0.386113C 11.1334 0.264544 11.2077 -0.00687578 11.0861 -0.22012C 10.9645 -0.433364 10.6931 -0.507681 10.4799 -0.386112L 10.9201 0.386113ZM 0.22012 6.48611L 10.9201 0.386113L 10.4799 -0.386112L -0.220121 5.71389L 0.22012 6.48611Z"/>
<path id="path29_stroke" d="M -0.207031 6.73843C -0.406722 6.85277 -0.475914 7.10734 -0.361574 7.30703C -0.247235 7.50672 0.00733806 7.57591 0.20703 7.46157L -0.207031 6.73843ZM 12.607 0.361574C 12.8067 0.247234 12.8759 -0.00733825 12.7616 -0.20703C 12.6472 -0.406722 12.3927 -0.475913 12.193 -0.361574L 12.607 0.361574ZM 0.20703 7.46157L 12.607 0.361574L 12.193 -0.361574L -0.207031 6.73843L 0.20703 7.46157Z"/>
<path id="path30_stroke" d="M -0.193992 7.66294C -0.380146 7.77008 -0.4442 8.00784 -0.337061 8.19399C -0.229922 8.38015 0.00783827 8.4442 0.193992 8.33706L -0.193992 7.66294ZM 14.094 0.337062C 14.2801 0.229923 14.3442 -0.00783789 14.2371 -0.193992C 14.1299 -0.380145 13.8922 -0.4442 13.706 -0.337061L 14.094 0.337062ZM 0.193992 8.33706L 14.094 0.337062L 13.706 -0.337061L -0.193992 7.66294L 0.193992 8.33706Z"/>
<path id="path31_stroke" d="M -0.18045 8.68722C -0.353193 8.78688 -0.412439 9.00771 -0.31278 9.18045C -0.21312 9.35319 0.00770636 9.41244 0.18045 9.31278L -0.18045 8.68722ZM 15.7804 0.31278C 15.9532 0.21312 16.0124 -0.00770617 15.9128 -0.18045C 15.8131 -0.353193 15.5923 -0.412439 15.4195 -0.312779L 15.7804 0.31278ZM 0.18045 9.31278L 15.7804 0.31278L 15.4195 -0.312779L -0.18045 8.68722L 0.18045 9.31278Z"/>
<path id="path32_stroke" d="M -0.167548 9.71182C -0.326707 9.80435 -0.380718 10.0084 -0.288183 10.1675C -0.195649 10.3267 0.00838959 10.3807 0.167549 10.2882L -0.167548 9.71182ZM 17.3675 0.288183C 17.5267 0.195649 17.5807 -0.00838921 17.4882 -0.167549C 17.3956 -0.326708 17.1916 -0.380718 17.0324 -0.288183L 17.3675 0.288183ZM 0.167549 10.2882L 17.3675 0.288183L 17.0324 -0.288183L -0.167548 9.71182L 0.167549 10.2882Z"/>
<path id="path33_stroke" d="M -0.152649 10.6353C -0.298832 10.7196 -0.348992 10.9065 -0.264686 11.0527C -0.18038 11.1988 0.00646796 11.249 0.15265 11.1647L -0.152649 10.6353ZM 19.0526 0.264687C 19.1988 0.18038 19.249 -0.00646739 19.1647 -0.15265C 19.0804 -0.298832 18.8935 -0.348992 18.7474 -0.264686L 19.0526 0.264687ZM 0.15265 11.1647L 19.0526 0.264687L 18.7474 -0.264686L -0.152649 10.6353L 0.15265 11.1647Z"/>
<path id="path34_stroke" d="M -0.138585 11.5592C -0.271555 11.6358 -0.317301 11.8056 -0.240762 11.9386C -0.164224 12.0716 0.00561656 12.1173 0.138586 12.0408L -0.138585 11.5592ZM 20.6386 0.240763C 20.7716 0.164224 20.8173 -0.0056158 20.7408 -0.138586C 20.6642 -0.271555 20.4944 -0.317302 20.3614 -0.240763L 20.6386 0.240763ZM 0.138586 12.0408L 20.6386 0.240763L 20.3614 -0.240763L -0.138585 11.5592L 0.138586 12.0408Z"/>
<path id="path35_stroke" d="M -0.124874 12.5834C -0.244487 12.6524 -0.285544 12.8053 -0.216578 12.9249C -0.147612 13.0445 0.00526186 13.0855 0.124875 13.0166L -0.124874 12.5834ZM 22.3249 0.216579C 22.4445 0.147612 22.4855 -0.00526129 22.4166 -0.124874C 22.3476 -0.244488 22.1947 -0.285545 22.0751 -0.216579L 22.3249 0.216579ZM 0.124875 13.0166L 22.3249 0.216579L 22.0751 -0.216579L -0.124874 12.5834L 0.124875 13.0166Z"/>
<path id="path36_stroke" d="M -0.999999 -7.62939e-07L -0.999999 25.1L 1 25.1L 1 -7.62939e-07L -0.999999 -7.62939e-07Z"/>
<path id="path37_stroke" d="M -1 -1.52588e-06L -1 11.6L 1 11.6L 1 -1.52588e-06L -1 -1.52588e-06Z"/>
</defs>
</svg>
