<svg width="77" height="100" viewBox="0 0 77 100" version="1.1" xmlns="http://www.w3.org/2000/svg" xmlns:xlink="http://www.w3.org/1999/xlink" xmlns:figma="http://www.figma.com/figma/ns">
<title>financical</title>
<desc>Created using Figma</desc>
<g id="Canvas" transform="translate(-955 -1542)" figma:type="canvas">
<g id="financical" style="mix-blend-mode:normal;" figma:type="frame">
<g id="Group" style="mix-blend-mode:normal;" figma:type="frame">
<g id="Vector" style="mix-blend-mode:normal;" figma:type="vector">
<use xlink:href="#path0_fill" transform="translate(994.35 1594.8)" fill="#FFFFFF" style="mix-blend-mode:normal;"/>
</g>
<g id="Vector" style="mix-blend-mode:normal;" figma:type="vector">
<use xlink:href="#path1_fill" transform="translate(955.35 1542.7)" fill="#E2112E" style="mix-blend-mode:normal;"/>
</g>
</g>
<g id="Group" style="mix-blend-mode:normal;" figma:type="frame">
<g id="Vector" style="mix-blend-mode:normal;" figma:type="vector">
<use xlink:href="#path2_stroke" transform="translate(979.05 1610.3)" fill="#E2112E" style="mix-blend-mode:normal;"/>
</g>
<g id="Vector" style="mix-blend-mode:normal;" figma:type="vector">
<use xlink:href="#path3_stroke" transform="translate(979.05 1606.4)" fill="#E2112E" style="mix-blend-mode:normal;"/>
</g>
<g id="Vector" style="mix-blend-mode:normal;" figma:type="vector">
<use xlink:href="#path4_stroke" transform="translate(979.05 1602.5)" fill="#E2112E" style="mix-blend-mode:normal;"/>
</g>
<g id="Vector" style="mix-blend-mode:normal;" figma:type="vector">
<use xlink:href="#path5_stroke" transform="translate(979.05 1598.6)" fill="#E2112E" style="mix-blend-mode:normal;"/>
</g>
<g id="Vector" style="mix-blend-mode:normal;" figma:type="vector">
<use xlink:href="#path6_stroke" transform="translate(979.05 1594.7)" fill="#E2112E" style="mix-blend-mode:normal;"/>
</g>
<g id="Vector" style="mix-blend-mode:normal;" figma:type="vector">
<use xlink:href="#path7_stroke" transform="translate(979.05 1590.8)" fill="#E2112E" style="mix-blend-mode:normal;"/>
</g>
<g id="Vector" style="mix-blend-mode:normal;" figma:type="vector">
<use xlink:href="#path8_stroke" transform="translate(979.05 1586.9)" fill="#E2112E" style="mix-blend-mode:normal;"/>
</g>
<g id="Vector" style="mix-blend-mode:normal;" figma:type="vector">
<use xlink:href="#path9_stroke" transform="translate(979.05 1583)" fill="#E2112E" style="mix-blend-mode:normal;"/>
</g>
<g id="Vector" style="mix-blend-mode:normal;" figma:type="vector">
<use xlink:href="#path10_stroke" transform="translate(979.05 1579.1)" fill="#E2112E" style="mix-blend-mode:normal;"/>
</g>
<g id="Vector" style="mix-blend-mode:normal;" figma:type="vector">
<use xlink:href="#path11_stroke" transform="translate(979.05 1575.2)" fill="#E2112E" style="mix-blend-mode:normal;"/>
</g>
<g id="Vector" style="mix-blend-mode:normal;" figma:type="vector">
<use xlink:href="#path12_stroke" transform="translate(979.05 1571.3)" fill="#E2112E" style="mix-blend-mode:normal;"/>
</g>
<g id="Vector" style="mix-blend-mode:normal;" figma:type="vector">
<use xlink:href="#path13_stroke" transform="translate(979.05 1567.4)" fill="#E2112E" style="mix-blend-mode:normal;"/>
</g>
<g id="Vector" style="mix-blend-mode:normal;" figma:type="vector">
<use xlink:href="#path14_stroke" transform="translate(979.05 1563.5)" fill="#E2112E" style="mix-blend-mode:normal;"/>
</g>
</g>
</g>
</g>
<defs>
<path id="path0_fill" d="M 0 -1.52588e-06L 0 0.800002L 0.700001 0.4L 0 -1.52588e-06Z"/>
<path id="path1_fill" d="M 76.3 71.9C 76.3 71.8 76.3 71.7 76.2 71.6L 76.2 71.5C 76.2 71.4 76.1 71.3 76 71.2C 75.9 71.1 75.9 71.1 75.8 71L 53.9 58.4L 53.9 16C 53.9 15.9 53.9 15.8 53.9 15.8C 53.9 15.7 53.8 15.6 53.8 15.5C 53.8 15.5 53.8 15.5 53.7 15.4C 53.6 15.3 53.5 15.2 53.4 15.2L 42.7 8.9L 42.7 1C 42.7 0.4 42.3 0 41.7 0C 41.1 0 40.7 0.4 40.7 1L 40.7 7.7L 38.8 6.6C 38.5 6.4 38.1 6.4 37.8 6.6L 35.3 8L 35.3 5.3C 35.3 4.7 34.9 4.3 34.3 4.3C 33.7 4.3 33.3 4.7 33.3 5.3L 33.3 9L 22.6 14.8C 22.6 14.8 22.5 14.8 22.5 14.9C 22.5 14.9 22.4 14.9 22.4 15C 22.3 15.1 22.2 15.2 22.2 15.3C 22.1 15.4 22.1 15.5 22.1 15.6L 22.1 15.7L 22.1 15.8L 22.1 58.6L 0.5 71C 0.4 71 0.4 71.1 0.3 71.2C 0.2 71.3 0.2 71.4 0.1 71.5L 0.1 71.6C 0 71.6 0 71.8 0 71.9L 0 76.2C 0 76.6 0.2 76.9 0.5 77.1L 37.6 98.5L 37.7 98.5L 37.8 98.5C 37.9 98.5 38 98.6 38.1 98.6C 38.2 98.6 38.3 98.6 38.4 98.5L 38.5 98.5L 38.6 98.5L 75.8 77C 76.1 76.8 76.3 76.5 76.3 76.1L 76.3 71.9ZM 22.6 72.7L 37.5 81.2C 37.5 81.2 37.6 81.2 37.6 81.3L 37.7 81.3C 37.8 81.3 37.9 81.3 38 81.3C 38.1 81.3 38.2 81.3 38.3 81.2C 38.4 81.2 38.4 81.2 38.5 81.1L 53.4 72.6C 53.7 72.4 53.9 72.1 53.9 71.7L 53.9 60.7L 73.3 71.9L 38.1 92.2L 3 71.9L 22.1 60.9L 22.1 71.9C 22.1 72.2 22.3 72.5 22.6 72.7ZM 48.1 56.2L 47.1 56.8L 39 61.5L 39 55.2L 41.7 53.7L 42.7 53.1L 43.7 52.5L 51.9 47.8L 51.9 54L 49.2 55.6L 48.1 56.2ZM 39 52.1L 39 50.9L 39 49.7L 39 46.5L 51.9 39.1L 51.9 45.4L 41.7 51.3L 40.7 51.9L 39.7 52.5L 39 52.9L 39 52.1ZM 51.9 36.9L 39 44.3L 39 38L 51.9 30.6L 51.9 36.9ZM 39 72.4L 51.9 65L 51.9 71.4L 39 78.6L 39 72.4ZM 51.9 28.3L 39 35.8L 39 25L 51.9 17.8L 51.9 28.3ZM 51.9 58.4L 51.9 59.6L 51.9 62.7L 39 70.1L 39 63.8L 49.1 58L 50.1 57.4L 51.1 56.8L 51.8 56.4L 51.8 57.3L 51.8 58.4L 51.9 58.4ZM 33.3 11.3L 33.3 18.2C 33.3 18.8 33.7 19.2 34.3 19.2C 34.9 19.2 35.3 18.8 35.3 18.2L 35.3 10.2L 38.3 8.6L 40.8 10L 40.8 13.8C 40.8 14.4 41.2 14.8 41.8 14.8C 42.4 14.8 42.8 14.4 42.8 13.8L 42.8 11.1L 51 15.9L 38 23.2L 25.1 15.8L 33.3 11.3ZM 24.1 17.5L 37 24.9L 37 37.2C 37 37.4 37 37.5 37 37.7L 37 45.8C 37 46 37 46.1 37 46.3L 37 49.9L 37 51.1L 37 52.3L 37 54.5C 37 54.7 37 54.8 37 55L 37 63.1C 37 63.2 37 63.4 37 63.6L 37 71.8L 37 72.2L 37 78.8L 24.1 71.4L 24.1 59.7L 24.1 58.5L 24.1 57.3L 24.1 17.5ZM 2 75.6L 2 73.6L 37.1 93.9L 37.1 95.9L 2 75.6ZM 39.1 95.9L 39.1 93.9L 74.2 73.6L 74.2 75.6L 39.1 95.9Z"/>
<path id="path2_stroke" d="M 0.251936 -0.431891C 0.0134103 -0.571031 -0.292749 -0.490463 -0.431889 -0.251937C -0.571029 -0.0134111 -0.490461 0.292748 -0.251935 0.431888L 0.251936 -0.431891ZM 11.7481 7.43189C 11.9866 7.57103 12.2928 7.49046 12.4319 7.25193C 12.571 7.01341 12.4905 6.70725 12.2519 6.56811L 11.7481 7.43189ZM -0.251935 0.431888L 11.7481 7.43189L 12.2519 6.56811L 0.251936 -0.431891L -0.251935 0.431888Z"/>
<path id="path3_stroke" d="M 0.235971 -0.405023C 0.0122827 -0.535346 -0.2747 -0.459658 -0.405023 -0.23597C -0.535346 -0.0122812 -0.459658 0.274702 -0.23597 0.405025L 0.235971 -0.405023ZM 11.264 7.10503C 11.4877 7.23535 11.7747 7.15966 11.905 6.93597C 12.0353 6.71228 11.9597 6.4253 11.736 6.29498L 11.264 7.10503ZM -0.23597 0.405025L 11.264 7.10503L 11.736 6.29498L 0.235971 -0.405023L -0.23597 0.405025Z"/>
<path id="path4_stroke" d="M 0.21893 -0.378783C 0.00973431 -0.499695 -0.25787 -0.428126 -0.378782 -0.21893C -0.499693 -0.00973431 -0.428124 0.25787 -0.218929 0.378782L 0.21893 -0.378783ZM 10.6811 6.67878C 10.8903 6.79969 11.1579 6.72812 11.2788 6.51893C 11.3997 6.30973 11.3281 6.04213 11.1189 5.92122L 10.6811 6.67878ZM -0.218929 0.378782L 10.6811 6.67878L 11.1189 5.92122L 0.21893 -0.378783L -0.218929 0.378782Z"/>
<path id="path5_stroke" d="M 0.204486 -0.351032C 0.0106159 -0.463967 -0.238099 -0.398355 -0.351033 -0.204484C -0.463967 -0.0106136 -0.398355 0.238101 -0.204485 0.351035L 0.204486 -0.351032ZM 10.0955 6.35104C 10.2894 6.46397 10.5381 6.39836 10.651 6.20449C 10.764 6.01062 10.6984 5.7619 10.5045 5.64897L 10.0955 6.35104ZM -0.204485 0.351035L 10.0955 6.35104L 10.5045 5.64897L 0.204486 -0.351032L -0.204485 0.351035Z"/>
<path id="path6_stroke" d="M 0.189988 -0.323311C 0.0114279 -0.428238 -0.218383 -0.368547 -0.32331 -0.189987C -0.428237 -0.0114271 -0.368546 0.218384 -0.189986 0.323311L 0.189988 -0.323311ZM 9.51001 6.02331C 9.68857 6.12824 9.91839 6.06855 10.0233 5.88999C 10.1282 5.71143 10.0685 5.48162 9.88999 5.37669L 9.51001 6.02331ZM -0.189986 0.323311L 9.51001 6.02331L 9.88999 5.37669L 0.189988 -0.323311L -0.189986 0.323311Z"/>
<path id="path7_stroke" d="M 0.173004 -0.297044C 0.00895162 -0.392591 -0.201495 -0.337056 -0.297042 -0.173004C -0.392588 -0.00895238 -0.337054 0.201494 -0.173002 0.297041L 0.173004 -0.297044ZM 8.927 5.59704C 9.09105 5.69259 9.30149 5.63706 9.39704 5.473C 9.49259 5.30895 9.43705 5.09851 9.273 5.00296L 8.927 5.59704ZM -0.173002 0.297041L 8.927 5.59704L 9.273 5.00296L 0.173004 -0.297044L -0.173002 0.297041Z"/>
<path id="path8_stroke" d="M 0.158445 -0.269354C 0.0096842 -0.35686 -0.181848 -0.307203 -0.269354 -0.158443C -0.35686 -0.00968268 -0.307203 0.181849 -0.158443 0.269355L 0.158445 -0.269354ZM 8.34156 5.26936C 8.49032 5.35686 8.68185 5.30721 8.76936 5.15844C 8.85686 5.00968 8.80721 4.81815 8.65844 4.73065L 8.34156 5.26936ZM -0.158443 0.269355L 8.34156 5.26936L 8.65844 4.73065L 0.158445 -0.269354L -0.158443 0.269355Z"/>
<path id="path9_stroke" d="M 0.142468 -0.242498C 0.00854036 -0.32118 -0.163814 -0.276395 -0.242496 -0.142468C -0.321178 -0.00854036 -0.276394 0.163814 -0.142466 0.242496L 0.142468 -0.242498ZM 7.85753 4.9425C 7.99146 5.02118 8.16382 4.97639 8.2425 4.84247C 8.32118 4.70854 8.27639 4.53619 8.14247 4.4575L 7.85753 4.9425ZM -0.142466 0.242496L 7.85753 4.9425L 8.14247 4.4575L 0.142468 -0.242498L -0.142466 0.242496Z"/>
<path id="path10_stroke" d="M 0.125605 -0.216155C 0.00622525 -0.285524 -0.146786 -0.244983 -0.216156 -0.125603C -0.285525 -0.00622296 -0.244983 0.146788 -0.125604 0.216158L 0.125605 -0.216155ZM 7.2744 4.51616C 7.39378 4.58553 7.54679 4.54498 7.61616 4.4256C 7.68553 4.30623 7.64498 4.15321 7.5256 4.08384L 7.2744 4.51616ZM -0.125604 0.216158L 7.2744 4.51616L 7.5256 4.08384L 0.125605 -0.216155L -0.125604 0.216158Z"/>
<path id="path11_stroke" d="M 0.110911 -0.188548C 0.00677918 -0.249802 -0.127293 -0.215043 -0.188547 -0.110911C -0.249802 -0.00677842 -0.215042 0.127294 -0.11091 0.188548L 0.110911 -0.188548ZM 6.68909 4.18855C 6.79322 4.2498 6.92729 4.21504 6.98855 4.11091C 7.0498 4.00678 7.01504 3.87271 6.91091 3.81145L 6.68909 4.18855ZM -0.11091 0.188548L 6.68909 4.18855L 6.91091 3.81145L 0.110911 -0.188548L -0.11091 0.188548Z"/>
<path id="path12_stroke" d="M 0.0941512 -0.162148C 0.00459937 -0.214145 -0.110149 -0.183702 -0.162147 -0.0941501C -0.214145 -0.00459823 -0.183701 0.11015 -0.0941497 0.162148L 0.0941512 -0.162148ZM 6.10585 3.76215C 6.1954 3.81415 6.31015 3.7837 6.36215 3.69415C 6.41415 3.6046 6.3837 3.48985 6.29415 3.43785L 6.10585 3.76215ZM -0.0941497 0.162148L 6.10585 3.76215L 6.29415 3.43785L 0.0941512 -0.162148L -0.0941497 0.162148Z"/>
<path id="path13_stroke" d="M 0.0793277 -0.134615C 0.00498166 -0.178426 -0.0908036 -0.153672 -0.134615 -0.0793262C -0.178426 -0.00498014 -0.153672 0.0908051 -0.0793262 0.134616L 0.0793277 -0.134615ZM 5.52067 3.43462C 5.59502 3.47843 5.6908 3.45367 5.73461 3.37933C 5.77843 3.30498 5.75367 3.2092 5.67933 3.16538L 5.52067 3.43462ZM -0.0793262 0.134616L 5.52067 3.43462L 5.67933 3.16538L 0.0793277 -0.134615L -0.0793262 0.134616Z"/>
<path id="path14_stroke" d="M 0.0643127 -0.107187C 0.0051152 -0.142706 -0.0716673 -0.12351 -0.107186 -0.0643127C -0.142704 -0.0051152 -0.123509 0.0716673 -0.0643112 0.107186L 0.0643127 -0.107187ZM 4.93569 3.10719C 4.99489 3.1427 5.07167 3.12351 5.10719 3.06431C 5.14271 3.00511 5.12351 2.92833 5.06431 2.89281L 4.93569 3.10719ZM -0.0643112 0.107186L 4.93569 3.10719L 5.06431 2.89281L 0.0643127 -0.107187L -0.0643112 0.107186Z"/>
</defs>
</svg>
