<?xml version="1.0" encoding="utf-8"?>
<!-- Generator: Adobe Illustrator 19.2.1, SVG Export Plug-In . SVG Version: 6.00 Build 0)  -->
<svg version="1.1" id="Layer_1" xmlns="http://www.w3.org/2000/svg" xmlns:xlink="http://www.w3.org/1999/xlink" x="0px" y="0px"
	 viewBox="0 0 231.3 44" style="enable-background:new 0 0 231.3 44;" xml:space="preserve">
<g id="altan_x5F_logo">
	<path d="M169.4,15.8c0,2.1,1.5,3.2,5,3.2l7.2,0c2.6,0,6.1-2,7.3-4.1h0c-0.5,2.6,1.5,4.1,4.4,4.1h1.7l1.8-3.9
		c-1.1,0-1.7-0.4-1.3-1.2l5-10.9h-18.7c-4.6,0-8.2,2.2-10.2,6.4C170.7,11.4,169.4,13.6,169.4,15.8z M177.1,11c1.4-3,1.7-3.4,5-3.4
		h10.1l-3.2,6.9h-10.2c-1.6,0-2.5,0-2.5-1C176.3,12.9,176.6,12.2,177.1,11z"/>
	<path d="M112.6,15.1l-1.8,3.9c0.5,0.2,1.8,0.2,2.7,0.2c4.1,0,6.7-1.2,8.3-4.8l3.2-6.9h11.7L131.4,19h6.2L145,3h-24.1L116,13.6
		c-0.4,0.8-0.9,1.5-2.5,1.5H112.6z"/>
	<polygon points="149.6,19 155.8,19 161.1,7.6 170.3,7.6 172.4,3 147.8,3 145.7,7.6 154.9,7.6 	"/>
	<polygon points="175.5,25 173.1,30.4 159.9,30.3 162.3,25 156.1,25 148.7,41.1 154.9,41.1 157.7,34.9 159.9,34.9 171,34.9 
		168.2,41.1 174.4,41.1 181.8,25 	"/>
	<path d="M211.2,25h-18.7c-4.6,0-8.2,2.2-10.2,6.4c-0.9,2-2.2,4.2-2.2,6.4c0,2.1,1.5,3.2,5,3.2l7.2,0c2.6,0,6.1-2,7.3-4.1h0
		c-0.5,2.6,1.5,4.1,4.4,4.1h1.7l1.8-3.9c-1.1,0-1.7-0.4-1.3-1.2L211.2,25z M199.7,36.5h-10.2c-1.6,0-2.5,0-2.5-1
		c0-0.5,0.3-1.3,0.8-2.5c1.4-3,1.7-3.4,5-3.4h10.1L199.7,36.5z"/>
	<path d="M87.6,19l7.2,0c2.6,0,6.1-2,7.3-4.1h0c-0.5,2.6,1.5,4.1,4.4,4.1h1.7l1.8-3.9c-1.1,0-1.7-0.4-1.3-1.2l5-10.9H95
		c-4.6,0-8.2,2.2-10.2,6.4c-0.9,2-2.2,4.2-2.2,6.4C82.6,17.9,84.1,19,87.6,19z M90.3,11c1.4-3,1.7-3.4,5-3.4h10.1l-3.2,6.9H92
		c-1.6,0-2.5,0-2.5-1C89.5,12.9,89.8,12.2,90.3,11z"/>
	<polygon points="222.7,8.3 209.4,8.3 211.9,3 205.7,3 198.3,19 204.5,19 207.3,12.9 209.5,12.9 220.6,12.9 217.7,19 224,19 
		231.3,3 225.1,3 	"/>
	<path d="M148.5,25c-2.7,0-4.8,1.3-7.4,2.9l-12.5,7.4h-0.1l5-10.3h-6.2l-7.4,16h3.6c2.7,0,4.8-1.3,7.5-2.9l12.5-7.4h0.1l-5,10.3h6.2
		l7.4-16H148.5z"/>
	<path d="M116.1,35.9c1.7-3.6,3.3-7.2,5-10.9h-6.2c-1.8,3.8-3.5,7.6-5.3,11.4c-3.7,0-7.4,0-11.1,0l5.3-11.4h-6.2l-5.3,11.4H81.2
		L86.5,25h-6.2l-5.9,12.7c-0.3,0.6-0.5,1.2-0.5,1.7c0,1,0.7,1.6,3,1.6l25.3,0c2.6,0,6.1-2,7.2-4.1h0c-0.5,2.6,1.5,4.1,4.4,4.1h1.7
		l1.8-3.9C116.4,37.1,115.7,36.7,116.1,35.9z"/>
	<path d="M51.7,0c-0.4,0-0.8,0-1.2,0H26.6c-0.7,0-1.3,0-2,0c-4.8,0.3-9.7,2.7-13.9,6.4C6,10.7,2.8,17.1,1.2,22.1
		C-0.6,27.5-0.3,32.4,1.5,36c2.2,4.4,6.3,8,12.2,8h26c4.4-0.1,9.6-3.9,12.2-6.2l-35.2,0c-1.2,0-2.6-0.1-3.3-0.4
		c-1.9-0.7-3.3-2-4.3-3.9c-1.5-2.9-1.6-7-0.1-11.6c0.6-1.8,1.3-3.4,2.2-5c2.3-1.3,6.1-2.3,8,0c-0.8,1.1-1.6,2.1-2.1,3.3
		c-0.9,1.9-1.4,4-1.3,6.1c0.1,1.5,0.7,3.8,2.9,3.9c1.2,0.1,2.4-0.6,3.3-1.2c1.7-1.2,3.1-3.1,4-5c0.4-0.9,0.8-1.8,1-2.8
		c0.9-3.2,0.5-6.1-0.7-8.3c-1.2-2.1-3.2-3.5-5.9-4C19.5,9,18.8,9,18,9c2.7-2.1,5.8-3.4,9-3.4c3,0.1,5.4,1.8,6.7,4.5
		c1.4,3,1.6,7.1,0.3,11.6c-1.1,3.2-2.8,6.1-4.9,8.6h8c2-2.7,3.7-5.8,4.6-8.8c1.6-5.4,1.3-10.3-0.5-13.8C41,7,40.7,6.5,40.3,6
		c1.9,0.7,3.3,2.1,4.3,4c1.4,3,1.6,7.1,0.3,11.6c-1.1,3.1-2.8,6.1-4.9,8.6h8c2.1-2.9,3.8-6,4.7-9.3c1.4-5.2,1.1-9.9-0.6-13.4
		C51.9,7,51.6,6.5,51.2,6c1.9,0.7,3.3,2.1,4.3,4c1.4,3,1.6,7.1,0.3,11.6c-1.1,3.2-2.8,6.1-4.9,8.6h8c2.1-2.8,3.8-5.9,4.7-9.2
		c1.5-5.2,1.1-10-0.6-13.5C61.2,3.8,56.3,0.3,51.7,0z"/>
</g>
</svg>
