<?xml version="1.0" encoding="utf-8"?>
<!-- Generator: Adobe Illustrator 19.2.1, SVG Export Plug-In . SVG Version: 6.00 Build 0)  -->
<svg version="1.1" id="Layer_1" xmlns="http://www.w3.org/2000/svg" xmlns:xlink="http://www.w3.org/1999/xlink" x="0px" y="0px"
	 viewBox="0 0 512 512" style="enable-background:new 0 0 512 512;" xml:space="preserve">
<g>
	<g>
		<g>
			<g>
				<path d="M363.2,166.7H148.8c-11.3,0-20.4-9.1-20.4-20.4c0-11.3,9.1-20.4,20.4-20.4h214.4c11.3,0,20.4,9.1,20.4,20.4
					S374.5,166.7,363.2,166.7z"/>
			</g>
			<g>
				<path d="M363.2,273.2H148.8c-11.3,0-20.4-9.1-20.4-20.4c0-11.3,9.1-20.4,20.4-20.4h214.4c11.3,0,20.4,9.1,20.4,20.4
					S374.5,273.2,363.2,273.2z"/>
			</g>
		</g>
		<g>
			<path d="M91.6,498.4c-7.3-4.1-11.4-12.2-10.3-20.5l12.1-89.8H60.9c-27.5,0-49.9-22.4-49.9-49.8V60.9C11,33.4,33.4,11,60.9,11
				h390.3c27.5,0,49.8,22.4,49.8,49.9v277.4c0,27.5-22.4,49.8-49.8,49.8H247.4L114.5,496.4C104.8,504,94.7,500.1,91.6,498.4z
				 M60.9,51.8c-5,0-9,4-9,9v277.4c0,5,4,9,9,9h56c16.5,0.6,21.9,15.8,20.2,23.1l-8.3,61.7l98.5-80.3c3.6-3,8.2-4.6,12.9-4.6h211
				c5,0,9-4,9-9V60.9c0-5-4-9-9-9H60.9V51.8z"/>
		</g>
	</g>
</g>
</svg>
