<?xml version="1.0" encoding="utf-8"?>
<!-- Generator: Adobe Illustrator 21.0.0, SVG Export Plug-In . SVG Version: 6.00 Build 0)  -->
<svg version="1.1" id="Layer_1" xmlns="http://www.w3.org/2000/svg" xmlns:xlink="http://www.w3.org/1999/xlink" x="0px" y="0px"
	 viewBox="0 0 512 512" style="enable-background:new 0 0 512 512;" xml:space="preserve">
<g>
	<g>
		<g>
			<path d="M187.1,160.2H86c-9.4,0-17.1,7.6-17.1,17.1c0,9.4,7.6,17.1,17.1,17.1h101.1c9.4,0,17.1-7.6,17.1-17.1
				C204.2,167.9,196.5,160.2,187.1,160.2z"/>
			<path d="M187.1,225.2H86c-9.4,0-17.1,7.6-17.1,17.1s7.6,17.1,17.1,17.1h101.1c9.4,0,17.1-7.6,17.1-17.1
				C204.2,232.9,196.5,225.2,187.1,225.2z"/>
			<path d="M187.1,290.2H86c-9.4,0-17.1,7.6-17.1,17.1s7.6,17.1,17.1,17.1h101.1c9.4,0,17.1-7.6,17.1-17.1S196.5,290.2,187.1,290.2z
				"/>
			<path d="M494.9,85.4H287.3c-11.9,0-22.9,4.3-31.3,11.5c-8.4-7.2-19.4-11.5-31.3-11.5H17.1C7.6,85.4,0,93.1,0,102.5v275.7
				c0,9.4,7.6,17.1,17.1,17.1h207.6c7.8,0,14.2,6.3,14.2,14.1v0.1c0,9.4,7.6,17.1,17.1,17.1c0,0,0,0,0,0c0,0,0,0,0,0
				c9.4,0,17.1-7.6,17.1-17.1v-0.1c0-7.8,6.4-14.1,14.2-14.1h207.6c9.4,0,17.1-7.6,17.1-17.1V102.5C512,93.1,504.4,85.4,494.9,85.4z
				 M238.9,133.8v229.4c-4.5-1.4-9.3-2.1-14.2-2.1H34.1V119.6h190.6C232.5,119.6,238.9,125.9,238.9,133.8
				C238.9,133.8,238.9,133.8,238.9,133.8z M477.9,361.1H287.3c-4.9,0-9.7,0.7-14.2,2.1V133.8c0,0,0,0,0-0.1
				c0-7.8,6.4-14.2,14.2-14.2h190.6V361.1z"/>
			<path d="M324.9,194.4H426c9.4,0,17.1-7.6,17.1-17.1c0-9.4-7.6-17.1-17.1-17.1H324.9c-9.4,0-17.1,7.6-17.1,17.1
				C307.8,186.7,315.5,194.4,324.9,194.4z"/>
			<path d="M324.9,259.4H426c9.4,0,17.1-7.6,17.1-17.1s-7.6-17.1-17.1-17.1H324.9c-9.4,0-17.1,7.6-17.1,17.1
				S315.5,259.4,324.9,259.4z"/>
			<path d="M324.9,324.4H426c9.4,0,17.1-7.6,17.1-17.1s-7.6-17.1-17.1-17.1H324.9c-9.4,0-17.1,7.6-17.1,17.1
				S315.5,324.4,324.9,324.4z"/>
		</g>
	</g>
</g>
</svg>
