<?xml version="1.0" encoding="utf-8"?>
<!-- Generator: Adobe Illustrator 21.0.0, SVG Export Plug-In . SVG Version: 6.00 Build 0)  -->
<svg version="1.1" id="Layer_1" xmlns="http://www.w3.org/2000/svg" xmlns:xlink="http://www.w3.org/1999/xlink" x="0px" y="0px"
	 viewBox="0 0 33 33" style="enable-background:new 0 0 33 33;" xml:space="preserve">
<style type="text/css">
	.st0{fill:#1D79FF;}
	.st1{fill:#FFFFFF;}
</style>
<g>
	<rect x="0.5" y="0.3" class="st0" width="32" height="32"/>
	<path class="st1" d="M15.2,10.1v4.4h9.2v4.3h-9.2v4.4l-6.6-6.5L15.2,10.1 M15.2,8.1c-0.5,0-1,0.2-1.4,0.6l-6.6,6.5
		c-0.4,0.4-0.6,0.9-0.6,1.4s0.2,1,0.6,1.4l6.6,6.5c0.4,0.4,0.9,0.6,1.4,0.6c0.3,0,0.5-0.1,0.8-0.2c0.7-0.3,1.2-1,1.2-1.8v-2.4h7.2
		c1.1,0,2-0.9,2-2v-4.3c0-1.1-0.9-2-2-2h-7.2v-2.4c0-0.8-0.5-1.5-1.2-1.8C15.7,8.2,15.4,8.1,15.2,8.1L15.2,8.1z"/>
</g>
</svg>
