<?xml version="1.0" encoding="utf-8"?>
<!-- Generator: Adobe Illustrator 21.0.0, SVG Export Plug-In . SVG Version: 6.00 Build 0)  -->
<svg version="1.1" id="Layer_1" xmlns="http://www.w3.org/2000/svg" xmlns:xlink="http://www.w3.org/1999/xlink" x="0px" y="0px"
	 viewBox="0 0 272 254" style="enable-background:new 0 0 272 254;" xml:space="preserve">
<style type="text/css">
	.st0{fill:none;}
	.st1{fill:#71451C;}
</style>
<g>
	<path class="st0" d="M199.2,72.2h-45.1L126,100.3c-1.2,1.2-2.7,1.8-4.2,1.8s-3.1-0.6-4.2-1.8c-2.3-2.3-2.3-6.1,0-8.5l19.7-19.7H104
		l-37.9,37.9c-1.2,1.2-2.7,1.8-4.2,1.8s-3.1-0.6-4.2-1.8c-2.3-2.3-2.3-6.1,0-8.5l29.4-29.4H16.7V120h182.5V72.2z"/>
	<path class="st0" d="M79.4,188.7c-2.5-7.1-9.2-12.2-17.1-12.2s-14.6,5.1-17.1,12.2c-0.7,1.9-1,3.9-1,6s0.4,4.1,1,6
		c2.5,7.1,9.2,12.2,17.1,12.2s14.6-5.1,17.1-12.2c0.7-1.9,1-3.9,1-6S80,190.5,79.4,188.7z"/>
	<path class="st0" d="M133.1,188.7h43.6c2.3-11.5,11.2-20.6,22.6-23.3V132H16.7v56.7h15.9c2.8-13.8,15-24.2,29.6-24.2
		c14.6,0,26.8,10.4,29.6,24.2h24.4c0.1-0.1,0.1-0.2,0.2-0.2l40.3-40.3c2.3-2.3,6.1-2.3,8.5,0c2.3,2.3,2.3,6.1,0,8.5L133.1,188.7z"/>
	<polygon class="st0" points="211.2,60.2 249.5,60.2 240.7,49.3 33.1,49.3 23.8,60.2 199.2,60.2 	"/>
	<rect x="211.2" y="72.2" class="st0" width="44.8" height="47.8"/>
	<path class="st0" d="M223.4,188.7c-2.5-7.1-9.2-12.2-17.1-12.2c-7.9,0-14.6,5.1-17.1,12.2c-0.7,1.9-1,3.9-1,6s0.4,4.1,1,6
		c2.5,7.1,9.2,12.2,17.1,12.2c7.9,0,14.6-5.1,17.1-12.2c0.7-1.9,1-3.9,1-6S224,190.5,223.4,188.7z"/>
	<path class="st0" d="M211.2,164.9c12.3,2.1,22.1,11.6,24.6,23.7H256V132h-44.8V164.9z"/>
	<path class="st1" d="M268,65.5c0,0,0-0.1,0-0.1c0-0.2-0.1-0.4-0.1-0.6c0-0.1,0-0.1,0-0.2c-0.1-0.2-0.1-0.5-0.2-0.7c0,0,0,0,0,0
		c-0.1-0.2-0.2-0.5-0.3-0.7c0,0-0.1-0.1-0.1-0.1c-0.1-0.2-0.3-0.4-0.4-0.6c0,0,0,0,0-0.1l-18.4-22.8c-1.1-1.4-2.9-2.2-4.7-2.2H30.3
		c-1.8,0-3.4,0.8-4.6,2.1L6.2,62.3c0,0,0,0,0,0c-0.2,0.2-0.3,0.4-0.5,0.6c0,0-0.1,0.1-0.1,0.1c-0.1,0.2-0.2,0.4-0.3,0.6
		c0,0,0,0.1-0.1,0.1C5.1,64,5.1,64.2,5,64.5c0,0,0,0.1,0,0.1c-0.1,0.2-0.1,0.4-0.1,0.6c0,0.1,0,0.1,0,0.2c0,0.2-0.1,0.5-0.1,0.8v0v0
		V120v12v62.7c0,3.3,2.7,6,6,6h21.9c2.8,13.8,15,24.2,29.6,24.2c14.6,0,26.8-10.4,29.6-24.2h84.9c2.8,13.8,15,24.2,29.6,24.2
		s26.8-10.4,29.6-24.2H262c3.3,0,6-2.7,6-6V132v-12V66.2C268,65.9,268,65.7,268,65.5z M33.1,49.3h207.6l8.7,10.8h-38.2h-12H23.8
		L33.1,49.3z M16.7,72.2h70.3l-29.4,29.4c-2.3,2.3-2.3,6.1,0,8.5c1.2,1.2,2.7,1.8,4.2,1.8s3.1-0.6,4.2-1.8L104,72.2h33.1l-19.7,19.7
		c-2.3,2.3-2.3,6.1,0,8.5c1.2,1.2,2.7,1.8,4.2,1.8s3.1-0.6,4.2-1.8l28.2-28.2h45.1V120H16.7V72.2z M62.2,212.8
		c-7.9,0-14.6-5.1-17.1-12.2c-0.7-1.9-1-3.9-1-6s0.4-4.1,1-6c2.5-7.1,9.2-12.2,17.1-12.2s14.6,5.1,17.1,12.2c0.7,1.9,1,3.9,1,6
		s-0.4,4.1-1,6C76.9,207.7,70.1,212.8,62.2,212.8z M165.1,148.1c-2.3-2.3-6.1-2.3-8.5,0l-40.3,40.3c-0.1,0.1-0.1,0.2-0.2,0.2H91.8
		c-2.8-13.8-15-24.2-29.6-24.2c-14.6,0-26.8,10.4-29.6,24.2H16.7V132h182.5v33.3c-11.4,2.7-20.2,11.8-22.6,23.3h-43.6l32.1-32.1
		C167.5,154.3,167.5,150.5,165.1,148.1z M206.2,212.8c-7.9,0-14.6-5.1-17.1-12.2c-0.7-1.9-1-3.9-1-6s0.4-4.1,1-6
		c2.5-7.1,9.2-12.2,17.1-12.2c7.9,0,14.6,5.1,17.1,12.2c0.7,1.9,1,3.9,1,6s-0.4,4.1-1,6C220.9,207.7,214.1,212.8,206.2,212.8z
		 M256,188.7h-20.2c-2.5-12.2-12.3-21.7-24.6-23.7V132H256V188.7z M211.2,120V72.2H256V120H211.2z"/>
</g>
</svg>
