<?xml version="1.0" encoding="utf-8"?>
<!-- Generator: Adobe Illustrator 21.0.0, SVG Export Plug-In . SVG Version: 6.00 Build 0)  -->
<svg version="1.1" id="Layer_1" xmlns="http://www.w3.org/2000/svg" xmlns:xlink="http://www.w3.org/1999/xlink" x="0px" y="0px"
	 viewBox="0 0 33 33" style="enable-background:new 0 0 33 33;" xml:space="preserve">
<style type="text/css">
	.st0{fill:#39C612;}
	.st1{fill:none;}
	.st2{fill:#FFFFFF;}
</style>
<rect x="0.7" y="0.3" class="st0" width="32" height="32"/>
<g>
	<path class="st1" d="M14.9,16.2l-0.1,0v6.5l1.4-0.9c0.3-0.2,0.8-0.2,1.1,0l1.2,0.8v-6.4l-0.1,0H14.9z"/>
	<path class="st1" d="M13.7,10.8L9.8,9c0,0-0.1,0-0.1,0c-0.1,0-0.1,0-0.1,0c-0.1,0-0.1,0.1-0.1,0.2v6.8c0,0.1,0.1,0.2,0.1,0.2
		c0.1,0,0.1,0.1,0.3,0l3.9-1.8V10.8z"/>
	<rect x="15.7" y="11.1" class="st1" width="2" height="3.1"/>
	<path class="st1" d="M23.8,9.1c-0.1,0-0.1-0.1-0.3,0l-3.9,1.7v3.8l3.9,1.8c0.1,0,0.2,0,0.3,0c0.1,0,0.1-0.1,0.1-0.2V9.3
		C23.9,9.2,23.8,9.1,23.8,9.1z"/>
	<path class="st2" d="M24.8,7.4c-0.6-0.4-1.5-0.5-2.2-0.2l-4.3,1.9h-3.5l-4.3-1.9C9.9,6.9,9.1,7,8.5,7.4c-0.6,0.4-1,1.1-1,1.9v6.8
		c0,0.8,0.4,1.5,1,1.9c0.4,0.2,0.8,0.4,1.2,0.4c0.3,0,0.6-0.1,0.9-0.2l2.1-1v7.4c0,0.4,0.2,0.7,0.5,0.9c0.3,0.2,0.7,0.2,1,0l2.4-1.5
		l2.2,1.5c0.2,0.1,0.4,0.2,0.6,0.2c0.2,0,0.3,0,0.5-0.1c0.3-0.2,0.5-0.5,0.5-0.9v-7.4l2.1,1c0.3,0.1,0.6,0.2,0.9,0.2
		c0.4,0,0.9-0.1,1.2-0.4c0.6-0.4,1-1.1,1-1.9V9.3C25.9,8.5,25.5,7.8,24.8,7.4z M17.6,14.2h-2v-3.1h2V14.2z M9.8,16.3
		c-0.1,0-0.2,0-0.3,0c-0.1,0-0.1-0.1-0.1-0.2V9.3c0-0.1,0.1-0.2,0.1-0.2c0,0,0.1,0,0.1,0c0,0,0.1,0,0.1,0l3.9,1.7v3.8L9.8,16.3z
		 M18.5,22.7l-1.2-0.8c-0.3-0.2-0.8-0.2-1.1,0l-1.4,0.9v-6.5l0.1,0h3.5l0.1,0V22.7z M23.9,16.1c0,0.1-0.1,0.2-0.1,0.2
		c-0.1,0-0.1,0.1-0.3,0l-3.9-1.8v-3.8L23.5,9c0.1,0,0.2,0,0.3,0c0.1,0,0.1,0.1,0.1,0.2V16.1z"/>
</g>
</svg>
