<?xml version="1.0" encoding="utf-8"?>
<!-- Generator: Adobe Illustrator 21.0.0, SVG Export Plug-In . SVG Version: 6.00 Build 0)  -->
<svg version="1.1" id="Isolation_Mode" xmlns="http://www.w3.org/2000/svg" xmlns:xlink="http://www.w3.org/1999/xlink" x="0px"
	 y="0px" viewBox="0 0 124.2 76.5" style="enable-background:new 0 0 124.2 76.5;" xml:space="preserve">
<style type="text/css">
	.st0{fill:#fff;}
</style>
<g>
	<path class="st0" d="M101.6,19.5h-10c-1.8,0-3.2-1.4-3.2-3v-4.3c0-1.7,1.4-3,3.2-3h10c1.8,0,3.2,1.4,3.2,3v4.3
		C104.8,18.1,103.3,19.5,101.6,19.5z M91.6,10.7c-0.9,0-1.6,0.7-1.6,1.5v4.3c0,0.8,0.7,1.5,1.6,1.5h10c0.9,0,1.6-0.7,1.6-1.5v-4.3
		c0-0.8-0.7-1.5-1.6-1.5H91.6z"/>
	<path class="st0" d="M100.3,12.5H93c-0.7,0-1.3,0.4-1.3,1.1v1.5c0,0.6,0.5,1.1,1.3,1.1h7.3c0.7,0,1.4-0.4,1.4-1.1v-1.5
		C101.7,13,101,12.5,100.3,12.5z"/>
	<path class="st0" d="M69,14.8H59c-2.3,0-3.2-1.4-3.2-2.7v-0.2c0-1.3,0.8-2.7,3.2-2.7h10c2.2,0,3.2,1.4,3.2,2.7V12
		C72.1,13.4,71.2,14.8,69,14.8z M59,10.6c-1.6,0-1.6,0.9-1.6,1.2V12c0,0.3,0,1.2,1.6,1.2h10c1,0,1.6-0.4,1.6-1.2v-0.2
		c0-1-1-1.2-1.6-1.2H59z"/>
	<path class="st0" d="M41.2,24.9c-2,0-3.6-1.6-3.6-3.6c0-1,0.4-1.9,1.2-2.7c0.1-0.1,0.1-0.2,0.1-0.3v-1.2c0-1.3,1-2.3,2.3-2.3
		c1.2,0,2.2,1.1,2.2,2.3v1.1c0,0.1,0.1,0.2,0.2,0.3c0.8,0.7,1.2,1.6,1.2,2.7C44.8,23.2,43.1,24.9,41.2,24.9z M41.2,16.3
		c-0.4,0-0.8,0.3-0.8,0.7v1.2c0,0.5-0.2,1.1-0.6,1.4c-0.3,0.3-0.7,0.8-0.7,1.5c0,1.1,0.9,2.1,2.1,2.1c1.1,0,2.1-0.9,2.1-2.1
		c0-0.6-0.2-1.1-0.7-1.5c-0.4-0.4-0.7-0.9-0.7-1.5v-1.1C41.9,16.7,41.5,16.3,41.2,16.3z"/>
	<path class="st0" d="M56.3,65.5H16.1c-1.3,0-2.3-1-2.3-2.3v-7.5h-1.5v7.5c0,2.1,1.7,3.8,3.8,3.8h40.2c0.4,0,0.8-0.3,0.8-0.8
		S56.7,65.5,56.3,65.5z"/>
	<path class="st0" d="M109.1,10.5c-0.6-1-1.5-2.2-2.2-3c-0.6-0.7-1.9-1.5-3.4-1.5H55.2c-1.3,0-2.1,0.5-2.6,1.2l-2.3,2.6V7.1
		c0-0.6-0.5-1.1-1.1-1.1H35.1c-0.6,0-1,0.5-1,1l0,0.5H16.2c-0.4,0-0.8,0.3-0.8,0.8l0,3.5c-0.2,0.1-0.3,0.3-0.5,0.5
		c-0.5,0.6-1,1.3-1.5,1.9c-0.8,1.1-1.2,2.3-1.2,3.7v16h1.5V18c0-1,0.3-1.9,0.9-2.8c0.5-0.6,1-1.3,1.4-1.9c0.3-0.3,0.6-0.5,1-0.5h8.4
		c0.4,0,0.8-0.3,0.8-0.8v-3H34l0,3c0,0.4,0.3,0.8,0.8,0.8h13.3c0.7,0,1.5-0.2,2.4-1.1c0.8-0.8,3.2-3.5,3.2-3.5
		c0.4-0.5,0.7-0.6,1.6-0.6c0.2,0,48.1,0,48.1,0c1,0,1.9,0.5,2.3,1c0.6,0.7,1.5,1.9,2,2.8c0.6,1.1,1,1.7,1,3.4V34h1.5V14.7
		C110.3,12.7,109.9,11.8,109.1,10.5z M18.5,11.4H17l0-0.8h1.5V11.4z M18.5,9.9H17l0-0.8h1.5V9.9z M20.6,11.4h-1.5l0-0.8h1.5V11.4z
		 M20.6,9.9h-1.5l0-0.8h1.5V9.9z M22.7,11.4h-1.5l0-0.8h1.5V11.4z M22.7,9.9h-1.5l0-0.8h1.5V9.9z M24.8,11.4h-1.5l0-0.8h1.5V11.4z
		 M24.8,9.9h-1.5l0-0.8h1.5V9.9z M37.3,11.4h-1.5l0-0.8h1.5V11.4z M37.3,9.9h-1.5l0-0.8h1.5V9.9z M37.3,8.4h-1.5l0-0.8h1.5V8.4z
		 M39.5,11.4H38l0-0.8h1.5V11.4z M39.5,9.9H38l0-0.8h1.5V9.9z M39.5,8.4H38l0-0.8h1.5V8.4z M41.8,11.4h-1.5l0-0.8h1.5V11.4z
		 M41.8,9.9h-1.5l0-0.8h1.5V9.9z M41.8,8.4h-1.5l0-0.8h1.5V8.4z M44.1,11.4h-1.5l0-0.8h1.5V11.4z M44.1,9.9h-1.5l0-0.8h1.5V9.9z
		 M44.1,8.4h-1.5l0-0.8h1.5V8.4z M46.3,11.4h-1.5l0-0.8h1.5V11.4z M46.3,9.9h-1.5l0-0.8h1.5V9.9z M46.3,8.4h-1.5l0-0.8h1.5V8.4z
		 M48.6,11.4h-1.5l0-0.8h1.5V11.4z M48.6,9.9h-1.5l0-0.8h1.5V9.9z M48.6,8.4h-1.5l0-0.8h1.5V8.4z"/>
	<path class="st0" d="M108.8,63.2c0,1.3-1,2.3-2.3,2.3H87.9c-0.4,0-0.8,0.3-0.8,0.8s0.3,0.8,0.8,0.8h18.6c2.1,0,3.8-1.7,3.8-3.8
		v-7.5h-1.5V63.2z"/>
	<g>
		<polygon class="st0" points="82.5,39.5 79.7,46.5 86.2,46.5 83.6,39.5 		"/>
		<path class="st0" d="M104.7,39.7h-5.2v5.6h5.2c1.7,0,2.9-1,2.9-2.7S106.4,39.7,104.7,39.7z"/>
		<path class="st0" d="M1.3,26.4V62h119.9V26.4H1.3z M22.2,51.9h-9.4V36.5h12.8v2.8h-9.4v2.6h6c3,0,5.1,1.8,5.1,4.8
			C27.4,49.6,25.2,51.9,22.2,51.9z M48,51.9h-3.2V41.3L36,51.9h-3.2V36.5H36v10.7l8.8-10.7H48V51.9z M69.5,51.9h-3.2v-6.4h-8.4v6.4
			h-3.2V36.5h3.2v5.8h8.4v-5.8h3.2V51.9z M88.5,51.9l-1-2.4h-9l-1,2.4H74l6.4-15.4h5.4L92,51.9H88.5z M104.8,48.5h-5.3v3.4h-3.4
			V36.5h8.7c3.4,0,6,2.4,6,6.1C110.8,46.2,108.2,48.5,104.8,48.5z"/>
		<path class="st0" d="M21.9,44.9h-5.8v3.8H22c1.5,0,2.1-0.8,2.1-2C24.1,45.8,23.5,44.9,21.9,44.9z"/>
	</g>
	<g>
		<g>
			<path class="st0" d="M96.3,55.7c-4.4,8.6-13.6,14.5-24.2,14.5S52.4,64.3,48,55.7h-1.7c4.6,9.6,14.4,16,25.9,16s21.3-6.4,25.9-16
				H96.3z"/>
			<path class="st0" d="M47.2,34.1c4.1-9.6,13.7-16.2,25-16.2s20.9,6.7,25,16.2h1.6c-4.1-10.4-14.5-17.8-26.6-17.8
				s-22.5,7.4-26.6,17.8H47.2z"/>
		</g>
	</g>
	<g>
		<g>
			<path class="st0" d="M52.9,34.1c3.7-6.8,11-11.2,19.3-11.2s15.5,4.4,19.3,11.2h1.7c-3.8-7.6-11.8-12.7-21-12.7s-17.1,5.1-21,12.7
				H52.9z"/>
			<path class="st0" d="M90.6,55.7c-3.9,6-10.7,9.8-18.4,9.8s-14.5-3.8-18.4-9.8h-1.8C56,62.5,63.5,67,72.1,67s16.1-4.5,20.2-11.3
				H90.6z"/>
		</g>
	</g>
</g>
</svg>
