<?xml version="1.0" encoding="utf-8"?>
<!-- Generator: Adobe Illustrator 21.0.0, SVG Export Plug-In . SVG Version: 6.00 Build 0)  -->
<svg version="1.1" id="Layer_1" xmlns="http://www.w3.org/2000/svg" xmlns:xlink="http://www.w3.org/1999/xlink" x="0px" y="0px"
	 viewBox="0 0 512 512" style="enable-background:new 0 0 512 512;" xml:space="preserve">
<g>
	<g>
		<path d="M453,79.4L133.1,154c-9.3,2.2-12.2,9.3-12.2,18.9H99.5c-32.7,0-59.2,26.6-59.2,59.2s26.6,59.2,59.2,59.2h21.5
			c0,9.6,2.9,16.8,12.2,18.9L162,317l31.8,118.7c2.3,8.4,10.9,13.4,19.4,11.2l74.4-19.9c8.4-2.3,13.4-10.9,11.2-19.4L282,345
			l171,39.9c9.9,2.3,19.4-5.3,19.4-15.4V94.8C472.4,84.6,462.9,77.1,453,79.4z M120.9,259.7H99.5c-15.2,0-27.6-12.4-27.6-27.6
			s12.4-27.6,27.6-27.6h21.5L120.9,259.7z M220.3,412.3l-23.3-87.1l50.1,11.7l17.1,63.7L220.3,412.3z M366.5,332.2l-213.9-49.9
			c0-9.4,0-89.7,0-100.4l213.9-49.9V332.2z M440.8,349.5l-42.7-9.9V124.7l42.7-9.9V349.5z"/>
	</g>
</g>
</svg>
