<?xml version="1.0" encoding="utf-8"?>
<!-- Generator: Adobe Illustrator 21.0.0, SVG Export Plug-In . SVG Version: 6.00 Build 0)  -->
<svg version="1.1" id="Layer_1" xmlns="http://www.w3.org/2000/svg" xmlns:xlink="http://www.w3.org/1999/xlink" x="0px" y="0px"
	 viewBox="0 0 33 33" style="enable-background:new 0 0 33 33;" xml:space="preserve">
<style type="text/css">
	.st0{fill:#E8A613;}
	.st1{fill:none;}
	.st2{fill:#FFFFFF;}
</style>
<rect x="0.5" y="0.3" class="st0" width="32" height="32"/>
<g>
	<path class="st1" d="M16.5,7.7c-4.8,0-8.6,3.9-8.6,8.6c0,4.8,3.9,8.6,8.6,8.6s8.6-3.9,8.6-8.6C25.1,11.5,21.2,7.7,16.5,7.7z
		 M15.5,10.9c0-0.6,0.4-1,1-1s1,0.4,1,1V17c0,0.6-0.4,1-1,1s-1-0.4-1-1V10.9z M16.5,22.5c-0.7,0-1.3-0.6-1.3-1.3
		c0-0.7,0.6-1.3,1.3-1.3c0.7,0,1.3,0.6,1.3,1.3C17.7,21.9,17.2,22.5,16.5,22.5z"/>
	<path class="st2" d="M16.5,18c0.6,0,1-0.4,1-1v-6.1c0-0.6-0.4-1-1-1s-1,0.4-1,1V17C15.5,17.5,15.9,18,16.5,18z"/>
	<path class="st2" d="M16.5,5.7c-5.9,0-10.6,4.8-10.6,10.6c0,5.9,4.8,10.6,10.6,10.6s10.6-4.8,10.6-10.6
		C27.1,10.4,22.3,5.7,16.5,5.7z M16.5,24.9c-4.8,0-8.6-3.9-8.6-8.6c0-4.8,3.9-8.6,8.6-8.6s8.6,3.9,8.6,8.6
		C25.1,21,21.2,24.9,16.5,24.9z"/>
	<circle class="st2" cx="16.5" cy="21.2" r="1.3"/>
</g>
</svg>
