<?xml version="1.0" encoding="utf-8"?>
<!-- Generator: Adobe Illustrator 21.0.0, SVG Export Plug-In . SVG Version: 6.00 Build 0)  -->
<svg version="1.1" id="Layer_1" xmlns="http://www.w3.org/2000/svg" xmlns:xlink="http://www.w3.org/1999/xlink" x="0px" y="0px"
	 viewBox="0 0 272 254" style="enable-background:new 0 0 272 254;" xml:space="preserve">
<style type="text/css">
	.st0{fill:none;}
	.st1{fill:#71451C;}
</style>
<g>
	<path class="st0" d="M78.2,185H200v-38.5l-21.1,21.1c-1.2,1.2-2.7,1.8-4.2,1.8c-1.5,0-3.1-0.6-4.2-1.8c-2.3-2.3-2.3-6.1,0-8.5
		l29.6-29.6V47h-49.8l-54.6,54.6c-1.2,1.2-2.7,1.8-4.2,1.8s-3.1-0.6-4.2-1.8c-2.3-2.3-2.3-6.1,0-8.5L133.2,47H73v126.2l97.4-97.4
		c2.3-2.3,6.1-2.3,8.5,0c2.3,2.3,2.3,6.1,0,8.5L78.2,185z"/>
	<rect x="73" y="21" class="st0" width="127" height="14"/>
	<path class="st0" d="M73,197v31h127v-31H73z M137.5,222.9c-5.9,0-10.7-4.8-10.7-10.7s4.8-10.7,10.7-10.7s10.7,4.8,10.7,10.7
		S143.4,222.9,137.5,222.9z"/>
	<path class="st1" d="M61,9v231h151V9H61z M178.9,75.8c-2.3-2.3-6.1-2.3-8.5,0L73,173.2V47h60.2L87.1,93.1c-2.3,2.3-2.3,6.1,0,8.5
		c1.2,1.2,2.7,1.8,4.2,1.8s3.1-0.6,4.2-1.8L150.2,47H200v82.5l-29.6,29.6c-2.3,2.3-2.3,6.1,0,8.5c1.2,1.2,2.7,1.8,4.2,1.8
		c1.5,0,3.1-0.6,4.2-1.8l21.1-21.1V185H78.2L178.9,84.2C181.3,81.9,181.3,78.1,178.9,75.8z M200,21v14H73V21H200z M73,228v-31h127
		v31H73z"/>
	<path class="st1" d="M137.5,201.5c-5.9,0-10.7,4.8-10.7,10.7s4.8,10.7,10.7,10.7s10.7-4.8,10.7-10.7S143.4,201.5,137.5,201.5z"/>
</g>
</svg>
