<?xml version="1.0" encoding="utf-8"?>
<!-- Generator: Adobe Illustrator 21.0.0, SVG Export Plug-In . SVG Version: 6.00 Build 0)  -->
<svg version="1.1" id="Layer_1" xmlns="http://www.w3.org/2000/svg" xmlns:xlink="http://www.w3.org/1999/xlink" x="0px" y="0px"
	 viewBox="0 0 19 18" style="enable-background:new 0 0 19 18;" xml:space="preserve">
<style type="text/css">
	.st0{fill:#bbbbbb;}
</style>
<g>
	<path class="st0" d="M9.3,0.3C4.5,0.3,0.7,4.3,0.8,9c0.1,4.8,4,8.6,8.7,8.5c4.8-0.1,8.6-4,8.5-8.7C17.9,4,14,0.2,9.3,0.3z
		 M9.2,14.1L9.2,14.1c-0.8,0-1.3-0.6-1.3-1.3c0-0.7,0.5-1.2,1.3-1.2l0,0c0.8,0,1.3,0.6,1.2,1.3C10.5,13.6,10,14.1,9.2,14.1z M12.3,8
		c-0.2,0.2-0.6,0.5-1,0.9l-0.5,0.4c-0.3,0.2-0.5,0.4-0.5,0.6c-0.1,0.2-0.1,0.2-0.1,0.5l0,0.1h-2l0-0.2c0-0.7,0-1.1,0.3-1.4
		C8.9,8.4,10,7.8,10,7.7c0.1-0.1,0.3-0.2,0.4-0.4c0.2-0.3,0.3-0.5,0.3-0.7c0-0.3-0.1-0.6-0.3-0.9c-0.2-0.2-0.5-0.4-1-0.4
		c-0.5,0-0.8,0.2-1,0.5c-0.2,0.3-0.3,0.7-0.3,1V7H6l0-0.1c0.1-1.3,0.5-2.2,1.3-2.7c0.5-0.3,1.2-0.5,1.9-0.5c1,0,1.8,0.2,2.5,0.7
		c0.7,0.5,1,1.2,1,2.2C12.8,7.1,12.7,7.6,12.3,8z"/>
</g>
</svg>
