<?xml version="1.0" encoding="utf-8"?>
<!-- Generator: Adobe Illustrator 21.0.0, SVG Export Plug-In . SVG Version: 6.00 Build 0)  -->
<svg version="1.1" id="Layer_1" xmlns="http://www.w3.org/2000/svg" xmlns:xlink="http://www.w3.org/1999/xlink" x="0px" y="0px"
	 viewBox="0 0 32 32" style="enable-background:new 0 0 32 32;" xml:space="preserve">
<style type="text/css">
	.st0{fill:#FE4005;}
	.st1{fill:none;}
	.st2{fill:#FFFFFF;}
</style>
<rect class="st0" width="32" height="32"/>
<g>
	<path class="st1" d="M20.4,19.2c-0.3,0-0.7,0.1-0.9,0.4c-0.5,0.5-0.5,1.3,0,1.8c0.2,0.2,0.6,0.4,0.9,0.4s0.7-0.1,0.9-0.4
		c0.5-0.5,0.5-1.3,0-1.8C21.1,19.3,20.7,19.2,20.4,19.2z"/>
	<path class="st1" d="M12.5,12.5c0.5-0.5,0.5-1.3,0-1.8c-0.2-0.2-0.6-0.4-0.9-0.4s-0.7,0.1-0.9,0.4c-0.5,0.5-0.5,1.3,0,1.8
		c0.2,0.2,0.6,0.4,0.9,0.4S12.2,12.7,12.5,12.5z"/>
	<path class="st2" d="M22.3,9.7c-0.4-0.4-1-0.4-1.4,0L9.7,20.9c-0.4,0.4-0.4,1,0,1.4c0.2,0.2,0.5,0.3,0.7,0.3s0.5-0.1,0.7-0.3
		l11.2-11.2C22.7,10.7,22.7,10.1,22.3,9.7z"/>
	<path class="st2" d="M13.9,13.9c1.3-1.3,1.3-3.3,0-4.6c-0.6-0.6-1.5-1-2.3-1s-1.7,0.3-2.3,1c-1.3,1.3-1.3,3.3,0,4.6
		c0.6,0.6,1.5,1,2.3,1S13.3,14.5,13.9,13.9z M10.7,10.7c0.2-0.2,0.6-0.4,0.9-0.4s0.7,0.1,0.9,0.4c0.5,0.5,0.5,1.3,0,1.8
		c-0.2,0.2-0.6,0.4-0.9,0.4s-0.7-0.1-0.9-0.4C10.2,12,10.2,11.2,10.7,10.7z"/>
	<path class="st2" d="M22.7,18.1c-0.6-0.6-1.5-1-2.3-1s-1.7,0.3-2.3,1c-1.3,1.3-1.3,3.3,0,4.6c0.6,0.6,1.5,1,2.3,1s1.7-0.3,2.3-1
		C24,21.4,24,19.4,22.7,18.1z M21.3,21.3c-0.2,0.2-0.6,0.4-0.9,0.4s-0.7-0.1-0.9-0.4c-0.5-0.5-0.5-1.3,0-1.8
		c0.2-0.2,0.6-0.4,0.9-0.4s0.7,0.1,0.9,0.4C21.8,20,21.8,20.8,21.3,21.3z"/>
</g>
</svg>
