<svg width="76" height="76" viewBox="0 0 76 76" version="1.1" xmlns="http://www.w3.org/2000/svg" xmlns:xlink="http://www.w3.org/1999/xlink" xmlns:figma="http://www.figma.com/figma/ns">
<title>atom_icon</title>
<desc>Created using Figma</desc>
<g id="Canvas" transform="translate(-476 -1255)" figma:type="canvas">
<g id="atom_icon" style="mix-blend-mode:normal;" figma:type="frame">
<g id="Vector" style="mix-blend-mode:normal;" figma:type="vector">
<use xlink:href="#path0_stroke" transform="translate(477.367 1291.4)" fill="#E2112E" style="mix-blend-mode:normal;"/>
</g>
<g id="Vector" style="mix-blend-mode:normal;" figma:type="vector">
<use xlink:href="#path1_stroke" transform="translate(477.367 1304)" fill="#E2112E" style="mix-blend-mode:normal;"/>
</g>
<g id="Vector" style="mix-blend-mode:normal;" figma:type="vector">
<use xlink:href="#path2_stroke" transform="translate(513.967 1325)" fill="#E2112E" style="mix-blend-mode:normal;"/>
</g>
<g id="Group" style="mix-blend-mode:normal;" figma:type="frame">
<g id="Vector" style="mix-blend-mode:normal;" figma:type="vector">
<use xlink:href="#path3_stroke" transform="translate(501.767 1256.7)" fill="#E2112E" style="mix-blend-mode:normal;"/>
</g>
<g id="Vector" style="mix-blend-mode:normal;" figma:type="vector">
<use xlink:href="#path4_stroke" transform="translate(500.667 1282)" fill="#E2112E" style="mix-blend-mode:normal;"/>
</g>
<g id="Vector" style="mix-blend-mode:normal;" figma:type="vector">
<use xlink:href="#path5_stroke" transform="translate(527.067 1282)" fill="#E2112E" style="mix-blend-mode:normal;"/>
</g>
<g id="Vector" style="mix-blend-mode:normal;" figma:type="vector">
<use xlink:href="#path6_stroke" transform="translate(495.767 1283.4)" fill="#E2112E" style="mix-blend-mode:normal;"/>
</g>
<g id="Vector" style="mix-blend-mode:normal;" figma:type="vector">
<use xlink:href="#path7_stroke" transform="translate(500.867 1263.7)" fill="#E2112E" style="mix-blend-mode:normal;"/>
</g>
<g id="Vector" style="mix-blend-mode:normal;" figma:type="vector">
<use xlink:href="#path8_stroke" transform="translate(501.767 1263.7)" fill="#E2112E" style="mix-blend-mode:normal;"/>
</g>
<g id="Vector" style="mix-blend-mode:normal;" figma:type="vector">
<use xlink:href="#path9_stroke" transform="translate(501.167 1279.9)" fill="#E2112E" style="mix-blend-mode:normal;"/>
</g>
<g id="Vector" style="mix-blend-mode:normal;" figma:type="vector">
<use xlink:href="#path10_stroke" transform="translate(526.667 1279.9)" fill="#E2112E" style="mix-blend-mode:normal;"/>
</g>
<g id="Vector" style="mix-blend-mode:normal;" figma:type="vector">
<use xlink:href="#path11_stroke" transform="translate(500.667 1281)" fill="#E2112E" style="mix-blend-mode:normal;"/>
</g>
<g id="Vector" style="mix-blend-mode:normal;" figma:type="vector">
<use xlink:href="#path12_stroke" transform="translate(501.267 1281)" fill="#E2112E" style="mix-blend-mode:normal;"/>
</g>
</g>
<g id="Group" style="mix-blend-mode:normal;" figma:type="frame">
<g id="Vector" style="mix-blend-mode:normal;" figma:type="vector">
<use xlink:href="#path13_stroke" transform="translate(504.867 1259.1)" fill="#E2112E" style="mix-blend-mode:normal;"/>
</g>
<g id="Vector" style="mix-blend-mode:normal;" figma:type="vector">
<use xlink:href="#path14_stroke" transform="translate(505.667 1262.1)" fill="#E2112E" style="mix-blend-mode:normal;"/>
</g>
<g id="Vector" style="mix-blend-mode:normal;" figma:type="vector">
<use xlink:href="#path15_stroke" transform="translate(506.467 1265.1)" fill="#E2112E" style="mix-blend-mode:normal;"/>
</g>
</g>
<g id="Group" style="mix-blend-mode:normal;" figma:type="frame">
<g id="Vector" style="mix-blend-mode:normal;" figma:type="vector">
<use xlink:href="#path16_stroke" transform="translate(500.767 1290.1)" fill="#E2112E" style="mix-blend-mode:normal;"/>
</g>
<g id="Vector" style="mix-blend-mode:normal;" figma:type="vector">
<use xlink:href="#path17_stroke" transform="translate(499.967 1292.6)" fill="#E2112E" style="mix-blend-mode:normal;"/>
</g>
<g id="Vector" style="mix-blend-mode:normal;" figma:type="vector">
<use xlink:href="#path18_stroke" transform="translate(499.167 1295.1)" fill="#E2112E" style="mix-blend-mode:normal;"/>
</g>
<g id="Vector" style="mix-blend-mode:normal;" figma:type="vector">
<use xlink:href="#path19_stroke" transform="translate(498.367 1297.6)" fill="#E2112E" style="mix-blend-mode:normal;"/>
</g>
<g id="Vector" style="mix-blend-mode:normal;" figma:type="vector">
<use xlink:href="#path20_stroke" transform="translate(497.567 1300.1)" fill="#E2112E" style="mix-blend-mode:normal;"/>
</g>
<g id="Vector" style="mix-blend-mode:normal;" figma:type="vector">
<use xlink:href="#path21_stroke" transform="translate(496.767 1302.6)" fill="#E2112E" style="mix-blend-mode:normal;"/>
</g>
</g>
</g>
</g>
<defs>
<path id="path0_stroke" d="M 22.5024 0.864626C 22.9799 0.587149 23.1421 -0.0248972 22.8646 -0.502417C 22.5871 -0.979936 21.9751 -1.1421 21.4976 -0.864624L 22.5024 0.864626ZM 14.6 4.3L 15.0942 5.16938L 15.1024 5.16463L 14.6 4.3ZM 0 12.6L -0.494214 11.7307C -0.806253 11.9081 -0.999284 12.2391 -0.999998 12.598C -1.00071 12.9569 -0.809 13.2887 -0.49767 13.4674L 0 12.6ZM 36.6 33.6L 36.1023 34.4674C 36.4109 34.6444 36.7903 34.6442 37.0987 34.4668L 36.6 33.6ZM 73.1 12.6L 73.5987 13.4668C 73.9072 13.2893 74.0982 12.9611 74.1 12.6051C 74.1018 12.2491 73.9143 11.919 73.6075 11.7384L 73.1 12.6ZM 58.5 4L 59.0075 3.13837C 58.9992 3.13348 58.9909 3.1287 58.9824 3.12405L 58.5 4ZM 52.0824 -0.675946C 51.5986 -0.942372 50.9905 -0.766177 50.7241 -0.282404C 50.4576 0.201368 50.6338 0.809524 51.1176 1.07595L 52.0824 -0.675946ZM 21.4976 -0.864624L 14.0976 3.43537L 15.1024 5.16463L 22.5024 0.864626L 21.4976 -0.864624ZM 14.1058 3.43066L -0.494214 11.7307L 0.494214 13.4693L 15.0942 5.16934L 14.1058 3.43066ZM -0.49767 13.4674L 36.1023 34.4674L 37.0977 32.7326L 0.49767 11.7326L -0.49767 13.4674ZM 37.0987 34.4668L 73.5987 13.4668L 72.6013 11.7332L 36.1013 32.7332L 37.0987 34.4668ZM 73.6075 11.7384L 59.0075 3.13837L 57.9925 4.86163L 72.5925 13.4616L 73.6075 11.7384ZM 58.9824 3.12405L 52.0824 -0.675946L 51.1176 1.07595L 58.0176 4.87595L 58.9824 3.12405Z"/>
<path id="path1_stroke" d="M 74.1 -7.62939e-07C 74.1 -0.552286 73.6523 -1 73.1 -1C 72.5477 -1 72.1 -0.552286 72.1 -7.62939e-07L 74.1 -7.62939e-07ZM 73.1 4.3L 73.5987 5.16678C 73.9088 4.98834 74.1 4.6578 74.1 4.3L 73.1 4.3ZM 36.6 25.3L 36.1077 26.1704C 36.4155 26.3445 36.7922 26.3431 37.0987 26.1668L 36.6 25.3ZM 0 4.6L -1 4.6C -1 4.96044 -0.806029 5.29299 -0.492292 5.47043L 0 4.6ZM 1 -7.62939e-07C 1 -0.552286 0.552285 -1 0 -1C -0.552285 -1 -1 -0.552286 -1 -7.62939e-07L 1 -7.62939e-07ZM 72.1 -7.62939e-07L 72.1 4.3L 74.1 4.3L 74.1 -7.62939e-07L 72.1 -7.62939e-07ZM 72.6013 3.43322L 36.1013 24.4332L 37.0987 26.1668L 73.5987 5.16678L 72.6013 3.43322ZM 37.0923 24.4296L 0.492292 3.72957L -0.492292 5.47043L 36.1077 26.1704L 37.0923 24.4296ZM 1 4.6L 1 -7.62939e-07L -1 -7.62939e-07L -1 4.6L 1 4.6Z"/>
<path id="path2_stroke" d="M -1 4.3C -1 4.85228 -0.552286 5.3 -1.52588e-06 5.3C 0.552283 5.3 0.999998 4.85228 0.999998 4.3L -1 4.3ZM 0.999998 3.05176e-06C 0.999998 -0.552282 0.552283 -0.999997 -1.52588e-06 -0.999997C -0.552286 -0.999997 -1 -0.552282 -1 3.05176e-06L 0.999998 3.05176e-06ZM 0.999998 4.3L 0.999998 3.05176e-06L -1 3.05176e-06L -1 4.3L 0.999998 4.3Z"/>
<path id="path3_stroke" d="M 25.4 7C 25.4 4.54415 23.7046 2.52269 21.3477 1.17017C 18.9682 -0.195362 15.7392 -1 12.2 -1L 12.2 1C 15.4608 1 18.3318 1.74536 20.3523 2.90483C 22.3954 4.07731 23.4 5.55585 23.4 7L 25.4 7ZM 12.2 -1C 8.70872 -1 5.48131 -0.194502 3.09189 1.16896C 0.729232 2.51714 -1 4.53711 -1 7L 1 7C 1 5.56289 2.02077 4.08286 4.08311 2.90604C 6.11868 1.7445 8.99127 1 12.2 1L 12.2 -1Z"/>
<path id="path4_stroke" d="M -7.62939e-07 1.4L -1 1.4L 0.98058 1.59612L -7.62939e-07 1.4ZM -1 1.2C -1 1.3 -1 1.3 -1 1.4L 0.999999 1.4C 0.999999 1.3 0.999999 1.3 0.999999 1.2L -1 1.2ZM 0.98058 1.59612C 1.03899 1.29799 1.06977 1.0021 1.09451 0.767185C 1.1192 0.532559 1.13423 0.376882 1.17014 0.242535L -0.770142 -0.242536C -0.834232 0.0231166 -0.869199 0.31744 -0.894506 0.557815C -0.919775 0.797905 -0.93899 1.00201 -0.980581 1.20388L 0.98058 1.59612ZM -0.770142 -0.242536C -0.870142 0.157463 -0.992508 0.677816 -1 1.2L 0.999999 1.2C 0.992507 0.922184 1.07014 0.642536 1.17014 0.242535L -0.770142 -0.242536Z"/>
<path id="path5_stroke" d="M 7.62939e-07 -7.62939e-07L 0.970143 -0.242536L -0.98058 0.196115L 7.62939e-07 -7.62939e-07ZM 0.200002 1.4L -0.780579 1.59612L 1.2 1.4L 0.200002 1.4ZM 1.2 1.2C 1.19251 0.677816 1.07014 0.157463 0.970143 -0.242536L -0.970142 0.242535C -0.870142 0.642536 -0.792506 0.922184 -0.799998 1.2L 1.2 1.2ZM -0.98058 0.196115C -0.895132 0.598538 -0.895132 0.998539 -0.780579 1.59612L 1.18058 1.20388C 1.09513 0.801462 1.09513 0.401461 0.980581 -0.196117L -0.98058 0.196115ZM 1.2 1.4C 1.2 1.3 1.2 1.3 1.2 1.2L -0.799998 1.2C -0.799998 1.3 -0.799998 1.3 -0.799998 1.4L 1.2 1.4Z"/>
<path id="path6_stroke" d="M 0.899999 16L 1.75749 16.5145L 1.77966 16.4776L 1.79857 16.4388L 0.899999 16ZM 35.5 16L 34.5788 16.389L 34.6062 16.454L 34.6425 16.5145L 35.5 16ZM 31.5 7.62939e-07L 32.4925 -0.121891L 30.5013 -0.051214L 31.5 7.62939e-07ZM 4.9 7.62939e-07L 5.89875 -0.0499369L 3.9072 -0.119819L 4.9 7.62939e-07ZM 0.0425063 15.4855C -0.62388 16.6173 -0.992508 18.0778 -1 19.3L 1 19.3C 0.992507 18.3222 1.22388 17.3827 1.75749 16.5145L 0.0425063 15.4855ZM -1 19.3C -1 22.7113 1.4023 25.606 4.85103 27.5916C 8.32764 29.5933 13.0559 30.8 18.2 30.8L 18.2 28.8C 13.3441 28.8 8.97236 27.6567 5.84896 25.8584C 2.6977 24.044 1 21.6887 1 19.3L -1 19.3ZM 18.2 30.8C 23.3926 30.8 28.122 29.5939 31.5879 27.5908C 35.0286 25.6023 37.4 22.7066 37.4 19.3L 35.4 19.3C 35.4 21.6934 33.7214 24.0477 30.5871 25.8592C 27.478 27.6561 23.1074 28.8 18.2 28.8L 18.2 30.8ZM 37.4 19.3C 37.3911 17.9673 37.0198 16.6075 36.3575 15.4855L 34.6425 16.5145C 35.1802 17.3925 35.4088 18.2327 35.4 19.3L 37.4 19.3ZM 36.4212 15.611C 34.5498 11.1872 33.1839 5.52144 32.4925 -0.121891L 30.5075 0.121892C 31.2161 5.87856 32.6502 11.8128 34.5788 16.389L 36.4212 15.611ZM 30.5013 -0.051214C 30.4277 1.38488 29.2734 2.91292 27.0023 4.13129C 24.7171 5.36623 21.6805 6.10717 18.2 6.1L 18.2 8.1C 21.9195 8.09283 25.4329 7.23377 27.9477 5.89371C 30.4766 4.53708 32.3723 2.51513 32.4987 0.0512155L 30.5013 -0.051214ZM 18.2 6.1C 14.7159 6.10674 11.6776 5.38923 9.39415 4.16688C 7.13145 2.96482 5.97319 1.43876 5.89875 -0.0499369L 3.90125 0.0499384C 4.02681 2.56124 5.91855 4.58518 8.45584 5.93312C 10.9724 7.26077 14.4841 8.09326 18.2 8.1L 18.2 6.1ZM 3.9072 -0.119819C 3.21283 5.64031 2.05314 11.3783 0.00143173 15.5612L 1.79857 16.4388C 3.94686 12.0217 5.18717 5.9597 5.89279 0.119821L 3.9072 -0.119819Z"/>
<path id="path7_stroke" d="M 25.7 17.3L 24.7513 16.9838L 24.5967 17.4478L 24.868 17.8547L 25.7 17.3ZM 26.1 18.3L 25.1299 18.5425L 27.0945 18.1953L 26.1 18.3ZM 25.3 0L 26.3 0L 24.3003 -0.0227215L 25.3 0ZM 0.9 0L 1.89974 -0.0229825L -0.1 0L 0.9 0ZM 3.55271e-15 18.2L -0.993363 18.085L -2.10354 27.6729L 0.948683 18.5162L 3.55271e-15 18.2ZM 0.4 17.2L 1.23205 17.7547L 1.47743 17.3866L 1.37014 16.9575L 0.4 17.2ZM 24.9 16.2C 24.9075 16.4778 24.8399 16.7204 24.7513 16.9838L 26.6487 17.6162C 26.7601 17.2796 26.8925 16.7222 26.9 16.2L 24.9 16.2ZM 24.868 17.8547C 25.0017 18.0393 25.0399 18.1796 25.1299 18.5425L 27.0701 18.0575C 26.9601 17.6204 26.7983 17.1607 26.5321 16.7453L 24.868 17.8547ZM 27.0945 18.1953C 26.5972 13.4758 26.3995 8.94209 26.3248 5.56536C 26.2874 3.88044 26.2812 2.49624 26.2844 1.52665C 26.2859 1.04345 26.2898 0.667769 26.2933 0.410243C 26.295 0.282241 26.2966 0.185428 26.2978 0.119426C 26.2984 0.0867948 26.2989 0.062635 26.2992 0.0460667C 26.2994 0.0379649 26.2995 0.0321326 26.2996 0.0280494C 26.2997 0.0260984 26.2997 0.0247674 26.2997 0.0237877C 26.2997 0.0233429 26.2997 0.0230766 26.2997 0.0228537C 26.2997 0.0227647 26.2997 0.0227318 26.2997 0.0226872C 26.2997 0.0226876 26.2997 0.0227215 25.3 0C 24.3003 -0.0227215 24.3003 -0.0226204 24.3003 -0.0224859C 24.3003 -0.0223963 24.3002 -0.0222281 24.3002 -0.022049C 24.3002 -0.0217358 24.3002 -0.0211984 24.3002 -0.0205728C 24.3002 -0.0194118 24.3001 -0.0175355 24.3001 -0.0152206C 24.3 -0.0107718 24.2998 -0.00383706 24.2997 0.00500146C 24.2993 0.0223137 24.2988 0.0487276 24.2982 0.0828689C 24.2969 0.150411 24.2952 0.251939 24.2935 0.383116C 24.2899 0.64395 24.286 1.02999 24.2844 1.52023C 24.2812 2.49751 24.2876 3.90705 24.3252 5.60963C 24.4005 9.00791 24.6028 13.6242 25.1055 18.4047L 27.0945 18.1953ZM 24.3 0C 24.3 1.44415 23.2954 2.92269 21.2523 4.09517C 19.2318 5.25464 16.3608 6 13.1 6L 13.1 8C 16.6392 8 19.8682 7.19536 22.2477 5.82983C 24.6046 4.47731 26.3 2.45585 26.3 0L 24.3 0ZM 13.1 6C 9.89127 6 7.01868 5.2555 4.98311 4.09396C 2.92077 2.91714 1.9 1.43711 1.9 0L -0.1 0C -0.1 2.46289 1.62923 4.48286 3.99189 5.83104C 6.38131 7.1945 9.60872 8 13.1 8L 13.1 6ZM 0.9 0C -0.0997362 0.0229825 -0.0997372 0.0229417 -0.0997374 0.022934C -0.0997364 0.0229756 -0.0997358 0.0230009 -0.099734 0.023084C -0.0997291 0.0232995 -0.0997234 0.0235482 -0.0997138 0.0239781C -0.0996923 0.024937 -0.0996638 0.0262235 -0.0996222 0.028133C -0.0995346 0.0321504 -0.0994124 0.0378578 -0.0992484 0.0458295C -0.0989118 0.0621728 -0.0984416 0.0859436 -0.0978588 0.118136C -0.0966774 0.183332 -0.0951074 0.278845 -0.0934712 0.405329C -0.0901727 0.659964 -0.0867041 1.03125 -0.0859365 1.50943C -0.084372 2.4693 -0.0936159 3.83986 -0.137162 5.51149C -0.224289 8.8623 -0.446612 13.3678 -0.993363 18.085L 0.993363 18.315C 1.54661 13.5323 1.77429 8.9377 1.86216 5.56351C 1.90612 3.87264 1.91562 2.47445 1.91406 1.50619C 1.91327 1.02031 1.9097 0.637692 1.90636 0.379436C 1.90468 0.249475 1.90302 0.148797 1.90181 0.0819127C 1.9012 0.0480652 1.90068 0.0218238 1.90033 0.00466488C 1.90015 -0.00411454 1.9 -0.0110307 1.8999 -0.0154491C 1.89985 -0.0177576 1.89981 -0.019642 1.89978 -0.0207996C 1.89977 -0.0214279 1.89976 -0.0219739 1.89975 -0.0222884C 1.89975 -0.0224704 1.89974 -0.022644 1.89974 -0.022735C 1.89974 -0.0228753 1.89974 -0.0229825 0.9 0ZM 0.948683 18.5162C 1.00533 18.3455 1.05213 18.1807 1.10424 18.0363C 1.15554 17.8927 1.19811 17.8056 1.23205 17.7547L -0.432051 16.6453C -0.729825 17.092 -0.88791 17.7015 -0.948683 17.8838L 0.948683 18.5162ZM 1.37014 16.9575C 1.25817 16.5096 1.2 16.2483 1.2 16.1L -0.799999 16.1C -0.799999 16.5517 -0.658169 17.0904 -0.570143 17.4425L 1.37014 16.9575Z"/>
<path id="path8_stroke" d="M -1 0C -1 2.45585 0.695392 4.47731 3.05227 5.82983C 5.43181 7.19536 8.66083 8 12.2 8L 12.2 6C 8.93917 6 6.06819 5.25464 4.04773 4.09517C 2.00461 2.92269 1 1.44415 1 0L -1 0ZM 12.2 8C 15.6913 8 18.9187 7.1945 21.3081 5.83105C 23.6708 4.48286 25.4 2.46289 25.4 0L 23.4 0C 23.4 1.43711 22.3792 2.91714 20.3169 4.09396C 18.2813 5.2555 15.4087 6 12.2 6L 12.2 8Z"/>
<path id="path9_stroke" d="M -1 7.62939e-07C -0.992508 0.522185 -0.86012 1.07959 -0.748683 1.41623L 1.14868 0.783771C 1.06012 0.52041 0.992507 0.277816 0.999999 7.62939e-07L -1 7.62939e-07Z"/>
<path id="path10_stroke" d="M 0.970142 1.34253C 1.05817 0.990437 1.2 0.451698 1.2 7.62939e-07L -0.8 7.62939e-07C -0.8 0.148304 -0.858168 0.409561 -0.970143 0.857464L 0.970142 1.34253Z"/>
<path id="path11_stroke" d="M 26.6 2.4L 27.5987 2.45122L 27.6051 2.32642L 27.5806 2.20388L 26.6 2.4ZM 26.4 0.999999L 27.3806 0.803883L 27.3684 0.742834L 27.3487 0.683771L 26.4 0.999999ZM 26 -7.62939e-07L 26.8321 -0.554701L 25.6325 -2.35396L 25.0385 -0.274722L 26 -7.62939e-07ZM 0.6 -7.62939e-07L 1.56352 -0.267645L 0.979124 -2.37146L -0.232051 -0.554701L 0.6 -7.62939e-07ZM 0.2 0.999999L -0.770142 0.757464L -0.775914 0.780549L -0.780581 0.803883L 0.2 0.999999ZM -7.62939e-07 2.4L -0.980581 2.20388L -1.00509 2.32642L -0.998688 2.45122L -7.62939e-07 2.4ZM 13.3 10.5C 17.0195 10.4928 20.5329 9.63377 23.0477 8.29371C 25.5766 6.93708 27.4723 4.91513 27.5987 2.45122L 25.6013 2.34879C 25.5277 3.78488 24.3734 5.31292 22.1023 6.53129C 19.8171 7.76623 16.7805 8.50717 13.3 8.5L 13.3 10.5ZM 27.5806 2.20388C 27.4951 1.80146 27.4951 1.40146 27.3806 0.803883L 25.4194 1.19612C 25.5049 1.59854 25.5049 1.99854 25.6194 2.59612L 27.5806 2.20388ZM 27.3487 0.683771C 27.2879 0.501446 27.1298 -0.108041 26.8321 -0.554701L 25.1679 0.554699C 25.2019 0.605613 25.2445 0.692706 25.2958 0.836337C 25.3479 0.98069 25.3947 1.14554 25.4513 1.31623L 27.3487 0.683771ZM 25.0385 -0.274722C 24.6452 1.10183 23.3435 2.49844 21.2238 3.57006C 19.0807 4.66114 16.3828 5.30689 13.3 5.3L 13.3 7.3C 16.6172 7.29311 19.7693 6.53886 22.1262 5.35493C 24.5065 4.15156 26.3548 2.39817 26.9615 0.27472L 25.0385 -0.274722ZM 13.3 5.3C 10.2132 5.30642 7.51341 4.684 5.37221 3.60557C 3.25886 2.5489 1.95886 1.15559 1.56352 -0.267645L -0.363518 0.267643C 0.241137 2.4444 2.09114 4.2011 4.47779 5.39443C 6.83659 6.566 9.98684 7.29358 13.3 7.3L 13.3 5.3ZM -0.232051 -0.554701C -0.498316 -0.139352 -0.66012 0.320412 -0.770142 0.757464L 1.17014 1.24253C 1.26012 0.879586 1.29832 0.73935 1.43205 0.554699L -0.232051 -0.554701ZM -0.780581 0.803883C -0.895133 1.40146 -0.895134 1.80146 -0.980581 2.20388L 0.98058 2.59612C 1.09513 1.99854 1.09513 1.59854 1.18058 1.19612L -0.780581 0.803883ZM -0.998688 2.45122C -0.872334 4.91513 1.02341 6.93708 3.55227 8.29371C 6.06713 9.63377 9.58049 10.4928 13.3 10.5L 13.3 8.5C 9.8195 8.50717 6.78287 7.76623 4.49773 6.53129C 2.22659 5.31292 1.07233 3.78488 0.998687 2.34879L -0.998688 2.45122Z"/>
<path id="path12_stroke" d="M -0.961524 0.27472C -0.354826 2.39817 1.49351 4.15156 3.87382 5.35493C 6.2307 6.53886 9.38282 7.29311 12.7 7.3L 12.7 5.3C 9.61718 5.30689 6.9193 4.66114 4.77617 3.57006C 2.65649 2.49844 1.35482 1.10183 0.961524 -0.274722L -0.961524 0.27472ZM 12.7 7.3C 16.0132 7.29358 19.1634 6.566 21.5222 5.39443C 23.9089 4.2011 25.7589 2.4444 26.3635 0.267643L 24.4365 -0.267645C 24.0411 1.15559 22.7411 2.5489 20.6278 3.60557C 18.4866 4.684 15.7868 5.30642 12.7 5.3L 12.7 7.3Z"/>
<path id="path13_stroke" d="M -0.33576 2.52951C -0.540378 2.71494 -0.555928 3.03114 -0.370493 3.23576C -0.185058 3.44038 0.131142 3.45593 0.33576 3.27049L -0.33576 2.52951ZM 17.8863 3.28938C 18.1014 3.46261 18.4161 3.42871 18.5894 3.21366C 18.7626 2.99862 18.7287 2.68386 18.5137 2.51062L 17.8863 3.28938ZM 0 2.9C 0.33576 3.27049 0.335606 3.27063 0.335464 3.27076C 0.335433 3.27079 0.335303 3.27091 0.335241 3.27096C 0.335254 3.27095 0.334982 3.2712 0.33501 3.27117C 0.334844 3.27132 0.335088 3.2711 0.335417 3.27081C 0.336524 3.26982 0.337492 3.26896 0.33969 3.26702C 0.344994 3.26235 0.351506 3.25667 0.362036 3.24769C 0.384956 3.22811 0.416164 3.20199 0.461559 3.16567C 0.556254 3.0898 0.690526 2.98693 0.877048 2.85779C 1.25868 2.59304 1.80755 2.25179 2.55075 1.90224C 4.05793 1.19033 6.22682 0.494063 9.1 0.5L 9.1 -0.5C 6.07318 -0.494063 3.69206 0.259667 2.12425 0.997758C 1.32995 1.37321 0.710071 1.75696 0.307327 2.03596C 0.101661 2.1787 -0.0601606 2.30238 -0.163512 2.38511C -0.217141 2.42809 -0.260445 2.46427 -0.28728 2.48717C -0.301628 2.49943 -0.313805 2.51003 -0.320971 2.51634C -0.325007 2.51989 -0.328719 2.52319 -0.330733 2.52499C -0.331964 2.52609 -0.333225 2.52722 -0.333839 2.52777C -0.334258 2.52815 -0.334739 2.52858 -0.334948 2.52877C -0.335108 2.52892 -0.335311 2.5291 -0.335391 2.52917C -0.335581 2.52935 -0.33576 2.52951 0 2.9ZM 9.1 0.5C 11.7732 0.494063 13.9449 1.19144 15.5048 1.90481C 16.2762 2.25644 16.8671 2.60145 17.2814 2.86762C 17.485 2.99819 17.6353 3.10331 17.7407 3.17995C 17.7918 3.21702 17.828 3.2443 17.854 3.26426C 17.8663 3.27363 17.8743 3.27989 17.8805 3.28475C 17.8832 3.28688 17.8846 3.28803 17.886 3.28911C 17.8865 3.2895 17.8866 3.28957 17.8868 3.28977C 17.8868 3.28979 17.8868 3.28971 17.8867 3.2897C 17.8867 3.28967 17.8866 3.28959 17.8866 3.28957C 17.8865 3.28948 17.8863 3.28938 18.2 2.9C 18.5137 2.51062 18.5135 2.5105 18.5133 2.51036C 18.5133 2.5103 18.5131 2.51015 18.5129 2.51003C 18.5127 2.50987 18.5123 2.50951 18.5119 2.50918C 18.5112 2.50867 18.51 2.50769 18.5087 2.50668C 18.5066 2.50498 18.5028 2.50197 18.4985 2.49861C 18.4908 2.4925 18.4779 2.48247 18.4624 2.4706C 18.433 2.44808 18.3865 2.41306 18.3284 2.37083C 18.2155 2.28888 18.0416 2.16744 17.8217 2.02613C 17.3892 1.74855 16.7363 1.36856 15.9202 0.995185C 14.3051 0.258558 11.9268 -0.494063 9.1 -0.5L 9.1 0.5Z"/>
<path id="path14_stroke" d="M -0.255533 2.42554C -0.407113 2.56667 -0.415587 2.80395 -0.274461 2.95553C -0.133335 3.10711 0.103951 3.11559 0.255531 2.97446L -0.255533 2.42554ZM 16.4625 2.99023C 16.6228 3.12138 16.8591 3.09776 16.9902 2.93746C 17.1214 2.77717 17.0978 2.54091 16.9375 2.40977L 16.4625 2.99023ZM -7.62939e-07 2.7C 0.255531 2.97446 0.255418 2.97457 0.255315 2.97466C 0.255296 2.97468 0.255204 2.97476 0.255165 2.9748C 0.25516 2.97481 0.255051 2.97491 0.255061 2.9749C 0.255247 2.97473 0.255271 2.9747 0.25564 2.97436C 0.256714 2.97338 0.257806 2.97238 0.259942 2.97045C 0.264895 2.96597 0.271239 2.96029 0.281084 2.95167C 0.302172 2.93317 0.331413 2.90805 0.373237 2.87371C 0.45982 2.80253 0.583805 2.70511 0.754702 2.58382C 1.10296 2.33621 1.60728 2.01522 2.28786 1.68779C 3.66475 1.02299 5.65873 0.370373 8.3 0.375L 8.3 -0.375C 5.54127 -0.370373 3.38525 0.327013 1.96214 1.01221C 1.24271 1.35979 0.684534 1.71379 0.320296 1.97243C 0.134943 2.10426 -0.00982191 2.21778 -0.102926 2.29426C -0.150946 2.33374 -0.189283 2.36663 -0.213313 2.38769C -0.226026 2.39884 -0.236625 2.40832 -0.242976 2.41406C -0.246491 2.41724 -0.249642 2.42011 -0.251397 2.42172C -0.252442 2.42268 -0.253479 2.42364 -0.254001 2.42412C -0.254345 2.42444 -0.254729 2.42479 -0.254901 2.42495C -0.255028 2.42507 -0.255187 2.42522 -0.25525 2.42528C -0.255397 2.42541 -0.255533 2.42554 -7.62939e-07 2.7ZM 8.3 0.375C 10.7919 0.370475 12.8138 1.02439 14.2554 1.69048C 14.9697 2.01964 15.518 2.34372 15.9002 2.59246C 16.0885 2.71489 16.2284 2.8141 16.3258 2.88588C 16.3732 2.92082 16.4073 2.94684 16.4314 2.96564C 16.4429 2.97456 16.4506 2.9807 16.4564 2.98533C 16.459 2.98741 16.4605 2.98863 16.4619 2.98969C 16.4624 2.9901 16.4625 2.99024 16.4628 2.99045C 16.4629 2.99049 16.4628 2.99049 16.4628 2.99046C 16.4628 2.99045 16.4627 2.99039 16.4627 2.99038C 16.4626 2.99031 16.4625 2.99023 16.7 2.7C 16.9375 2.40977 16.9373 2.40967 16.9372 2.40956C 16.9372 2.40951 16.937 2.40939 16.9369 2.40929C 16.9367 2.40915 16.9363 2.40885 16.936 2.40857C 16.9355 2.40813 16.9344 2.40728 16.9333 2.4064C 16.9314 2.40486 16.9281 2.40221 16.9243 2.39918C 16.9173 2.3936 16.9059 2.38457 16.892 2.37372C 16.8653 2.35296 16.8234 2.32098 16.7707 2.28209C 16.6677 2.20621 16.5099 2.09448 16.3092 1.9638C 15.9132 1.70628 15.3178 1.35536 14.5696 1.00952C 13.0862 0.325609 10.9081 -0.370475 8.3 -0.375L 8.3 0.375Z"/>
<path id="path15_stroke" d="M -0.173277 2.31979C -0.272803 2.41549 -0.275906 2.57375 -0.180208 2.67328C -0.0845094 2.7728 0.0737514 2.77591 0.173278 2.68021L -0.173277 2.31979ZM 15.0431 2.6946C 15.1505 2.78128 15.3079 2.76441 15.3946 2.65694C 15.4813 2.54946 15.4644 2.39207 15.3569 2.3054L 15.0431 2.6946ZM 3.8147e-07 2.5C 0.173278 2.68021 0.173205 2.68028 0.173141 2.68034C 0.173134 2.68035 0.17308 2.6804 0.173064 2.68041C 0.173041 2.68044 0.17304 2.68044 0.173087 2.68039C 0.173292 2.68019 0.173431 2.68006 0.17384 2.67968C 0.174881 2.67869 0.176098 2.67754 0.178172 2.67561C 0.182776 2.67131 0.188955 2.6656 0.198118 2.65731C 0.217376 2.63989 0.244659 2.61571 0.28292 2.5833C 0.361402 2.51677 0.475138 2.42468 0.63044 2.31113C 0.945376 2.08058 1.40532 1.77954 2.02341 1.47405C 3.27021 0.856159 5.09004 0.246771 7.5 0.25L 7.5 -0.25C 5.00995 -0.246772 3.07979 0.39384 1.80158 1.02595C 1.15718 1.34546 0.660874 1.66942 0.335185 1.90762C 0.170175 2.02845 0.0425051 2.13167 -0.0403411 2.20185C -0.0827447 2.23781 -0.116106 2.26734 -0.137327 2.28653C -0.148403 2.29656 -0.157421 2.30489 -0.162956 2.31005C -0.16595 2.31284 -0.168537 2.31528 -0.170033 2.3167C -0.170892 2.31751 -0.171705 2.31829 -0.172134 2.3187C -0.172404 2.31896 -0.172691 2.31923 -0.172825 2.31936C -0.172921 2.31945 -0.173034 2.31956 -0.173081 2.3196C -0.173184 2.3197 -0.173277 2.31979 3.8147e-07 2.5ZM 7.5 0.25C 9.76092 0.246926 11.6337 0.85774 12.97 1.47687C 13.634 1.78394 14.15 2.08776 14.508 2.31932C 14.6853 2.43387 14.8186 2.52752 14.9105 2.59458C 14.9557 2.6275 14.9887 2.65247 15.0117 2.67015C 15.0229 2.6787 15.0307 2.6848 15.0363 2.68923C 15.0389 2.69129 15.0406 2.69263 15.0419 2.69368C 15.0425 2.69414 15.0428 2.69436 15.043 2.69459C 15.0431 2.69467 15.0431 2.69467 15.0432 2.69471C 15.0432 2.69471 15.0432 2.69468 15.0432 2.69469C 15.0431 2.69465 15.0431 2.6946 15.2 2.5C 15.3569 2.3054 15.3569 2.30533 15.3568 2.30526C 15.3567 2.30522 15.3566 2.30513 15.3565 2.30506C 15.3564 2.30495 15.3561 2.30472 15.3558 2.3045C 15.3553 2.30412 15.3545 2.30344 15.3536 2.30269C 15.3519 2.30134 15.349 2.29909 15.3457 2.29643C 15.3393 2.29139 15.3291 2.28346 15.3164 2.27369C 15.2917 2.25476 15.2537 2.22601 15.2051 2.19058C 15.1096 2.12091 14.9647 2.01926 14.7795 1.89943C 14.4125 1.66224 13.866 1.34106 13.18 1.02313C 11.8163 0.392259 9.83908 -0.246927 7.5 -0.25L 7.5 0.25Z"/>
<path id="path16_stroke" d="M 0.0916784 -0.0849691C 0.0447504 -0.135602 -0.0343383 -0.138605 -0.084971 -0.0916772C -0.135604 -0.0447492 -0.138607 0.0343394 -0.0916791 0.0849722L 0.0916784 -0.0849691ZM 11.5032 4.02496C 11.5723 4.02316 11.6268 3.96577 11.625 3.89675C 11.6232 3.82774 11.5658 3.77325 11.4968 3.77504L 11.5032 4.02496ZM -3.8147e-07 1.52588e-06C -0.0916791 0.0849722 -0.0916216 0.0850342 -0.0915496 0.0851117C -0.0915063 0.0851584 -0.0914197 0.0852516 -0.0913329 0.0853448C -0.0911881 0.0855004 -0.0909275 0.0857801 -0.0906377 0.0860903C -0.0901157 0.0866489 -0.0892448 0.0875782 -0.0881998 0.0886876C -0.0862261 0.0907824 -0.0830855 0.0940972 -0.0791337 0.0982235C -0.071466 0.106228 -0.0595861 0.118489 -0.0442297 0.133987C -0.0140029 0.164484 0.0321763 0.209996 0.0927429 0.266896C 0.212846 0.379688 0.395084 0.542338 0.635976 0.73511C 1.11545 1.11862 1.84105 1.63165 2.80458 2.13577C 4.72582 3.13992 7.63126 4.12359 11.5032 4.02496L 11.4968 3.77504C 7.66874 3.87641 4.82418 2.91008 2.92042 1.91423C 1.97145 1.41835 1.2658 0.91888 0.792149 0.539893C 0.556478 0.351414 0.381685 0.195315 0.263897 0.0846698C 0.205518 0.0298504 0.162537 -0.0125283 0.13334 -0.0419923C 0.118985 -0.0564747 0.108587 -0.067211 0.101405 -0.0747097C 0.0979315 -0.0783349 0.0955042 -0.0808978 0.0937662 -0.0827427C 0.0929553 -0.0836033 0.0924344 -0.0841594 0.0920286 -0.0845938C 0.0918545 -0.08478 0.0917672 -0.0848737 0.0916801 -0.0849674C 0.0916509 -0.0849988 0.0916505 -0.0849992 0.0916359 -0.0850149C 0.0916499 -0.0849998 0.0916784 -0.0849691 -3.8147e-07 1.52588e-06Z"/>
<path id="path17_stroke" d="M 0.144337 -0.138444C 0.0678755 -0.218158 -0.05873 -0.220796 -0.138445 -0.144335C -0.218159 -0.0678736 -0.220797 0.0587319 -0.144336 0.138447L 0.144337 -0.138444ZM 13.3162 4.39934C 13.4263 4.39038 13.5083 4.29387 13.4993 4.18377C 13.4904 4.07368 13.3939 3.9917 13.2838 4.00066L 13.3162 4.39934ZM 3.8147e-07 1.52588e-06C -0.144336 0.138447 -0.144251 0.138535 -0.144149 0.138642C -0.144091 0.138702 -0.14397 0.138828 -0.143853 0.138948C -0.143665 0.139144 -0.143316 0.139506 -0.142939 0.139896C -0.142276 0.140582 -0.141144 0.14175 -0.139816 0.143113C -0.137341 0.145653 -0.133351 0.149727 -0.128401 0.154729C -0.118868 0.16436 -0.103993 0.179224 -0.0849522 0.19785C -0.0476252 0.234349 0.00956248 0.28902 0.0839295 0.356908C 0.231062 0.491166 0.454127 0.684871 0.745755 0.912397C 1.32542 1.36437 2.19787 1.96571 3.33477 2.54099C 5.59952 3.68521 8.97758 4.74874 13.3162 4.39934L 13.2838 4.00066C 9.02242 4.35126 5.75048 3.31479 3.51524 2.18401C 2.40213 1.62179 1.56208 1.04189 0.991746 0.59698C 0.708374 0.376069 0.497064 0.192431 0.353571 0.0614538C 0.282626 -0.00327502 0.230439 -0.0531935 0.194719 -0.0881298C 0.177236 -0.105222 0.164669 -0.117787 0.155892 -0.126656C 0.151686 -0.130904 0.148804 -0.133848 0.146696 -0.136012C 0.145732 -0.137002 0.145143 -0.137609 0.14466 -0.138109C 0.144464 -0.138312 0.144383 -0.138396 0.144284 -0.138498C 0.144257 -0.138526 0.144271 -0.138512 0.144257 -0.138527C 0.144288 -0.138494 0.144337 -0.138444 3.8147e-07 1.52588e-06Z"/>
<path id="path18_stroke" d="M 0.196137 -0.192755C 0.0896807 -0.301079 -0.084433 -0.302593 -0.192757 -0.196136C -0.301081 -0.08968 -0.302595 0.0844338 -0.196139 0.192758L 0.196137 -0.192755ZM 15.2345 4.87283C 15.3851 4.8538 15.4919 4.71622 15.4728 4.56554C 15.4538 4.41486 15.3162 4.30813 15.1655 4.32717L 15.2345 4.87283ZM -7.62939e-07 1.52588e-06C -0.196139 0.192758 -0.196029 0.19287 -0.195897 0.193004C -0.195824 0.193078 -0.19567 0.193234 -0.195524 0.193382C -0.195291 0.193618 -0.194852 0.194062 -0.194386 0.194534C -0.193571 0.195356 -0.19217 0.196768 -0.190541 0.198401C -0.187522 0.201428 -0.182627 0.20631 -0.176597 0.212267C -0.165021 0.223698 -0.146907 0.241402 -0.123839 0.263491C -0.0787033 0.306695 -0.00950545 0.371515 0.0799799 0.451704C 0.256827 0.610108 0.524485 0.838629 0.87144 1.10551C 1.56059 1.63524 2.59227 2.3373 3.91499 2.9962C 6.54856 4.30561 10.4269 5.47403 15.2345 4.87283L 15.1655 4.32717C 10.4731 4.92597 6.75144 3.79439 4.16001 2.5038C 2.87023 1.86271 1.88316 1.18976 1.20668 0.669493C 0.870826 0.411373 0.618953 0.196145 0.446972 0.0420491C 0.362043 -0.0340118 0.299503 -0.0926297 0.256503 -0.1338C 0.235504 -0.153899 0.220452 -0.168617 0.209878 -0.179061C 0.204833 -0.184041 0.201408 -0.18746 0.198874 -0.19C 0.197727 -0.19115 0.197045 -0.191837 0.19647 -0.192419C 0.196241 -0.192649 0.196159 -0.192733 0.196044 -0.192849C 0.196016 -0.192877 0.19604 -0.192854 0.196026 -0.192868C 0.196071 -0.192822 0.196137 -0.192755 -7.62939e-07 1.52588e-06Z"/>
<path id="path19_stroke" d="M 0.247487 -0.247486C 0.110804 -0.384169 -0.110804 -0.384169 -0.247487 -0.247486C -0.384171 -0.110802 -0.384171 0.110805 -0.247487 0.247489L 0.247487 -0.247486ZM 17.1597 5.24487C 17.3502 5.21191 17.4778 5.03078 17.4449 4.84031C 17.4119 4.64984 17.2308 4.52216 17.0403 4.55513L 17.1597 5.24487ZM 0 1.52588e-06C -0.247487 0.247489 -0.247352 0.247625 -0.24719 0.247786C -0.247102 0.247873 -0.246915 0.24806 -0.246739 0.248236C -0.246461 0.248513 -0.245932 0.249039 -0.245376 0.249592C -0.24441 0.25055 -0.242737 0.252208 -0.240806 0.254111C -0.237243 0.257623 -0.23144 0.263314 -0.224327 0.270224C -0.210706 0.283454 -0.189345 0.303992 -0.162245 0.329535C -0.109295 0.379422 -0.0280661 0.454349 0.0765523 0.546746C 0.283133 0.729108 0.595455 0.992084 0.997791 1.29756C 1.79651 1.90352 2.9878 2.70328 4.49666 3.43962C 7.49964 4.90178 11.8812 6.14949 17.1597 5.24487L 17.0403 4.55513C 11.9188 5.45051 7.75035 4.24822 4.80334 2.81038C 3.3372 2.09672 2.20349 1.33398 1.42096 0.739946C 1.03267 0.445419 0.740305 0.19902 0.539854 0.0220066C 0.440957 -0.0652834 0.368084 -0.132544 0.317811 -0.179922C 0.2933 -0.203013 0.27577 -0.219876 0.263402 -0.231891C 0.257521 -0.237603 0.253554 -0.241494 0.250598 -0.244409C 0.249268 -0.245719 0.248494 -0.246487 0.247826 -0.24715C 0.247567 -0.247407 0.247483 -0.247491 0.247352 -0.247621C 0.247324 -0.247649 0.247358 -0.247615 0.247344 -0.24763C 0.247403 -0.24757 0.247487 -0.247486 0 1.52588e-06Z"/>
<path id="path20_stroke" d="M 0.298551 -0.302477C 0.131497 -0.467361 -0.137593 -0.465602 -0.302477 -0.298548C -0.467362 -0.131494 -0.465603 0.137595 -0.298549 0.30248L 0.298551 -0.302477ZM 18.989 5.61556C 19.2186 5.56638 19.3647 5.34046 19.3156 5.11095C 19.2664 4.88144 19.0405 4.73525 18.8109 4.78443L 18.989 5.61556ZM 7.62939e-07 1.52588e-06C -0.298549 0.30248 -0.298389 0.302638 -0.298199 0.302825C -0.298097 0.302926 -0.297877 0.303142 -0.297672 0.303344C -0.297349 0.303661 -0.296733 0.304266 -0.296088 0.304899C -0.294973 0.305992 -0.293032 0.307889 -0.290803 0.310059C -0.286699 0.314053 -0.279999 0.320542 -0.271811 0.3284C -0.256155 0.34342 -0.231571 0.366774 -0.200464 0.395756C -0.139737 0.452313 -0.0465661 0.537308 0.073061 0.641888C 0.309154 0.848184 0.665673 1.14555 1.12256 1.48957C 2.02924 2.17174 3.37697 3.06919 5.06571 3.88297C 8.42588 5.49798 13.2878 6.82482 18.989 5.61556L 18.8109 4.78443C 13.3122 5.97517 8.72412 4.70202 5.43428 3.11703C 3.79803 2.33081 2.52076 1.47826 1.63369 0.810427C 1.1937 0.479453 0.86116 0.201818 0.632409 0.00186475C 0.519614 -0.0966797 0.436418 -0.172623 0.378884 -0.226222C 0.35086 -0.252318 0.330839 -0.271347 0.316674 -0.28494C 0.309951 -0.291388 0.305435 -0.295764 0.302052 -0.299057C 0.300537 -0.300531 0.299666 -0.301384 0.298905 -0.30213C 0.298613 -0.302416 0.298525 -0.302502 0.298378 -0.302647C 0.298348 -0.302676 0.298392 -0.302633 0.298377 -0.302648C 0.298449 -0.302577 0.298551 -0.302477 7.62939e-07 1.52588e-06Z"/>
<path id="path21_stroke" d="M 0.349418 -0.357639C 0.151899 -0.550617 -0.164662 -0.546936 -0.357641 -0.349417C -0.550619 -0.151898 -0.546938 0.164663 -0.349419 0.357642L 0.349418 -0.357639ZM 20.9165 6.08623C 21.1851 6.02187 21.3506 5.752 21.2862 5.48347C 21.2219 5.21493 20.952 5.04941 20.6835 5.11377L 20.9165 6.08623ZM -3.8147e-07 1.52588e-06C -0.349419 0.357642 -0.349234 0.357822 -0.349017 0.358035C -0.3489 0.358149 -0.348648 0.358394 -0.348414 0.358622C -0.348047 0.358979 -0.347344 0.359663 -0.34661 0.360375C -0.345346 0.361602 -0.34314 0.363738 -0.340612 0.366174C -0.335967 0.37065 -0.328372 0.377934 -0.319109 0.386739C -0.301415 0.403551 -0.273609 0.42972 -0.238487 0.462149C -0.169962 0.525396 -0.0648139 0.620491 0.0699095 0.737342C 0.335697 0.967755 0.736756 1.29986 1.24894 1.68319C 2.2651 2.44308 3.77218 3.44122 5.64688 4.33862C 9.37647 6.11892 14.7431 7.54995 20.9165 6.08623L 20.6835 5.11377C 14.7569 6.55005 9.72353 5.18108 6.07812 3.43638C 4.26532 2.57128 2.84115 1.62567 1.84794 0.88244C 1.35543 0.514209 0.982271 0.204904 0.725012 -0.0181983C 0.598212 -0.128106 0.504629 -0.212795 0.439804 -0.272644C 0.408252 -0.301762 0.385729 -0.32297 0.369761 -0.338146C 0.362194 -0.345335 0.357126 -0.350198 0.353315 -0.353871C 0.351615 -0.35551 0.350645 -0.356449 0.34979 -0.357278C 0.349465 -0.357594 0.349373 -0.357684 0.349209 -0.357843C 0.349178 -0.357873 0.349231 -0.357822 0.349215 -0.357837C 0.3493 -0.357754 0.349418 -0.357639 -3.8147e-07 1.52588e-06Z"/>
</defs>
</svg>
