<?xml version="1.0" encoding="utf-8"?>
<!-- Generator: Adobe Illustrator 21.0.0, SVG Export Plug-In . SVG Version: 6.00 Build 0)  -->
<svg version="1.1" id="Layer_1" xmlns="http://www.w3.org/2000/svg" xmlns:xlink="http://www.w3.org/1999/xlink" x="0px" y="0px"
	 viewBox="0 0 19 18" style="enable-background:new 0 0 19 18;" xml:space="preserve">
<style type="text/css">
	.st0{fill:#050406;}
</style>
<g>
	<g>
		<path class="st0" d="M9.6,1C5.1,1.1,1.5,4.8,1.5,9.4c0.1,4.6,3.8,8.2,8.4,8.1c4.6-0.1,8.2-3.8,8.1-8.4C17.9,4.6,14.2,1,9.6,1z
			 M10.6,3.8c0.8,0,1.1,0.5,1.1,1c0,0.7-0.6,1.3-1.5,1.3C9.3,6.2,9,5.8,9,5.1C9,4.6,9.5,3.8,10.6,3.8z M8.4,14.4
			c-0.6,0-1-0.3-0.6-1.9l0.7-2.7c0.1-0.4,0.1-0.6,0-0.6c-0.2,0-0.9,0.3-1.4,0.6L6.8,9.4c1.4-1.2,3-1.8,3.7-1.8
			c0.6,0,0.7,0.7,0.4,1.7l-0.8,2.8c-0.1,0.5-0.1,0.7,0.1,0.7c0.2,0,0.7-0.2,1.3-0.6l0.3,0.4C10.5,13.9,9,14.4,8.4,14.4z"/>
	</g>
</g>
</svg>
