<?xml version="1.0" encoding="utf-8"?>
<!-- Generator: Adobe Illustrator 21.0.0, SVG Export Plug-In . SVG Version: 6.00 Build 0)  -->
<svg version="1.1" id="Layer_1" xmlns="http://www.w3.org/2000/svg" xmlns:xlink="http://www.w3.org/1999/xlink" x="0px" y="0px"
	 viewBox="0 0 512 512" style="enable-background:new 0 0 512 512;" xml:space="preserve">
<style type="text/css">
	.st0{fill:none;}
</style>
<g>
	<path class="st0" d="M257.8,100.6c-1.5,0.2-3,0.2-4.5,0l-82.2-12.5l-69.5,10.6V420l60.4-45.9c2.7-2,5.9-3,9-3c3.2,0,6.4,1,9,3
		l75.4,57.2l75.4-57.2c5.3-4.1,12.7-4.1,18.1,0l60.4,45.9V98.6L340,88.1L257.8,100.6z M352.3,314.5H158.8c-8.3,0-15-6.7-15-15
		s6.7-15,15-15h193.5c8.3,0,15,6.7,15,15S360.6,314.5,352.3,314.5z M352.3,244.4H158.8c-8.3,0-15-6.7-15-15c0-8.3,6.7-15,15-15
		h193.5c8.3,0,15,6.7,15,15C367.3,237.7,360.6,244.4,352.3,244.4z M367.3,159.3c0,8.3-6.7,15-15,15H158.8c-8.3,0-15-6.7-15-15
		s6.7-15,15-15h193.5C360.6,144.3,367.3,151,367.3,159.3z"/>
	<path d="M426.6,71l-84.4-12.8c-1.5-0.2-3-0.2-4.5,0l-82.2,12.5l-82.2-12.5c-1.5-0.2-3-0.2-4.5,0L84.4,71
		c-7.3,1.1-12.7,7.4-12.7,14.8v364.4c0,5.7,3.2,10.9,8.3,13.4c5.1,2.5,11.2,2,15.7-1.5l75.4-57.2l75.4,57.2c5.3,4.1,12.7,4.1,18.1,0
		l75.4-57.2l75.4,57.2c2.7,2,5.8,3,9,3c2.3,0,4.5-0.5,6.6-1.6c5.1-2.5,8.3-7.7,8.3-13.4V85.8C439.3,78.4,433.9,72.1,426.6,71z
		 M409.4,420L349,374.1c-5.3-4.1-12.7-4.1-18.1,0l-75.4,57.2l-75.4-57.2c-2.7-2-5.9-3-9-3c-3.2,0-6.4,1-9,3L101.6,420V98.6
		l69.5-10.6l82.2,12.5c1.5,0.2,3,0.2,4.5,0L340,88.1l69.5,10.6V420z"/>
	<path d="M143.8,159.3c0,8.3,6.7,15,15,15h193.5c8.3,0,15-6.7,15-15s-6.7-15-15-15H158.8C150.5,144.3,143.8,151,143.8,159.3z"/>
	<path d="M352.3,214.4H158.8c-8.3,0-15,6.7-15,15c0,8.3,6.7,15,15,15h193.5c8.3,0,15-6.7,15-15C367.3,221.1,360.6,214.4,352.3,214.4
		z"/>
	<path d="M352.3,284.6H158.8c-8.3,0-15,6.7-15,15s6.7,15,15,15h193.5c8.3,0,15-6.7,15-15S360.6,284.6,352.3,284.6z"/>
</g>
</svg>
