<svg xmlns="http://www.w3.org/2000/svg" width="23" height="18.031" viewBox="0 0 23 18.031">
  <defs>
    <style>
      .cls-1 {
        fill: #454545;
        fill-rule: evenodd;
      }
    </style>
  </defs>
  <path id="Arrow_Right" data-name="Arrow Right" class="cls-1" d="M1569,527h21a1,1,0,0,1,0,2h-21A1,1,0,0,1,1569,527Zm13.73-7.717,7.95,7.952a1.021,1.021,0,0,1-1.44,1.447l-7.96-7.953a1.04,1.04,0,0,1,0-1.446A1.026,1.026,0,0,1,1582.73,519.283Zm0,17.431,7.95-7.952a1.021,1.021,0,0,0-1.44-1.447l-7.96,7.953a1.04,1.04,0,0,0,0,1.446A1.026,1.026,0,0,0,1582.73,536.714Z" transform="translate(-1568 -519)"/>
</svg>
