<svg xmlns="http://www.w3.org/2000/svg" width="23" height="18" viewBox="0 0 23 18">
  <defs>
    <style>
      .cls-1 {
        fill: #fdd62b;
        fill-rule: evenodd;
      }
    </style>
  </defs>
  <path id="Arrow_Left" data-name="Arrow Left" class="cls-1" d="M329.984,526h21.032a0.984,0.984,0,1,1,0,1.968H329.984A0.984,0.984,0,1,1,329.984,526Zm7.285-7.717-7.952,7.938a1.021,1.021,0,1,0,1.446,1.443l7.952-7.937A1.022,1.022,0,0,0,337.269,518.283Zm0,17.4-7.952-7.937a1.022,1.022,0,1,1,1.446-1.444l7.952,7.937A1.022,1.022,0,0,1,337.269,535.682Z" transform="translate(-329 -518)"/>
</svg>
