<svg xmlns="http://www.w3.org/2000/svg" width="19" height="15" viewBox="0 0 19 15">
  <defs>
    <style>
      .cls-1 {
        fill: #454545;
        fill-rule: evenodd;
      }
    </style>
  </defs>
  <path class="cls-1" d="M1209.95,115.665h-8.6a1.017,1.017,0,0,1-.97-0.653l-2.32-6.2a0.93,0.93,0,0,1,.12-0.9,1.064,1.064,0,0,1,.85-0.416h12.94a0.983,0.983,0,1,1,0,1.964h-11.48l1.59,4.235h7.87A0.983,0.983,0,1,1,1209.95,115.665Zm-9.02,2.619a0.771,0.771,0,1,1,.77.732A0.748,0.748,0,0,1,1200.93,118.284ZM1201.7,120a1.715,1.715,0,1,1,1.8-1.713A1.761,1.761,0,0,1,1201.7,120Zm0-1.964a0.251,0.251,0,1,0,.26.251A0.252,0.252,0,0,0,1201.7,118.033Zm7.8,0.251a0.771,0.771,0,1,1,.77.732A0.748,0.748,0,0,1,1209.5,118.284Zm0.77,1.713a1.715,1.715,0,1,1,1.8-1.713A1.755,1.755,0,0,1,1210.27,120Zm0-1.964a0.252,0.252,0,1,0,0,.5A0.251,0.251,0,1,0,1210.27,118.033Zm-0.32-2.368a1.053,1.053,0,0,1-.33-0.052,0.975,0.975,0,0,1-.65-1.245l2.8-7.87a2.41,2.41,0,0,1,2.19-1.5h2.01a0.984,0.984,0,1,1,0,1.965h-2.01a0.386,0.386,0,0,0-.23.161l-2.8,7.869A1.038,1.038,0,0,1,1209.95,115.665Z" transform="translate(-1198 -105)"/>
</svg>
