<?xml version="1.0" encoding="utf-8"?>
<!-- Generator: Adobe Illustrator 21.0.0, SVG Export Plug-In . SVG Version: 6.00 Build 0)  -->
<svg version="1.1" id="Layer_1" xmlns="http://www.w3.org/2000/svg" xmlns:xlink="http://www.w3.org/1999/xlink" x="0px" y="0px"
	 viewBox="0 0 28 19" style="enable-background:new 0 0 28 19;" xml:space="preserve">
<style type="text/css">
	.st0{fill:none;}
	.st1{fill:#71451C;}
</style>
<g>
	<path class="st0" d="M2,13.9v1.2c0,0.8,0.6,1.4,1.4,1.4h21.1c0.8,0,1.4-0.6,1.4-1.4v-1.2H2z"/>
	<path class="st0" d="M26,10V3.7c0-0.8-0.6-1.4-1.4-1.4H3.5C2.7,2.3,2,2.9,2,3.7V10H26z"/>
	<path class="st1" d="M24.5,1.2H3.5C2.1,1.2,1,2.3,1,3.7v11.5c0,1.4,1.1,2.5,2.5,2.5h21.1c1.4,0,2.5-1.1,2.5-2.5V3.7
		C27,2.3,25.9,1.2,24.5,1.2z M3.5,2.3h21.1c0.8,0,1.4,0.6,1.4,1.4V10H2V3.7C2,2.9,2.7,2.3,3.5,2.3z M24.5,16.6H3.5
		C2.7,16.6,2,16,2,15.2v-1.2H26v1.2C26,16,25.3,16.6,24.5,16.6z"/>
</g>
</svg>
