<?xml version="1.0" encoding="utf-8"?>
<!-- Generator: Adobe Illustrator 21.0.0, SVG Export Plug-In . SVG Version: 6.00 Build 0)  -->
<svg version="1.1" id="Layer_1" xmlns="http://www.w3.org/2000/svg" xmlns:xlink="http://www.w3.org/1999/xlink" x="0px" y="0px"
	 viewBox="0 0 257 254" style="enable-background:new 0 0 257 254;" xml:space="preserve">
<style type="text/css">
	.st0{fill:#71451C;}
</style>
<g>
	<path class="st0" d="M223.8,93.5c-0.1-0.1-0.1-0.3-0.2-0.4C209.4,54.5,172.3,27,128.9,27c-55.7,0-101,45.3-101,101
		c0,15.7,3.6,30.6,10,43.9c0.1,0.2,0.2,0.5,0.3,0.7C54.8,206,89.2,229,128.9,229c55.7,0,101-45.3,101-101
		C229.9,115.9,227.8,104.3,223.8,93.5z M128.9,217c-33.6,0-62.9-18.7-78-46.2l22.7-22.7c2.3-2.3,2.3-6.1,0-8.5
		c-2.3-2.3-6.1-2.3-8.5,0l-19.6,19.6c-2.3-6.2-4-12.6-4.9-19.4c0,0,0,0,0.1,0l54.6-54.6c2.3-2.3,2.3-6.1,0-8.5
		c-2.3-2.3-6.1-2.3-8.5,0L40,123.5c2.3-47,41.3-84.5,88.9-84.5c37,0,68.9,22.8,82.2,55l-15.1,15.1c-2.3,2.3-2.3,6.1,0,8.5
		c1.2,1.2,2.7,1.8,4.2,1.8c1.5,0,3.1-0.6,4.2-1.8l10.8-10.8c1.4,5.6,2.2,11.5,2.5,17.5l-40.3,40.3c-2.3,2.3-2.3,6.1,0,8.5
		c1.2,1.2,2.7,1.8,4.2,1.8s3.1-0.6,4.2-1.8l30.8-30.8C209.9,184.6,173.1,217,128.9,217z"/>
	<path class="st0" d="M152.1,65.5c-3.1-1.2-6.6,0.4-7.7,3.5l-14.6,39.4c-10.3,0.6-18.5,9.1-18.5,19.5c0,9.7,7.1,17.8,16.4,19.3
		l15,58.2c0.7,2.7,3.1,4.5,5.8,4.5c0.5,0,1-0.1,1.5-0.2c3.2-0.8,5.1-4.1,4.3-7.3l-14.7-57c6.4-3.2,10.9-9.8,10.9-17.5
		c0-6.9-3.6-13-9.1-16.5l14.2-38.2C156.8,70.1,155.2,66.7,152.1,65.5z"/>
	<path class="st0" d="M128.9,3C60,3,3.9,59.1,3.9,128c0,68.9,56.1,125,125,125s125-56.1,125-125C253.9,59.1,197.8,3,128.9,3z
		 M128.9,241c-62.3,0-113-50.7-113-113s50.7-113,113-113c62.3,0,113,50.7,113,113S191.2,241,128.9,241z"/>
</g>
</svg>
