<?xml version="1.0" encoding="utf-8"?>
<!-- Generator: Adobe Illustrator 21.0.0, SVG Export Plug-In . SVG Version: 6.00 Build 0)  -->
<svg version="1.1" id="Layer_1" xmlns="http://www.w3.org/2000/svg" xmlns:xlink="http://www.w3.org/1999/xlink" x="0px" y="0px"
	 viewBox="0 0 512 512" style="enable-background:new 0 0 512 512;" xml:space="preserve">
<g>
	<path d="M423.4,207.9h-7.3c0,0-38.2-73.2-38.6-73.7c-1.9-3.2-5.4-5.3-9.4-5.3h-90.4V86.6c0-7.5-5.6-13.6-13.2-13.6h-17.7
		c-7.5,0-14.1,6.1-14.1,13.6v42.2h-88.1c-4,0-7.5,2.1-9.4,5.3c-0.4,0.5-38.6,73.7-38.6,73.7h-5.9c-7.5,0-14.8,5.5-14.8,12.9v8.9
		c0,37.3,30.2,67.5,67.5,67.5S211,267,211,229.7v-8.9c0-7.5-5-12.9-12.5-12.9h-7.3l-29.8-57.2h71.4v192.2H157
		c-7.5,0-14.1,6.1-14.1,13.6v17.7c0,7.5,6.6,13.6,14.1,13.6h197.6c7.5,0,13.2-6.1,13.2-13.6v-17.7c0-7.5-5.6-13.6-13.2-13.6h-76.8
		V150.7h73.6l-29.8,57.2h-5.9c-7.5,0-14.8,5.5-14.8,12.9v8.9c0,37.3,30.2,67.5,67.5,67.5s67.5-30.2,67.5-67.5v-8.9
		C435.9,213.4,430.9,207.9,423.4,207.9L423.4,207.9z M166.7,207.9h-45.3l22.7-43.5L166.7,207.9z M346.2,207.9l22.7-43.5l22.7,43.5
		H346.2z"/>
</g>
</svg>
