<?xml version="1.0" encoding="utf-8"?>
<!-- Generator: Adobe Illustrator 21.0.0, SVG Export Plug-In . SVG Version: 6.00 Build 0)  -->
<svg version="1.1" id="Layer_1" xmlns="http://www.w3.org/2000/svg" xmlns:xlink="http://www.w3.org/1999/xlink" x="0px" y="0px"
	 viewBox="0 0 300 300" style="enable-background:new 0 0 300 300;" xml:space="preserve">
<style type="text/css">
	.st0{fill:#FDD42F;}
	.st1{fill:#71451C;}
</style>
<g>
	<path class="st0" d="M162.1,125.7h86.4c27.3,0,49.5-22.2,49.5-49.5v-23c0-27.3-22.2-49.5-49.5-49.5h-86.4
		c-27.3,0-49.5,22.2-49.5,49.5v23C112.6,103.5,134.8,125.7,162.1,125.7z"/>
	<g>
		<path class="st1" d="M147.6,46.2H171v7.1h-14.7V62H170v7h-13.7v15.4h-8.7V46.2z"/>
		<path class="st1" d="M177.5,46.7c2.8-0.5,6.9-0.8,11.5-0.8c5.7,0,9.6,0.9,12.4,3c2.3,1.8,3.5,4.5,3.5,8c0,4.9-3.5,8.2-6.8,9.4v0.2
			c2.7,1.1,4.1,3.6,5.1,7.1c1.2,4.3,2.4,9.3,3.1,10.8h-8.9c-0.6-1.1-1.5-4.2-2.7-8.9c-1-4.8-2.7-6.1-6.2-6.1h-2.6v15h-8.6V46.7z
			 M186.1,63.2h3.4c4.3,0,6.9-2.2,6.9-5.5c0-3.5-2.4-5.3-6.4-5.3c-2.1,0-3.3,0.2-3.9,0.3V63.2z"/>
		<path class="st1" d="M233.9,68.3h-14.1v9.1h15.7v7.1h-24.4V46.2h23.6v7.1h-14.9v7.9h14.1V68.3z"/>
		<path class="st1" d="M264.2,68.3h-14.1v9.1h15.7v7.1h-24.4V46.2H265v7.1h-14.9v7.9h14.1V68.3z"/>
	</g>
	<g>
		<path class="st1" d="M262.9,241.1h-4.4v-48.8h-18.2l-4.4-44.3h-39.5v-39.9H19.1V148v79.8v13.3h-4.4c-7.3,0-13.3,6-13.3,13.3
			s6,13.3,13.3,13.3h4.4h8.9h13.3c0,17.1,13.9,31,31,31s31-13.9,31-31h84.2c0,17.1,13.9,31,31,31s31-13.9,31-31h8.9h4.4
			c7.3,0,13.3-6,13.3-13.3S270.2,241.1,262.9,241.1z M227.9,156.8l3.5,35.5h-35v-35.5H227.9z M187.5,201.2v17.7H27.9v-62.1h159.6
			v35.5V201.2z M27.9,116.9h159.6v31H27.9V116.9z M19.1,258.8h-4.4c-2.4,0-4.4-2-4.4-4.4c0-2.4,2-4.4,4.4-4.4h4.4V258.8z
			 M72.3,289.9c-12.2,0-22.2-9.9-22.2-22.2c0-12.2,9.9-22.2,22.2-22.2s22.2,9.9,22.2,22.2C94.4,279.9,84.5,289.9,72.3,289.9z
			 M102,258.8c-3.8-12.8-15.7-22.2-29.7-22.2s-25.9,9.4-29.7,22.2H27.9v-17.7v-13.3h159.6v31H102z M218.6,289.9
			c-12.2,0-22.2-9.9-22.2-22.2c0-12.2,9.9-22.2,22.2-22.2s22.2,9.9,22.2,22.2C240.7,279.9,230.8,289.9,218.6,289.9z M249.6,258.8
			h-1.3c-3.8-12.8-15.7-22.2-29.7-22.2c-8.7,0-16.5,3.6-22.2,9.4v-18.2v-26.6h44.8h8.4v39.9V258.8z M262.9,258.8h-4.4V250h4.4
			c2.4,0,4.4,2,4.4,4.4C267.3,256.8,265.3,258.8,262.9,258.8z"/>
		<path class="st1" d="M72.3,254.4c-7.3,0-13.3,6-13.3,13.3c0,7.3,6,13.3,13.3,13.3s13.3-6,13.3-13.3
			C85.6,260.4,79.6,254.4,72.3,254.4z M72.3,272.1c-2.4,0-4.4-2-4.4-4.4s2-4.4,4.4-4.4s4.4,2,4.4,4.4S74.7,272.1,72.3,272.1z"/>
		<path class="st1" d="M218.6,254.4c-7.3,0-13.3,6-13.3,13.3c0,7.3,6,13.3,13.3,13.3s13.3-6,13.3-13.3
			C231.9,260.4,225.9,254.4,218.6,254.4z M218.6,272.1c-2.4,0-4.4-2-4.4-4.4s2-4.4,4.4-4.4c2.4,0,4.4,2,4.4,4.4
			S221,272.1,218.6,272.1z"/>
		<rect x="23.5" y="32.7" class="st1" width="109.9" height="8.9"/>
		<rect x="5.8" y="54.9" class="st1" width="95.5" height="8.9"/>
		<rect x="23.5" y="77" class="st1" width="67.4" height="8.9"/>
	</g>
</g>
</svg>
