<?xml version="1.0" encoding="utf-8"?>
<!-- Generator: Adobe Illustrator 21.0.0, SVG Export Plug-In . SVG Version: 6.00 Build 0)  -->
<svg version="1.1" id="Layer_1" xmlns="http://www.w3.org/2000/svg" xmlns:xlink="http://www.w3.org/1999/xlink" x="0px" y="0px"
	 viewBox="0 0 272 254" style="enable-background:new 0 0 272 254;" xml:space="preserve">
<style type="text/css">
	.st0{fill:#F5D61C;}
	.st1{fill:none;}
	.st2{fill:#71451C;}
	.st3{fill:#FFFFFF;}
</style>
<rect x="32.6" y="110" class="st0" width="154.4" height="92"/>
<g>
	<polygon class="st1" points="56.8,37.3 28.8,37.3 28.8,76 45.7,76 56.8,76 	"/>
	<rect x="124.8" y="37.3" class="st1" width="28.5" height="38.7"/>
	<path class="st1" d="M120.4,147c1.2,0,2.4,0.5,3.2,1.4l14.1,14.5V85.5h-16.4l-2.5,1.1l-16.5,7.5v69l14.9-14.9
		C118,147.4,119.2,147,120.4,147z"/>
	<path class="st1" d="M162.7,128.7l9,9V92.3l-14.9-6.8h-10.2v52.9l9.7-9.7C158.1,126.9,161,126.9,162.7,128.7z"/>
	<path class="st1" d="M213.8,103.1c-2.7,1.7-5.8,2.6-8.9,2.6c-2.3,0-4.6-0.5-6.8-1.5l-17.3-7.9v52.2c0,1.8-1.1,3.5-2.8,4.2
		c-1.7,0.7-3.6,0.3-4.9-1l-13.5-13.5l-12.9,12.9V174c0,1.8-1.1,3.5-2.8,4.2c-0.5,0.2-1.1,0.3-1.7,0.3c-1.2,0-2.4-0.5-3.2-1.4
		l-18.7-19.2l-19.3,19.3c-1.3,1.3-3.2,1.7-4.9,1c-1.7-0.7-2.8-2.3-2.8-4.2V98.2l-13.2,6c-2.2,1-4.5,1.5-6.8,1.5
		c-3.1,0-6.2-0.9-8.9-2.6c-4.7-3-7.5-8.2-7.5-13.8V85h-2.1v124.5h163.8V98.4C217.3,100.3,215.7,101.8,213.8,103.1z"/>
	<polygon class="st1" points="221.3,76 227.5,76 243.2,76 243.2,37.3 221.3,37.3 	"/>
	<path class="st2" d="M252.2,28.3h-30.8v-3.6c0-5.6-2.8-10.8-7.5-13.8c-4.7-3-10.6-3.5-15.7-1.2l-41.2,18.6h-35.6L80,9.7
		c-5.1-2.3-11-1.9-15.7,1.2c-4.7,3-7.5,8.2-7.5,13.8v3.6h-37V85h25.9v133.5h181.8V85h24.6V28.3z M69.2,18.4c1.2-0.8,2.6-1.2,4-1.2
		c1,0,2.1,0.2,3.1,0.7l39.5,17.8v42.4L76.4,96c-2.4,1.1-5,0.9-7.1-0.5c-2.2-1.4-3.4-3.7-3.4-6.3V24.7C65.8,22.1,67.1,19.8,69.2,18.4
		z M208.9,18.4c2.2,1.4,3.4,3.7,3.4,6.3v64.6c0,2.6-1.2,4.9-3.4,6.3c-2.2,1.4-4.8,1.6-7.1,0.5l-39.5-17.9V35.7l39.5-17.8
		C204.2,16.8,206.8,17,208.9,18.4z M102.2,94.2l16.5-7.5l2.5-1.1h16.4v77.4l-14.1-14.5c-0.8-0.9-2-1.4-3.2-1.4
		c-1.2,0-2.4,0.5-3.2,1.3l-14.9,14.9V94.2z M146.7,85.5h10.2l14.9,6.8v45.4l-9-9c-1.8-1.8-4.6-1.8-6.4,0l-9.7,9.7V85.5z M153.3,76
		h-28.5V37.3h28.5V76z M28.8,76V37.3h28V76H45.7H28.8z M54.7,209.5V85h2.1v4.3c0,5.6,2.8,10.8,7.5,13.8c2.7,1.7,5.8,2.6,8.9,2.6
		c2.3,0,4.6-0.5,6.8-1.5l13.2-6V174c0,1.8,1.1,3.5,2.8,4.2c1.7,0.7,3.6,0.3,4.9-1l19.3-19.3l18.7,19.2c0.9,0.9,2,1.4,3.2,1.4
		c0.6,0,1.1-0.1,1.7-0.3c1.7-0.7,2.8-2.3,2.8-4.2v-22.9l12.9-12.9l13.5,13.5c1.3,1.3,3.2,1.7,4.9,1c1.7-0.7,2.8-2.3,2.8-4.2V96.4
		l17.3,7.9c2.2,1,4.5,1.5,6.8,1.5c3.1,0,6.2-0.9,8.9-2.6c1.9-1.2,3.5-2.8,4.7-4.6v111.1H54.7z M243.2,76h-15.6h-6.2V37.3h21.8V76z"
		/>
	<path class="st3" d="M162.3,35.7v42.4L201.8,96c2.4,1.1,4.9,0.9,7.1-0.5c2.2-1.4,3.4-3.7,3.4-6.3V24.7c0-2.6-1.2-4.9-3.4-6.3
		c-2.2-1.4-4.8-1.6-7.1-0.5L162.3,35.7z"/>
	<path class="st3" d="M65.8,89.2c0,2.6,1.2,4.9,3.4,6.3c2.2,1.4,4.8,1.6,7.1,0.5l39.5-17.9V35.7L76.3,17.9c-1-0.5-2-0.7-3.1-0.7
		c-1.4,0-2.8,0.4-4,1.2c-2.2,1.4-3.4,3.7-3.4,6.3V89.2z"/>
</g>
</svg>
