<?xml version="1.0" encoding="utf-8"?>
<!-- Generator: Adobe Illustrator 21.0.0, SVG Export Plug-In . SVG Version: 6.00 Build 0)  -->
<svg version="1.1" id="Layer_1" xmlns="http://www.w3.org/2000/svg" xmlns:xlink="http://www.w3.org/1999/xlink" x="0px" y="0px"
	 viewBox="0 0 312 300" style="enable-background:new 0 0 312 300;" xml:space="preserve">
<style type="text/css">
	.st0{fill:#FDD42F;}
	.st1{fill:#71451C;}
</style>
<g>
	<circle class="st0" cx="81.4" cy="142.7" r="70.4"/>
	<polygon class="st1" points="105.4,76.6 99.5,69.6 75.2,89.9 68.9,83.6 62.4,90.1 74.6,102.3 	"/>
	<rect x="120.9" y="73.1" class="st1" width="69" height="9.2"/>
	<rect x="120.9" y="91.5" class="st1" width="78.2" height="9.2"/>
	<polygon class="st1" points="105.4,122.6 99.5,115.6 75.2,135.9 68.9,129.7 62.4,136.2 74.6,148.3 	"/>
	<rect x="120.9" y="119.1" class="st1" width="96.6" height="9.2"/>
	<rect x="120.9" y="137.5" class="st1" width="18.4" height="9.2"/>
	<rect x="148.5" y="137.5" class="st1" width="69" height="9.2"/>
	<polygon class="st1" points="105.4,168.7 99.5,161.6 75.2,181.9 68.9,175.7 62.4,182.2 74.6,194.4 	"/>
	<rect x="120.9" y="165.1" class="st1" width="96.6" height="9.2"/>
	<rect x="120.9" y="183.5" class="st1" width="69" height="9.2"/>
	<rect x="199.1" y="183.5" class="st1" width="18.4" height="9.2"/>
	<rect x="199.1" y="73.1" class="st1" width="18.4" height="9.2"/>
	<path class="st1" d="M291.2,220.3H282h-9.2h-9.2h-9.2V31.7c0-12.7-10.3-23-23-23H42.7c-12.7,0-23,10.3-23,23s10.3,23,23,23V294
		h193.3v-27.6h18.4v-18.4h9.2h9.2h9.2h9.2c7.6,0,13.8-6.2,13.8-13.8C305,226.5,298.8,220.3,291.2,220.3z M245.1,31.7v188.7h-9.2
		V45.5h-4.6c-7.6,0-13.8-6.2-13.8-13.8s6.2-13.8,13.8-13.8C238.9,17.9,245.1,24.1,245.1,31.7z M28.9,31.7c0-7.6,6.2-13.8,13.8-13.8
		H213c-2.9,3.9-4.7,8.6-4.7,13.8s1.8,9.9,4.7,13.8H42.7C35.1,45.5,28.9,39.3,28.9,31.7z M51.9,284.8V54.7h174.9v165.7H97.1
		l-41.4,13.8l41.4,13.8h129.6v36.8L51.9,284.8L51.9,284.8z M84.8,234.1l8.5-2.8v5.6L84.8,234.1z M245.1,257.1h-9.2v-9.2h9.2V257.1z
		 M254.3,238.7H102.5v-9.2h151.8L254.3,238.7L254.3,238.7z M272.7,238.7h-9.2v-9.2h9.2V238.7z M291.2,238.7H282v-9.2h9.2
		c2.5,0,4.6,2.1,4.6,4.6C295.8,236.7,293.7,238.7,291.2,238.7z"/>
</g>
</svg>
