<?xml version="1.0" encoding="utf-8"?>
<!-- Generator: Adobe Illustrator 21.0.0, SVG Export Plug-In . SVG Version: 6.00 Build 0)  -->
<svg version="1.1" id="Layer_1" xmlns="http://www.w3.org/2000/svg" xmlns:xlink="http://www.w3.org/1999/xlink" x="0px" y="0px"
	 viewBox="0 0 200 251" style="enable-background:new 0 0 200 251;" xml:space="preserve">
<style type="text/css">
	.st0{fill:#71451C;}
</style>
<g>
	<path class="st0" d="M99.7,4.7C52,4.7,13.1,43.6,13.1,91.3c0,19.6,13.9,51.3,41.2,94.2C74.4,217,94.8,243.4,95,243.6
		c1.1,1.5,2.9,2.3,4.7,2.3c1.9,0,3.6-0.9,4.7-2.3c0.2-0.3,20.5-26.6,40.6-58.1c27.4-42.9,41.2-74.6,41.2-94.2
		C186.3,43.6,147.5,4.7,99.7,4.7z M135,179c-14,22-28.2,41.4-35.3,51c-7.1-9.6-21.3-29-35.3-51c-25.7-40.3-39.3-70.7-39.3-87.7
		c0-41.1,33.5-74.6,74.6-74.6s74.6,33.5,74.6,74.6C174.3,108.4,160.7,138.7,135,179z"/>
	<path class="st0" d="M158.9,71.2c0-0.1-0.1-0.2-0.1-0.4c-9-23.8-32.1-40.8-59-40.8c-34.8,0-63.1,28.3-63.1,63.1
		c0,14.2,9.9,37,29.5,67.7c14.3,22.4,28.7,41.1,28.9,41.3c1.1,1.5,2.9,2.3,4.7,2.3c1.9,0,3.6-0.9,4.7-2.3
		c0.1-0.2,14.6-18.9,28.9-41.3c19.6-30.7,29.5-53.5,29.5-67.7C162.9,85.5,161.5,78.1,158.9,71.2z M99.7,188.7
		c-10.9-14.6-27.6-38.9-38.9-60.5l37.9-37.9c2.3-2.3,2.3-6.1,0-8.5c-2.3-2.3-6.1-2.3-8.5,0l-34.9,34.9c-4.1-9.2-6.7-17.4-6.7-23.5
		c0-28.2,22.9-51.1,51.1-51.1c20.6,0,38.4,12.2,46.5,29.8l-51.8,51.8c-2.3,2.3-2.3,6.1,0,8.5c1.2,1.2,2.7,1.8,4.2,1.8
		s3.1-0.6,4.2-1.8l47.3-47.3c0.4,2.7,0.7,5.5,0.7,8.3C150.9,115.2,117.5,164.8,99.7,188.7z"/>
</g>
</svg>
