<?xml version="1.0" encoding="utf-8"?>
<!-- Generator: Adobe Illustrator 21.0.0, SVG Export Plug-In . SVG Version: 6.00 Build 0)  -->
<svg version="1.1" id="Layer_1" xmlns="http://www.w3.org/2000/svg" xmlns:xlink="http://www.w3.org/1999/xlink" x="0px" y="0px"
	 viewBox="0 0 272 254" style="enable-background:new 0 0 272 254;" xml:space="preserve">
<style type="text/css">
	.st0{fill:none;}
	.st1{fill:#71451C;}
</style>
<g>
	<polygon class="st0" points="233.6,48.7 38.8,48.7 136.2,129.7 	"/>
	<path class="st0" d="M189.1,170.3c-1.2,1.2-2.7,1.8-4.2,1.8c-1.5,0-3.1-0.6-4.2-1.8c-2.3-2.3-2.3-6.1,0-8.5l63.6-63.6c0,0,0,0,0,0
		V55.5l-104.2,86.6c-1.1,0.9-2.5,1.4-3.8,1.4s-2.7-0.5-3.8-1.4L28.2,55.5v97.1l37.3-33.4c2.5-2.2,6.3-2,8.5,0.5
		c2.2,2.5,2,6.3-0.5,8.5l-45.3,40.6V190h15.2l20-20c2.3-2.3,6.1-2.3,8.5,0c2.3,2.3,2.3,6.1,0,8.5L60.4,190h183.8v-74.8L189.1,170.3z
		"/>
	<path class="st1" d="M256.2,42.1C256.2,42.1,256.2,42,256.2,42.1c0-0.3-0.1-0.4-0.1-0.6c0-0.1,0-0.2-0.1-0.2c0-0.1-0.1-0.2-0.1-0.3
		c0-0.1-0.1-0.2-0.1-0.3c0-0.1-0.1-0.2-0.1-0.3c0-0.1-0.1-0.2-0.1-0.3c0-0.1-0.1-0.2-0.1-0.2c-0.1-0.1-0.2-0.3-0.2-0.4
		c0,0,0-0.1-0.1-0.1c-0.1-0.2-0.2-0.3-0.4-0.5c0,0,0,0,0,0c0,0-0.1-0.1-0.1-0.1c-0.1-0.1-0.2-0.2-0.3-0.3c-0.1-0.1-0.2-0.1-0.2-0.2
		c-0.1-0.1-0.1-0.1-0.2-0.2c-0.1-0.1-0.2-0.1-0.3-0.2c-0.1,0-0.1-0.1-0.2-0.1c-0.1-0.1-0.2-0.1-0.3-0.2c-0.1,0-0.1-0.1-0.2-0.1
		c-0.1,0-0.2-0.1-0.3-0.1c-0.1,0-0.2-0.1-0.3-0.1c-0.1,0-0.2-0.1-0.3-0.1c-0.1,0-0.2-0.1-0.3-0.1c-0.1,0-0.2,0-0.3-0.1
		c-0.1,0-0.2-0.1-0.3-0.1c-0.1,0-0.2,0-0.3,0c-0.1,0-0.2,0-0.3,0c-0.1,0-0.3,0-0.4,0c0,0-0.1,0-0.1,0h0c0,0,0,0,0,0H22.3
		c0,0,0,0,0,0h0c-0.1,0-0.1,0-0.2,0c-0.1,0-0.3,0-0.4,0c-0.1,0-0.2,0-0.3,0c-0.1,0-0.2,0-0.3,0c-0.1,0-0.2,0.1-0.3,0.1
		c-0.1,0-0.2,0-0.2,0.1c-0.1,0-0.2,0.1-0.3,0.1c-0.1,0-0.2,0.1-0.2,0.1c-0.1,0-0.2,0.1-0.3,0.1c-0.1,0-0.2,0.1-0.3,0.1
		c-0.1,0-0.2,0.1-0.2,0.1c-0.1,0.1-0.2,0.1-0.3,0.2c-0.1,0-0.1,0.1-0.2,0.1c-0.1,0.1-0.2,0.1-0.3,0.2c-0.1,0.1-0.1,0.1-0.2,0.2
		c-0.1,0.1-0.1,0.1-0.2,0.2c-0.1,0.1-0.2,0.2-0.3,0.3c0,0-0.1,0.1-0.1,0.1c0,0,0,0,0,0c-0.1,0.2-0.2,0.3-0.4,0.5c0,0,0,0,0,0.1
		c-0.1,0.1-0.2,0.3-0.3,0.4c0,0.1-0.1,0.1-0.1,0.2c-0.1,0.1-0.1,0.2-0.1,0.3c0,0.1-0.1,0.2-0.1,0.3c0,0.1-0.1,0.2-0.1,0.3
		c0,0.1-0.1,0.2-0.1,0.3c0,0.1,0,0.2-0.1,0.3c0,0.2-0.1,0.3-0.1,0.5c0,0,0,0.1,0,0.1c0,0.2,0,0.4,0,0.6c0,0,0,0,0,0V196
		c0,3.3,2.7,6,6,6h228c3.3,0,6-2.7,6-6V42.7c0,0,0,0,0,0C256.2,42.5,256.2,42.3,256.2,42.1z M233.6,48.7l-97.4,81l-97.4-81H233.6z
		 M60.4,190l11.5-11.5c2.3-2.3,2.3-6.1,0-8.5c-2.3-2.3-6.1-2.3-8.5,0l-20,20H28.2v-21.3l45.3-40.6c2.5-2.2,2.7-6,0.5-8.5
		c-2.2-2.5-6-2.7-8.5-0.5l-37.3,33.4V55.5l104.2,86.6c1.1,0.9,2.5,1.4,3.8,1.4s2.7-0.5,3.8-1.4l104.2-86.6v42.7c0,0,0,0,0,0
		l-63.6,63.6c-2.3,2.3-2.3,6.1,0,8.5c1.2,1.2,2.7,1.8,4.2,1.8c1.5,0,3.1-0.6,4.2-1.8l55.1-55.1V190H60.4z"/>
</g>
</svg>
