<?xml version="1.0" encoding="utf-8"?>
<!-- Generator: Adobe Illustrator 21.0.0, SVG Export Plug-In . SVG Version: 6.00 Build 0)  -->
<svg version="1.1" id="Layer_1" xmlns="http://www.w3.org/2000/svg" xmlns:xlink="http://www.w3.org/1999/xlink" x="0px" y="0px"
	 viewBox="0 0 312 300" style="enable-background:new 0 0 312 300;" xml:space="preserve">
<style type="text/css">
	.st0{fill:#FDD42F;}
	.st1{fill:#71451C;}
	.st2{fill:none;stroke:#71451C;stroke-width:9;stroke-miterlimit:10;}
</style>
<g>
	<g>
		<circle class="st0" cx="145.6" cy="150.6" r="78.9"/>
	</g>
	<path class="st1" d="M80.7,137.2C36.7,137.2,1,173,1,216.9s35.7,79.7,79.7,79.7s79.7-35.7,79.7-79.7S124.6,137.2,80.7,137.2z
		 M80.7,287.2c-38.8,0-70.3-31.5-70.3-70.3s31.5-70.3,70.3-70.3s70.3,31.5,70.3,70.3S119.5,287.2,80.7,287.2z"/>
	<path class="st1" d="M87.7,170.1h-2.3V156H76v14.1h-2.3c-14.2,0-25.8,11.6-25.8,25.8s11.6,25.8,25.8,25.8h14.1
		c9,0,16.4,7.4,16.4,16.4s-7.4,16.4-16.4,16.4H73.7c-9,0-16.4-7.4-16.4-16.4v-7h-9.4v7c0,14.2,11.6,25.8,25.8,25.8H76v14.1h9.4
		v-14.1h2.3c14.2,0,25.8-11.6,25.8-25.8s-11.6-25.8-25.8-25.8H73.7c-9,0-16.4-7.4-16.4-16.4s7.4-16.4,16.4-16.4h14.1
		c9,0,16.4,7.4,16.4,16.4v7h9.4v-7C113.5,181.6,101.9,170.1,87.7,170.1z"/>
	<path class="st1" d="M123.9,50.7l-2-9.1c-42.4,9.4-75.9,42.9-85.4,85.3l9.2,2C54.3,90,85,59.3,123.9,50.7z"/>
	<path class="st1" d="M168.7,252l2,9.2c42.4-9.4,75.9-42.9,85.3-85.4l-9.2-2C238.3,212.6,207.6,243.3,168.7,252z"/>
	<rect x="150" y="30.4" class="st2" width="155.4" height="92.6"/>
	<circle class="st2" cx="227.7" cy="76.7" r="27.2"/>
	<circle class="st2" cx="278.6" cy="55.4" r="9.6"/>
	<line class="st2" x1="172.3" y1="51" x2="172.3" y2="101"/>
	<polyline class="st2" points="171.7,30.3 171.7,10.3 197,10.3 197,28.3 	"/>
</g>
</svg>
