<svg xmlns="http://www.w3.org/2000/svg" width="14" height="16" viewBox="0 0 14 16">
  <defs>
    <style>
      .cls-1 {
        fill: none;
        stroke: #454545;
        stroke-width: 2px;
        fill-rule: evenodd;
      }
    </style>
  </defs>
  <path id="User_icon" data-name="User icon" class="cls-1" d="M1442,119h-12s-0.03-1.816,0-3a40.6,40.6,0,0,1,3.81-1.524c0.09-.027.11-0.033,0.11-0.411a1.983,1.983,0,0,0-.16-0.909,4.525,4.525,0,0,1-.37-1.216,2.692,2.692,0,0,1-.55-1.267,1.663,1.663,0,0,1,.01-1.063c0.01-.022.02-0.044,0.03-0.069a6.849,6.849,0,0,0-.12-1.492,2.65,2.65,0,0,1,.6-1.976,3.142,3.142,0,0,1,2.34-1.077h0.71a3.16,3.16,0,0,1,2.37,1.077,2.65,2.65,0,0,1,.6,1.976,6.26,6.26,0,0,0-.12,1.494,0.167,0.167,0,0,0,.02.067,1.57,1.57,0,0,1,.02,1.063,2.692,2.692,0,0,1-.55,1.267,4.185,4.185,0,0,1-.38,1.216,2.12,2.12,0,0,0-.26.9c0,0.379.01,0.384,0.11,0.412A40.149,40.149,0,0,1,1442,116v3Z" transform="translate(-1429 -104)"/>
</svg>
