<svg width="19" height="16" viewBox="0 0 19 16" version="1.1" xmlns="http://www.w3.org/2000/svg" xmlns:xlink="http://www.w3.org/1999/xlink" xmlns:figma="http://www.figma.com/figma/ns">
<title>Soc_icon_Twet</title>
<desc>Created using Figma</desc>
<g id="Canvas" transform="translate(-26601 -2015)" figma:type="canvas">
<g id="Soc_icon_Twet" style="mix-blend-mode:normal;" figma:type="vector">
<use xlink:href="#path0_fill" transform="translate(26601 2015.01)" fill="#E2112E" style="mix-blend-mode:normal;"/>
</g>
</g>
<defs>
<path id="path0_fill" d="M 18.1408 2.55515C 18.3309 2.34185 18.0968 2.0328 17.8225 2.11249C 17.5283 2.19794 17.3423 1.7649 17.5397 1.53067C 17.6333 1.41963 17.7199 1.30324 17.7993 1.18152C 17.9901 0.889101 17.6558 0.593196 17.3341 0.729026C 16.9748 0.880749 16.6052 1.00417 16.2252 1.09931C 15.9542 1.16716 15.6751 1.06868 15.4621 0.887961C 14.7643 0.296057 13.937 -4.63477e-08 12.9798 -4.63477e-08C 11.9193 -4.63477e-08 11.0147 0.367623 10.2657 1.10303C 10.2627 1.10595 10.2597 1.10892 10.2568 1.11185C 9.51033 1.84929 9.13708 2.74034 9.13708 3.7851C 9.13708 4.22634 8.79949 4.63139 8.36175 4.57598C 7.11443 4.41807 5.93137 4.05487 4.81244 3.48638C 4.81237 3.48634 4.8123 3.48631 4.81223 3.48628C 4.05092 3.09939 3.35334 2.64139 2.71949 2.11227C 1.96963 1.4863 0.785075 1.62464 0.785075 2.60145C 0.785075 3.24988 0.939705 3.85152 1.24917 4.40621C 1.24919 4.40624 1.24921 4.40628 1.24923 4.40631C 1.35151 4.58973 1.46552 4.76161 1.59125 4.92196C 1.8064 5.19636 1.61743 5.63731 1.29052 5.51599C 1.12448 5.45437 0.961868 5.38093 0.802693 5.29566C 0.784115 5.28571 0.761489 5.29909 0.761489 5.32016C 0.761489 6.2343 1.05297 7.03687 1.63584 7.7285C 1.63586 7.72852 1.63587 7.72854 1.63589 7.72856C 1.99238 8.15144 2.40599 8.4785 2.87667 8.70991C 3.1005 8.81996 3.08091 9.16396 2.83148 9.16396C 2.49619 9.16396 2.23216 9.48021 2.3949 9.77335C 2.65267 10.2377 3.00834 10.638 3.46184 10.9746C 3.46192 10.9747 3.46199 10.9748 3.46207 10.9748C 4.10282 11.45 4.35812 12.6189 3.60826 12.8911C 2.76972 13.1955 1.8763 13.3477 0.928005 13.3477C 0.700773 13.3477 0.603181 13.661 0.804381 13.7666C 2.37087 14.5889 4.06974 15 5.90106 15C 7.262 15 8.54007 14.7884 9.73488 14.3645C 9.74064 14.3625 9.74642 14.3604 9.75218 14.3584C 10.946 13.9332 11.966 13.3639 12.8126 12.6509C 12.813 12.6505 12.8134 12.6502 12.8138 12.6499C 13.662 11.9352 14.3936 11.1132 15.008 10.1838C 15.0081 10.1837 15.0082 10.1835 15.0083 10.1834C 15.6209 9.25663 16.0778 8.28922 16.3795 7.281C 16.3814 7.27468 16.3833 7.26834 16.3851 7.26202C 16.6845 6.25325 16.8344 5.24294 16.8344 4.2303C 16.8344 4.19306 16.8342 4.1574 16.834 4.12334C 16.8324 3.8839 16.9426 3.6549 17.1306 3.50656C 17.4957 3.21838 17.8324 2.90121 18.1408 2.55515Z"/>
</defs>
</svg>
