<svg width="14" height="24" viewBox="0 0 14 24" version="1.1" xmlns="http://www.w3.org/2000/svg" xmlns:xlink="http://www.w3.org/1999/xlink" xmlns:figma="http://www.figma.com/figma/ns">
<title>Soc_icon_odnoclasniki</title>
<desc>Created using Figma</desc>
<g id="Canvas" transform="translate(-26888 -2010)" figma:type="canvas">
<g id="Soc_icon_odnoclasniki" style="mix-blend-mode:normal;" figma:type="frame">
<g id="Vector" style="mix-blend-mode:normal;" figma:type="vector">
<use xlink:href="#path0_fill" transform="translate(26888 2022.09)" fill="#E2112E" style="mix-blend-mode:normal;"/>
</g>
<g id="Vector" style="mix-blend-mode:normal;" figma:type="vector">
<use xlink:href="#path1_fill" transform="translate(26889.1 2010)" fill="#E2112E" style="mix-blend-mode:normal;"/>
</g>
</g>
</g>
<defs>
<path id="path0_fill" d="M 5.85234 4.81862C 4.0449 4.62458 2.41522 4.16636 1.01996 3.04305C 0.846835 2.9033 0.668093 2.76857 0.510106 2.61248C -0.100596 2.00872 -0.16213 1.31725 0.321109 0.604655C 0.734511 -0.00513239 1.42848 -0.168262 2.1498 0.181876C 2.28947 0.249742 2.42255 0.334449 2.55001 0.425439C 5.15032 2.2646 8.72247 2.31538 11.3325 0.508135C 11.5911 0.304035 11.8676 0.137638 12.1879 0.0526795C 12.8108 -0.111958 13.3917 0.123562 13.726 0.684586C 14.1079 1.32529 14.103 1.95066 13.6325 2.44809C 12.9107 3.2107 12.0426 3.76243 11.0781 4.1475C 10.1661 4.51147 9.16713 4.6947 8.17843 4.81636C 8.32763 4.98351 8.39795 5.0657 8.49123 5.16222C 9.83375 6.55071 11.1821 7.93341 12.5203 9.32617C 12.9761 9.80073 13.0714 10.3892 12.8204 10.9411C 12.5459 11.5444 11.9315 11.9413 11.3291 11.8988C 10.9475 11.8716 10.6498 11.6761 10.3854 11.4019C 9.37224 10.3525 8.34008 9.3224 7.34748 8.25314C 7.05861 7.94221 6.91967 8.00103 6.66474 8.27098C 5.64552 9.35106 4.6097 10.4145 3.56777 11.472C 3.09991 11.9468 2.54317 12.0323 2.0006 11.761C 1.42384 11.4732 1.05683 10.8672 1.08516 10.2582C 1.10469 9.84622 1.3015 9.53153 1.57621 9.24926C 2.90481 7.88364 4.22975 6.51451 5.55517 5.14664C 5.64284 5.05565 5.72464 4.95913 5.85234 4.81862Z"/>
<path id="path1_fill" d="M 5.84975 12.1478C 2.62531 12.1364 -0.0187025 9.38487 9.96292e-05 6.06044C 0.0186575 2.69933 2.66438 -0.00927626 5.92056 2.38778e-05C 9.18334 0.00907266 11.8022 2.75663 11.7858 6.15269C 11.7692 9.47033 9.10691 12.1593 5.84975 12.1478ZM 8.78019 6.06849C 8.77457 4.41784 7.4975 3.10376 5.89712 3.10225C 4.28332 3.10049 2.99476 4.43845 3.00721 6.10418C 3.01918 7.74854 4.30725 9.05333 5.91202 9.0473C 7.5119 9.04151 8.78556 7.71888 8.78019 6.06849Z"/>
</defs>
</svg>
