<svg width="21" height="13" viewBox="0 0 21 13" version="1.1" xmlns="http://www.w3.org/2000/svg" xmlns:xlink="http://www.w3.org/1999/xlink" xmlns:figma="http://www.figma.com/figma/ns">
<title>Soc_icon_Vk</title>
<desc>Created using Figma</desc>
<g id="Canvas" transform="translate(-26504 -2015)" figma:type="canvas">
<g id="Soc_icon_Vk" style="mix-blend-mode:normal;" figma:type="vector">
<use xlink:href="#path0_fill" transform="translate(26504 2015.99)" fill="#E2112E" style="mix-blend-mode:normal;"/>
</g>
</g>
<defs>
<path id="path0_fill" d="M 20.8886 10.8373C 20.8632 10.7824 20.8395 10.7369 20.8175 10.7004C 20.4531 10.0432 19.7569 9.23651 18.7291 8.28012L 18.7074 8.25822L 18.6965 8.24748L 18.6855 8.23647L 18.6745 8.23647C 18.2081 7.79113 17.9127 7.49169 17.789 7.33838C 17.5627 7.04634 17.5119 6.75074 17.6356 6.45122C 17.723 6.22492 18.0513 5.74701 18.6197 5.01684C 18.9187 4.62987 19.1555 4.31973 19.3303 4.08607C 20.5914 2.40687 21.1382 1.33383 20.9705 0.86655L 20.9053 0.757352C 20.8616 0.691611 20.7486 0.63147 20.5666 0.576621C 20.3841 0.521888 20.1509 0.512837 19.8666 0.549313L 16.7177 0.571098C 16.6667 0.552994 16.5939 0.554682 16.499 0.576621C 16.4042 0.598561 16.3568 0.609569 16.3568 0.609569L 16.302 0.636993L 16.2585 0.66994C 16.222 0.691726 16.1819 0.730043 16.1382 0.784815C 16.0946 0.839395 16.0582 0.903448 16.0291 0.976438C 15.6863 1.8598 15.2965 2.68111 14.859 3.44032C 14.5893 3.89302 14.3416 4.28536 14.1154 4.61756C 13.8895 4.94964 13.7 5.19431 13.547 5.35115C 13.3938 5.50813 13.2556 5.6339 13.1314 5.72891C 13.0075 5.82395 12.9128 5.86411 12.8473 5.84942C 12.7816 5.83473 12.7198 5.82016 12.6612 5.80558C 12.5592 5.73984 12.4772 5.65043 12.4154 5.53728C 12.3532 5.42414 12.3114 5.28172 12.2896 5.11016C 12.2678 4.93848 12.2549 4.79081 12.2513 4.66665C 12.2478 4.54265 12.2494 4.36725 12.2568 4.14095C 12.2644 3.91454 12.2678 3.76135 12.2678 3.68103C 12.2678 3.40357 12.2732 3.10244 12.284 2.77757C 12.2951 2.4527 12.304 2.1953 12.3115 2.00567C 12.3189 1.81585 12.3223 1.61502 12.3223 1.4033C 12.3223 1.19157 12.3095 1.02553 12.284 0.90502C 12.2589 0.784661 12.2204 0.667831 12.1695 0.554567C 12.1184 0.441418 12.0436 0.353891 11.9454 0.291756C 11.847 0.229696 11.7247 0.180448 11.5791 0.143857C 11.1928 0.0562914 10.7008 0.00892244 10.1029 0.0015582C 8.7472 -0.0130169 7.87608 0.0746635 7.48975 0.264485C 7.33668 0.344686 7.19817 0.454267 7.07432 0.592884C 6.94308 0.753555 6.92477 0.841236 7.01952 0.855657C 7.45693 0.921284 7.7666 1.07827 7.94885 1.32647L 8.01452 1.45799C 8.06561 1.55288 8.11662 1.72088 8.16767 1.96175C 8.21864 2.20262 8.25154 2.46908 8.26601 2.76096C 8.3024 3.29399 8.3024 3.75027 8.26601 4.12983C 8.22952 4.50955 8.19505 4.80516 8.16216 5.01688C 8.12926 5.2286 8.08009 5.40016 8.01452 5.53153C 7.94885 5.66294 7.90515 5.74325 7.88325 5.7724C 7.86138 5.80155 7.84315 5.81993 7.82867 5.82714C 7.73393 5.8635 7.63539 5.88202 7.53341 5.88202C 7.43127 5.88202 7.30743 5.83086 7.16167 5.7286C 7.01595 5.62635 6.86472 5.48589 6.70798 5.307C 6.55123 5.12807 6.37446 4.87803 6.17758 4.55684C 5.98085 4.23565 5.77673 3.85605 5.56534 3.41803L 5.39044 3.10037C 5.2811 2.89601 5.13175 2.59845 4.94222 2.20796C 4.75258 1.8173 4.58496 1.43943 4.43924 1.0744C 4.38099 0.921091 4.29349 0.804376 4.17688 0.72406L 4.12215 0.691112C 4.08577 0.661962 4.02737 0.631009 3.94725 0.598024C 3.86702 0.565076 3.78331 0.541449 3.69576 0.526912L 0.699899 0.548699C 0.39376 0.548699 0.186042 0.61816 0.0766687 0.756892L 0.0328963 0.822518C 0.0110293 0.859071 0 0.917448 0 0.997802C 0 1.07812 0.0218671 1.17669 0.0656395 1.29341C 0.502981 2.32287 0.978579 3.3157 1.49244 4.27205C 2.00629 5.22841 2.45282 5.99878 2.83176 6.58247C 3.21078 7.16658 3.59711 7.71787 3.99076 8.23605C 4.3844 8.75442 4.64497 9.08662 4.77246 9.23256C 4.9001 9.37877 5.00036 9.48809 5.07323 9.56108L 5.34663 9.82385C 5.52157 9.9991 5.77846 10.209 6.11741 10.4535C 6.45645 10.6982 6.83179 10.939 7.24362 11.1765C 7.65554 11.4136 8.13474 11.607 8.68149 11.7567C 9.22816 11.9064 9.76025 11.9665 10.2778 11.9375L 11.5352 11.9375C 11.7902 11.9155 11.9835 11.8352 12.1148 11.6966L 12.1583 11.6417C 12.1875 11.5981 12.2149 11.5304 12.2402 11.4393C 12.2658 11.3481 12.2785 11.2475 12.2785 11.1382C 12.271 10.8243 12.2949 10.5414 12.3494 10.2896C 12.4039 10.0378 12.466 9.84801 12.5355 9.72018C 12.6049 9.59245 12.6833 9.48467 12.7705 9.3973C 12.8579 9.30973 12.9201 9.25669 12.9567 9.23843C 12.993 9.22006 13.022 9.20759 13.0438 9.20011C 13.2188 9.14174 13.4246 9.19827 13.6618 9.36999C 13.8987 9.54155 14.1209 9.75339 14.3288 10.0052C 14.5366 10.2572 14.7862 10.5399 15.0777 10.8537C 15.3694 11.1677 15.6245 11.4011 15.843 11.5546L 16.0616 11.686C 16.2076 11.7737 16.3972 11.854 16.6304 11.927C 16.8633 12 17.0674 12.0182 17.2426 11.9818L 20.0415 11.938C 20.3184 11.938 20.5338 11.8921 20.6866 11.801C 20.8397 11.7098 20.9306 11.6093 20.96 11.4999C 20.9892 11.3904 20.9908 11.2662 20.9655 11.1274C 20.9396 10.9889 20.9141 10.892 20.8886 10.8373Z"/>
</defs>
</svg>
