<svg width="26" height="17" viewBox="0 0 26 17" version="1.1" xmlns="http://www.w3.org/2000/svg" xmlns:xlink="http://www.w3.org/1999/xlink" xmlns:figma="http://www.figma.com/figma/ns">
<title>Soc_icon_G+</title>
<desc>Created using Figma</desc>
<g id="Canvas" transform="translate(-26789 -2014)" figma:type="canvas">
<g id="Soc_icon_G+" style="mix-blend-mode:normal;" figma:type="frame">
<g id="Vector" style="mix-blend-mode:normal;" figma:type="vector">
<use xlink:href="#path0_fill" transform="translate(26789 2014)" fill="#E2112E" style="mix-blend-mode:normal;"/>
</g>
<g id="Vector" style="mix-blend-mode:normal;" figma:type="vector">
<use xlink:href="#path1_fill" transform="translate(26807.4 2018.6)" fill="#E2112E" style="mix-blend-mode:normal;"/>
</g>
</g>
</g>
<defs>
<path id="path0_fill" d="M 0.0049375 8.0513C -0.0642361 11.4064 2.24665 14.6082 5.42551 15.6524C 8.41978 16.6584 12.1013 15.9058 14.0938 13.3415C 15.5485 11.5447 15.8791 9.14939 15.7216 6.9115C 13.1573 6.88856 10.593 6.89621 8.03255 6.90003C 8.02838 7.81354 8.03255 8.72357 8.03637 9.63708C 9.57175 9.67949 11.1075 9.66002 12.6428 9.69096C 12.2553 11.0192 11.3723 12.2552 10.0323 12.7349C 7.4451 13.8751 4.14388 12.3856 3.32979 9.67149C 2.34711 7.07244 3.95583 3.93599 6.61188 3.17995C 8.25884 2.60049 9.95551 3.25295 11.3647 4.1091C 12.0787 3.441 12.7468 2.72702 13.4031 2.00539C 11.802 0.665717 9.74451 -0.155677 7.62933 0.0247307C 3.47926 0.0740907 -0.152528 3.90541 0.0049375 8.0513Z"/>
<path id="path1_fill" d="M 2.31505 -2.54594e-07C 2.30741 0.764038 2.29941 1.5319 2.29559 2.29559C 1.52773 2.30324 0.764038 2.30706 4.66756e-07 2.31088C 4.66756e-07 3.07492 4.66756e-07 3.83479 4.66756e-07 4.59883C 0.764038 4.60265 1.5319 4.60647 2.29559 4.61447C 2.30324 5.37851 2.30324 6.1422 2.31088 6.91006C 3.0711 6.91006 3.83514 6.90623 4.59883 6.91006C 4.603 6.1422 4.60648 5.37851 4.61447 4.61065C 5.37816 4.60682 6.14602 4.603 6.91006 4.59917C 6.91006 3.83514 6.91006 3.07527 6.91006 2.31123C 6.14637 2.30741 5.37851 2.30358 4.61447 2.29594C 4.6103 1.5319 4.603 0.764037 4.59883 0.00034716C 3.83514 -4.45538e-07 3.07492 -2.54594e-07 2.31505 -2.54594e-07Z"/>
</defs>
</svg>
