<svg width="15" height="16" viewBox="0 0 15 16" version="1.1" xmlns="http://www.w3.org/2000/svg" xmlns:xlink="http://www.w3.org/1999/xlink" xmlns:figma="http://www.figma.com/figma/ns">
<title>Soc_icon_FaceBoock</title>
<desc>Created using Figma</desc>
<g id="Canvas" transform="translate(-26698 -2014)" figma:type="canvas">
<g id="Soc_icon_FaceBoock" style="mix-blend-mode:normal;" figma:type="vector">
<use xlink:href="#path0_fill" transform="translate(26698 2014.01)" fill="#FFFFFF" style="mix-blend-mode:normal;"/>
</g>
</g>
<defs>
<path id="path0_fill" d="M 12.9787 0L 2.02129 0C 0.904987 0 3.48575e-12 0.904943 3.48575e-12 2.02128L 3.48575e-12 12.9786C 3.48575e-12 14.095 0.90495 14.9999 2.02129 14.9999L 7.42542 14.9999L 7.43463 9.63976L 6.04205 9.63976C 5.86108 9.63976 5.71419 9.49343 5.71349 9.31246L 5.70681 7.58465C 5.70612 7.40269 5.85344 7.25481 6.03541 7.25481L 7.42546 7.25481L 7.42546 5.58532C 7.42546 3.64788 8.60873 2.59293 10.3371 2.59293L 11.7553 2.59293C 11.9367 2.59293 12.0839 2.74004 12.0839 2.92153L 12.0839 4.37842C 12.0839 4.55983 11.9368 4.7069 11.7555 4.70701L 10.8851 4.70742C 9.9452 4.70742 9.7632 5.15405 9.7632 5.80951L 9.7632 7.25485L 11.8285 7.25485C 12.0253 7.25485 12.178 7.42669 12.1548 7.62212L 11.95 9.34992C 11.9304 9.51526 11.7902 9.63984 11.6237 9.63984L 9.77241 9.63984L 9.7632 15L 12.9787 15C 14.095 15 15 14.0951 15 12.9788L 15 2.02128C 15 0.904943 14.095 0 12.9787 0Z"/>
</defs>
</svg>
