<svg id="Layer_1" xmlns="http://www.w3.org/2000/svg" viewBox="0 0 38 38"><style>.st0{fill:#76A4D7;} .st1{fill:#FFFFFF;} .st2{fill:#EFF7FF;}</style><g id="XMLID_2_"><path id="XMLID_96_" class="st0" d="M-240 16c.6 0 1 .4 1 1v17h-36V17c0-.6.4-1 1-1h34m0-1h-34c-1.1 0-2 .9-2 2v18h38V17c0-1.1-.9-2-2-2z"/></g><path id="XMLID_3_" class="st1" d="M-269 15h24v22h-24z"/><g id="XMLID_1_"><path id="XMLID_137_" class="st1" d="M-267.5 37.5V6c0-.8.7-1.5 1.5-1.5h18c.8 0 1.5.7 1.5 1.5v31.5h-21z"/><path id="XMLID_134_" class="st0" d="M-248 5c.6 0 1 .4 1 1v31h-20V6c0-.6.4-1 1-1h18m0-1h-18c-1.1 0-2 .9-2 2v32h22V6c0-1.1-.9-2-2-2z"/></g><g id="XMLID_5_"><path id="XMLID_128_" class="st0" d="M-261.5 2.5h9v3h-9z"/><path id="XMLID_53_" class="st1" d="M-253 3v2h-8V3h8m1-1h-10v4h10V2z"/></g><g id="XMLID_4_"><path id="XMLID_51_" class="st0" d="M-258 0h2v8h-2z"/></g><g id="XMLID_6_"><path id="XMLID_133_" class="st1" d="M-268.5 28.5h23v9h-23z"/><path id="XMLID_129_" class="st0" d="M-246 29v8h-22v-8h22m1-1h-24v10h24V28z"/></g><path id="XMLID_8_" class="st0" d="M-259 31h3.9v6h-3.9z"/><path id="XMLID_10_" class="st0" d="M-265 11h4v2h-4z"/><path id="XMLID_11_" class="st0" d="M-259 11h4v2h-4z"/><path id="XMLID_13_" class="st0" d="M-253 11h4v2h-4z"/><path id="XMLID_20_" class="st0" d="M-265 15h4v2h-4z"/><path id="XMLID_18_" class="st0" d="M-259 15h4v2h-4z"/><path id="XMLID_14_" class="st0" d="M-253 15h4v2h-4z"/><path id="XMLID_42_" class="st0" d="M-265 19h4v2h-4z"/><path id="XMLID_41_" class="st0" d="M-259 19h4v2h-4z"/><path id="XMLID_40_" class="st0" d="M-253 19h4v2h-4z"/><path id="XMLID_28_" class="st0" d="M-273 18h3v1.5h-3z"/><path id="XMLID_27_" class="st0" d="M-273 22h3v1.5h-3z"/><path id="XMLID_17_" class="st0" d="M-273 26h3v1.5h-3z"/><path id="XMLID_54_" class="st0" d="M-273 30h3v1.5h-3z"/><path id="XMLID_55_" class="st0" d="M-244 18h3v1.5h-3z"/><path id="XMLID_46_" class="st0" d="M-244 22h3v1.5h-3z"/><path id="XMLID_26_" class="st0" d="M-244 26h3v1.5h-3z"/><path id="XMLID_25_" class="st0" d="M-244 30h3v1.5h-3z"/><path id="XMLID_45_" class="st0" d="M-265 23h4v2h-4z"/><path id="XMLID_44_" class="st0" d="M-259 23h4v2h-4z"/><path id="XMLID_43_" class="st0" d="M-253 23h4v2h-4z"/><g id="XMLID_184_"><path id="XMLID_215_" class="st0" d="M-137.5 34.5V17c0-.8.7-1.5 1.5-1.5h34c.8 0 1.5.7 1.5 1.5v17.5h-37z"/><path id="XMLID_206_" class="st0" d="M-102 16c.6 0 1 .4 1 1v17h-36V17c0-.6.4-1 1-1h34m0-1h-34c-1.1 0-2 .9-2 2v18h38V17c0-1.1-.9-2-2-2z"/></g><path id="XMLID_183_" class="st1" d="M-131 15h24v22h-24z"/><g id="XMLID_177_"><path id="XMLID_196_" class="st0" d="M-129.5 37.5V6c0-.8.7-1.5 1.5-1.5h18c.8 0 1.5.7 1.5 1.5v31.5h-21z"/><path id="XMLID_192_" class="st0" d="M-110 5c.6 0 1 .4 1 1v31h-20V6c0-.6.4-1 1-1h18m0-1h-18c-1.1 0-2 .9-2 2v32h22V6c0-1.1-.9-2-2-2z"/></g><path id="XMLID_179_" class="st1" d="M-132 27h26v10h-26z"/><g id="XMLID_171_"><path id="XMLID_211_" class="st0" d="M-123.5 2.5h9v3h-9z"/><path id="XMLID_208_" class="st1" d="M-115 3v2h-8V3h8m1-1h-10v4h10V2z"/></g><g id="XMLID_162_"><path id="XMLID_204_" class="st0" d="M-130.5 28.5h23v9h-23z"/><path id="XMLID_201_" class="st0" d="M-108 29v8h-22v-8h22m1-1h-24v10h24V28z"/></g><path id="XMLID_161_" class="st1" d="M-121 31h3.9v6h-3.9z"/><path id="XMLID_160_" class="st1" d="M-127 11h4v2h-4z"/><path id="XMLID_159_" class="st1" d="M-121 11h4v2h-4z"/><path id="XMLID_158_" class="st1" d="M-115 11h4v2h-4z"/><path id="XMLID_157_" class="st1" d="M-127 15h4v2h-4z"/><path id="XMLID_156_" class="st1" d="M-121 15h4v2h-4z"/><path id="XMLID_155_" class="st1" d="M-115 15h4v2h-4z"/><path id="XMLID_154_" class="st1" d="M-127 19h4v2h-4z"/><path id="XMLID_153_" class="st1" d="M-121 19h4v2h-4z"/><path id="XMLID_152_" class="st1" d="M-115 19h4v2h-4z"/><path id="XMLID_151_" class="st1" d="M-136 18h3v1.5h-3z"/><path id="XMLID_150_" class="st1" d="M-136 22h3v1.5h-3z"/><path id="XMLID_149_" class="st1" d="M-136 26h3v1.5h-3z"/><path id="XMLID_148_" class="st1" d="M-136 30h3v1.5h-3z"/><path id="XMLID_147_" class="st1" d="M-105 18h3v1.5h-3z"/><path id="XMLID_146_" class="st1" d="M-105 22h3v1.5h-3z"/><path id="XMLID_145_" class="st1" d="M-105 26h3v1.5h-3z"/><path id="XMLID_144_" class="st1" d="M-105 30h3v1.5h-3z"/><path id="XMLID_143_" class="st1" d="M-127 23h4v2h-4z"/><path id="XMLID_142_" class="st1" d="M-121 23h4v2h-4z"/><path id="XMLID_141_" class="st1" d="M-115 23h4v2h-4z"/><g id="XMLID_178_"><path id="XMLID_212_" class="st1" d="M-121 5h4v4h-4z"/></g><g id="XMLID_168_"><path id="XMLID_207_" class="st0" d="M-120 0h2v8h-2z"/></g><g id="XMLID_267_"><path id="XMLID_295_" class="st2" d="M.5 34.5V17c0-.8.7-1.5 1.5-1.5h34c.8 0 1.5.7 1.5 1.5v17.5H.5z"/><path id="XMLID_287_" class="st2" d="M36 16c.6 0 1 .4 1 1v17H1V17c0-.6.4-1 1-1h34m0-1H2c-1.1 0-2 .9-2 2v18h38V17c0-1.1-.9-2-2-2z"/></g><path id="XMLID_266_" class="st1" d="M7 15h24v22H7z"/><g id="XMLID_260_"><path id="XMLID_284_" class="st2" d="M8.5 37.5V6c0-.8.7-1.5 1.5-1.5h18c.8 0 1.5.7 1.5 1.5v31.5h-21z"/><path id="XMLID_276_" class="st2" d="M28 5c.6 0 1 .4 1 1v31H9V6c0-.6.4-1 1-1h18m0-1H10c-1.1 0-2 .9-2 2v32h22V6c0-1.1-.9-2-2-2z"/></g><path id="XMLID_259_" class="st1" d="M6 27h26v10H6z"/><g id="XMLID_253_"><path id="XMLID_291_" class="st2" d="M14.5 2.5h9v3h-9z"/><path id="XMLID_286_" class="st1" d="M23 3v2h-8V3h8m1-1H14v4h10V2z"/></g><g id="XMLID_247_"><path id="XMLID_283_" class="st2" d="M7.5 28.5h23v9h-23z"/><path id="XMLID_278_" class="st2" d="M30 29v8H8v-8h22m1-1H7v10h24V28z"/></g><path id="XMLID_246_" class="st1" d="M17 31h3.9v6H17z"/><path id="XMLID_245_" class="st1" d="M11 11h4v2h-4z"/><path id="XMLID_244_" class="st1" d="M17 11h4v2h-4z"/><path id="XMLID_243_" class="st1" d="M23 11h4v2h-4z"/><path id="XMLID_242_" class="st1" d="M11 15h4v2h-4z"/><path id="XMLID_241_" class="st1" d="M17 15h4v2h-4z"/><path id="XMLID_240_" class="st1" d="M23 15h4v2h-4z"/><path id="XMLID_239_" class="st1" d="M11 19h4v2h-4z"/><path id="XMLID_238_" class="st1" d="M17 19h4v2h-4z"/><path id="XMLID_237_" class="st1" d="M23 19h4v2h-4z"/><path id="XMLID_236_" class="st1" d="M2 18h3v1.5H2z"/><path id="XMLID_235_" class="st1" d="M2 22h3v1.5H2z"/><path id="XMLID_234_" class="st1" d="M2 26h3v1.5H2z"/><path id="XMLID_233_" class="st1" d="M2 30h3v1.5H2z"/><path id="XMLID_232_" class="st1" d="M33 18h3v1.5h-3z"/><path id="XMLID_231_" class="st1" d="M33 22h3v1.5h-3z"/><path id="XMLID_230_" class="st1" d="M33 26h3v1.5h-3z"/><path id="XMLID_229_" class="st1" d="M33 30h3v1.5h-3z"/><path id="XMLID_228_" class="st1" d="M11 23h4v2h-4z"/><path id="XMLID_227_" class="st1" d="M17 23h4v2h-4z"/><path id="XMLID_226_" class="st1" d="M23 23h4v2h-4z"/><g id="XMLID_223_"><path id="XMLID_288_" class="st1" d="M17 5h4v4h-4z"/></g><g id="XMLID_220_"><path id="XMLID_292_" class="st2" d="M18 0h2v8h-2z"/></g></svg>