<?xml version="1.0" encoding="utf-8"?>
<!-- Generator: Adobe Illustrator 19.0.0, SVG Export Plug-In . SVG Version: 6.00 Build 0)  -->
<svg version="1.1" id="Layer_1" xmlns="http://www.w3.org/2000/svg" xmlns:xlink="http://www.w3.org/1999/xlink" x="0px" y="0px"
	 viewBox="0 0 63 58" style="enable-background:new 0 0 63 58;" xml:space="preserve">
<style type="text/css">
	.st0{fill:#EFF7FF;}
</style>
<g>
	<g id="XMLID_39_">
		<path id="XMLID_40_" class="st0" d="M26.1,39.3c14.2,0,25.2-8.1,25-20.1C51.2,8.5,39.9,0,25.7,0C11.5,0,0,8.5,0,19.1
			c0,6.6,3.3,13.7,10,17.2c0,0,0,0.1,0,0.1c0,2.9-2.4,6.8-3.3,8.5h0c-0.1,0.2-0.1,0.4-0.1,0.6c0,0.8,0.6,1.5,1.5,1.5
			c0.1,0,0.3,0,0.4,0c0,0,0,0,0,0c5-0.8,12.4-6.5,13.5-7.8c1.1,0.2,1.9,0.2,2.8,0.2C25.2,39.3,25.6,39.3,26.1,39.3z M20.4,35.1
			l-2.5,2.1c-0.6,0.7-3.1,2.8-5.3,4.2c1.3-3.8,1.3-5,1.3-5l0.2-2.4l-2.1-1.1C6.4,30,3.9,24.2,3.9,19.1c0-8.5,9.8-15.2,21.8-15.2
			c12,0,21.5,6.8,21.5,15.2c0,9.4-9,16.3-21,16.3c0,0-1.8,0.1-3.7-0.2L20.4,35.1z M63,35c0-5.3-2.1-9.4-7.3-12.4
			c-0.1,1.4-0.5,2.9-1,4.3c3.4,2.3,4.3,4.7,4.3,8.2c0,4.2-2,7.3-6.6,9.7l-2,1c0,0,0.2,5,0.5,6.3c-3.8-2.8-5.2-5.2-5.2-5.2l-2.1,0.3
			c-0.8,0.1-3,0.1-3,0.1c-5.3,0-9.3-1.3-12.7-3.9c0.9-0.1-5.5-0.1-5.6,0.1c3.9,4.8,10.3,7.8,18.3,7.8c0.4,0,0.8,0,1.2,0
			c0.8,0,1.5,0,2.4-0.2c1,1.2,6.3,6.2,10.6,6.9c0,0,0,0,0,0c0.1,0,0.2,0,0.3,0c0.7,0,1.3-0.6,1.3-1.3c0-0.2,0-0.3-0.1-0.5h0
			c-0.8-1.4-2.1-5.5-2.1-8c0,0,0-0.1,0-0.1C60.3,45.1,63,40.8,63,35z"/>
	</g>
</g>
</svg>
