<?xml version="1.0" encoding="utf-8"?>
<!-- Generator: Adobe Illustrator 19.0.0, SVG Export Plug-In . SVG Version: 6.00 Build 0)  -->
<svg version="1.1" id="Layer_1" xmlns="http://www.w3.org/2000/svg" xmlns:xlink="http://www.w3.org/1999/xlink" x="0px" y="0px"
	 viewBox="-13 -9 33 25" style="enable-background:new -13 -9 33 25;" xml:space="preserve">
<style type="text/css">
	.st0{opacity:0.5;}
	.st1{fill:#C3DDF9;}
</style>
<g class="st0">
	<path class="st1" d="M19.7-4.9c-1.8,1-3.4,2.2-4.8,3.8s-2.2,3.4-2.6,5.5c3.3,0.2,5,2,5,5.6c0,1-0.2,1.8-0.7,2.6
		c-0.4,0.7-1,1.4-1.7,1.9c-0.6,0.5-1.4,0.9-2.2,1.2c-0.8,0.3-1.5,0.4-2.3,0.4c-2.5,0-4.1-0.6-5-1.8C4.5,13,4.1,11.2,4.1,9
		c0-2.7,0.5-5.1,1.6-7.2C6.8-0.3,8.1-2,9.5-3.5c1.5-1.5,3-2.7,4.5-3.6C15.6-8,16.8-8.7,17.8-9L19.7-4.9z M3-4.9
		C1.1-4-0.5-2.7-1.9-1.2s-2.3,3.4-2.7,5.5c3.3,0.2,5,2,5,5.6c0,1-0.2,1.8-0.7,2.6c-0.4,0.7-1,1.4-1.7,1.9c-0.6,0.5-1.4,0.9-2.1,1.2
		C-4.8,15.8-5.6,16-6.4,16c-2.5,0-4.1-0.6-5-1.8c-0.9-1.2-1.3-2.9-1.3-5.2c0-2.7,0.5-5.1,1.6-7.2C-10-0.3-8.7-2-7.3-3.5
		c1.5-1.5,3-2.7,4.6-3.6C-1.1-8,0.2-8.7,1.2-9L3-4.9z"/>
</g>
</svg>
