<?xml version="1.0" encoding="utf-8"?>
<!-- Generator: Adobe Illustrator 19.0.0, SVG Export Plug-In . SVG Version: 6.00 Build 0)  -->
<svg version="1.1" id="Layer_1" xmlns="http://www.w3.org/2000/svg" xmlns:xlink="http://www.w3.org/1999/xlink" x="0px" y="0px"
	 viewBox="0 0 19 21" style="enable-background:new 0 0 19 21;" xml:space="preserve">
<style type="text/css">
	.st0{fill:#FFFFFF;}
</style>
<g id="XMLID_54_">
	<path id="XMLID_55_" class="st0" d="M18.9,4.9c0,0.2-0.2,0.4-0.4,0.4h-1.3v12.7c0,1.5-1,2.7-2.1,2.7H3.9c-1.2,0-2.1-1.2-2.1-2.7
		V5.4H0.5c-0.2,0-0.4-0.2-0.4-0.4V4.1c0-0.2,0.2-0.4,0.4-0.4h4.1l0.9-2.2c0.3-0.7,1.1-1.2,1.8-1.2h4.3c0.7,0,1.5,0.5,1.8,1.2
		l0.9,2.2h4.1c0.2,0,0.4,0.2,0.4,0.4V4.9z M15.5,5.4h-12v12.7c0,0.6,0.4,1,0.4,1h11.1c0.1,0,0.4-0.4,0.4-1V5.4z M6.9,16.1
		c0,0.2-0.2,0.4-0.4,0.4H5.6c-0.2,0-0.4-0.2-0.4-0.4V8.4c0-0.2,0.2-0.4,0.4-0.4h0.9c0.2,0,0.4,0.2,0.4,0.4V16.1z M12.5,3.6l-0.6-1.6
		c0-0.1-0.2-0.1-0.2-0.1H7.4C7.3,1.9,7.2,2,7.2,2.1L6.5,3.6H12.5z M10.4,16.1c0,0.2-0.2,0.4-0.4,0.4H9.1c-0.2,0-0.4-0.2-0.4-0.4V8.4
		c0-0.2,0.2-0.4,0.4-0.4h0.9c0.2,0,0.4,0.2,0.4,0.4V16.1z M13.8,16.1c0,0.2-0.2,0.4-0.4,0.4h-0.9c-0.2,0-0.4-0.2-0.4-0.4V8.4
		c0-0.2,0.2-0.4,0.4-0.4h0.9c0.2,0,0.4,0.2,0.4,0.4V16.1z"/>
</g>
</svg>
