<?xml version="1.0" encoding="utf-8"?>
<!-- Generator: Adobe Illustrator 19.0.0, SVG Export Plug-In . SVG Version: 6.00 Build 0)  -->
<svg version="1.1" id="Layer_1" xmlns="http://www.w3.org/2000/svg" xmlns:xlink="http://www.w3.org/1999/xlink" x="0px" y="0px"
	 viewBox="0 0 23 18" style="enable-background:new 0 0 23 18;" xml:space="preserve">
<style type="text/css">
	.st0{fill:#388DEC;}
	.st1{fill:none;stroke:#388DEC;stroke-miterlimit:10;}
</style>
<g>
	<g id="XMLID_45_">
		<path id="XMLID_46_" class="st0" d="M22,11.9c0-0.3-1.1-6.7-1.2-7.7c0-0.1,0-0.2,0-0.3c-0.1-1-0.4-2.9-3.4-2.9
			c-0.4,0-0.7,0.3-0.7,0.7c0,0.4,0.3,0.7,0.7,0.7c1.9,0,2,0.8,2.1,1.8c0,0.1,0,0.2,0,0.4c0.1,0.5,0.4,2.3,0.7,4.2
			c-0.8-0.6-1.7-1-2.8-1c-1.7,0-3.1,0.9-4,2.3c-0.4-0.2-1.1-0.3-2-0.3c-0.9,0-1.5,0.2-1.9,0.4C8.8,8.6,7.3,7.7,5.7,7.7
			c-1.1,0-2.1,0.4-2.9,1.1c0.3-1.9,0.7-3.8,0.7-4.3c0-0.1,0-0.2,0-0.4c0.1-1,0.2-1.8,2.1-1.8C6,2.3,6.3,2,6.3,1.7C6.3,1.3,6,1,5.6,1
			c-3,0-3.2,1.9-3.4,2.9c0,0.1,0,0.2,0,0.3C2,5.3,1,11.6,1,11.9c0,0.1,0,0.1,0,0.2c0,0.1,0,0.2,0,0.3C1,14.9,3.1,17,5.7,17
			c2.5,0,4.6-2.1,4.6-4.7c0-0.4-0.1-0.8-0.1-1.1c0.3-0.1,0.7-0.3,1.4-0.3c0.7,0,1.2,0.1,1.4,0.2c-0.1,0.4-0.2,0.7-0.2,1.1
			c0,2.6,2.1,4.7,4.6,4.7c2.5,0,4.6-2.1,4.6-4.7c0-0.1,0-0.1,0-0.2C22,12.1,22,12,22,11.9z M5.7,15.7c-1.8,0-3.3-1.5-3.3-3.3
			C2.3,10.5,3.9,9,5.7,9c1.8,0,3.3,1.5,3.3,3.3C8.9,14.2,7.4,15.7,5.7,15.7z M17.4,15.7c-1.8,0-3.3-1.5-3.3-3.3
			c0-1.8,1.5-3.3,3.3-3.3c1.6,0,2.9,1.1,3.2,2.6c0,0.1,0,0.3,0,0.4c0,0,0,0,0,0.1c0,0.1,0,0.2,0,0.3C20.7,14.2,19.2,15.7,17.4,15.7z
			"/>
	</g>
	<g id="XMLID_35_">
		<path id="XMLID_36_" class="st1" d="M22,11.9c0-0.3-1.1-6.7-1.2-7.7c0-0.1,0-0.2,0-0.3c-0.1-1-0.4-2.9-3.4-2.9
			c-0.4,0-0.7,0.3-0.7,0.7c0,0.4,0.3,0.7,0.7,0.7c1.9,0,2,0.8,2.1,1.8c0,0.1,0,0.2,0,0.4c0.1,0.5,0.4,2.3,0.7,4.2
			c-0.8-0.6-1.7-1-2.8-1c-1.7,0-3.1,0.9-4,2.3c-0.4-0.2-1.1-0.3-2-0.3c-0.9,0-1.5,0.2-1.9,0.4C8.8,8.6,7.3,7.7,5.7,7.7
			c-1.1,0-2.1,0.4-2.9,1.1c0.3-1.9,0.7-3.8,0.7-4.3c0-0.1,0-0.2,0-0.4c0.1-1,0.2-1.8,2.1-1.8C6,2.3,6.3,2,6.3,1.7C6.3,1.3,6,1,5.6,1
			c-3,0-3.2,1.9-3.4,2.9c0,0.1,0,0.2,0,0.3C2,5.3,1,11.6,1,11.9c0,0.1,0,0.1,0,0.2c0,0.1,0,0.2,0,0.3C1,14.9,3.1,17,5.7,17
			c2.5,0,4.6-2.1,4.6-4.7c0-0.4-0.1-0.8-0.1-1.1c0.3-0.1,0.7-0.3,1.4-0.3c0.7,0,1.2,0.1,1.4,0.2c-0.1,0.4-0.2,0.7-0.2,1.1
			c0,2.6,2.1,4.7,4.6,4.7c2.5,0,4.6-2.1,4.6-4.7c0-0.1,0-0.1,0-0.2C22,12.1,22,12,22,11.9z M5.7,15.7c-1.8,0-3.3-1.5-3.3-3.3
			C2.3,10.5,3.9,9,5.7,9c1.8,0,3.3,1.5,3.3,3.3C8.9,14.2,7.4,15.7,5.7,15.7z M17.4,15.7c-1.8,0-3.3-1.5-3.3-3.3
			c0-1.8,1.5-3.3,3.3-3.3c1.6,0,2.9,1.1,3.2,2.6c0,0.1,0,0.3,0,0.4c0,0,0,0,0,0.1c0,0.1,0,0.2,0,0.3C20.7,14.2,19.2,15.7,17.4,15.7z
			"/>
	</g>
</g>
</svg>
