<svg width="40" height="53" viewBox="0 0 40 53" version="1.1" xmlns="http://www.w3.org/2000/svg" xmlns:xlink="http://www.w3.org/1999/xlink" xmlns:figma="http://www.figma.com/figma/ns">
<title>pdf icon</title>
<desc>Created using Figma</desc>
<g id="Canvas" transform="translate(-13842 -763)" figma:type="canvas">
<g id="pdf icon" style="mix-blend-mode:normal;" figma:type="frame">
<g id="Group" style="mix-blend-mode:normal;" figma:type="frame">
<g id="Vector" style="mix-blend-mode:normal;" figma:type="vector">
<use xlink:href="#path0_fill" transform="translate(13842 763)" fill="#E2112E" style="mix-blend-mode:normal;"/>
</g>
<g id="Vector" style="mix-blend-mode:normal;" figma:type="vector">
<use xlink:href="#path1_fill" transform="translate(13852.2 798.358)" fill="#E2112E" style="mix-blend-mode:normal;"/>
</g>
<g id="Vector" style="mix-blend-mode:normal;" figma:type="vector">
<use xlink:href="#path2_fill" transform="translate(13859.6 798.358)" fill="#E2112E" style="mix-blend-mode:normal;"/>
</g>
<g id="Vector" style="mix-blend-mode:normal;" figma:type="vector">
<use xlink:href="#path3_fill" transform="translate(13867.5 798.358)" fill="#E2112E" style="mix-blend-mode:normal;"/>
</g>
<g id="Vector" style="mix-blend-mode:normal;" figma:type="vector">
<use xlink:href="#path4_fill" transform="translate(13860.8 769.244)" fill="#E2112E" style="mix-blend-mode:normal;"/>
</g>
<g id="Vector" style="mix-blend-mode:normal;" figma:type="vector">
<use xlink:href="#path5_fill" transform="translate(13860.8 772.656)" fill="#E2112E" style="mix-blend-mode:normal;"/>
</g>
<g id="Vector" style="mix-blend-mode:normal;" figma:type="vector">
<use xlink:href="#path6_fill" transform="translate(13860.8 776.068)" fill="#E2112E" style="mix-blend-mode:normal;"/>
</g>
<g id="Vector" style="mix-blend-mode:normal;" figma:type="vector">
<use xlink:href="#path7_fill" transform="translate(13860.8 779.408)" fill="#E2112E" style="mix-blend-mode:normal;"/>
</g>
<g id="Vector" style="mix-blend-mode:normal;" figma:type="vector">
<use xlink:href="#path8_fill" transform="translate(13860.8 782.821)" fill="#E2112E" style="mix-blend-mode:normal;"/>
</g>
<g id="Vector" style="mix-blend-mode:normal;" figma:type="vector">
<use xlink:href="#path9_fill" transform="translate(13860.8 786.233)" fill="#E2112E" style="mix-blend-mode:normal;"/>
</g>
<g id="Vector" style="mix-blend-mode:normal;" figma:type="vector">
<use xlink:href="#path10_fill" transform="translate(13860.8 789.645)" fill="#E2112E" style="mix-blend-mode:normal;"/>
</g>
</g>
</g>
</g>
<defs>
<path id="path0_fill" d="M 36.7018 0L 13.2632 0L 0 13.7219L 0 49.5877C 0 51.4753 1.47368 53 3.29825 53L 36.7018 53C 38.5263 53 40 51.4753 40 49.5877L 40 3.41233C 40 1.52466 38.5263 0 36.7018 0ZM 12.6316 3.70274L 12.6316 11.8342C 12.6316 12.4877 12.0702 13.0685 11.4386 13.0685L 3.57895 13.0685L 12.6316 3.70274ZM 37.8947 49.5877C 37.8947 50.2411 37.3333 50.8219 36.7018 50.8219L 3.29825 50.8219C 2.66667 50.8219 2.10526 50.2411 2.10526 49.5877L 2.10526 15.2466L 11.4386 15.2466C 13.2632 15.2466 14.7368 13.7219 14.7368 11.8342L 14.7368 2.17808L 36.7018 2.17808C 37.3333 2.17808 37.8947 2.7589 37.8947 3.41233L 37.8947 49.5877Z"/>
<path id="path1_fill" d="M 3.64912 5.53915e-07L 0.491228 5.53915e-07C 0.140351 5.53915e-07 0 0.145207 0 0.50822L 0 8.13151C 0 8.49452 0.140351 8.63972 0.491228 8.63972L 1.40351 8.63972C 1.75439 8.63972 1.89474 8.49452 1.89474 8.13151L 1.89474 5.80822L 3.57895 5.80822C 5.33333 5.80822 6.45614 4.71918 6.45614 2.90411C 6.45614 1.08904 5.33333 5.53915e-07 3.64912 5.53915e-07ZM 3.4386 3.99315L 1.96491 3.99315L 1.96491 1.81507L 3.4386 1.81507C 4.14035 1.81507 4.49123 2.25069 4.49123 2.90411C 4.49123 3.55753 4.07018 3.99315 3.4386 3.99315Z"/>
<path id="path2_fill" d="M 3.22807 5.53915e-07L 0.491228 5.53915e-07C 0.14035 5.53915e-07 2.67698e-07 0.145207 2.67698e-07 0.50822L 2.67698e-07 8.13151C 2.67698e-07 8.49452 0.14035 8.63972 0.491228 8.63972L 3.22807 8.63972C 5.47368 8.63972 6.66667 7.40548 6.66667 5.3726L 6.66667 3.26712C 6.66667 1.23425 5.47368 5.53915e-07 3.22807 5.53915e-07ZM 4.77193 5.3C 4.77193 6.24384 4.21053 6.75205 3.22807 6.75205L 1.96491 6.75205L 1.96491 1.74246L 3.22807 1.74246C 4.2807 1.74246 4.77193 2.25068 4.77193 3.19452L 4.77193 5.3Z"/>
<path id="path3_fill" d="M 5.19298 5.53915e-07L 0.491228 5.53915e-07C 0.140351 5.53915e-07 -5.35396e-07 0.145207 -5.35396e-07 0.50822L -5.35396e-07 8.13151C -5.35396e-07 8.49452 0.140351 8.63972 0.491228 8.63972L 1.40351 8.63972C 1.75439 8.63972 1.89474 8.49452 1.89474 8.13151L 1.89474 5.3L 4.5614 5.3C 4.91228 5.3 5.05263 5.15479 5.05263 4.79178L 5.05263 3.99315C 5.05263 3.63014 4.91228 3.48493 4.5614 3.48493L 1.89474 3.48493L 1.89474 1.74246L 5.19298 1.74246C 5.54386 1.74246 5.68421 1.59726 5.68421 1.23425L 5.68421 0.435616C 5.68421 0.0726022 5.61404 5.53915e-07 5.19298 5.53915e-07Z"/>
<path id="path4_fill" d="M 15.3684 0L 0 0L 0 1.45206L 15.3684 1.45206L 15.3684 0Z"/>
<path id="path5_fill" d="M 15.3684 0L 0 0L 0 1.23425L 15.3684 1.23425L 15.3684 0Z"/>
<path id="path6_fill" d="M 15.3684 0L 0 0L 0 1.01644L 15.3684 1.01644L 15.3684 0Z"/>
<path id="path7_fill" d="M 15.3684 0L 0 0L 0 0.798631L 15.3684 0.798631L 15.3684 0Z"/>
<path id="path8_fill" d="M 15.3684 0L 0 0L 0 0.580822L 15.3684 0.580822L 15.3684 0Z"/>
<path id="path9_fill" d="M 15.3684 0L 0 0L 0 0.363014L 15.3684 0.363014L 15.3684 0Z"/>
<path id="path10_fill" d="M 15.3684 0L 0 0L 0 0.145207L 15.3684 0.145207L 15.3684 0Z"/>
</defs>
</svg>
