<svg width="32" height="23" viewBox="0 0 32 23" version="1.1" xmlns="http://www.w3.org/2000/svg" xmlns:xlink="http://www.w3.org/1999/xlink" xmlns:figma="http://www.figma.com/figma/ns">
<title>right-arrow_red</title>
<desc>Created using Figma</desc>
<g id="Canvas" transform="translate(620 -3432)" figma:type="canvas">
<mask id="mask0_alpha" mask-type="alpha">
<path d="M -2072 1218L -152 1218L -152 9752L -2072 9752L -2072 1218Z" fill="#FFFFFF"/>
</mask>
<g id="UI set" style="mix-blend-mode:normal;" mask="url(#mask0_alpha)" figma:type="frame">
<path d="M -2072 1218L -152 1218L -152 9752L -2072 9752L -2072 1218Z" fill="#FFFFFF"/>
<g id="Component" style="mix-blend-mode:normal;" figma:type="symbol">
<g id="right-arrow_red" style="mix-blend-mode:normal;" figma:type="frame">
<g id="Vector" style="mix-blend-mode:normal;" figma:type="vector">
<use xlink:href="#path0_fill" transform="matrix(1 -2.44929e-16 2.44929e-16 1 -619.97 3432.57)" fill="#E2112E" style="mix-blend-mode:normal;"/>
</g>
</g>
</g>
</g>
</g>
<defs>
<path id="path0_fill" d="M 21.205 0.333C 20.776 -0.111 20.062 -0.111 19.618 0.333C 19.189 0.762 19.189 1.476 19.618 1.904L 27.665 9.951L 1.111 9.951C 0.492 9.952 0 10.444 0 11.063C 0 11.682 0.492 12.19 1.111 12.19L 27.665 12.19L 19.618 20.222C 19.189 20.666 19.189 21.381 19.618 21.809C 20.062 22.253 20.777 22.253 21.205 21.809L 31.157 11.857C 31.601 11.428 31.601 10.714 31.157 10.286L 21.205 0.333Z"/>
</defs>
</svg>
