<svg width="75" height="74" viewBox="0 0 75 74" version="1.1" xmlns="http://www.w3.org/2000/svg" xmlns:xlink="http://www.w3.org/1999/xlink" xmlns:figma="http://www.figma.com/figma/ns">
<title>commercical</title>
<desc>Created using Figma</desc>
<g id="Canvas" transform="translate(-957 -1267)" figma:type="canvas">
<g id="commercical" style="mix-blend-mode:normal;" figma:type="frame">
<g id="Vector" style="mix-blend-mode:normal;" figma:type="vector">
<use xlink:href="#path0_stroke" transform="translate(994.5 1293.5)" fill="#E2112E" style="mix-blend-mode:normal;"/>
</g>
<g id="Vector" style="mix-blend-mode:normal;" figma:type="vector">
<use xlink:href="#path1_stroke" transform="translate(972.7 1293.5)" fill="#E2112E" style="mix-blend-mode:normal;"/>
</g>
<g id="Vector" style="mix-blend-mode:normal;" figma:type="vector">
<use xlink:href="#path2_stroke" transform="translate(994.5 1289.3)" fill="#E2112E" style="mix-blend-mode:normal;"/>
</g>
<g id="Vector" style="mix-blend-mode:normal;" figma:type="vector">
<use xlink:href="#path3_stroke" transform="translate(972.7 1280.9)" fill="#E2112E" style="mix-blend-mode:normal;"/>
</g>
<g id="Vector" style="mix-blend-mode:normal;" figma:type="vector">
<use xlink:href="#path4_stroke" transform="translate(987.1 1268.3)" fill="#E2112E" style="mix-blend-mode:normal;"/>
</g>
<g id="Vector" style="mix-blend-mode:normal;" figma:type="vector">
<use xlink:href="#path5_stroke" transform="translate(998.2 1278.8)" fill="#E2112E" style="mix-blend-mode:normal;"/>
</g>
<g id="Vector" style="mix-blend-mode:normal;" figma:type="vector">
<use xlink:href="#path6_stroke" transform="translate(990.9 1283)" fill="#E2112E" style="mix-blend-mode:normal;"/>
</g>
<g id="Vector" style="mix-blend-mode:normal;" figma:type="vector">
<use xlink:href="#path7_stroke" transform="translate(976.3 1303.9)" fill="#E2112E" style="mix-blend-mode:normal;"/>
</g>
<g id="Vector" style="mix-blend-mode:normal;" figma:type="vector">
<use xlink:href="#path8_stroke" transform="translate(998.2 1303.9)" fill="#E2112E" style="mix-blend-mode:normal;"/>
</g>
<g id="Vector" style="mix-blend-mode:normal;" figma:type="vector">
<use xlink:href="#path9_stroke" transform="translate(1009.1 1306)" fill="#E2112E" style="mix-blend-mode:normal;"/>
</g>
<g id="Vector" style="mix-blend-mode:normal;" figma:type="vector">
<use xlink:href="#path10_stroke" transform="translate(958 1305.9)" fill="#E2112E" style="mix-blend-mode:normal;"/>
</g>
<g id="Vector" style="mix-blend-mode:normal;" figma:type="vector">
<use xlink:href="#path11_stroke" transform="translate(958 1314.5)" fill="#E2112E" style="mix-blend-mode:normal;"/>
</g>
<g id="Vector" style="mix-blend-mode:normal;" figma:type="vector">
<use xlink:href="#path12_stroke" transform="translate(994.5 1335.4)" fill="#E2112E" style="mix-blend-mode:normal;"/>
</g>
<g id="Group" style="mix-blend-mode:normal;" figma:type="frame">
<g id="Vector" style="mix-blend-mode:normal;" figma:type="vector">
<use xlink:href="#path13_stroke" transform="translate(972.9 1289.7)" fill="#E2112E" style="mix-blend-mode:normal;"/>
</g>
<g id="Vector" style="mix-blend-mode:normal;" figma:type="vector">
<use xlink:href="#path14_stroke" transform="translate(976 1290.9)" fill="#E2112E" style="mix-blend-mode:normal;"/>
</g>
<g id="Vector" style="mix-blend-mode:normal;" figma:type="vector">
<use xlink:href="#path15_stroke" transform="translate(979.1 1292.1)" fill="#E2112E" style="mix-blend-mode:normal;"/>
</g>
<g id="Vector" style="mix-blend-mode:normal;" figma:type="vector">
<use xlink:href="#path16_stroke" transform="translate(982.2 1293.3)" fill="#E2112E" style="mix-blend-mode:normal;"/>
</g>
<g id="Vector" style="mix-blend-mode:normal;" figma:type="vector">
<use xlink:href="#path17_stroke" transform="translate(985.3 1294.6)" fill="#E2112E" style="mix-blend-mode:normal;"/>
</g>
<g id="Vector" style="mix-blend-mode:normal;" figma:type="vector">
<use xlink:href="#path18_stroke" transform="translate(988.4 1295.8)" fill="#E2112E" style="mix-blend-mode:normal;"/>
</g>
<g id="Vector" style="mix-blend-mode:normal;" figma:type="vector">
<use xlink:href="#path19_stroke" transform="translate(991.4 1297)" fill="#E2112E" style="mix-blend-mode:normal;"/>
</g>
<g id="Vector" style="mix-blend-mode:normal;" figma:type="vector">
<use xlink:href="#path20_stroke" transform="translate(994.5 1298.2)" fill="#E2112E" style="mix-blend-mode:normal;"/>
</g>
</g>
<g id="Group" style="mix-blend-mode:normal;" figma:type="frame">
<g id="Vector" style="mix-blend-mode:normal;" figma:type="vector">
<use xlink:href="#path21_stroke" transform="translate(990.5 1322.4)" fill="#E2112E" style="mix-blend-mode:normal;"/>
</g>
<g id="Vector" style="mix-blend-mode:normal;" figma:type="vector">
<use xlink:href="#path22_stroke" transform="translate(990.2 1319.4)" fill="#E2112E" style="mix-blend-mode:normal;"/>
</g>
<g id="Vector" style="mix-blend-mode:normal;" figma:type="vector">
<use xlink:href="#path23_stroke" transform="translate(989.9 1316.4)" fill="#E2112E" style="mix-blend-mode:normal;"/>
</g>
<g id="Vector" style="mix-blend-mode:normal;" figma:type="vector">
<use xlink:href="#path24_stroke" transform="translate(989.5 1313.4)" fill="#E2112E" style="mix-blend-mode:normal;"/>
</g>
<g id="Vector" style="mix-blend-mode:normal;" figma:type="vector">
<use xlink:href="#path25_stroke" transform="translate(989.2 1310.3)" fill="#E2112E" style="mix-blend-mode:normal;"/>
</g>
</g>
</g>
</g>
<defs>
<path id="path0_stroke" d="M 0 33.6L -1 33.6C -1 33.957 -0.809686 34.2869 -0.500652 34.4656C -0.191619 34.6444 0.189258 34.6448 0.498694 34.4668L 0 33.6ZM 0 12.6L -0.498694 11.7332C -0.808831 11.9117 -1 12.2422 -1 12.6L 0 12.6ZM 21.9 7.62939e-07L 22.9 7.62939e-07C 22.9 -0.356996 22.7097 -0.686916 22.4007 -0.865648C 22.0916 -1.04438 21.7107 -1.04481 21.4013 -0.866777L 21.9 7.62939e-07ZM 21.9 21L 22.3987 21.8668C 22.7088 21.6883 22.9 21.3578 22.9 21L 21.9 21ZM 1 33.6L 1 12.6L -1 12.6L -1 33.6L 1 33.6ZM 0.498694 13.4668L 22.3987 0.866779L 21.4013 -0.866777L -0.498694 11.7332L 0.498694 13.4668ZM 20.9 7.62939e-07L 20.9 21L 22.9 21L 22.9 7.62939e-07L 20.9 7.62939e-07ZM 21.4013 20.1332L -0.498694 32.7332L 0.498694 34.4668L 22.3987 21.8668L 21.4013 20.1332Z"/>
<path id="path1_stroke" d="M -1.90735e-07 7.62939e-07L 0.50041 -0.865788C 0.19102 -1.04461 -0.190279 -1.04474 -0.499795 -0.866143C -0.809312 -0.687541 -1 -0.357349 -1 7.62939e-07L -1.90735e-07 7.62939e-07ZM 21.8 12.6L 22.8 12.6C 22.8 12.2429 22.6096 11.9129 22.3004 11.7342L 21.8 12.6ZM 21.8 33.6L 21.2996 34.4658C 21.609 34.6446 21.9903 34.6447 22.2998 34.4661C 22.6093 34.2875 22.8 33.9573 22.8 33.6L 21.8 33.6ZM -1.90735e-07 21L -1 21C -1 21.3571 -0.80958 21.6871 -0.50041 21.8658L -1.90735e-07 21ZM -0.50041 0.865789L 21.2996 13.4658L 22.3004 11.7342L 0.50041 -0.865788L -0.50041 0.865789ZM 20.8 12.6L 20.8 33.6L 22.8 33.6L 22.8 12.6L 20.8 12.6ZM 22.3004 32.7342L 0.50041 20.1342L -0.50041 21.8658L 21.2996 34.4658L 22.3004 32.7342ZM 1 21L 1 7.62939e-07L -1 7.62939e-07L -1 21L 1 21Z"/>
<path id="path2_stroke" d="M 0 8.4L -0.498694 7.53322C -0.808831 7.71166 -1 8.0422 -1 8.4L 0 8.4ZM 14.6 0L 15.0987 -0.866778C 14.79 -1.04441 14.41 -1.04441 14.1013 -0.866778L 14.6 0ZM 21.9 4.2L 22.3987 5.06678C 22.7088 4.88834 22.9 4.55781 22.9 4.2C 22.9 3.8422 22.7088 3.51166 22.3987 3.33322L 21.9 4.2ZM 0 16.8L -1 16.8C -1 17.157 -0.809686 17.4869 -0.500652 17.6656C -0.191619 17.8444 0.189258 17.8448 0.498694 17.6668L 0 16.8ZM 0.498694 9.26678L 15.0987 0.866778L 14.1013 -0.866778L -0.498694 7.53322L 0.498694 9.26678ZM 14.1013 0.866778L 21.4013 5.06678L 22.3987 3.33322L 15.0987 -0.866778L 14.1013 0.866778ZM 21.4013 3.33322L -0.498694 15.9332L 0.498694 17.6668L 22.3987 5.06678L 21.4013 3.33322ZM 1 16.8L 1 8.4L -1 8.4L -1 16.8L 1 16.8Z"/>
<path id="path3_stroke" d="M 21.2996 26.0658C 21.7778 26.3422 22.3894 26.1786 22.6658 25.7004C 22.9422 25.2222 22.7786 24.6106 22.3004 24.3342L 21.2996 26.0658ZM -1.90735e-07 12.6L -0.498694 11.7332C -0.808524 11.9115 -0.999646 12.2416 -1 12.599C -1.00035 12.9565 -0.809886 13.2869 -0.50041 13.4658L -1.90735e-07 12.6ZM 7.3 8.4L 7.80127 7.53471C 7.49215 7.35563 7.11096 7.35506 6.80131 7.53322L 7.3 8.4ZM 21.8 16.8L 21.2987 17.6653C 21.6079 17.8444 21.989 17.8449 22.2987 17.6668L 21.8 16.8ZM 36.4 8.4L 36.8987 9.26678C 37.2088 9.08834 37.4 8.7578 37.4 8.4C 37.4 8.0422 37.2088 7.71166 36.8987 7.53322L 36.4 8.4ZM 21.8 3.8147e-07L 22.2987 -0.866778C 21.989 -1.04494 21.6079 -1.04437 21.2987 -0.86529L 21.8 3.8147e-07ZM 6.79873 7.53471C 6.32084 7.81155 6.15787 8.42338 6.43471 8.90127C 6.71155 9.37916 7.32339 9.54213 7.80127 9.26529L 6.79873 7.53471ZM 22.3004 24.3342L 0.50041 11.7342L -0.50041 13.4658L 21.2996 26.0658L 22.3004 24.3342ZM 0.498694 13.4668L 7.79869 9.26678L 6.80131 7.53322L -0.498694 11.7332L 0.498694 13.4668ZM 6.79873 9.26529L 21.2987 17.6653L 22.3013 15.9347L 7.80127 7.53471L 6.79873 9.26529ZM 22.2987 17.6668L 36.8987 9.26678L 35.9013 7.53322L 21.3013 15.9332L 22.2987 17.6668ZM 36.8987 7.53322L 22.2987 -0.866778L 21.3013 0.866778L 35.9013 9.26678L 36.8987 7.53322ZM 21.2987 -0.86529L 6.79873 7.53471L 7.80127 9.26529L 22.3013 0.86529L 21.2987 -0.86529Z"/>
<path id="path4_stroke" d="M 3.8147e-07 8.4L -0.493605 7.53031C -0.810355 7.71009 -1.00431 8.04786 -0.999927 8.41205L 3.8147e-07 8.4ZM 0.100001 16.7L -0.899927 16.712C -0.895663 17.0659 -0.70465 17.3912 -0.397668 17.5674C -0.0906857 17.7435 0.286534 17.7443 0.594215 17.5693L 0.100001 16.7ZM 14.7 8.4L 15.1942 9.26934C 15.5032 9.0937 15.6957 8.76727 15.6999 8.4119L 14.7 8.4ZM 14.8 0L 15.7999 0.0119042C 15.8042 -0.346146 15.6167 -0.679149 15.3083 -0.861167C 15 -1.04318 14.6178 -1.04643 14.3064 -0.869686L 14.8 0ZM -0.999927 8.41205L -0.899927 16.712L 1.09993 16.688L 0.999928 8.38795L -0.999927 8.41205ZM 0.594215 17.5693L 15.1942 9.26934L 14.2058 7.53066L -0.394213 15.8307L 0.594215 17.5693ZM 15.6999 8.4119L 15.7999 0.0119042L 13.8001 -0.0119042L 13.7001 8.3881L 15.6999 8.4119ZM 14.3064 -0.869686L -0.493605 7.53031L 0.493606 9.26969L 15.2936 0.869686L 14.3064 -0.869686Z"/>
<path id="path5_stroke" d="M -0.999999 8.4C -0.999999 8.95228 -0.552284 9.4 7.62939e-07 9.4C 0.552285 9.4 1 8.95228 1 8.4L -0.999999 8.4ZM 1 0C 1 -0.552285 0.552285 -1 7.62939e-07 -1C -0.552284 -1 -0.999999 -0.552285 -0.999999 0L 1 0ZM 1 8.4L 1 0L -0.999999 0L -0.999999 8.4L 1 8.4Z"/>
<path id="path6_stroke" d="M -0.999998 7.9C -0.999998 8.45229 -0.552283 8.9 1.52588e-06 8.9C 0.552286 8.9 1 8.45229 1 7.9L -0.999998 7.9ZM 1 -1.90735e-07C 1 -0.552285 0.552286 -1 1.52588e-06 -1C -0.552283 -1 -0.999998 -0.552285 -0.999998 -1.90735e-07L 1 -1.90735e-07ZM 1 7.9L 1 -1.90735e-07L -0.999998 -1.90735e-07L -0.999998 7.9L 1 7.9Z"/>
<path id="path7_stroke" d="M -1 12.7C -1 13.2523 -0.552285 13.7 -7.62939e-07 13.7C 0.552284 13.7 0.999999 13.2523 0.999999 12.7L -1 12.7ZM -7.62939e-07 -1.52588e-06L 0.499298 -0.866431C 0.189878 -1.04474 -0.191148 -1.04451 -0.500351 -0.865824C -0.809555 -0.687139 -1 -0.357123 -1 -1.52588e-06L -7.62939e-07 -1.52588e-06ZM 5.9 3.4L 6.9 3.4C 6.9 3.04245 6.7091 2.7121 6.3993 2.53357L 5.9 3.4ZM 4.9 16.1C 4.9 16.6523 5.34772 17.1 5.9 17.1C 6.45229 17.1 6.9 16.6523 6.9 16.1L 4.9 16.1ZM 0.999999 12.7L 0.999999 -1.52588e-06L -1 -1.52588e-06L -1 12.7L 0.999999 12.7ZM -0.499299 0.866428L 5.4007 4.26643L 6.3993 2.53357L 0.499298 -0.866431L -0.499299 0.866428ZM 4.9 3.4L 4.9 16.1L 6.9 16.1L 6.9 3.4L 4.9 3.4Z"/>
<path id="path8_stroke" d="M 7.62939e-07 8.5L -0.503134 7.63579C -0.810767 7.81489 -0.999999 8.14403 -0.999999 8.5L 7.62939e-07 8.5ZM 7.62939e-07 16.9L -0.999999 16.9C -0.999999 17.257 -0.809685 17.5869 -0.500652 17.7656C -0.191618 17.9444 0.189258 17.9448 0.498695 17.7668L 7.62939e-07 16.9ZM 14.6 8.5L 15.0987 9.36678C 15.4088 9.18834 15.6 8.8578 15.6 8.5L 14.6 8.5ZM 14.6 -1.52588e-06L 15.6 -1.52588e-06C 15.6 -0.357914 15.4087 -0.688537 15.0984 -0.866931C 14.7881 -1.04533 14.4062 -1.04429 14.0969 -0.864209L 14.6 -1.52588e-06ZM -0.999999 8.5L -0.999999 16.9L 1 16.9L 1 8.5L -0.999999 8.5ZM 0.498695 17.7668L 15.0987 9.36678L 14.1013 7.63322L -0.498694 16.0332L 0.498695 17.7668ZM 15.6 8.5L 15.6 -1.52588e-06L 13.6 -1.52588e-06L 13.6 8.5L 15.6 8.5ZM 14.0969 -0.864209L -0.503134 7.63579L 0.503136 9.36421L 15.1031 0.864206L 14.0969 -0.864209Z"/>
<path id="path9_stroke" d="M 0.999998 7.62939e-07C 0.999998 -0.552284 0.552283 -0.999999 -1.52588e-06 -0.999999C -0.552286 -0.999999 -1 -0.552284 -1 7.62939e-07L 0.999998 7.62939e-07ZM -1 8.3C -1 8.85229 -0.552286 9.3 -1.52588e-06 9.3C 0.552283 9.3 0.999998 8.85229 0.999998 8.3L -1 8.3ZM -1 7.62939e-07L -1 8.3L 0.999998 8.3L 0.999998 7.62939e-07L -1 7.62939e-07Z"/>
<path id="path10_stroke" d="M 36.5 29.5L 36.0031 30.3678C 36.3109 30.5441 36.6891 30.5441 36.9969 30.3678L 36.5 29.5ZM 73 8.6L 73.4969 9.4678C 73.8061 9.29073 73.9978 8.96248 74 8.60615C 74.0022 8.24981 73.8146 7.91923 73.5075 7.73837L 73 8.6ZM 58.4 -1.52588e-06L 58.9075 -0.861632C 58.5984 -1.04375 58.2153 -1.04625 57.9038 -0.8682C 57.5923 -0.690145 57.4 -0.358826 57.4 -1.52588e-06L 58.4 -1.52588e-06ZM 58.4 8.6L 58.8987 9.46678C 59.2088 9.28834 59.4 8.9578 59.4 8.6L 58.4 8.6ZM 36.5 21.2L 35.9996 22.0658C 36.3086 22.2444 36.6893 22.2448 36.9987 22.0668L 36.5 21.2ZM 14.7 8.6L 13.7001 8.61205C 13.7043 8.96482 13.8941 9.28925 14.1996 9.46579L 14.7 8.6ZM 14.6 0.300002L 15.5999 0.287954C 15.5957 -0.0659444 15.4047 -0.391228 15.0977 -0.567366C 14.7907 -0.743503 14.4135 -0.744253 14.1058 -0.569339L 14.6 0.300002ZM 0 8.6L -0.494214 7.73066C -0.80639 7.90813 -0.999442 8.23936 -0.999999 8.59845C -1.00056 8.95754 -0.808531 9.28937 -0.496907 9.4678L 0 8.6ZM 36.9969 30.3678L 73.4969 9.4678L 72.5031 7.7322L 36.0031 28.6322L 36.9969 30.3678ZM 73.5075 7.73837L 58.9075 -0.861632L 57.8925 0.861629L 72.4925 9.46163L 73.5075 7.73837ZM 57.4 -1.52588e-06L 57.4 8.6L 59.4 8.6L 59.4 -1.52588e-06L 57.4 -1.52588e-06ZM 57.9013 7.73322L 36.0013 20.3332L 36.9987 22.0668L 58.8987 9.46678L 57.9013 7.73322ZM 37.0004 20.3342L 15.2004 7.73421L 14.1996 9.46579L 35.9996 22.0658L 37.0004 20.3342ZM 15.6999 8.58795L 15.5999 0.287954L 13.6001 0.312049L 13.7001 8.61205L 15.6999 8.58795ZM 14.1058 -0.569339L -0.494214 7.73066L 0.494214 9.46934L 15.0942 1.16934L 14.1058 -0.569339ZM -0.496907 9.4678L 36.0031 30.3678L 36.9969 28.6322L 0.496907 7.7322L -0.496907 9.4678Z"/>
<path id="path11_stroke" d="M 1 7.62939e-07C 1 -0.552284 0.552285 -0.999999 0 -0.999999C -0.552285 -0.999999 -1 -0.552284 -1 7.62939e-07L 1 7.62939e-07ZM 0 4.6L -1 4.6C -1 4.96118 -0.805237 5.29429 -0.490487 5.47145L 0 4.6ZM 36.6 25.2L 36.1095 26.0714C 36.418 26.2451 36.7953 26.2427 37.1015 26.0652L 36.6 25.2ZM 73 4.1L 73.5015 4.96515C 73.8101 4.7863 74 4.45664 74 4.1L 73 4.1ZM 74 7.62939e-07C 74 -0.552284 73.5523 -0.999999 73 -0.999999C 72.4477 -0.999999 72 -0.552284 72 7.62939e-07L 74 7.62939e-07ZM -1 7.62939e-07L -1 4.6L 1 4.6L 1 7.62939e-07L -1 7.62939e-07ZM -0.490487 5.47145L 36.1095 26.0714L 37.0905 24.3286L 0.490487 3.72855L -0.490487 5.47145ZM 37.1015 26.0652L 73.5015 4.96515L 72.4985 3.23484L 36.0985 24.3348L 37.1015 26.0652ZM 74 4.1L 74 7.62939e-07L 72 7.62939e-07L 72 4.1L 74 4.1Z"/>
<path id="path12_stroke" d="M 1 -1.52588e-06C 1 -0.552286 0.552285 -1 0 -1C -0.552285 -1 -1 -0.552286 -1 -1.52588e-06L 1 -1.52588e-06ZM -1 4.3C -1 4.85229 -0.552285 5.3 0 5.3C 0.552285 5.3 1 4.85229 1 4.3L -1 4.3ZM -1 -1.52588e-06L -1 4.3L 1 4.3L 1 -1.52588e-06L -1 -1.52588e-06Z"/>
<path id="path13_stroke" d="M 0.109431 3.92478L 7.70943 0.224777L 7.49057 -0.224778L -0.109431 3.47522L 0.109431 3.92478Z"/>
<path id="path14_stroke" d="M 0.160154 4.63659L 6.66015 0.236591L 6.33985 -0.23659L -0.160154 4.16341L 0.160154 4.63659Z"/>
<path id="path15_stroke" d="M 0.218396 5.23587L 5.6184 0.235867L 5.1816 -0.235868L -0.218395 4.76413L 0.218396 5.23587Z"/>
<path id="path16_stroke" d="M 0.285119 5.91509L 4.58512 0.215089L 4.01488 -0.215089L -0.285118 5.48491L 0.285119 5.91509Z"/>
<path id="path17_stroke" d="M 0.349094 6.38018L 3.54909 0.180177L 2.85091 -0.180179L -0.349095 6.01982L 0.349094 6.38018Z"/>
<path id="path18_stroke" d="M 0.409468 6.92645L 2.50947 0.126454L 1.69053 -0.126454L -0.409469 6.67355L 0.409468 6.92645Z"/>
<path id="path19_stroke" d="M 0.459387 7.56738L 1.55939 0.0673772L 0.640615 -0.0673757L -0.459384 7.43262L 0.459387 7.56738Z"/>
<path id="path20_stroke" d="M 0.5 8.1L 0.5 -3.8147e-07L -0.5 -3.8147e-07L -0.5 8.1L 0.5 8.1Z"/>
<path id="path21_stroke" d="M 3.87952 2.41905C 4.0005 2.48559 4.15251 2.44146 4.21905 2.32048C 4.28559 2.1995 4.24146 2.04748 4.12048 1.98095L 3.87952 2.41905ZM 0.12048 -0.219055C -0.000500436 -0.285595 -0.152515 -0.241461 -0.219054 -0.120481C -0.285593 0.000498911 -0.24146 0.152513 -0.12048 0.219052L 0.12048 -0.219055ZM 4.12048 1.98095L 0.12048 -0.219055L -0.12048 0.219052L 3.87952 2.41905L 4.12048 1.98095Z"/>
<path id="path22_stroke" d="M 4.1477 2.67287C 4.2984 2.75699 4.48876 2.70301 4.57287 2.5523C 4.65699 2.4016 4.60301 2.21124 4.4523 2.12713L 4.1477 2.67287ZM 0.152303 -0.272876C 0.00159851 -0.35699 -0.188759 -0.303008 -0.272873 -0.152304C -0.356988 -0.00159927 -0.303006 0.188759 -0.152301 0.272873L 0.152303 -0.272876ZM 4.4523 2.12713L 0.152303 -0.272876L -0.152301 0.272873L 4.1477 2.67287L 4.4523 2.12713Z"/>
<path id="path23_stroke" d="M 4.41548 2.92646C 4.59578 3.02837 4.82455 2.96482 4.92646 2.78452C 5.02837 2.60422 4.96482 2.37545 4.78452 2.27354L 4.41548 2.92646ZM 0.184523 -0.326462C 0.00422376 -0.428371 -0.224551 -0.364823 -0.326459 -0.184523C -0.428368 -0.00422376 -0.36482 0.224551 -0.18452 0.326459L 0.184523 -0.326462ZM 4.78452 2.27354L 0.184523 -0.326462L -0.18452 0.326459L 4.41548 2.92646L 4.78452 2.27354Z"/>
<path id="path24_stroke" d="M 4.78624 3.18172C 4.99705 3.29978 5.26366 3.22458 5.38172 3.01377C 5.49978 2.80295 5.42458 2.53634 5.21376 2.41828L 4.78624 3.18172ZM 0.213764 -0.381723C 0.00294532 -0.499781 -0.263663 -0.424585 -0.381721 -0.213766C -0.49978 -0.00294684 -0.424583 0.263661 -0.213764 0.38172L 0.213764 -0.381723ZM 5.21376 2.41828L 0.213764 -0.381723L -0.213764 0.38172L 4.78624 3.18172L 5.21376 2.41828Z"/>
<path id="path25_stroke" d="M 5.04756 3.53159C 5.28592 3.67101 5.59217 3.5908 5.73159 3.35244C 5.87101 3.11408 5.7908 2.80782 5.55244 2.6684L 5.04756 3.53159ZM 0.252442 -0.431594C 0.0140796 -0.571014 -0.292173 -0.490804 -0.431593 -0.252442C -0.571013 -0.0140789 -0.490804 0.292174 -0.252441 0.431594L 0.252442 -0.431594ZM 5.55244 2.6684L 0.252442 -0.431594L -0.252441 0.431594L 5.04756 3.53159L 5.55244 2.6684Z"/>
</defs>
</svg>
