<svg width="77" height="77" viewBox="0 0 77 77" version="1.1" xmlns="http://www.w3.org/2000/svg" xmlns:xlink="http://www.w3.org/1999/xlink" xmlns:figma="http://www.figma.com/figma/ns">
<title>electro</title>
<desc>Created using Figma</desc>
<g id="Canvas" transform="translate(-1434 -1563)" figma:type="canvas">
<g id="electro" style="mix-blend-mode:normal;" figma:type="frame">
<g id="Group" style="mix-blend-mode:normal;" figma:type="frame">
<g id="Vector" style="mix-blend-mode:normal;" figma:type="vector">
<use xlink:href="#path0_fill" transform="translate(1434.05 1563)" fill="#FFFFFF" style="mix-blend-mode:normal;"/>
</g>
</g>
<g id="Group" style="mix-blend-mode:normal;" figma:type="frame">
<g id="Vector" style="mix-blend-mode:normal;" figma:type="vector">
<use xlink:href="#path1_stroke" transform="translate(1466.35 1566.4)" fill="#E2112E" style="mix-blend-mode:normal;"/>
</g>
<g id="Vector" style="mix-blend-mode:normal;" figma:type="vector">
<use xlink:href="#path2_stroke" transform="translate(1466.35 1568)" fill="#E2112E" style="mix-blend-mode:normal;"/>
</g>
<g id="Vector" style="mix-blend-mode:normal;" figma:type="vector">
<use xlink:href="#path3_stroke" transform="translate(1466.35 1569.6)" fill="#E2112E" style="mix-blend-mode:normal;"/>
</g>
<g id="Vector" style="mix-blend-mode:normal;" figma:type="vector">
<use xlink:href="#path4_stroke" transform="translate(1466.35 1571.1)" fill="#E2112E" style="mix-blend-mode:normal;"/>
</g>
<g id="Vector" style="mix-blend-mode:normal;" figma:type="vector">
<use xlink:href="#path5_stroke" transform="translate(1466.35 1572.7)" fill="#E2112E" style="mix-blend-mode:normal;"/>
</g>
<g id="Vector" style="mix-blend-mode:normal;" figma:type="vector">
<use xlink:href="#path6_stroke" transform="translate(1466.35 1574.2)" fill="#E2112E" style="mix-blend-mode:normal;"/>
</g>
<g id="Vector" style="mix-blend-mode:normal;" figma:type="vector">
<use xlink:href="#path7_stroke" transform="translate(1466.35 1575.8)" fill="#E2112E" style="mix-blend-mode:normal;"/>
</g>
<g id="Vector" style="mix-blend-mode:normal;" figma:type="vector">
<use xlink:href="#path8_stroke" transform="translate(1466.35 1577.3)" fill="#E2112E" style="mix-blend-mode:normal;"/>
</g>
<g id="Vector" style="mix-blend-mode:normal;" figma:type="vector">
<use xlink:href="#path9_stroke" transform="translate(1466.35 1578.9)" fill="#E2112E" style="mix-blend-mode:normal;"/>
</g>
</g>
<g id="Group" style="mix-blend-mode:normal;" figma:type="frame">
<g id="Vector" style="mix-blend-mode:normal;" figma:type="vector">
<use xlink:href="#path10_stroke" transform="translate(1474.05 1571.8)" fill="#E2112E" style="mix-blend-mode:normal;"/>
</g>
<g id="Vector" style="mix-blend-mode:normal;" figma:type="vector">
<use xlink:href="#path11_stroke" transform="translate(1474.05 1573.3)" fill="#E2112E" style="mix-blend-mode:normal;"/>
</g>
<g id="Vector" style="mix-blend-mode:normal;" figma:type="vector">
<use xlink:href="#path12_stroke" transform="translate(1474.05 1574.9)" fill="#E2112E" style="mix-blend-mode:normal;"/>
</g>
<g id="Vector" style="mix-blend-mode:normal;" figma:type="vector">
<use xlink:href="#path13_stroke" transform="translate(1474.05 1576.4)" fill="#E2112E" style="mix-blend-mode:normal;"/>
</g>
<g id="Vector" style="mix-blend-mode:normal;" figma:type="vector">
<use xlink:href="#path14_stroke" transform="translate(1474.05 1578)" fill="#E2112E" style="mix-blend-mode:normal;"/>
</g>
<g id="Vector" style="mix-blend-mode:normal;" figma:type="vector">
<use xlink:href="#path15_stroke" transform="translate(1474.05 1579.5)" fill="#E2112E" style="mix-blend-mode:normal;"/>
</g>
<g id="Vector" style="mix-blend-mode:normal;" figma:type="vector">
<use xlink:href="#path16_stroke" transform="translate(1474.05 1581.1)" fill="#E2112E" style="mix-blend-mode:normal;"/>
</g>
<g id="Vector" style="mix-blend-mode:normal;" figma:type="vector">
<use xlink:href="#path17_stroke" transform="translate(1474.05 1582.6)" fill="#E2112E" style="mix-blend-mode:normal;"/>
</g>
<g id="Vector" style="mix-blend-mode:normal;" figma:type="vector">
<use xlink:href="#path18_stroke" transform="translate(1474.05 1584.2)" fill="#E2112E" style="mix-blend-mode:normal;"/>
</g>
</g>
<g id="Group" style="mix-blend-mode:normal;" figma:type="frame">
<g id="Vector" style="mix-blend-mode:normal;" figma:type="vector">
<use xlink:href="#path19_stroke" transform="translate(1458.55 1605.3)" fill="#FFFFFF" style="mix-blend-mode:normal;"/>
</g>
<g id="Vector" style="mix-blend-mode:normal;" figma:type="vector">
<use xlink:href="#path20_stroke" transform="translate(1458.45 1602.6)" fill="#FFFFFF" style="mix-blend-mode:normal;"/>
</g>
<g id="Vector" style="mix-blend-mode:normal;" figma:type="vector">
<use xlink:href="#path21_stroke" transform="translate(1458.45 1599.8)" fill="#FFFFFF" style="mix-blend-mode:normal;"/>
</g>
<g id="Vector" style="mix-blend-mode:normal;" figma:type="vector">
<use xlink:href="#path22_stroke" transform="translate(1458.35 1597.1)" fill="#FFFFFF" style="mix-blend-mode:normal;"/>
</g>
<g id="Vector" style="mix-blend-mode:normal;" figma:type="vector">
<use xlink:href="#path23_stroke" transform="translate(1458.25 1594.4)" fill="#FFFFFF" style="mix-blend-mode:normal;"/>
</g>
<g id="Vector" style="mix-blend-mode:normal;" figma:type="vector">
<use xlink:href="#path24_stroke" transform="translate(1458.25 1591.6)" fill="#FFFFFF" style="mix-blend-mode:normal;"/>
</g>
<g id="Vector" style="mix-blend-mode:normal;" figma:type="vector">
<use xlink:href="#path25_stroke" transform="translate(1458.15 1588.9)" fill="#FFFFFF" style="mix-blend-mode:normal;"/>
</g>
<g id="Vector" style="mix-blend-mode:normal;" figma:type="vector">
<use xlink:href="#path26_stroke" transform="translate(1458.05 1586.1)" fill="#FFFFFF" style="mix-blend-mode:normal;"/>
</g>
</g>
</g>
</g>
<defs>
<path id="path0_fill" d="M 76.9 50.1C 76.9 50 76.9 49.9 76.8 49.8L 76.8 49.7C 76.8 49.6 76.7 49.5 76.6 49.4C 76.5 49.3 76.5 49.3 76.4 49.2L 70.3 45.7L 70.7 45.5C 70.8 45.5 70.8 45.4 70.9 45.3C 71 45.2 71 45.1 71.1 45L 71.1 44.9C 71.1 44.8 71.2 44.7 71.2 44.6L 71.2 35.5L 71.2 26.4C 71.2 26.3 71.2 26.2 71.1 26.1L 71.1 26C 71.1 25.9 71 25.8 70.9 25.7C 70.8 25.6 70.8 25.6 70.7 25.5L 65.1 22.4C 64.8 22.2 64.4 22.2 64.1 22.4L 58.7 25.5C 58.6 25.5 58.6 25.6 58.5 25.7C 58.4 25.8 58.4 25.9 58.3 26L 58.3 26.1C 58.3 26.2 58.2 26.3 58.2 26.4L 58.2 35.5L 58.2 38.7L 54.5 36.6L 54.5 19.6C 54.5 19.5 54.5 19.4 54.5 19.4L 54.5 19.3C 54.5 19.2 54.5 19.2 54.4 19.1C 54.4 19 54.3 19 54.3 18.9C 54.3 18.9 54.3 18.9 54.2 18.8C 54.1 18.8 54.1 18.7 54 18.7L 45.8 14L 45.8 6.6C 45.7 5.3 44.2 4.3 42.3 4.3C 40.4 4.3 38.9 5.3 38.8 6.6C 38.8 6.6 38.8 6.6 38.8 6.7L 38.8 10C 38.7 10 38.5 10 38.4 10L 38.4 2.4C 38.2 1 36.7 0 34.7 0C 32.7 0 31.3 1 31.2 2.3C 31.2 2.3 31.2 2.3 31.2 2.4L 31.2 14.1L 23.1 18.8C 23 18.9 22.9 18.9 22.9 19C 22.9 19 22.9 19 22.8 19.1C 22.7 19.2 22.7 19.3 22.7 19.4C 22.7 19.5 22.7 19.6 22.7 19.6L 22.7 36.5L 18.9 38.7L 18.9 35.4L 18.9 26.3C 18.9 26.2 18.9 26.1 18.8 26L 18.8 25.9C 18.8 25.8 18.7 25.7 18.6 25.6C 18.5 25.5 18.5 25.5 18.4 25.4L 12.8 22.3C 12.5 22.1 12.1 22.1 11.8 22.3L 6.4 25.4C 6.3 25.4 6.3 25.5 6.2 25.6C 6.1 25.7 6.1 25.8 6 25.9L 6 26C 6 26.1 5.9 26.2 5.9 26.3L 5.9 35.4L 5.9 44.5C 5.9 44.6 5.9 44.7 6 44.8L 6 44.9C 6 45 6.1 45.1 6.2 45.2C 6.3 45.3 6.3 45.3 6.4 45.3L 6.9 45.6L 0.7 49.2C 0.6 49.2 0.6 49.3 0.5 49.4C 0.4 49.5 0.4 49.6 0.3 49.7L 0.3 49.8C 0 49.8 0 50 0 50.1L 0 54.4C 0 54.8 0.2 55.1 0.5 55.3L 37.9 76.9L 38 76.9L 38.1 76.9C 38.2 76.9 38.3 77 38.4 77C 38.5 77 38.6 77 38.7 76.9L 38.8 76.9L 38.9 76.9L 76.4 55.3C 76.7 55.1 76.9 54.8 76.9 54.4L 76.9 50.1ZM 7.7 28.1L 11.1 30.1L 11.1 31.7L 7.7 33.7L 7.7 28.1L 7.7 28.1ZM 13 49.6L 13 49.8L 12.5 49.8C 12.4 49.8 12.3 49.8 12.2 49.8C 12.1 49.8 12 49.8 11.9 49.8L 11.4 49.8L 11.4 49.6L 11.4 48.3L 11.8 48.5L 11.9 48.5L 12 48.5C 12.1 48.5 12.2 48.6 12.3 48.6C 12.4 48.6 12.5 48.6 12.6 48.5L 12.7 48.5C 12.7 48.5 12.7 48.5 12.8 48.5L 13.1 48.3L 13.1 49.6L 13 49.6ZM 11.2 36.9L 8.8 35.5L 11.2 34.1L 11.2 36.9ZM 13.2 34L 15.7 35.4L 13.2 36.8L 13.2 34ZM 14.9 45L 14 45.5L 13.2 46L 13.2 45.5L 13.2 45L 13.2 44.7L 13.2 44.3L 13.2 43.7L 13.2 43.2L 14.2 43.8L 15.7 44.7L 14.9 45ZM 16.7 33.7L 13.2 31.7L 13.2 30.1L 16.7 28.1L 16.7 33.7ZM 7.7 37.2L 11.1 39.2L 11.1 40.8L 7.7 42.8L 7.7 37.2L 7.7 37.2ZM 11.2 43.1L 11.2 43.6L 11.2 44.2L 11.2 44.6L 11.2 45L 11.2 45.1L 11.2 45.3L 11.2 45.4L 11.2 45.8L 11.2 45.9L 10.8 45.6L 10.5 45.4L 10.4 45.3L 9.8 45L 9.6 44.9L 8.9 44.5L 11.2 43.1ZM 16.7 39.9L 16.7 41L 16.7 42.2L 16.7 42.8L 16.2 42.5L 15.2 41.9L 14.2 41.3L 13.2 40.7L 13.2 39.1L 16.7 37.1L 16.7 39.9ZM 15.7 26.4L 12.2 28.4L 8.8 26.4L 12.2 24.4L 15.7 26.4ZM 9.2 47.1L 9.2 49.8C 9.2 51 10.4 51.8 12.1 51.8C 13.8 51.8 15 50.9 15 49.8L 15 47.2L 18.2 45.3C 18.3 45.3 18.3 45.2 18.4 45.1C 18.5 45 18.5 44.9 18.6 44.8L 18.6 44.7C 18.6 44.6 18.7 44.5 18.7 44.4L 18.7 41L 22.5 38.8L 22.5 45.5C 22.5 45.9 22.7 46.2 23 46.4L 32.2 51.7L 32.2 60.3C 32.2 60.4 32.2 60.5 32.3 60.6L 32.3 60.7C 32.3 60.8 32.4 60.9 32.5 61C 32.6 61.1 32.6 61.1 32.7 61.1L 35.7 62.9L 35.7 65.6C 35.7 66.8 36.9 67.6 38.6 67.6C 40.3 67.6 41.5 66.7 41.5 65.6L 41.5 63L 44.7 61.1C 44.8 61.1 44.8 61 44.9 60.9C 45 60.8 45 60.7 45.1 60.6L 45.1 60.5C 45.1 60.4 45.2 60.3 45.2 60.2L 45.2 51.5L 50.2 48.6C 50.2 48.6 50.3 48.6 50.3 48.5L 54 46.3C 54.1 46.2 54.2 46.2 54.3 46.1C 54.3 46.1 54.3 46.1 54.4 46C 54.5 45.9 54.5 45.8 54.5 45.7C 54.5 45.6 54.5 45.5 54.5 45.5L 54.5 38.9L 58.2 41L 58.2 44.5C 58.2 44.6 58.2 44.7 58.3 44.8L 58.3 44.9C 58.3 45 58.4 45.1 58.5 45.2C 58.6 45.3 58.6 45.3 58.7 45.3L 61.7 47.1L 61.7 49.8C 61.7 51 62.9 51.8 64.6 51.8C 66.3 51.8 67.5 50.9 67.5 49.8L 67.5 47.2L 68.3 46.7L 73.9 49.9L 38.4 70.5L 3 50.1L 8.7 46.8L 9.2 47.1ZM 52.5 36.6L 52.5 37.8L 52.5 45L 45.1 49.3L 45.1 42.2C 45.1 42.1 45.1 42 45 41.9L 45 41.8C 45 41.7 44.9 41.6 44.8 41.5C 44.7 41.4 44.7 41.4 44.6 41.3L 42.3 40C 42.4 40 42.6 40 42.7 39.9L 49.5 36L 50.2 35.6C 50.3 35.5 50.4 35.5 50.4 35.4C 50.6 35.2 50.7 35 50.7 34.7L 50.7 34.4L 50.7 26.3C 50.7 25.9 50.5 25.6 50.2 25.4C 49.9 25.2 49.5 25.2 49.2 25.4L 42 29.4L 41.7 29.5C 41.5 29.6 41.3 29.8 41.2 30.1C 41.2 30.2 41.2 30.3 41.2 30.4L 41.2 31.2L 41.2 39C 41.2 39.1 41.2 39.3 41.3 39.4L 39.5 38.4L 39.5 30.2L 39.5 29L 40.4 28.4L 52.4 21.3L 52.4 35.4L 52.5 36.6ZM 43.3 32.4L 43.3 31.3L 43.3 31.1L 44.1 30.7L 48.8 28.1L 48.8 33.4L 48.8 34.3L 48.6 34.4L 47.6 35L 43.3 37.4L 43.3 32.4ZM 39.4 65.4L 39.4 65.6L 38.9 65.6C 38.8 65.6 38.7 65.6 38.6 65.6C 38.5 65.6 38.4 65.6 38.3 65.6L 37.8 65.6L 37.8 65.4L 37.8 64.1L 38.2 64.3L 38.3 64.3L 38.4 64.3C 38.5 64.3 38.6 64.4 38.7 64.4C 38.8 64.4 38.9 64.4 39 64.3L 39.1 64.3C 39.1 64.3 39.1 64.3 39.2 64.3L 39.5 64.1L 39.5 65.4L 39.4 65.4ZM 34.2 43.9L 37.6 45.9L 37.6 47.5L 34.2 49.5L 34.2 43.9ZM 43.1 58.6L 39.6 56.6L 39.6 55L 43.1 53L 43.1 58.6ZM 35.3 51.2L 37.6 49.9L 37.6 52.6L 37.6 52.8L 35.2 51.4L 35.3 51.2ZM 42.1 51.2L 39.6 52.6L 39.6 52.4L 39.6 49.8L 41.9 51.1L 42.1 51.2ZM 43.1 49.5L 39.6 47.5L 39.6 45.9L 43.1 43.9L 43.1 49.5ZM 37.6 55L 37.6 56.6L 34.2 58.6L 34.2 53L 37.6 55ZM 37.6 58.9L 37.6 59.4L 37.6 60.4L 37.6 60.8L 37.6 60.9L 37.6 61.2L 37.6 61.6L 37.6 61.7L 36.8 61.3L 36.7 61.2L 35.9 60.7L 35.2 60.3L 37.6 58.9ZM 41.3 60.8L 40.4 61.3L 39.6 61.8L 39.6 61.3L 39.6 60.8L 39.6 60.5L 39.6 59.5L 39.6 59L 42.1 60.4L 41.3 60.8ZM 38.5 40.2L 39.5 40.7L 42.1 42.1L 39.5 43.6L 38.5 44.1L 37.5 43.5L 35.1 42.1L 37.5 40.7L 38.5 40.2ZM 60.2 28.2L 63.6 30.2L 63.6 31.8L 60.2 33.8L 60.2 28.2ZM 69.2 42.9L 65.7 40.9L 65.7 39.3L 69.2 37.3L 69.2 42.9ZM 65.5 49.8L 65.5 50L 65 50C 64.9 50 64.8 50 64.7 50C 64.6 50 64.5 50 64.4 50L 63.9 50L 63.9 49.8L 63.9 48.5L 64.3 48.7L 64.4 48.7L 64.5 48.7C 64.6 48.7 64.7 48.8 64.8 48.8C 64.9 48.8 65 48.8 65.1 48.7L 65.2 48.7C 65.2 48.7 65.2 48.7 65.3 48.7L 65.6 48.5L 65.6 49.8L 65.5 49.8ZM 65.7 34.1L 68.2 35.5L 65.7 37L 65.7 34.1ZM 63.7 34.1L 63.7 37L 61.3 35.6L 63.7 34.1ZM 63.7 43.2L 63.7 43.7L 63.7 44.2L 63.7 44.7L 63.7 45.2L 63.7 45.3L 63.7 45.6L 63.7 46L 62.9 45.6L 62.8 45.5L 62 45L 61.3 44.6L 62.9 43.7L 63.7 43.2ZM 67.4 45.1L 66.5 45.6L 66.3 45.7L 65.7 46.1L 65.7 45.6L 65.7 45.4L 65.7 45L 65.7 44.7L 65.7 44.1L 65.7 43.6L 65.7 43.1L 68.2 44.5L 67.4 45.1ZM 69.2 33.8L 65.7 31.8L 65.7 30.2L 69.2 28.2L 69.2 33.8ZM 68.2 26.5L 64.7 28.5L 61.3 26.5L 64.7 24.5L 68.2 26.5ZM 60.2 39.9L 60.2 37.3L 63.6 39.3L 63.6 40.9L 62.7 41.4L 61.7 42L 60.7 42.6L 60.1 42.9L 60.1 42.2L 60.1 41L 60.1 39.9L 60.2 39.9ZM 43.8 15.1L 43.8 21L 43.8 21.1L 43.7 21.1C 43.5 21.3 43 21.5 42.2 21.5C 41.4 21.5 40.9 21.3 40.7 21.1L 40.6 21.1L 40.6 21L 40.6 13.4L 40.6 11.1L 40.6 8.8C 41.5 9.1 42.8 9.1 43.7 8.8L 43.7 12.8L 43.7 15.1L 43.8 15.1ZM 43.7 6.6C 43.5 6.8 43 7 42.2 7C 41.3 7 40.8 6.7 40.7 6.6C 40.7 6.6 40.7 6.6 40.8 6.5C 41 6.3 41.5 6.1 42.2 6.1C 43 6.2 43.4 6.4 43.7 6.6ZM 36.1 2.4C 36.2 2.4 36.2 2.4 36.1 2.4C 36 2.6 35.5 2.9 34.7 2.9C 33.8 2.9 33.3 2.6 33.2 2.5C 33.2 2.5 33.2 2.5 33.3 2.4C 33.5 2.2 34 2 34.7 2C 35.4 2 35.9 2.2 36.1 2.4ZM 33.2 12.9L 33.2 4.6C 34.1 4.9 35.4 4.9 36.3 4.6L 36.3 11.2L 36.3 13.5L 36.3 16.8L 36.3 16.9L 36.2 16.9C 36 17.1 35.5 17.3 34.7 17.3C 33.9 17.3 33.4 17.1 33.2 16.9L 33.1 16.9L 33.1 16.8L 33.1 15.2L 33.1 12.9L 33.2 12.9ZM 31.2 16.4L 31.2 16.9C 31.2 18.3 32.7 19.3 34.7 19.3C 36.7 19.3 38.2 18.3 38.2 16.9L 38.2 12.4L 38.5 12.2L 38.6 12.3L 38.6 21.1C 38.6 22.5 40.1 23.5 42.1 23.5C 44.1 23.5 45.6 22.5 45.6 21.1L 45.6 16.3L 51.4 19.6L 38.4 27.3L 25.4 19.6L 31.2 16.4ZM 24.6 21.4L 36.5 28.5L 37.5 29.1L 37.5 30.2L 37.5 38.5L 32.6 41.3C 32.5 41.3 32.5 41.4 32.4 41.5C 32.3 41.6 32.3 41.7 32.2 41.8L 32.2 41.9C 32.2 42 32.1 42.1 32.1 42.2L 32.1 49.4L 24.5 45L 24.5 37.8L 24.5 36.6L 24.5 35.4L 24.6 21.4ZM 7.3 45.3C 7.2 45.4 7.1 45.4 7.1 45.4C 7.2 45.4 7.2 45.3 7.3 45.3ZM 2 53.8L 2 51.8L 37.4 72.3L 37.4 74.3L 2 53.8ZM 39.4 74.3L 39.4 72.3L 74.8 51.8L 74.8 53.8L 39.4 74.3Z"/>
<path id="path1_stroke" d="M 0.438947 -0.239426C 0.306716 -0.48185 0.0029973 -0.571179 -0.239427 -0.438948C -0.481851 -0.306716 -0.57118 -0.00299796 -0.438949 0.239426L 0.438947 -0.239426ZM 2.5 1.6C 2.77614 1.6 3 1.37614 3 1.1C 3 0.823858 2.77614 0.6 2.5 0.6L 2.5 1.6ZM -7.62939e-07 9.53674e-08C -0.438949 0.239426 -0.43879 0.239716 -0.43863 0.24001C -0.438573 0.240114 -0.438409 0.240412 -0.438295 0.24062C -0.438172 0.240844 -0.437829 0.241468 -0.437581 0.241917C -0.437295 0.242434 -0.436544 0.243787 -0.435967 0.244821C -0.435238 0.246124 -0.433475 0.249245 -0.43199 0.251841C -0.429891 0.255496 -0.425302 0.263348 -0.420972 0.270555C -0.414137 0.281861 -0.400522 0.303589 -0.386118 0.325238C -0.361312 0.362203 -0.314901 0.426389 -0.260674 0.491967C -0.161769 0.610042 0.0189556 0.792644 0.248126 0.957754C 0.720154 1.29274 1.44627 1.6 2.5 1.6L 2.5 0.6C 1.65373 0.6 1.12984 0.357259 0.826873 0.142246C 0.668543 0.0323566 0.580517 -0.0600417 0.507547 -0.148217C 0.475837 -0.185764 0.460529 -0.207515 0.445101 -0.230707C 0.439388 -0.239136 0.438257 -0.24104 0.435374 -0.245848C 0.434846 -0.246697 0.43526 -0.246038 0.435547 -0.24553C 0.435255 -0.246045 0.436988 -0.242981 0.43685 -0.243226C 0.436568 -0.243731 0.437939 -0.241266 0.4378 -0.241516C 0.437626 -0.241832 0.438436 -0.240361 0.438349 -0.240519C 0.438444 -0.240345 0.438594 -0.240072 0.438642 -0.239985C 0.438793 -0.239707 0.438947 -0.239426 -7.62939e-07 9.53674e-08Z"/>
<path id="path2_stroke" d="M 0.397774 -0.216968C 0.277946 -0.436653 0.00271607 -0.517603 -0.216969 -0.397774C -0.436653 -0.277946 -0.517603 -0.00271684 -0.397775 0.216968L 0.397774 -0.216968ZM 2.5 1.5531C 2.75024 1.5531 2.9531 1.35024 2.9531 1.1C 2.9531 0.84976 2.75024 0.6469 2.5 0.6469L 2.5 1.5531ZM -7.62939e-07 0C -0.397775 0.216968 -0.397632 0.217231 -0.397486 0.217498C -0.397434 0.217593 -0.397285 0.217865 -0.397181 0.218054C -0.397067 0.218261 -0.396754 0.218831 -0.396526 0.219244C -0.39626 0.219725 -0.395569 0.22097 -0.395032 0.221931C -0.394344 0.223161 -0.392705 0.226064 -0.391303 0.228515C -0.389289 0.232022 -0.384961 0.239426 -0.380809 0.246336C -0.37416 0.257336 -0.361131 0.278135 -0.347134 0.299164C -0.322767 0.335483 -0.277816 0.397679 -0.224644 0.461943C -0.126955 0.578615 0.0494212 0.756986 0.275269 0.919506C 0.739368 1.24887 1.456 1.5531 2.5 1.5531L 2.5 0.6469C 1.644 0.6469 1.11063 0.401133 0.79973 0.180494C 0.638077 0.068014 0.545704 -0.0286149 0.471518 -0.118193C 0.438752 -0.157054 0.421985 -0.180795 0.406117 -0.204633C 0.399996 -0.213682 0.398279 -0.216516 0.395212 -0.221629C 0.394505 -0.222776 0.394487 -0.222859 0.39486 -0.222203C 0.394651 -0.222573 0.396012 -0.220164 0.395915 -0.220337C 0.395674 -0.22077 0.396863 -0.218629 0.396745 -0.218843C 0.39659 -0.219123 0.397311 -0.217814 0.397234 -0.217954C 0.39732 -0.217798 0.397455 -0.217551 0.397498 -0.217473C 0.397635 -0.217223 0.397774 -0.216968 -7.62939e-07 0Z"/>
<path id="path3_stroke" d="M 0.356644 -0.194534C 0.249206 -0.391503 0.00243515 -0.464083 -0.194534 -0.356645C -0.391504 -0.249207 -0.464084 -0.00243601 -0.356646 0.194534L 0.356644 -0.194534ZM 2.5 1.50625C 2.72436 1.50625 2.90625 1.32437 2.90625 1.1C 2.90625 0.875634 2.72436 0.69375 2.5 0.69375L 2.5 1.50625ZM -7.62939e-07 -9.53674e-08C -0.356646 0.194534 -0.356517 0.19477 -0.356385 0.19501C -0.356338 0.195096 -0.356204 0.195341 -0.35611 0.195513C -0.356006 0.195701 -0.355722 0.196218 -0.355514 0.196595C -0.355268 0.19704 -0.354637 0.198177 -0.354141 0.199066C -0.353493 0.200224 -0.351977 0.202908 -0.350659 0.205213C -0.348729 0.208572 -0.344663 0.215531 -0.340689 0.222142C -0.334225 0.232838 -0.321781 0.252708 -0.308191 0.273118C -0.284264 0.308791 -0.24077 0.369 -0.188653 0.43195C -0.0921793 0.547221 0.0798544 0.721366 0.302383 0.8813C 0.758562 1.20504 1.46572 1.50625 2.5 1.50625L 2.5 0.69375C 1.63428 0.69375 1.09144 0.44496 0.772615 0.2187C 0.607644 0.103633 0.510928 0.0027784 0.435527 -0.0882001C 0.401706 -0.128375 0.383481 -0.154104 0.367174 -0.178587C 0.360646 -0.188256 0.358345 -0.192018 0.355092 -0.197435C 0.354207 -0.198881 0.353758 -0.199705 0.354216 -0.198902C 0.35409 -0.199125 0.35508 -0.197372 0.355023 -0.197472C 0.354822 -0.197833 0.355832 -0.196016 0.355733 -0.196195C 0.355598 -0.196439 0.35623 -0.195291 0.356164 -0.195413C 0.356239 -0.195274 0.35636 -0.195054 0.356398 -0.194985C 0.35652 -0.194762 0.356644 -0.194534 -7.62939e-07 -9.53674e-08Z"/>
<path id="path4_stroke" d="M 0.315515 -0.172099C 0.220467 -0.346354 0.00215416 -0.410563 -0.1721 -0.315515C -0.346355 -0.220467 -0.410564 -0.00215454 -0.315516 0.1721L 0.315515 -0.172099ZM 2.5 1.4594C 2.69849 1.4594 2.8594 1.29849 2.8594 1.1C 2.8594 0.901509 2.69849 0.7406 2.5 0.7406L 2.5 1.4594ZM -7.62939e-07 3.8147e-07C -0.315516 0.1721 -0.315402 0.172309 -0.315285 0.172523C -0.315243 0.1726 -0.315124 0.172818 -0.315039 0.172972C -0.314945 0.173143 -0.314691 0.173605 -0.314502 0.173947C -0.314276 0.174356 -0.313706 0.175384 -0.313249 0.176202C -0.312642 0.177287 -0.31125 0.179752 -0.310015 0.181911C -0.30817 0.185124 -0.304365 0.191636 -0.300569 0.197949C -0.29429 0.208341 -0.282431 0.227282 -0.269249 0.247073C -0.245761 0.282101 -0.203723 0.340321 -0.152662 0.401958C -0.0574031 0.515828 0.110288 0.685747 0.329498 0.843093C 0.777756 1.16121 1.47544 1.4594 2.5 1.4594L 2.5 0.7406C 1.62456 0.7406 1.07224 0.488788 0.745501 0.256907C 0.577211 0.139253 0.476152 0.0341721 0.399535 -0.0582071C 0.364659 -0.0996953 0.344978 -0.127412 0.328231 -0.152541C 0.321297 -0.162828 0.31841 -0.16752 0.314972 -0.173241C 0.313909 -0.174985 0.313029 -0.17655 0.313571 -0.175599C 0.313529 -0.175677 0.314148 -0.174579 0.314132 -0.174607C 0.313971 -0.174895 0.3148 -0.173403 0.314721 -0.173545C 0.314606 -0.173754 0.31515 -0.172767 0.315093 -0.172871C 0.315159 -0.17275 0.315265 -0.172557 0.315297 -0.172497C 0.315405 -0.1723 0.315515 -0.172099 -7.62939e-07 3.8147e-07Z"/>
<path id="path5_stroke" d="M 0.274342 -0.149641C 0.191697 -0.301157 0.00187308 -0.356987 -0.149642 -0.274343C -0.301157 -0.191698 -0.356988 -0.00187403 -0.274343 0.149641L 0.274342 -0.149641ZM 2.5 1.4125C 2.67259 1.4125 2.8125 1.27259 2.8125 1.1C 2.8125 0.927411 2.67259 0.7875 2.5 0.7875L 2.5 1.4125ZM -7.62939e-07 -1.90735e-07C -0.274343 0.149641 -0.274243 0.149824 -0.274141 0.150011C -0.274104 0.150079 -0.273999 0.15027 -0.273925 0.150406C -0.273841 0.150559 -0.273616 0.150967 -0.273447 0.151273C -0.273241 0.151646 -0.27273 0.152567 -0.272314 0.153312C -0.271747 0.154324 -0.270479 0.156571 -0.269327 0.158584C -0.267568 0.161649 -0.264024 0.167714 -0.260407 0.173729C -0.254313 0.183816 -0.243039 0.201828 -0.230265 0.220998C -0.207217 0.25538 -0.166638 0.31161 -0.116632 0.371932C -0.02259 0.484401 0.140753 0.65009 0.356641 0.804846C 0.796971 1.11734 1.48517 1.4125 2.5 1.4125L 2.5 0.7875C 1.61483 0.7875 1.05303 0.532662 0.718358 0.295154C 0.546745 0.17491 0.441339 0.0655988 0.363506 -0.0281827C 0.327574 -0.0709857 0.306434 -0.100693 0.289247 -0.126467C 0.281905 -0.137375 0.278433 -0.142996 0.27481 -0.149022C 0.273568 -0.151064 0.273511 -0.151175 0.272884 -0.152273C 0.272843 -0.152341 0.273172 -0.151763 0.273197 -0.151718C 0.273076 -0.151934 0.273725 -0.150766 0.273666 -0.150873C 0.273571 -0.151045 0.274025 -0.15022 0.273978 -0.150306C 0.274034 -0.150203 0.274125 -0.150037 0.274153 -0.149986C 0.274246 -0.149816 0.274342 -0.149641 -7.62939e-07 -1.90735e-07Z"/>
<path id="path6_stroke" d="M 0.233168 -0.127183C 0.162927 -0.255959 0.00159185 -0.303411 -0.127184 -0.233169C -0.25596 -0.162928 -0.303411 -0.00159281 -0.23317 0.127183L 0.233168 -0.127183ZM 2.5 1.3656C 2.64669 1.3656 2.7656 1.24669 2.7656 1.1C 2.7656 0.953313 2.64669 0.8344 2.5 0.8344L 2.5 1.3656ZM -7.62939e-07 -1.90735e-07C -0.23317 0.127183 -0.233085 0.127339 -0.232997 0.127499C -0.232965 0.127558 -0.232875 0.127722 -0.23281 0.12784C -0.232736 0.127975 -0.232541 0.12833 -0.232392 0.1286C -0.232206 0.128937 -0.231755 0.129749 -0.231379 0.130422C -0.230853 0.131362 -0.229708 0.13339 -0.22864 0.135257C -0.226965 0.138174 -0.223683 0.143793 -0.220244 0.14951C -0.214336 0.159292 -0.203647 0.176374 -0.19128 0.194924C -0.168672 0.228661 -0.129552 0.2829 -0.0806028 0.341908C 0.0122232 0.452974 0.171219 0.614432 0.383784 0.766599C 0.816185 1.07346 1.4949 1.3656 2.5 1.3656L 2.5 0.8344C 1.6051 0.8344 1.03381 0.576536 0.691214 0.333401C 0.51628 0.210568 0.406525 0.0970257 0.327476 0.00184191C 0.290488 -0.0422757 0.267889 -0.0739734 0.250263 -0.100394C 0.242513 -0.111921 0.238456 -0.118472 0.234647 -0.124803C 0.233227 -0.127143 0.232908 -0.127701 0.232196 -0.128946C 0.232072 -0.129161 0.232196 -0.128946 0.232262 -0.128828C 0.232181 -0.128973 0.23265 -0.128129 0.232611 -0.1282C 0.232535 -0.128336 0.232901 -0.127672 0.232864 -0.12774C 0.23291 -0.127656 0.232986 -0.127516 0.233009 -0.127474C 0.233088 -0.127331 0.233168 -0.127183 -7.62939e-07 -1.90735e-07Z"/>
<path id="path7_stroke" d="M 0.192039 -0.104749C 0.134188 -0.210809 0.00131084 -0.249891 -0.10475 -0.192039C -0.21081 -0.134188 -0.249892 -0.00131142 -0.19204 0.104749L 0.192039 -0.104749ZM 2.5 1.31875C 2.62081 1.31875 2.71875 1.22081 2.71875 1.1C 2.71875 0.979187 2.62081 0.88125 2.5 0.88125L 2.5 1.31875ZM -7.62939e-07 1.90735e-07C -0.19204 0.104749 -0.19197 0.104878 -0.191897 0.105012C -0.19187 0.105062 -0.191794 0.105199 -0.191739 0.1053C -0.191675 0.105417 -0.191509 0.105718 -0.19138 0.105952C -0.191214 0.106253 -0.190823 0.106957 -0.190487 0.107558C -0.190002 0.108425 -0.188981 0.110234 -0.187995 0.111956C -0.186406 0.114725 -0.183385 0.119898 -0.180124 0.125317C -0.174401 0.134795 -0.164298 0.150948 -0.152338 0.168879C -0.130169 0.20197 -0.0925061 0.254221 -0.0446116 0.311915C 0.0469993 0.421581 0.201652 0.578813 0.410898 0.728392C 0.835379 1.02964 1.50462 1.31875 2.5 1.31875L 2.5 0.88125C 1.59538 0.88125 1.01462 0.620363 0.6641 0.371608C 0.485846 0.246187 0.371749 0.128419 0.291485 0.0318347C 0.253442 -0.013596 0.229386 -0.0472819 0.211321 -0.0743473C 0.203163 -0.0864944 0.198521 -0.0939742 0.194527 -0.100609C 0.19293 -0.103247 0.192349 -0.104251 0.191552 -0.105644C 0.191344 -0.106004 0.191264 -0.106153 0.19137 -0.105963C 0.19133 -0.106035 0.191618 -0.105516 0.191599 -0.105551C 0.191543 -0.105651 0.19182 -0.105149 0.191793 -0.105199C 0.191829 -0.105132 0.191891 -0.105019 0.191909 -0.104986C 0.191973 -0.10487 0.192039 -0.104749 -7.62939e-07 1.90735e-07Z"/>
<path id="path8_stroke" d="M 0.150909 -0.0823145C 0.105448 -0.16566 0.00102994 -0.196371 -0.0823155 -0.15091C -0.165661 -0.105449 -0.196372 -0.00103051 -0.150911 0.0823149L 0.150909 -0.0823145ZM 2.5 1.2719C 2.59494 1.2719 2.6719 1.19494 2.6719 1.1C 2.6719 1.00506 2.59494 0.9281 2.5 0.9281L 2.5 1.2719ZM -7.62939e-07 1.90735e-07C -0.150911 0.0823149 -0.150855 0.0824173 -0.150797 0.0825238C -0.150774 0.082565 -0.150714 0.0826759 -0.150668 0.0827582C -0.150614 0.0828573 -0.150478 0.0831047 -0.150369 0.0833028C -0.150222 0.0835679 -0.149891 0.0841639 -0.149596 0.0846928C -0.149151 0.0854876 -0.148253 0.0870783 -0.147351 0.0886539C -0.145847 0.0912761 -0.143087 0.0960021 -0.140004 0.101123C -0.134467 0.110297 -0.124948 0.125521 -0.113395 0.142833C -0.0916658 0.175278 -0.05546 0.225542 -0.00862046 0.281923C 0.0817754 0.390187 0.232085 0.543193 0.438013 0.690186C 0.854573 0.985809 1.51434 1.2719 2.5 1.2719L 2.5 0.9281C 1.58566 0.9281 0.995425 0.66419 0.636986 0.409814C 0.455413 0.281807 0.336973 0.159813 0.255494 0.0618274C 0.216396 0.0150834 0.190883 -0.0205906 0.172378 -0.0483012C 0.163813 -0.0610677 0.158586 -0.0694763 0.154407 -0.0764159C 0.152632 -0.0793513 0.15179 -0.0808021 0.150908 -0.0823425C 0.150617 -0.0828482 0.150332 -0.0833606 0.150479 -0.0830979C 0.150479 -0.0830981 0.150587 -0.082903 0.150587 -0.0829017C 0.150552 -0.0829666 0.15074 -0.0826251 0.150722 -0.0826574C 0.150749 -0.0826085 0.150796 -0.0825227 0.150809 -0.0824983C 0.150858 -0.0824085 0.150909 -0.0823145 -7.62939e-07 1.90735e-07Z"/>
<path id="path9_stroke" d="M 0.109736 -0.0598569C 0.0766784 -0.120463 0.000748778 -0.142795 -0.0598573 -0.109737C -0.120463 -0.0766795 -0.142796 -0.000749922 -0.109738 0.0598561L 0.109736 -0.0598569ZM 2.5 1.225C 2.56903 1.225 2.625 1.16904 2.625 1.1C 2.625 1.03096 2.56903 0.975 2.5 0.975L 2.5 1.225ZM -7.62939e-07 -3.8147e-07C -0.109738 0.0598561 -0.109696 0.0599317 -0.109653 0.0600115C -0.109635 0.0600437 -0.109589 0.0601278 -0.109554 0.0601922C -0.109509 0.0602734 -0.109403 0.0604669 -0.109313 0.0606292C -0.109187 0.0608583 -0.108916 0.061346 -0.108661 0.0618028C -0.108257 0.0625249 -0.107483 0.0638969 -0.106664 0.0653265C -0.105244 0.0678012 -0.102746 0.0720804 -0.0998419 0.0769034C -0.0944894 0.0857724 -0.085556 0.100067 -0.074411 0.116758C -0.0531215 0.148558 -0.0183744 0.196831 0.0274091 0.251898C 0.116589 0.35876 0.262551 0.507536 0.465156 0.651938C 0.873788 0.941935 1.52407 1.225 2.5 1.225L 2.5 0.975C 1.57593 0.975 0.976211 0.708065 0.609843 0.448061C 0.424948 0.317464 0.30216 0.191239 0.219464 0.0918516C 0.17931 0.043793 0.152339 0.00612872 0.133394 -0.0222279C 0.124422 -0.0356144 0.118609 -0.0449528 0.114245 -0.0521972C 0.112291 -0.0554307 0.111187 -0.0573283 0.110221 -0.0590163C 0.109846 -0.0596679 0.109731 -0.0598737 0.109544 -0.060209C 0.109503 -0.060281 0.109512 -0.0602665 0.109532 -0.0602292C 0.109516 -0.0602582 0.109615 -0.0600782 0.109607 -0.0600925C 0.109624 -0.0600615 0.109657 -0.0600026 0.109665 -0.0599871C 0.1097 -0.0599241 0.109736 -0.0598569 -7.62939e-07 -3.8147e-07Z"/>
<path id="path10_stroke" d="M 0.438948 -0.239426C 0.306716 -0.48185 0.00299798 -0.571179 -0.239426 -0.438948C -0.48185 -0.306716 -0.571179 -0.00299779 -0.438948 0.239426L 0.438948 -0.239426ZM 2.5 1.6C 2.77614 1.6 3 1.37614 3 1.1C 3 0.823857 2.77614 0.6 2.5 0.6L 2.5 1.6ZM 0 1.90735e-07C -0.438948 0.239426 -0.43879 0.239716 -0.438629 0.24001C -0.438572 0.240114 -0.438408 0.240412 -0.438295 0.24062C -0.438171 0.240844 -0.437828 0.241468 -0.43758 0.241917C -0.437295 0.242434 -0.436544 0.243787 -0.435966 0.244821C -0.435237 0.246124 -0.433475 0.249245 -0.43199 0.251841C -0.429891 0.255496 -0.425301 0.263348 -0.420971 0.270555C -0.414136 0.281861 -0.400522 0.303589 -0.386117 0.325238C -0.361311 0.362203 -0.314901 0.42639 -0.260673 0.491967C -0.161768 0.610042 0.0189564 0.792644 0.248127 0.957754C 0.720155 1.29274 1.44627 1.6 2.5 1.6L 2.5 0.6C 1.65373 0.6 1.12985 0.357259 0.826873 0.142246C 0.668544 0.0323565 0.580518 -0.0600418 0.507548 -0.148217C 0.475838 -0.185764 0.46053 -0.207515 0.445102 -0.230707C 0.439389 -0.239136 0.438257 -0.24104 0.435375 -0.245848C 0.434847 -0.246697 0.435261 -0.246038 0.435548 -0.24553C 0.435256 -0.246045 0.436989 -0.242981 0.436851 -0.243226C 0.436569 -0.243731 0.437939 -0.241266 0.437801 -0.241516C 0.437626 -0.241832 0.438436 -0.240361 0.43835 -0.240519C 0.438445 -0.240345 0.438595 -0.240071 0.438643 -0.239985C 0.438794 -0.239707 0.438948 -0.239426 0 1.90735e-07Z"/>
<path id="path11_stroke" d="M 0.397774 -0.216968C 0.277946 -0.436653 0.00271677 -0.517602 -0.216968 -0.397774C -0.436653 -0.277946 -0.517603 -0.00271658 -0.397774 0.216968L 0.397774 -0.216968ZM 2.5 1.5531C 2.75024 1.5531 2.9531 1.35024 2.9531 1.1C 2.9531 0.849759 2.75024 0.6469 2.5 0.6469L 2.5 1.5531ZM 0 1.90735e-07C -0.397774 0.216968 -0.397631 0.217231 -0.397485 0.217498C -0.397433 0.217593 -0.397284 0.217865 -0.39718 0.218054C -0.397067 0.218261 -0.396753 0.218831 -0.396525 0.219244C -0.396259 0.219725 -0.395568 0.22097 -0.395031 0.221932C -0.394343 0.223162 -0.392704 0.226064 -0.391302 0.228515C -0.389288 0.232022 -0.38496 0.239427 -0.380808 0.246336C -0.374159 0.257337 -0.36113 0.278135 -0.347133 0.299165C -0.322767 0.335483 -0.277815 0.39768 -0.224643 0.461943C -0.126955 0.578615 0.049422 0.756986 0.27527 0.919506C 0.739369 1.24887 1.456 1.5531 2.5 1.5531L 2.5 0.6469C 1.644 0.6469 1.11063 0.401133 0.79973 0.180494C 0.638078 0.0680139 0.545705 -0.0286149 0.471518 -0.118193C 0.438752 -0.157054 0.421985 -0.180795 0.406117 -0.204633C 0.399997 -0.213682 0.39828 -0.216516 0.395212 -0.221628C 0.394506 -0.222776 0.394488 -0.222859 0.39486 -0.222203C 0.394652 -0.222573 0.396013 -0.220164 0.395916 -0.220337C 0.395674 -0.22077 0.396864 -0.218629 0.396745 -0.218843C 0.396591 -0.219123 0.397312 -0.217814 0.397235 -0.217954C 0.397321 -0.217797 0.397456 -0.217551 0.397499 -0.217473C 0.397635 -0.217222 0.397774 -0.216968 0 1.90735e-07Z"/>
<path id="path12_stroke" d="M 0.356645 -0.194534C 0.249207 -0.391504 0.00243602 -0.464083 -0.194534 -0.356645C -0.391503 -0.249208 -0.464083 -0.0024364 -0.356645 0.194533L 0.356645 -0.194534ZM 2.5 1.50625C 2.72437 1.50625 2.90625 1.32437 2.90625 1.1C 2.90625 0.875634 2.72437 0.69375 2.5 0.69375L 2.5 1.50625ZM 0 -3.8147e-07C -0.356645 0.194533 -0.356516 0.19477 -0.356385 0.19501C -0.356338 0.195096 -0.356204 0.195341 -0.356109 0.195512C -0.356006 0.195701 -0.355722 0.196217 -0.355513 0.196595C -0.355267 0.19704 -0.354637 0.198176 -0.35414 0.199066C -0.353492 0.200223 -0.351976 0.202907 -0.350658 0.205212C -0.348729 0.208572 -0.344662 0.21553 -0.340688 0.222142C -0.334224 0.232838 -0.32178 0.252708 -0.308191 0.273118C -0.284263 0.308791 -0.240769 0.369 -0.188652 0.43195C -0.0921786 0.547221 0.0798551 0.721366 0.302384 0.8813C 0.758563 1.20504 1.46572 1.50625 2.5 1.50625L 2.5 0.69375C 1.63428 0.69375 1.09144 0.44496 0.772616 0.2187C 0.607645 0.103633 0.510929 0.00277833 0.435527 -0.0882002C 0.401706 -0.128375 0.383482 -0.154104 0.367175 -0.178587C 0.360647 -0.188256 0.358345 -0.192019 0.355093 -0.197435C 0.354208 -0.198881 0.353759 -0.199705 0.354216 -0.198902C 0.354091 -0.199126 0.355081 -0.197372 0.355024 -0.197472C 0.354823 -0.197833 0.355833 -0.196016 0.355734 -0.196195C 0.355599 -0.196439 0.356231 -0.195291 0.356164 -0.195413C 0.35624 -0.195274 0.356361 -0.195055 0.356398 -0.194985C 0.356521 -0.194762 0.356645 -0.194534 0 -3.8147e-07Z"/>
<path id="path13_stroke" d="M 0.315516 -0.1721C 0.220468 -0.346354 0.00215509 -0.410564 -0.172099 -0.315516C -0.346354 -0.220468 -0.410564 -0.00215547 -0.315516 0.172099L 0.315516 -0.1721ZM 2.5 1.4594C 2.69849 1.4594 2.8594 1.29849 2.8594 1.1C 2.8594 0.901509 2.69849 0.7406 2.5 0.7406L 2.5 1.4594ZM 0 -3.8147e-07C -0.315516 0.172099 -0.315401 0.172309 -0.315285 0.172522C -0.315242 0.172599 -0.315123 0.172817 -0.315039 0.172971C -0.314945 0.173142 -0.31469 0.173604 -0.314502 0.173946C -0.314276 0.174355 -0.313705 0.175384 -0.313248 0.176201C -0.312641 0.177286 -0.311249 0.179751 -0.310014 0.18191C -0.30817 0.185123 -0.304364 0.191635 -0.300569 0.197948C -0.29429 0.20834 -0.28243 0.227281 -0.269248 0.247072C -0.24576 0.2821 -0.203723 0.34032 -0.152661 0.401957C -0.0574025 0.515828 0.110288 0.685747 0.329498 0.843093C 0.777757 1.16121 1.47544 1.4594 2.5 1.4594L 2.5 0.7406C 1.62456 0.7406 1.07224 0.488788 0.745502 0.256907C 0.577212 0.139253 0.476153 0.0341717 0.399536 -0.0582075C 0.36466 -0.0996958 0.344979 -0.127413 0.328232 -0.152541C 0.321297 -0.162829 0.318411 -0.167521 0.314973 -0.173242C 0.31391 -0.174985 0.31303 -0.17655 0.313572 -0.1756C 0.31353 -0.175678 0.314149 -0.17458 0.314133 -0.174607C 0.313972 -0.174896 0.314801 -0.173403 0.314722 -0.173546C 0.314607 -0.173754 0.315151 -0.172768 0.315094 -0.172871C 0.31516 -0.172751 0.315265 -0.172558 0.315298 -0.172498C 0.315406 -0.172301 0.315516 -0.1721 0 -3.8147e-07Z"/>
<path id="path14_stroke" d="M 0.274342 -0.149641C 0.191698 -0.301156 0.00187386 -0.356987 -0.149641 -0.274342C -0.301156 -0.191698 -0.356987 -0.00187386 -0.274342 0.149641L 0.274342 -0.149641ZM 2.5 1.4125C 2.67259 1.4125 2.8125 1.27259 2.8125 1.1C 2.8125 0.927411 2.67259 0.7875 2.5 0.7875L 2.5 1.4125ZM 0 0C -0.274342 0.149641 -0.274243 0.149824 -0.274141 0.150011C -0.274103 0.150079 -0.273998 0.15027 -0.273924 0.150406C -0.27384 0.150559 -0.273615 0.150968 -0.273446 0.151273C -0.27324 0.151646 -0.272729 0.152567 -0.272313 0.153312C -0.271747 0.154324 -0.270478 0.156571 -0.269326 0.158584C -0.267567 0.161649 -0.264023 0.167714 -0.260406 0.173729C -0.254312 0.183817 -0.243038 0.201828 -0.230264 0.220998C -0.207216 0.25538 -0.166637 0.311611 -0.116632 0.371933C -0.0225893 0.484401 0.140754 0.65009 0.356642 0.804846C 0.796972 1.11734 1.48517 1.4125 2.5 1.4125L 2.5 0.7875C 1.61483 0.7875 1.05303 0.532662 0.718358 0.295154C 0.546746 0.174911 0.441339 0.065599 0.363507 -0.0281825C 0.327575 -0.0709855 0.306435 -0.100693 0.289248 -0.126467C 0.281906 -0.137375 0.278434 -0.142996 0.27481 -0.149022C 0.273569 -0.151064 0.273512 -0.151175 0.272885 -0.152273C 0.272843 -0.152341 0.273173 -0.151763 0.273198 -0.151717C 0.273077 -0.151934 0.273726 -0.150766 0.273667 -0.150873C 0.273572 -0.151045 0.274026 -0.15022 0.273979 -0.150306C 0.274035 -0.150203 0.274126 -0.150037 0.274154 -0.149986C 0.274247 -0.149816 0.274342 -0.149641 0 0Z"/>
<path id="path15_stroke" d="M 0.233169 -0.127183C 0.162928 -0.255959 0.00159263 -0.30341 -0.127183 -0.233169C -0.255959 -0.162928 -0.30341 -0.00159263 -0.233169 0.127183L 0.233169 -0.127183ZM 2.5 1.3656C 2.64669 1.3656 2.7656 1.24669 2.7656 1.1C 2.7656 0.953314 2.64669 0.8344 2.5 0.8344L 2.5 1.3656ZM 0 0C -0.233169 0.127183 -0.233084 0.127339 -0.232996 0.127499C -0.232964 0.127558 -0.232874 0.127723 -0.232809 0.127841C -0.232735 0.127976 -0.23254 0.12833 -0.232391 0.1286C -0.232205 0.128937 -0.231754 0.129749 -0.231378 0.130423C -0.230852 0.131362 -0.229707 0.13339 -0.228639 0.135257C -0.226964 0.138174 -0.223682 0.143793 -0.220243 0.14951C -0.214335 0.159293 -0.203647 0.176374 -0.19128 0.194925C -0.168672 0.228661 -0.129551 0.282901 -0.0806021 0.341908C 0.0122239 0.452974 0.17122 0.614432 0.383785 0.766599C 0.816186 1.07346 1.4949 1.3656 2.5 1.3656L 2.5 0.8344C 1.6051 0.8344 1.03381 0.576536 0.691215 0.333402C 0.51628 0.210568 0.406526 0.0970259 0.327477 0.00184212C 0.290489 -0.0422755 0.26789 -0.0739732 0.250264 -0.100393C 0.242514 -0.111921 0.238456 -0.118472 0.234648 -0.124803C 0.233228 -0.127143 0.232909 -0.127701 0.232197 -0.128946C 0.232073 -0.12916 0.232197 -0.128946 0.232262 -0.128828C 0.232182 -0.128972 0.232651 -0.128129 0.232611 -0.1282C 0.232536 -0.128336 0.232902 -0.127672 0.232864 -0.12774C 0.232911 -0.127656 0.232987 -0.127516 0.23301 -0.127474C 0.233089 -0.127331 0.233169 -0.127183 0 0Z"/>
<path id="path16_stroke" d="M 0.19204 -0.104748C 0.134188 -0.210809 0.0013117 -0.24989 -0.104749 -0.192039C -0.210809 -0.134188 -0.249891 -0.00131132 -0.19204 0.104749L 0.19204 -0.104748ZM 2.5 1.31875C 2.62081 1.31875 2.71875 1.22081 2.71875 1.1C 2.71875 0.979188 2.62081 0.881251 2.5 0.881251L 2.5 1.31875ZM 0 3.8147e-07C -0.19204 0.104749 -0.191969 0.104878 -0.191896 0.105012C -0.191869 0.105062 -0.191793 0.1052 -0.191738 0.1053C -0.191674 0.105417 -0.191509 0.105718 -0.191379 0.105952C -0.191213 0.106253 -0.190822 0.106957 -0.190487 0.107558C -0.190001 0.108425 -0.18898 0.110234 -0.187995 0.111956C -0.186405 0.114726 -0.183384 0.119898 -0.180124 0.125317C -0.174401 0.134795 -0.164297 0.150948 -0.152337 0.168879C -0.130168 0.20197 -0.0925054 0.254222 -0.0446109 0.311916C 0.047 0.421581 0.201653 0.578813 0.410899 0.728393C 0.83538 1.02964 1.50462 1.31875 2.5 1.31875L 2.5 0.881251C 1.59538 0.881251 1.01462 0.620364 0.664101 0.371608C 0.485847 0.246188 0.37175 0.12842 0.291486 0.0318351C 0.253443 -0.0135957 0.229387 -0.0472815 0.211321 -0.074347C 0.203164 -0.0864941 0.198522 -0.093974 0.194528 -0.100609C 0.19293 -0.103247 0.19235 -0.104251 0.191553 -0.105644C 0.191345 -0.106004 0.191265 -0.106153 0.191371 -0.105963C 0.191331 -0.106035 0.191619 -0.105516 0.1916 -0.10555C 0.191544 -0.105651 0.191821 -0.105148 0.191793 -0.105198C 0.19183 -0.105132 0.191892 -0.105019 0.19191 -0.104986C 0.191974 -0.104869 0.19204 -0.104748 0 3.8147e-07Z"/>
<path id="path17_stroke" d="M 0.15091 -0.0823143C 0.105449 -0.16566 0.00103077 -0.196371 -0.0823147 -0.15091C -0.16566 -0.105449 -0.196371 -0.00103039 -0.15091 0.082315L 0.15091 -0.0823143ZM 2.5 1.2719C 2.59494 1.2719 2.6719 1.19494 2.6719 1.1C 2.6719 1.00506 2.59494 0.928101 2.5 0.928101L 2.5 1.2719ZM 0 3.8147e-07C -0.15091 0.082315 -0.150854 0.0824174 -0.150796 0.082524C -0.150774 0.0825651 -0.150713 0.082676 -0.150668 0.0827583C -0.150613 0.0828574 -0.150477 0.0831048 -0.150368 0.0833029C -0.150221 0.0835681 -0.149891 0.084164 -0.149595 0.0846929C -0.14915 0.0854877 -0.148253 0.0870784 -0.147351 0.088654C -0.145846 0.0912763 -0.143086 0.0960022 -0.140004 0.101123C -0.134466 0.110297 -0.124947 0.125521 -0.113394 0.142833C -0.091665 0.175279 -0.0554593 0.225542 -0.00861975 0.281923C 0.0817761 0.390188 0.232086 0.543194 0.438013 0.690186C 0.854574 0.98581 1.51434 1.2719 2.5 1.2719L 2.5 0.928101C 1.58566 0.928101 0.995426 0.664191 0.636987 0.409815C 0.455414 0.281807 0.336974 0.159813 0.255495 0.0618278C 0.216397 0.0150837 0.190884 -0.0205903 0.172379 -0.0483009C 0.163814 -0.0610674 0.158587 -0.0694761 0.154408 -0.0764157C 0.152632 -0.0793511 0.151791 -0.0808019 0.150909 -0.0823422C 0.150618 -0.0828479 0.150333 -0.0833603 0.150479 -0.0830976C 0.15048 -0.0830978 0.150588 -0.0829028 0.150588 -0.0829014C 0.150552 -0.0829664 0.15074 -0.0826249 0.150723 -0.0826571C 0.15075 -0.0826083 0.150797 -0.0825225 0.15081 -0.0824981C 0.150859 -0.0824083 0.15091 -0.0823143 0 3.8147e-07Z"/>
<path id="path18_stroke" d="M 0.109737 -0.0598558C 0.076679 -0.120462 0.000749438 -0.142794 -0.0598566 -0.109736C -0.120463 -0.0766783 -0.142795 -0.000748675 -0.109737 0.0598573L 0.109737 -0.0598558ZM 2.5 1.225C 2.56904 1.225 2.625 1.16903 2.625 1.1C 2.625 1.03096 2.56904 0.974999 2.5 0.974999L 2.5 1.225ZM 0 7.62939e-07C -0.109737 0.0598573 -0.109696 0.0599329 -0.109652 0.0600127C -0.109634 0.0600449 -0.109588 0.060129 -0.109553 0.0601934C -0.109508 0.0602746 -0.109402 0.0604681 -0.109312 0.0606304C -0.109186 0.0608595 -0.108915 0.0613473 -0.10866 0.061804C -0.108256 0.0625262 -0.107482 0.0638981 -0.106663 0.0653278C -0.105243 0.0678024 -0.102746 0.0720816 -0.0998411 0.0769047C -0.0944886 0.0857735 -0.0855552 0.100068 -0.0744101 0.11676C -0.0531206 0.148559 -0.0183735 0.196832 0.0274099 0.251899C 0.116589 0.358761 0.262552 0.507536 0.465157 0.651938C 0.873789 0.941935 1.52407 1.225 2.5 1.225L 2.5 0.974999C 1.57593 0.974999 0.976211 0.708064 0.609843 0.448062C 0.424948 0.317464 0.302161 0.19124 0.219465 0.0918524C 0.179311 0.0437938 0.152339 0.00612964 0.133395 -0.0222269C 0.124422 -0.0356134 0.11861 -0.0449518 0.114245 -0.0521961C 0.112291 -0.0554297 0.111188 -0.0573273 0.110221 -0.0590152C 0.109847 -0.0596669 0.109731 -0.0598727 0.109544 -0.0602079C 0.109504 -0.0602799 0.109512 -0.0602654 0.109533 -0.0602281C 0.109517 -0.0602572 0.109616 -0.0600771 0.109608 -0.0600914C 0.109625 -0.0600605 0.109657 -0.0600015 0.109666 -0.059986C 0.1097 -0.059923 0.109737 -0.0598558 0 7.62939e-07Z"/>
<path id="path19_stroke" d="M 0.250139 -0.432933C 0.011037 -0.571081 -0.294785 -0.489242 -0.432932 -0.25014C -0.57108 -0.0110377 -0.489241 0.294784 -0.250139 0.432932L 0.250139 -0.432933ZM 4.24986 3.03293C 4.48896 3.17108 4.79478 3.08924 4.93293 2.85014C 5.07108 2.61104 4.98924 2.30522 4.75014 2.16707L 4.24986 3.03293ZM -0.250139 0.432932L 4.24986 3.03293L 4.75014 2.16707L 0.250139 -0.432933L -0.250139 0.432932Z"/>
<path id="path20_stroke" d="M 0.219213 -0.388927C 0.00441473 -0.509995 -0.267858 -0.434012 -0.388926 -0.219214C -0.509994 -0.00441663 -0.434011 0.267856 -0.219213 0.388924L 0.219213 -0.388927ZM 5.28079 3.48893C 5.49558 3.60999 5.76786 3.53401 5.88893 3.31921C 6.00999 3.10442 5.93401 2.83214 5.71921 2.71108L 5.28079 3.48893ZM -0.219213 0.388924L 5.28079 3.48893L 5.71921 2.71108L 0.219213 -0.388927L -0.219213 0.388924Z"/>
<path id="path21_stroke" d="M 0.19827 -0.339147C 0.0109644 -0.448648 -0.229645 -0.385576 -0.339147 -0.198271C -0.448648 -0.0109655 -0.385576 0.229644 -0.19827 0.339145L 0.19827 -0.339147ZM 6.30173 4.13914C 6.48903 4.24865 6.72964 4.18557 6.83915 3.99827C 6.94865 3.81096 6.88557 3.57035 6.69827 3.46085L 6.30173 4.13914ZM -0.19827 0.339145L 6.30173 4.13914L 6.69827 3.46085L 0.19827 -0.339147L -0.19827 0.339145Z"/>
<path id="path22_stroke" d="M 0.168762 -0.294355C 0.00619508 -0.38756 -0.201149 -0.331331 -0.294354 -0.168764C -0.387559 -0.00619737 -0.33133 0.201147 -0.168763 0.294351L 0.168762 -0.294355ZM 7.33124 4.59435C 7.4938 4.68756 7.70115 4.63133 7.79435 4.46876C 7.88756 4.3062 7.83133 4.09885 7.66876 4.00565L 7.33124 4.59435ZM -0.168763 0.294351L 7.33124 4.59435L 7.66876 4.00565L 0.168762 -0.294355L -0.168763 0.294351Z"/>
<path id="path23_stroke" d="M 0.142687 -0.247518C 0.00598717 -0.326322 -0.168713 -0.279387 -0.247517 -0.142687C -0.326321 -0.00598679 -0.279386 0.168714 -0.142686 0.247517L 0.142687 -0.247518ZM 8.35731 5.14752C 8.49401 5.22632 8.66871 5.17939 8.74752 5.04269C 8.82632 4.90599 8.77939 4.73129 8.64269 4.65248L 8.35731 5.14752ZM -0.142686 0.247517L 8.35731 5.14752L 8.64269 4.65248L 0.142687 -0.247518L -0.142686 0.247517Z"/>
<path id="path24_stroke" d="M 0.117239 -0.200371C 0.00657727 -0.26512 -0.135622 -0.2279 -0.200371 -0.117238C -0.26512 -0.00657613 -0.2279 0.135623 -0.117238 0.200372L 0.117239 -0.200371ZM 9.28276 5.70037C 9.39342 5.76512 9.53562 5.7279 9.60037 5.61724C 9.66512 5.50658 9.6279 5.36438 9.51724 5.29963L 9.28276 5.70037ZM -0.117238 0.200372L 9.28276 5.70037L 9.51724 5.29963L 0.117239 -0.200371L -0.117238 0.200372Z"/>
<path id="path25_stroke" d="M 0.0903346 -0.154013C 0.00527589 -0.203903 -0.104122 -0.175393 -0.154012 -0.0903346C -0.203902 -0.00527589 -0.175393 0.104122 -0.0903338 0.154012L 0.0903346 -0.154013ZM 10.3097 6.25401C 10.3947 6.3039 10.5041 6.27539 10.554 6.19033C 10.6039 6.10528 10.5754 5.99588 10.4903 5.94599L 10.3097 6.25401ZM -0.0903338 0.154012L 10.3097 6.25401L 10.4903 5.94599L 0.0903346 -0.154013L -0.0903338 0.154012Z"/>
<path id="path26_stroke" d="M 0.0633362 -0.107766C 0.00381862 -0.142745 -0.0727865 -0.122853 -0.107766 -0.0633358C -0.142746 -0.00381824 -0.122854 0.0727869 -0.0633362 0.107766L 0.0633362 -0.107766ZM 11.3367 6.80777C 11.3962 6.84275 11.4728 6.82285 11.5078 6.76334C 11.5427 6.70382 11.5229 6.62721 11.4633 6.59223L 11.3367 6.80777ZM -0.0633362 0.107766L 11.3367 6.80777L 11.4633 6.59223L 0.0633362 -0.107766L -0.0633362 0.107766Z"/>
</defs>
</svg>
