<svg width="376" height="353" viewBox="0 0 376 353" version="1.1" xmlns="http://www.w3.org/2000/svg" xmlns:xlink="http://www.w3.org/1999/xlink" xmlns:figma="http://www.figma.com/figma/ns">
<title>wave</title>
<desc>Created using Figma</desc>
<g id="Canvas" transform="translate(-34503 -260)" figma:type="canvas">
<g id="wave" figma:type="frame">
<g id="Vector" figma:type="vector">
<use xlink:href="#path0_fill" transform="translate(34505.1 418.268)" fill="#E2112E"/>
</g>
<g id="Vector" figma:type="vector">
<use xlink:href="#path1_fill" transform="translate(34510.9 427.021)" fill="#E2112E"/>
</g>
<g id="Vector" figma:type="vector">
<use xlink:href="#path2_fill" transform="translate(34516.6 434.047)" fill="#E2112E"/>
</g>
<g id="Vector" figma:type="vector">
<use xlink:href="#path3_fill" transform="translate(34522.4 440.828)" fill="#E2112E"/>
</g>
<g id="Vector" figma:type="vector">
<use xlink:href="#path4_fill" transform="translate(34527.9 460.059)" fill="#E2112E"/>
</g>
<g id="Vector" figma:type="vector">
<use xlink:href="#path5_fill" transform="translate(34533.6 474.728)" fill="#E2112E"/>
</g>
<g id="Vector" figma:type="vector">
<use xlink:href="#path6_fill" transform="translate(34539.4 476.578)" fill="#E2112E"/>
</g>
<g id="Vector" figma:type="vector">
<use xlink:href="#path7_fill" transform="translate(34545.1 475.221)" fill="#E2112E"/>
</g>
<g id="Vector" figma:type="vector">
<use xlink:href="#path8_fill" transform="translate(34550.9 472.386)" fill="#E2112E"/>
</g>
<g id="Vector" figma:type="vector">
<use xlink:href="#path9_fill" transform="translate(34556.3 468.441)" fill="#E2112E"/>
</g>
<g id="Vector" figma:type="vector">
<use xlink:href="#path10_fill" transform="translate(34562.1 461.291)" fill="#E2112E"/>
</g>
<g id="Vector" figma:type="vector">
<use xlink:href="#path11_fill" transform="translate(34675.9 449.334)" fill="#E2112E"/>
</g>
<g id="Vector" figma:type="vector">
<use xlink:href="#path12_fill" transform="translate(34681.7 504.438)" fill="#E2112E"/>
</g>
<g id="Vector" figma:type="vector">
<use xlink:href="#path13_fill" transform="translate(34687.2 452.662)" fill="#E2112E"/>
</g>
<g id="Vector" figma:type="vector">
<use xlink:href="#path14_fill" transform="translate(34692.9 472.633)" fill="#E2112E"/>
</g>
<g id="Vector" figma:type="vector">
<use xlink:href="#path15_fill" transform="translate(34698.7 466.222)" fill="#E2112E"/>
</g>
<g id="Vector" figma:type="vector">
<use xlink:href="#path16_fill" transform="translate(34704.4 469.428)" fill="#E2112E"/>
</g>
<g id="Vector" figma:type="vector">
<use xlink:href="#path17_fill" transform="translate(34710.2 473.742)" fill="#E2112E"/>
</g>
<g id="Vector" figma:type="vector">
<use xlink:href="#path18_fill" transform="translate(34715.9 505.671)" fill="#E2112E"/>
</g>
<g id="Vector" figma:type="vector">
<use xlink:href="#path19_fill" transform="translate(34721.4 499.507)" fill="#E2112E"/>
</g>
<g id="Vector" figma:type="vector">
<use xlink:href="#path20_fill" transform="translate(34727.1 492.727)" fill="#E2112E"/>
</g>
<g id="Vector" figma:type="vector">
<use xlink:href="#path21_fill" transform="translate(34732.9 498.397)" fill="#E2112E"/>
</g>
<g id="Vector" figma:type="vector">
<use xlink:href="#path22_fill" transform="translate(34738.6 489.768)" fill="#E2112E"/>
</g>
<g id="Vector" figma:type="vector">
<use xlink:href="#path23_fill" transform="translate(34744.4 495.685)" fill="#E2112E"/>
</g>
<g id="Vector" figma:type="vector">
<use xlink:href="#path24_fill" transform="translate(34749.8 492.357)" fill="#E2112E"/>
</g>
<g id="Vector" figma:type="vector">
<use xlink:href="#path25_fill" transform="translate(34755.6 497.904)" fill="#E2112E"/>
</g>
<g id="Vector" figma:type="vector">
<use xlink:href="#path26_fill" transform="translate(34761.3 488.659)" fill="#E2112E"/>
</g>
<g id="Vector" figma:type="vector">
<use xlink:href="#path27_fill" transform="translate(34767.1 489.275)" fill="#E2112E"/>
</g>
<g id="Vector" figma:type="vector">
<use xlink:href="#path28_fill" transform="translate(34772.8 498.767)" fill="#E2112E"/>
</g>
<g id="Vector" figma:type="vector">
<use xlink:href="#path29_fill" transform="translate(34778.3 504.684)" fill="#E2112E"/>
</g>
<g id="Vector" figma:type="vector">
<use xlink:href="#path30_fill" transform="translate(34784.1 470.167)" fill="#E2112E"/>
</g>
<g id="Vector" figma:type="vector">
<use xlink:href="#path31_fill" transform="translate(34789.8 479.906)" fill="#E2112E"/>
</g>
<g id="Vector" figma:type="vector">
<use xlink:href="#path30_fill" transform="translate(34795.6 470.167)" fill="#E2112E"/>
</g>
<g id="Vector" figma:type="vector">
<use xlink:href="#path32_fill" transform="translate(34801.3 488.659)" fill="#E2112E"/>
</g>
<g id="Vector" figma:type="vector">
<use xlink:href="#path33_fill" transform="translate(34806.8 479.906)" fill="#E2112E"/>
</g>
<g id="Vector" figma:type="vector">
<use xlink:href="#path34_fill" transform="translate(34812.5 498.028)" fill="#E2112E"/>
</g>
<g id="Vector" figma:type="vector">
<use xlink:href="#path35_fill" transform="translate(34818.3 470.167)" fill="#E2112E"/>
</g>
<g id="Vector" figma:type="vector">
<use xlink:href="#path36_fill" transform="translate(34824 488.659)" fill="#E2112E"/>
</g>
<g id="Vector" figma:type="vector">
<use xlink:href="#path34_fill" transform="translate(34829.8 498.028)" fill="#E2112E"/>
</g>
<g id="Vector" figma:type="vector">
<use xlink:href="#path37_fill" transform="translate(34835.2 488.659)" fill="#E2112E"/>
</g>
<g id="Vector" figma:type="vector">
<use xlink:href="#path38_fill" transform="translate(34841 479.906)" fill="#E2112E"/>
</g>
<g id="Vector" figma:type="vector">
<use xlink:href="#path39_fill" transform="translate(34846.7 488.659)" fill="#E2112E"/>
</g>
<g id="Vector" figma:type="vector">
<use xlink:href="#path40_fill" transform="translate(34852.5 495.685)" fill="#E2112E"/>
</g>
<g id="Vector" figma:type="vector">
<use xlink:href="#path41_fill" transform="translate(34858.2 502.465)" fill="#E2112E"/>
</g>
<g id="Vector" figma:type="vector">
<use xlink:href="#path42_fill" transform="translate(34863.7 509.369)" fill="#E2112E"/>
</g>
<g id="Vector" figma:type="vector">
<use xlink:href="#path43_fill" transform="translate(34869.5 511.711)" fill="#E2112E"/>
</g>
<g id="Vector" figma:type="vector">
<use xlink:href="#path44_fill" transform="translate(34875.2 513.56)" fill="#E2112E"/>
</g>
<g id="Vector" figma:type="vector">
<use xlink:href="#path45_fill" transform="translate(34567.8 451.676)" fill="#E2112E"/>
</g>
<g id="Vector" figma:type="vector">
<use xlink:href="#path46_fill" transform="translate(34573.6 426.774)" fill="#E2112E"/>
</g>
<g id="Vector" figma:type="vector">
<use xlink:href="#path47_fill" transform="translate(34579.3 436.513)" fill="#E2112E"/>
</g>
<g id="Vector" figma:type="vector">
<use xlink:href="#path48_fill" transform="translate(34584.8 445.759)" fill="#E2112E"/>
</g>
<g id="Vector" figma:type="vector">
<use xlink:href="#path49_fill" transform="translate(34590.5 452.046)" fill="#E2112E"/>
</g>
<g id="Vector" figma:type="vector">
<use xlink:href="#path50_fill" transform="translate(34596.3 464.373)" fill="#E2112E"/>
</g>
<g id="Vector" figma:type="vector">
<use xlink:href="#path51_fill" transform="translate(34602 482.618)" fill="#E2112E"/>
</g>
<g id="Vector" figma:type="vector">
<use xlink:href="#path52_fill" transform="translate(34607.8 488.659)" fill="#E2112E"/>
</g>
<g id="Vector" figma:type="vector">
<use xlink:href="#path53_fill" transform="translate(34613.3 452.292)" fill="#E2112E"/>
</g>
<g id="Vector" figma:type="vector">
<use xlink:href="#path54_fill" transform="translate(34619 467.948)" fill="#E2112E"/>
</g>
<g id="Vector" figma:type="vector">
<use xlink:href="#path55_fill" transform="translate(34624.8 477.194)" fill="#E2112E"/>
</g>
<g id="Vector" figma:type="vector">
<use xlink:href="#path56_fill" transform="translate(34630.5 485.084)" fill="#E2112E"/>
</g>
<g id="Vector" figma:type="vector">
<use xlink:href="#path57_fill" transform="translate(34636.3 499.507)" fill="#E2112E"/>
</g>
<g id="Vector" figma:type="vector">
<use xlink:href="#path58_fill" transform="translate(34641.7 506.41)" fill="#E2112E"/>
</g>
<g id="Vector" figma:type="vector">
<use xlink:href="#path59_fill" transform="translate(34647.5 499.507)" fill="#E2112E"/>
</g>
<g id="Vector" figma:type="vector">
<use xlink:href="#path60_fill" transform="translate(34653.2 464.003)" fill="#E2112E"/>
</g>
<g id="Vector" figma:type="vector">
<use xlink:href="#path61_fill" transform="translate(34659 465.359)" fill="#E2112E"/>
</g>
<g id="Vector" figma:type="vector">
<use xlink:href="#path62_fill" transform="translate(34664.7 460.798)" fill="#E2112E"/>
</g>
<g id="Vector" figma:type="vector">
<use xlink:href="#path63_fill" transform="translate(34670.2 462.771)" fill="#E2112E"/>
</g>
</g>
</g>
<defs>
<path id="path0_fill" d="M 1.75502e-05 96.6483L 1.75502e-05 98.0043L 1.75502e-05 194.653L 2.87544 194.653L 2.87544 98.0043L 2.87544 96.6483L 2.87544 -4.7026e-07L 1.75502e-05 -4.7026e-07L 1.75502e-05 96.6483Z"/>
<path id="path1_fill" d="M 1.75502e-05 87.8957L 1.75502e-05 89.2517L 1.75502e-05 177.024L 2.87544 177.024L 2.87544 89.2517L 2.87544 87.8957L 2.87544 0L 1.75502e-05 0L 1.75502e-05 87.8957Z"/>
<path id="path2_fill" d="M 1.75502e-05 80.869L 1.75502e-05 82.225L 1.75502e-05 163.094L 2.87544 163.094L 2.87544 82.225L 2.87544 80.869L 2.87544 9.4052e-07L 1.75502e-05 9.4052e-07L 1.75502e-05 80.869Z"/>
<path id="path3_fill" d="M 1.75502e-05 74.0888L 1.75502e-05 75.4448L 1.75502e-05 149.534L 2.87544 149.534L 2.87544 75.4448L 2.87544 74.0888L 2.87544 9.4052e-07L 1.75502e-05 9.4052e-07L 1.75502e-05 74.0888Z"/>
<path id="path4_fill" d="M 0 54.8578L 0 56.2138L 0 111.072L 3.16299 111.072L 3.16299 56.2138L 3.16299 54.8578L 3.16299 -9.4052e-07L 0 -9.4052e-07L 0 54.8578Z"/>
<path id="path5_fill" d="M 0 40.1879L 0 41.544L 0 81.7319L 2.87543 81.7319L 2.87543 41.544L 2.87543 40.1879L 2.87543 -3.76208e-06L 0 -3.76208e-06L 0 40.1879Z"/>
<path id="path6_fill" d="M 0 38.3388L 0 39.6948L 0 78.0336L 2.87543 78.0336L 2.87543 39.6948L 2.87543 38.3388L 2.87543 -3.76208e-06L 0 -3.76208e-06L 0 38.3388Z"/>
<path id="path7_fill" d="M 0 39.6948L 0 41.0509L 0 80.7457L 2.87543 80.7457L 2.87543 41.0509L 2.87543 39.6948L 2.87543 -1.88104e-06L 0 -1.88104e-06L 0 39.6948Z"/>
<path id="path8_fill" d="M 0 42.5302L 0 43.8862L 0 86.4164L 2.87543 86.4164L 2.87543 43.8862L 2.87543 42.5302L 2.87543 3.76208e-06L 0 3.76208e-06L 0 42.5302Z"/>
<path id="path9_fill" d="M -1.75502e-05 46.475L -1.75502e-05 47.8311L -1.75502e-05 94.3061L 3.16297 94.3061L 3.16297 47.8311L 3.16297 46.475L 3.16297 -1.88104e-06L -1.75502e-05 -1.88104e-06L -1.75502e-05 46.475Z"/>
<path id="path10_fill" d="M -1.75502e-05 53.625L -1.75502e-05 54.981L -1.75502e-05 108.483L 2.87541 108.483L 2.87541 54.981L 2.87541 53.625L 2.87541 -9.4052e-07L -1.75502e-05 -9.4052e-07L -1.75502e-05 53.625Z"/>
<path id="path11_fill" d="M 0 65.5828L 0 66.9388L 0 132.522L 2.87543 132.522L 2.87543 66.9388L 2.87543 65.5828L 2.87543 -1.88104e-06L 0 -1.88104e-06L 0 65.5828Z"/>
<path id="path12_fill" d="M 0 10.4785L 0 11.8345L 0 22.3129L 2.87543 22.3129L 2.87543 11.8345L 2.87543 10.4785L 2.87543 3.76208e-06L 0 3.76208e-06L 0 10.4785Z"/>
<path id="path13_fill" d="M -1.75502e-05 62.2543L -1.75502e-05 63.6104L -1.75502e-05 125.865L 3.16297 125.865L 3.16297 63.6104L 3.16297 62.2543L 3.16297 -9.4052e-07L -1.75502e-05 -9.4052e-07L -1.75502e-05 62.2543Z"/>
<path id="path14_fill" d="M -1.75502e-05 42.2836L -1.75502e-05 43.6397L -1.75502e-05 85.9233L 3.16297 85.9233L 3.16297 43.6397L 3.16297 42.2836L 3.16297 0L -1.75502e-05 0L -1.75502e-05 42.2836Z"/>
<path id="path15_fill" d="M -1.75502e-05 48.694L -1.75502e-05 50.05L -1.75502e-05 98.744L 2.87541 98.744L 2.87541 50.05L 2.87541 48.694L 2.87541 -9.4052e-07L -1.75502e-05 -9.4052e-07L -1.75502e-05 48.694Z"/>
<path id="path16_fill" d="M -1.75502e-05 45.4888L -1.75502e-05 46.8448L -1.75502e-05 92.3336L 2.87541 92.3336L 2.87541 46.8448L 2.87541 45.4888L 2.87541 1.88104e-06L -1.75502e-05 1.88104e-06L -1.75502e-05 45.4888Z"/>
<path id="path17_fill" d="M -1.75502e-05 41.1742L -1.75502e-05 42.5302L -1.75502e-05 83.7043L 2.87541 83.7043L 2.87541 42.5302L 2.87541 41.1742L 2.87541 1.88104e-06L -1.75502e-05 1.88104e-06L -1.75502e-05 41.1742Z"/>
<path id="path18_fill" d="M -1.75502e-05 9.2457L -1.75502e-05 10.6017L -1.75502e-05 19.8474L 2.87541 19.8474L 2.87541 10.6017L 2.87541 9.2457L 2.87541 3.76208e-06L -1.75502e-05 3.76208e-06L -1.75502e-05 9.2457Z"/>
<path id="path19_fill" d="M -3.51004e-05 15.4095L -3.51004e-05 16.7655L -3.51004e-05 32.175L 3.16295 32.175L 3.16295 16.7655L 3.16295 15.4095L 3.16295 3.76208e-06L -3.51004e-05 3.76208e-06L -3.51004e-05 15.4095Z"/>
<path id="path20_fill" d="M -3.51004e-05 22.1897L -3.51004e-05 23.5457L -3.51004e-05 45.7354L 2.87539 45.7354L 2.87539 23.5457L 2.87539 22.1897L 2.87539 3.76208e-06L -3.51004e-05 3.76208e-06L -3.51004e-05 22.1897Z"/>
<path id="path21_fill" d="M -3.51004e-05 16.519L -3.51004e-05 17.875L -3.51004e-05 34.2707L 2.87539 34.2707L 2.87539 17.875L 2.87539 16.519L 2.87539 1.88104e-06L -3.51004e-05 1.88104e-06L -3.51004e-05 16.519Z"/>
<path id="path22_fill" d="M -3.51004e-05 25.1483L -3.51004e-05 26.5043L -3.51004e-05 51.6526L 2.87539 51.6526L 2.87539 26.5043L 2.87539 25.1483L 2.87539 1.88104e-06L -3.51004e-05 1.88104e-06L -3.51004e-05 25.1483Z"/>
<path id="path23_fill" d="M -3.51004e-05 19.231L -3.51004e-05 20.5871L -3.51004e-05 39.8181L 2.87539 39.8181L 2.87539 20.5871L 2.87539 19.231L 2.87539 -3.76208e-06L -3.51004e-05 -3.76208e-06L -3.51004e-05 19.231Z"/>
<path id="path24_fill" d="M 3.51004e-05 22.5595L 3.51004e-05 23.9155L 3.51004e-05 46.3517L 3.16293 46.3517L 3.16293 23.9155L 3.16293 22.5595L 3.16293 0L 3.51004e-05 0L 3.51004e-05 22.5595Z"/>
<path id="path25_fill" d="M 3.51004e-05 17.0121L 3.51004e-05 18.3681L 3.51004e-05 35.3802L 2.87546 35.3802L 2.87546 18.3681L 2.87546 17.0121L 2.87546 0L 3.51004e-05 0L 3.51004e-05 17.0121Z"/>
<path id="path26_fill" d="M 3.51004e-05 26.2578L 3.51004e-05 27.6138L 3.51004e-05 53.7483L 2.87546 53.7483L 2.87546 27.6138L 2.87546 26.2578L 2.87546 0L 3.51004e-05 0L 3.51004e-05 26.2578Z"/>
<path id="path27_fill" d="M 3.51004e-05 25.6414L 3.51004e-05 26.9974L 3.51004e-05 52.6388L 2.87546 52.6388L 2.87546 26.9974L 2.87546 25.6414L 2.87546 0L 3.51004e-05 0L 3.51004e-05 25.6414Z"/>
<path id="path28_fill" d="M 3.51004e-05 16.1491L 3.51004e-05 17.5052L 3.51004e-05 33.531L 2.87546 33.531L 2.87546 17.5052L 2.87546 16.1491L 2.87546 -3.76208e-06L 3.51004e-05 -3.76208e-06L 3.51004e-05 16.1491Z"/>
<path id="path29_fill" d="M 1.75502e-05 10.2319L 1.75502e-05 11.5879L 1.75502e-05 21.8198L 3.163 21.8198L 3.163 11.5879L 3.163 10.2319L 3.163 0L 1.75502e-05 0L 1.75502e-05 10.2319Z"/>
<path id="path30_fill" d="M 1.75502e-05 44.7491L 1.75502e-05 46.1052L 1.75502e-05 90.8543L 2.87544 90.8543L 2.87544 46.1052L 2.87544 44.7491L 2.87544 0L 1.75502e-05 0L 1.75502e-05 44.7491Z"/>
<path id="path31_fill" d="M 1.75502e-05 35.0104L 1.75502e-05 36.3664L 1.75502e-05 71.3767L 2.87544 71.3767L 2.87544 36.3664L 2.87544 35.0104L 2.87544 1.88104e-06L 1.75502e-05 1.88104e-06L 1.75502e-05 35.0104Z"/>
<path id="path32_fill" d="M 1.75502e-05 26.2578L 1.75502e-05 27.6138L 1.75502e-05 53.7483L 2.87544 53.7483L 2.87544 27.6138L 2.87544 26.2578L 2.87544 0L 1.75502e-05 0L 1.75502e-05 26.2578Z"/>
<path id="path33_fill" d="M 0 35.0104L 0 36.3664L 0 71.3767L 3.16299 71.3767L 3.16299 36.3664L 3.16299 35.0104L 3.16299 1.88104e-06L 0 1.88104e-06L 0 35.0104Z"/>
<path id="path34_fill" d="M 0 16.8888L 0 18.2448L 0 35.1336L 2.87543 35.1336L 2.87543 18.2448L 2.87543 16.8888L 2.87543 -1.88104e-06L 0 -1.88104e-06L 0 16.8888Z"/>
<path id="path35_fill" d="M 0 44.7491L 0 46.1052L 0 90.8543L 2.87543 90.8543L 2.87543 46.1052L 2.87543 44.7491L 2.87543 0L 0 0L 0 44.7491Z"/>
<path id="path36_fill" d="M 0 26.2578L 0 27.6138L 0 53.7483L 2.87543 53.7483L 2.87543 27.6138L 2.87543 26.2578L 2.87543 0L 0 0L 0 26.2578Z"/>
<path id="path37_fill" d="M -1.75502e-05 26.2578L -1.75502e-05 27.6138L -1.75502e-05 53.7483L 3.16297 53.7483L 3.16297 27.6138L 3.16297 26.2578L 3.16297 0L -1.75502e-05 0L -1.75502e-05 26.2578Z"/>
<path id="path38_fill" d="M -1.75502e-05 35.0104L -1.75502e-05 36.3664L -1.75502e-05 71.3767L 2.87541 71.3767L 2.87541 36.3664L 2.87541 35.0104L 2.87541 1.88104e-06L -1.75502e-05 1.88104e-06L -1.75502e-05 35.0104Z"/>
<path id="path39_fill" d="M -1.75502e-05 26.2578L -1.75502e-05 27.6138L -1.75502e-05 53.7483L 2.87541 53.7483L 2.87541 27.6138L 2.87541 26.2578L 2.87541 0L -1.75502e-05 0L -1.75502e-05 26.2578Z"/>
<path id="path40_fill" d="M -1.75502e-05 19.231L -1.75502e-05 20.5871L -1.75502e-05 39.8181L 2.87541 39.8181L 2.87541 20.5871L 2.87541 19.231L 2.87541 -3.76208e-06L -1.75502e-05 -3.76208e-06L -1.75502e-05 19.231Z"/>
<path id="path41_fill" d="M -1.75502e-05 12.4509L -1.75502e-05 13.8069L -1.75502e-05 26.2578L 2.87541 26.2578L 2.87541 13.8069L 2.87541 12.4509L 2.87541 -3.76208e-06L -1.75502e-05 -3.76208e-06L -1.75502e-05 12.4509Z"/>
<path id="path42_fill" d="M -3.51004e-05 5.54742L -3.51004e-05 6.90345L -3.51004e-05 12.4509L 3.16295 12.4509L 3.16295 6.90345L 3.16295 5.54742L 3.16295 3.76208e-06L -3.51004e-05 3.76208e-06L -3.51004e-05 5.54742Z"/>
<path id="path43_fill" d="M -3.51004e-05 3.20518L -3.51004e-05 4.56121L -3.51004e-05 7.76638L 2.87539 7.76638L 2.87539 4.56121L 2.87539 3.20518L 2.87539 -3.76208e-06L -3.51004e-05 -3.76208e-06L -3.51004e-05 3.20518Z"/>
<path id="path44_fill" d="M -3.51004e-05 1.35604L -3.51004e-05 2.71207L -3.51004e-05 4.0681L 2.87539 4.0681L 2.87539 2.71207L 2.87539 1.35604L 2.87539 -3.76208e-06L -3.51004e-05 -3.76208e-06L -3.51004e-05 1.35604Z"/>
<path id="path45_fill" d="M -1.75502e-05 63.2405L -1.75502e-05 64.5966L -1.75502e-05 127.714L 2.87541 127.714L 2.87541 64.5966L 2.87541 63.2405L 2.87541 0L -1.75502e-05 0L -1.75502e-05 63.2405Z"/>
<path id="path46_fill" d="M -1.75502e-05 88.1423L -1.75502e-05 89.4983L -1.75502e-05 177.641L 2.87541 177.641L 2.87541 89.4983L 2.87541 88.1423L 2.87541 -9.40521e-07L -1.75502e-05 -9.40521e-07L -1.75502e-05 88.1423Z"/>
<path id="path47_fill" d="M -1.75502e-05 78.4035L -1.75502e-05 79.7595L -1.75502e-05 158.163L 2.87541 158.163L 2.87541 79.7595L 2.87541 78.4035L 2.87541 9.4052e-07L -1.75502e-05 9.4052e-07L -1.75502e-05 78.4035Z"/>
<path id="path48_fill" d="M -3.51004e-05 69.1578L -3.51004e-05 70.5138L -3.51004e-05 139.672L 3.16295 139.672L 3.16295 70.5138L 3.16295 69.1578L 3.16295 9.40521e-07L -3.51004e-05 9.40521e-07L -3.51004e-05 69.1578Z"/>
<path id="path49_fill" d="M -3.51004e-05 62.8707L -3.51004e-05 64.2268L -3.51004e-05 127.097L 2.87539 127.097L 2.87539 64.2268L 2.87539 62.8707L 2.87539 -9.40521e-07L -3.51004e-05 -9.40521e-07L -3.51004e-05 62.8707Z"/>
<path id="path50_fill" d="M -3.51004e-05 50.5431L -3.51004e-05 51.8992L -3.51004e-05 102.442L 2.87539 102.442L 2.87539 51.8992L 2.87539 50.5431L 2.87539 -9.4052e-07L -3.51004e-05 -9.4052e-07L -3.51004e-05 50.5431Z"/>
<path id="path51_fill" d="M -3.51004e-05 32.2983L -3.51004e-05 33.6543L -3.51004e-05 65.9526L 2.87539 65.9526L 2.87539 33.6543L 2.87539 32.2983L 2.87539 -1.88104e-06L -3.51004e-05 -1.88104e-06L -3.51004e-05 32.2983Z"/>
<path id="path52_fill" d="M -3.51004e-05 26.2578L -3.51004e-05 27.6138L -3.51004e-05 53.8716L 2.87539 53.8716L 2.87539 27.6138L 2.87539 26.2578L 2.87539 0L -3.51004e-05 0L -3.51004e-05 26.2578Z"/>
<path id="path53_fill" d="M 3.51004e-05 62.6242L 3.51004e-05 63.9802L 3.51004e-05 126.604L 3.16293 126.604L 3.16293 63.9802L 3.16293 62.6242L 3.16293 0L 3.51004e-05 0L 3.51004e-05 62.6242Z"/>
<path id="path54_fill" d="M 3.51004e-05 46.9681L 3.51004e-05 48.3242L 3.51004e-05 95.2923L 2.87546 95.2923L 2.87546 48.3242L 2.87546 46.9681L 2.87546 -3.76208e-06L 3.51004e-05 -3.76208e-06L 3.51004e-05 46.9681Z"/>
<path id="path55_fill" d="M 3.51004e-05 37.7224L 3.51004e-05 39.0785L 3.51004e-05 76.8009L 2.87546 76.8009L 2.87546 39.0785L 2.87546 37.7224L 2.87546 -3.76208e-06L 3.51004e-05 -3.76208e-06L 3.51004e-05 37.7224Z"/>
<path id="path56_fill" d="M 3.51004e-05 29.8328L 3.51004e-05 31.1888L 3.51004e-05 61.0216L 2.87546 61.0216L 2.87546 31.1888L 2.87546 29.8328L 2.87546 -1.88104e-06L 3.51004e-05 -1.88104e-06L 3.51004e-05 29.8328Z"/>
<path id="path57_fill" d="M 3.51004e-05 15.4095L 3.51004e-05 16.7655L 3.51004e-05 32.175L 2.87546 32.175L 2.87546 16.7655L 2.87546 15.4095L 2.87546 3.76208e-06L 3.51004e-05 3.76208e-06L 3.51004e-05 15.4095Z"/>
<path id="path58_fill" d="M 1.75502e-05 8.50604L 1.75502e-05 9.86207L 1.75502e-05 18.3681L 3.163 18.3681L 3.163 9.86207L 3.163 8.50604L 3.163 1.88104e-06L 1.75502e-05 1.88104e-06L 1.75502e-05 8.50604Z"/>
<path id="path59_fill" d="M 1.75502e-05 15.4095L 1.75502e-05 16.7655L 1.75502e-05 32.175L 2.87544 32.175L 2.87544 16.7655L 2.87544 15.4095L 2.87544 3.76208e-06L 1.75502e-05 3.76208e-06L 1.75502e-05 15.4095Z"/>
<path id="path60_fill" d="M 1.75502e-05 50.9129L 1.75502e-05 52.269L 1.75502e-05 103.059L 2.87544 103.059L 2.87544 52.269L 2.87544 50.9129L 2.87544 0L 1.75502e-05 0L 1.75502e-05 50.9129Z"/>
<path id="path61_fill" d="M 1.75502e-05 49.5569L 1.75502e-05 50.9129L 1.75502e-05 100.47L 2.87544 100.47L 2.87544 50.9129L 2.87544 49.5569L 2.87544 -1.88104e-06L 1.75502e-05 -1.88104e-06L 1.75502e-05 49.5569Z"/>
<path id="path62_fill" d="M 1.75502e-05 54.1181L 1.75502e-05 55.4742L 1.75502e-05 109.592L 2.87544 109.592L 2.87544 55.4742L 2.87544 54.1181L 2.87544 1.88104e-06L 1.75502e-05 1.88104e-06L 1.75502e-05 54.1181Z"/>
<path id="path63_fill" d="M 0 52.1457L 0 53.5017L 0 105.647L 3.16299 105.647L 3.16299 53.5017L 3.16299 52.1457L 3.16299 0L 0 0L 0 52.1457Z"/>
</defs>
</svg>
