<svg width="77" height="82" viewBox="0 0 77 82" version="1.1" xmlns="http://www.w3.org/2000/svg" xmlns:xlink="http://www.w3.org/1999/xlink" xmlns:figma="http://www.figma.com/figma/ns">
<title>gos</title>
<desc>Created using Figma</desc>
<g id="Canvas" transform="translate(-476 -1560)" figma:type="canvas">
<g id="gos" style="mix-blend-mode:normal;" figma:type="frame">
<g id="Group" style="mix-blend-mode:normal;" figma:type="frame">
<g id="Vector" style="mix-blend-mode:normal;" figma:type="vector">
<use xlink:href="#path0_stroke" transform="translate(515 1598.62)" fill="#E2112E" style="mix-blend-mode:normal;"/>
</g>
<g id="Vector" style="mix-blend-mode:normal;" figma:type="vector">
<use xlink:href="#path1_stroke" transform="translate(515 1601.03)" fill="#E2112E" style="mix-blend-mode:normal;"/>
</g>
<g id="Vector" style="mix-blend-mode:normal;" figma:type="vector">
<use xlink:href="#path2_stroke" transform="translate(515 1603.43)" fill="#E2112E" style="mix-blend-mode:normal;"/>
</g>
<g id="Vector" style="mix-blend-mode:normal;" figma:type="vector">
<use xlink:href="#path3_stroke" transform="translate(515 1605.93)" fill="#E2112E" style="mix-blend-mode:normal;"/>
</g>
<g id="Vector" style="mix-blend-mode:normal;" figma:type="vector">
<use xlink:href="#path4_stroke" transform="translate(515 1608.32)" fill="#E2112E" style="mix-blend-mode:normal;"/>
</g>
<g id="Vector" style="mix-blend-mode:normal;" figma:type="vector">
<use xlink:href="#path5_stroke" transform="translate(515 1610.72)" fill="#E2112E" style="mix-blend-mode:normal;"/>
</g>
<g id="Vector" style="mix-blend-mode:normal;" figma:type="vector">
<use xlink:href="#path6_stroke" transform="translate(515 1613.12)" fill="#E2112E" style="mix-blend-mode:normal;"/>
</g>
<g id="Vector" style="mix-blend-mode:normal;" figma:type="vector">
<use xlink:href="#path7_stroke" transform="translate(515 1615.53)" fill="#E2112E" style="mix-blend-mode:normal;"/>
</g>
<g id="Vector" style="mix-blend-mode:normal;" figma:type="vector">
<use xlink:href="#path8_stroke" transform="translate(515 1618.03)" fill="#E2112E" style="mix-blend-mode:normal;"/>
</g>
</g>
<g id="Group" style="mix-blend-mode:normal;" figma:type="frame">
<g id="Vector" style="mix-blend-mode:normal;" figma:type="vector">
<use xlink:href="#path0_stroke" transform="translate(523 1593.62)" fill="#E2112E" style="mix-blend-mode:normal;"/>
</g>
<g id="Vector" style="mix-blend-mode:normal;" figma:type="vector">
<use xlink:href="#path1_stroke" transform="translate(523 1596.03)" fill="#E2112E" style="mix-blend-mode:normal;"/>
</g>
<g id="Vector" style="mix-blend-mode:normal;" figma:type="vector">
<use xlink:href="#path2_stroke" transform="translate(523 1598.43)" fill="#E2112E" style="mix-blend-mode:normal;"/>
</g>
<g id="Vector" style="mix-blend-mode:normal;" figma:type="vector">
<use xlink:href="#path3_stroke" transform="translate(523 1600.93)" fill="#E2112E" style="mix-blend-mode:normal;"/>
</g>
<g id="Vector" style="mix-blend-mode:normal;" figma:type="vector">
<use xlink:href="#path4_stroke" transform="translate(523 1603.32)" fill="#E2112E" style="mix-blend-mode:normal;"/>
</g>
<g id="Vector" style="mix-blend-mode:normal;" figma:type="vector">
<use xlink:href="#path5_stroke" transform="translate(523 1605.72)" fill="#E2112E" style="mix-blend-mode:normal;"/>
</g>
<g id="Vector" style="mix-blend-mode:normal;" figma:type="vector">
<use xlink:href="#path6_stroke" transform="translate(523 1608.12)" fill="#E2112E" style="mix-blend-mode:normal;"/>
</g>
<g id="Vector" style="mix-blend-mode:normal;" figma:type="vector">
<use xlink:href="#path7_stroke" transform="translate(523 1610.53)" fill="#E2112E" style="mix-blend-mode:normal;"/>
</g>
<g id="Vector" style="mix-blend-mode:normal;" figma:type="vector">
<use xlink:href="#path8_stroke" transform="translate(523 1613.03)" fill="#E2112E" style="mix-blend-mode:normal;"/>
</g>
</g>
<g id="Group" style="mix-blend-mode:normal;" figma:type="frame">
<g id="Vector" style="mix-blend-mode:normal;" figma:type="vector">
<use xlink:href="#path9_stroke" transform="translate(530 1588.62)" fill="#E2112E" style="mix-blend-mode:normal;"/>
</g>
<g id="Vector" style="mix-blend-mode:normal;" figma:type="vector">
<use xlink:href="#path10_stroke" transform="translate(530 1591.03)" fill="#E2112E" style="mix-blend-mode:normal;"/>
</g>
<g id="Vector" style="mix-blend-mode:normal;" figma:type="vector">
<use xlink:href="#path2_stroke" transform="translate(530 1593.43)" fill="#E2112E" style="mix-blend-mode:normal;"/>
</g>
<g id="Vector" style="mix-blend-mode:normal;" figma:type="vector">
<use xlink:href="#path3_stroke" transform="translate(530 1595.93)" fill="#E2112E" style="mix-blend-mode:normal;"/>
</g>
<g id="Vector" style="mix-blend-mode:normal;" figma:type="vector">
<use xlink:href="#path4_stroke" transform="translate(530 1598.32)" fill="#E2112E" style="mix-blend-mode:normal;"/>
</g>
<g id="Vector" style="mix-blend-mode:normal;" figma:type="vector">
<use xlink:href="#path5_stroke" transform="translate(530 1600.72)" fill="#E2112E" style="mix-blend-mode:normal;"/>
</g>
<g id="Vector" style="mix-blend-mode:normal;" figma:type="vector">
<use xlink:href="#path6_stroke" transform="translate(530 1603.12)" fill="#E2112E" style="mix-blend-mode:normal;"/>
</g>
<g id="Vector" style="mix-blend-mode:normal;" figma:type="vector">
<use xlink:href="#path7_stroke" transform="translate(530 1605.53)" fill="#E2112E" style="mix-blend-mode:normal;"/>
</g>
<g id="Vector" style="mix-blend-mode:normal;" figma:type="vector">
<use xlink:href="#path8_stroke" transform="translate(530 1608.03)" fill="#E2112E" style="mix-blend-mode:normal;"/>
</g>
</g>
<g id="Group" style="mix-blend-mode:normal;" figma:type="frame">
<g id="Vector" style="mix-blend-mode:normal;" figma:type="vector">
<use xlink:href="#path11_stroke" transform="translate(503.5 1564.12)" fill="#E2112E" style="mix-blend-mode:normal;"/>
</g>
<g id="Vector" style="mix-blend-mode:normal;" figma:type="vector">
<use xlink:href="#path12_stroke" transform="translate(505.6 1565.43)" fill="#E2112E" style="mix-blend-mode:normal;"/>
</g>
<g id="Vector" style="mix-blend-mode:normal;" figma:type="vector">
<use xlink:href="#path13_stroke" transform="translate(507.8 1566.62)" fill="#E2112E" style="mix-blend-mode:normal;"/>
</g>
<g id="Vector" style="mix-blend-mode:normal;" figma:type="vector">
<use xlink:href="#path14_stroke" transform="translate(509.9 1567.93)" fill="#E2112E" style="mix-blend-mode:normal;"/>
</g>
<g id="Vector" style="mix-blend-mode:normal;" figma:type="vector">
<use xlink:href="#path15_stroke" transform="translate(512 1569.12)" fill="#E2112E" style="mix-blend-mode:normal;"/>
</g>
<g id="Vector" style="mix-blend-mode:normal;" figma:type="vector">
<use xlink:href="#path16_stroke" transform="translate(514.1 1570.32)" fill="#E2112E" style="mix-blend-mode:normal;"/>
</g>
<g id="Vector" style="mix-blend-mode:normal;" figma:type="vector">
<use xlink:href="#path17_stroke" transform="translate(516.3 1571.62)" fill="#E2112E" style="mix-blend-mode:normal;"/>
</g>
<g id="Vector" style="mix-blend-mode:normal;" figma:type="vector">
<use xlink:href="#path18_stroke" transform="translate(518.4 1572.93)" fill="#E2112E" style="mix-blend-mode:normal;"/>
</g>
<g id="Vector" style="mix-blend-mode:normal;" figma:type="vector">
<use xlink:href="#path19_stroke" transform="translate(520.5 1574.12)" fill="#E2112E" style="mix-blend-mode:normal;"/>
</g>
</g>
<g id="Group" style="mix-blend-mode:normal;" figma:type="frame">
<g id="Vector" style="mix-blend-mode:normal;" figma:type="vector">
<use xlink:href="#path20_stroke" transform="translate(488.5 1575.62)" fill="#E2112E" style="mix-blend-mode:normal;"/>
</g>
<g id="Vector" style="mix-blend-mode:normal;" figma:type="vector">
<use xlink:href="#path21_stroke" transform="translate(491.2 1576.93)" fill="#E2112E" style="mix-blend-mode:normal;"/>
</g>
<g id="Vector" style="mix-blend-mode:normal;" figma:type="vector">
<use xlink:href="#path22_stroke" transform="translate(493.8 1578.32)" fill="#E2112E" style="mix-blend-mode:normal;"/>
</g>
<g id="Vector" style="mix-blend-mode:normal;" figma:type="vector">
<use xlink:href="#path23_stroke" transform="translate(496.5 1579.62)" fill="#E2112E" style="mix-blend-mode:normal;"/>
</g>
<g id="Vector" style="mix-blend-mode:normal;" figma:type="vector">
<use xlink:href="#path24_stroke" transform="translate(499.2 1580.93)" fill="#E2112E" style="mix-blend-mode:normal;"/>
</g>
<g id="Vector" style="mix-blend-mode:normal;" figma:type="vector">
<use xlink:href="#path25_stroke" transform="translate(501.8 1582.32)" fill="#E2112E" style="mix-blend-mode:normal;"/>
</g>
<g id="Vector" style="mix-blend-mode:normal;" figma:type="vector">
<use xlink:href="#path26_stroke" transform="translate(504.5 1583.62)" fill="#E2112E" style="mix-blend-mode:normal;"/>
</g>
<g id="Vector" style="mix-blend-mode:normal;" figma:type="vector">
<use xlink:href="#path27_stroke" transform="translate(507.2 1584.93)" fill="#E2112E" style="mix-blend-mode:normal;"/>
</g>
<g id="Vector" style="mix-blend-mode:normal;" figma:type="vector">
<use xlink:href="#path28_stroke" transform="translate(509.8 1586.32)" fill="#E2112E" style="mix-blend-mode:normal;"/>
</g>
<g id="Vector" style="mix-blend-mode:normal;" figma:type="vector">
<use xlink:href="#path29_stroke" transform="translate(512.5 1587.62)" fill="#E2112E" style="mix-blend-mode:normal;"/>
</g>
</g>
<g id="Group" style="mix-blend-mode:normal;" figma:type="frame">
<g id="Vector" style="mix-blend-mode:normal;" figma:type="vector">
<use xlink:href="#path30_fill" transform="translate(476.2 1560.07)" fill="#E2112E" style="mix-blend-mode:normal;"/>
</g>
<g id="Vector" style="mix-blend-mode:normal;" figma:type="vector">
<use xlink:href="#path31_fill" transform="translate(495.1 1590.17)" fill="#E2112E" style="mix-blend-mode:normal;"/>
</g>
<g id="Vector" style="mix-blend-mode:normal;" figma:type="vector">
<use xlink:href="#path32_fill" transform="translate(495 1599.47)" fill="#E2112E" style="mix-blend-mode:normal;"/>
</g>
</g>
</g>
</g>
<defs>
<path id="path0_stroke" d="M 0.438947 -0.239426C 0.306715 -0.48185 0.00299698 -0.571179 -0.239427 -0.438948C -0.481851 -0.306716 -0.57118 -0.00299774 -0.438948 0.239426L 0.438947 -0.239426ZM 2.5 1.6C 2.77614 1.6 3 1.37614 3 1.1C 3 0.823856 2.77614 0.599998 2.5 0.599998L 2.5 1.6ZM -7.62939e-07 0C -0.438948 0.239426 -0.43879 0.239716 -0.43863 0.24001C -0.438573 0.240114 -0.438409 0.240412 -0.438295 0.24062C -0.438172 0.240844 -0.437829 0.241468 -0.437581 0.241917C -0.437295 0.242434 -0.436544 0.243787 -0.435967 0.244821C -0.435238 0.246124 -0.433475 0.249245 -0.43199 0.251841C -0.429891 0.255496 -0.425302 0.263348 -0.420971 0.270555C -0.414137 0.281861 -0.400522 0.303589 -0.386118 0.325238C -0.361311 0.362203 -0.314901 0.426389 -0.260674 0.491967C -0.161768 0.610042 0.0189558 0.792643 0.248126 0.957753C 0.720154 1.29274 1.44627 1.6 2.5 1.6L 2.5 0.599998C 1.65373 0.599998 1.12984 0.357258 0.826873 0.142245C 0.668543 0.0323557 0.580517 -0.0600424 0.507547 -0.148218C 0.475837 -0.185765 0.460529 -0.207515 0.445101 -0.230707C 0.439388 -0.239136 0.438256 -0.24104 0.435374 -0.245848C 0.434846 -0.246697 0.43526 -0.246038 0.435547 -0.24553C 0.435255 -0.246046 0.436988 -0.242981 0.43685 -0.243227C 0.436568 -0.243732 0.437938 -0.241266 0.4378 -0.241517C 0.437626 -0.241833 0.438435 -0.240362 0.438349 -0.240519C 0.438444 -0.240345 0.438594 -0.240072 0.438642 -0.239985C 0.438793 -0.239708 0.438947 -0.239426 -7.62939e-07 0Z"/>
<path id="path1_stroke" d="M 0.397774 -0.216967C 0.277945 -0.436651 0.0027158 -0.517601 -0.216969 -0.397773C -0.436654 -0.277945 -0.517603 -0.00271503 -0.397775 0.21697L 0.397774 -0.216967ZM 2.5 1.5531C 2.75024 1.5531 2.9531 1.35024 2.9531 1.1C 2.9531 0.84976 2.75024 0.6469 2.5 0.6469L 2.5 1.5531ZM -7.62939e-07 1.52588e-06C -0.397775 0.21697 -0.397632 0.217233 -0.397485 0.2175C -0.397434 0.217595 -0.397285 0.217866 -0.397181 0.218056C -0.397067 0.218262 -0.396754 0.218833 -0.396526 0.219246C -0.39626 0.219727 -0.395569 0.220972 -0.395032 0.221933C -0.394343 0.223163 -0.392704 0.226066 -0.391303 0.228516C -0.389289 0.232023 -0.384961 0.239428 -0.380809 0.246337C -0.37416 0.257338 -0.361131 0.278137 -0.347134 0.299166C -0.322767 0.335484 -0.277816 0.397681 -0.224644 0.461944C -0.126955 0.578616 0.0494214 0.756987 0.275269 0.919507C 0.739368 1.24887 1.456 1.5531 2.5 1.5531L 2.5 0.6469C 1.644 0.6469 1.11063 0.401133 0.799729 0.180494C 0.638077 0.0680148 0.545704 -0.0286139 0.471518 -0.118192C 0.438752 -0.157053 0.421984 -0.180794 0.406117 -0.204632C 0.399996 -0.213681 0.398279 -0.216515 0.395212 -0.221627C 0.394505 -0.222775 0.394487 -0.222858 0.39486 -0.222202C 0.394651 -0.222572 0.396012 -0.220163 0.395915 -0.220336C 0.395673 -0.220769 0.396863 -0.218628 0.396744 -0.218842C 0.39659 -0.219122 0.397311 -0.217813 0.397234 -0.217952C 0.39732 -0.217796 0.397455 -0.21755 0.397498 -0.217472C 0.397635 -0.217221 0.397774 -0.216967 -7.62939e-07 1.52588e-06Z"/>
<path id="path2_stroke" d="M 0.356644 -0.194534C 0.249207 -0.391504 0.00243559 -0.464084 -0.194534 -0.356646C -0.391504 -0.249208 -0.464084 -0.00243711 -0.356646 0.194533L 0.356644 -0.194534ZM 2.5 1.50625C 2.72436 1.50625 2.90625 1.32437 2.90625 1.1C 2.90625 0.875636 2.72436 0.693752 2.5 0.693752L 2.5 1.50625ZM -7.62939e-07 -7.62939e-07C -0.356646 0.194533 -0.356517 0.194769 -0.356386 0.195009C -0.356339 0.195095 -0.356204 0.19534 -0.35611 0.195512C -0.356007 0.1957 -0.355723 0.196217 -0.355514 0.196594C -0.355268 0.197039 -0.354638 0.198176 -0.354141 0.199065C -0.353493 0.200223 -0.351977 0.202907 -0.350659 0.205212C -0.34873 0.208571 -0.344663 0.21553 -0.340689 0.222141C -0.334225 0.232838 -0.321781 0.252707 -0.308191 0.273117C -0.284264 0.308791 -0.24077 0.368999 -0.188653 0.431949C -0.0921796 0.547221 0.0798541 0.721366 0.302383 0.8813C 0.758562 1.20504 1.46572 1.50625 2.5 1.50625L 2.5 0.693752C 1.63428 0.693752 1.09144 0.444961 0.772616 0.218701C 0.607644 0.103634 0.510928 0.00277868 0.435527 -0.0882C 0.401706 -0.128375 0.383482 -0.154104 0.367174 -0.178587C 0.360647 -0.188256 0.358345 -0.192019 0.355092 -0.197435C 0.354207 -0.198881 0.353759 -0.199705 0.354216 -0.198902C 0.354091 -0.199126 0.35508 -0.197372 0.355024 -0.197472C 0.354822 -0.197833 0.355832 -0.196016 0.355733 -0.196195C 0.355598 -0.196439 0.356231 -0.195291 0.356164 -0.195413C 0.35624 -0.195275 0.35636 -0.195055 0.356398 -0.194986C 0.35652 -0.194762 0.356644 -0.194534 -7.62939e-07 -7.62939e-07Z"/>
<path id="path3_stroke" d="M 0.315515 -0.1721C 0.220467 -0.346355 0.00215462 -0.410564 -0.1721 -0.315517C -0.346355 -0.220469 -0.410564 -0.00215615 -0.315517 0.172098L 0.315515 -0.1721ZM 2.5 1.4594C 2.69849 1.4594 2.8594 1.29849 2.8594 1.1C 2.8594 0.90151 2.69849 0.740602 2.5 0.740602L 2.5 1.4594ZM -7.62939e-07 -7.62939e-07C -0.315517 0.172098 -0.315402 0.172308 -0.315285 0.172522C -0.315243 0.172598 -0.315124 0.172817 -0.315039 0.17297C -0.314946 0.173141 -0.314691 0.173604 -0.314503 0.173945C -0.314277 0.174354 -0.313706 0.175383 -0.313249 0.1762C -0.312642 0.177285 -0.31125 0.179751 -0.310015 0.18191C -0.30817 0.185122 -0.304365 0.191634 -0.30057 0.197948C -0.294291 0.20834 -0.282431 0.227281 -0.269249 0.247071C -0.245761 0.282099 -0.203724 0.34032 -0.152662 0.401957C -0.0574035 0.515828 0.110287 0.685747 0.329497 0.843093C 0.777756 1.16121 1.47544 1.4594 2.5 1.4594L 2.5 0.740602C 1.62456 0.740602 1.07224 0.488789 0.745501 0.256907C 0.577211 0.139253 0.476152 0.0341721 0.399536 -0.0582074C 0.36466 -0.0996958 0.344978 -0.127413 0.328232 -0.152541C 0.321297 -0.162829 0.31841 -0.167521 0.314972 -0.173242C 0.31391 -0.174985 0.31303 -0.176551 0.313572 -0.1756C 0.31353 -0.175678 0.314148 -0.17458 0.314132 -0.174607C 0.313971 -0.174896 0.3148 -0.173404 0.314722 -0.173546C 0.314607 -0.173754 0.31515 -0.172768 0.315093 -0.172872C 0.315159 -0.172751 0.315265 -0.172558 0.315298 -0.172498C 0.315405 -0.172301 0.315515 -0.1721 -7.62939e-07 -7.62939e-07Z"/>
<path id="path4_stroke" d="M 0.274341 -0.149641C 0.191697 -0.301156 0.00187282 -0.356986 -0.149642 -0.274341C -0.301157 -0.191697 -0.356988 -0.00187282 -0.274343 0.149642L 0.274341 -0.149641ZM 2.5 1.4125C 2.67259 1.4125 2.8125 1.27259 2.8125 1.1C 2.8125 0.92741 2.67259 0.787499 2.5 0.787499L 2.5 1.4125ZM -7.62939e-07 7.62939e-07C -0.274343 0.149642 -0.274243 0.149825 -0.274141 0.150012C -0.274104 0.15008 -0.273999 0.150271 -0.273925 0.150407C -0.273841 0.15056 -0.273616 0.150969 -0.273447 0.151274C -0.273241 0.151647 -0.27273 0.152568 -0.272314 0.153313C -0.271747 0.154325 -0.270479 0.156572 -0.269327 0.158585C -0.267568 0.16165 -0.264024 0.167715 -0.260407 0.17373C -0.254313 0.183818 -0.243039 0.201829 -0.230264 0.220999C -0.207216 0.255381 -0.166638 0.311611 -0.116632 0.371933C -0.0225899 0.484402 0.140753 0.65009 0.356641 0.804846C 0.796971 1.11734 1.48517 1.4125 2.5 1.4125L 2.5 0.787499C 1.61483 0.787499 1.05303 0.532661 0.718358 0.295154C 0.546745 0.17491 0.441338 0.0655991 0.363506 -0.0281823C 0.327574 -0.0709851 0.306434 -0.100693 0.289247 -0.126467C 0.281905 -0.137374 0.278433 -0.142996 0.274809 -0.149022C 0.273568 -0.151063 0.273511 -0.151175 0.272884 -0.152272C 0.272842 -0.152341 0.273172 -0.151762 0.273197 -0.151717C 0.273076 -0.151933 0.273725 -0.150765 0.273666 -0.150872C 0.273571 -0.151045 0.274025 -0.150219 0.273978 -0.150305C 0.274034 -0.150203 0.274125 -0.150036 0.274153 -0.149985C 0.274246 -0.149815 0.274341 -0.149641 -7.62939e-07 7.62939e-07Z"/>
<path id="path5_stroke" d="M 0.233168 -0.127184C 0.162927 -0.25596 0.00159208 -0.303412 -0.127184 -0.233171C -0.255959 -0.162929 -0.303411 -0.00159437 -0.23317 0.127181L 0.233168 -0.127184ZM 2.5 1.3656C 2.64669 1.3656 2.7656 1.24669 2.7656 1.1C 2.7656 0.953314 2.64669 0.834401 2.5 0.834401L 2.5 1.3656ZM -7.62939e-07 -1.52588e-06C -0.23317 0.127181 -0.233085 0.127337 -0.232997 0.127497C -0.232965 0.127556 -0.232875 0.127721 -0.23281 0.127839C -0.232736 0.127974 -0.232541 0.128329 -0.232392 0.128599C -0.232206 0.128936 -0.231755 0.129748 -0.231379 0.130421C -0.230853 0.131361 -0.229708 0.133388 -0.22864 0.135256C -0.226965 0.138173 -0.223683 0.143791 -0.220244 0.149508C -0.214336 0.159291 -0.203648 0.176373 -0.19128 0.194923C -0.168672 0.228659 -0.129552 0.282899 -0.080603 0.341907C 0.012223 0.452973 0.171219 0.614431 0.383784 0.766598C 0.816185 1.07346 1.4949 1.3656 2.5 1.3656L 2.5 0.834401C 1.6051 0.834401 1.03381 0.576536 0.691215 0.333401C 0.51628 0.210567 0.406525 0.097025 0.327476 0.00184105C 0.290488 -0.0422766 0.26789 -0.0739744 0.250263 -0.100395C 0.242513 -0.111922 0.238456 -0.118474 0.234647 -0.124804C 0.233228 -0.127144 0.232909 -0.127702 0.232197 -0.128948C 0.232072 -0.129162 0.232196 -0.128947 0.232262 -0.128829C 0.232181 -0.128974 0.23265 -0.12813 0.232611 -0.128201C 0.232535 -0.128338 0.232901 -0.127674 0.232864 -0.127742C 0.23291 -0.127657 0.232986 -0.127518 0.23301 -0.127475C 0.233088 -0.127332 0.233168 -0.127184 -7.62939e-07 -1.52588e-06Z"/>
<path id="path6_stroke" d="M 0.192039 -0.104749C 0.134188 -0.21081 0.00131075 -0.249891 -0.10475 -0.19204C -0.21081 -0.134188 -0.249892 -0.00131151 -0.19204 0.104749L 0.192039 -0.104749ZM 2.5 1.31875C 2.62081 1.31875 2.71875 1.22081 2.71875 1.1C 2.71875 0.979186 2.62081 0.881248 2.5 0.881248L 2.5 1.31875ZM -7.62939e-07 0C -0.19204 0.104749 -0.19197 0.104878 -0.191897 0.105011C -0.19187 0.105062 -0.191794 0.105199 -0.191739 0.105299C -0.191675 0.105416 -0.191509 0.105718 -0.19138 0.105952C -0.191214 0.106253 -0.190823 0.106957 -0.190487 0.107558C -0.190002 0.108425 -0.188981 0.110234 -0.187995 0.111956C -0.186406 0.114725 -0.183385 0.119898 -0.180124 0.125317C -0.174401 0.134795 -0.164298 0.150948 -0.152338 0.168879C -0.130169 0.201969 -0.092506 0.254221 -0.0446116 0.311915C 0.0469994 0.421581 0.201652 0.578812 0.410898 0.728392C 0.835379 1.02964 1.50462 1.31875 2.5 1.31875L 2.5 0.881248C 1.59538 0.881248 1.01462 0.620362 0.6641 0.371607C 0.485846 0.246187 0.371749 0.128419 0.291485 0.0318343C 0.253442 -0.0135964 0.229386 -0.0472822 0.21132 -0.0743476C 0.203163 -0.0864947 0.198521 -0.0939745 0.194527 -0.10061C 0.192929 -0.103247 0.192349 -0.104252 0.191552 -0.105645C 0.191344 -0.106004 0.191264 -0.106153 0.19137 -0.105963C 0.19133 -0.106035 0.191618 -0.105516 0.191599 -0.105551C 0.191543 -0.105652 0.19182 -0.105149 0.191793 -0.105199C 0.191829 -0.105132 0.191891 -0.10502 0.191909 -0.104986C 0.191973 -0.10487 0.192039 -0.104749 -7.62939e-07 0Z"/>
<path id="path7_stroke" d="M 0.150909 -0.0823133C 0.105448 -0.165659 0.00102986 -0.19637 -0.0823155 -0.150909C -0.165661 -0.105447 -0.196372 -0.0010291 -0.150911 0.0823163L 0.150909 -0.0823133ZM 2.5 1.2719C 2.59494 1.2719 2.6719 1.19494 2.6719 1.1C 2.6719 1.00506 2.59494 0.9281 2.5 0.9281L 2.5 1.2719ZM -7.62939e-07 1.52588e-06C -0.150911 0.0823163 -0.150855 0.0824187 -0.150797 0.0825252C -0.150774 0.0825664 -0.150714 0.0826773 -0.150668 0.0827596C -0.150614 0.0828587 -0.150478 0.0831061 -0.150369 0.0833042C -0.150222 0.0835693 -0.149891 0.0841653 -0.149596 0.0846942C -0.149151 0.085489 -0.148253 0.0870797 -0.147351 0.0886553C -0.145847 0.0912775 -0.143087 0.0960035 -0.140004 0.101125C -0.134467 0.110298 -0.124948 0.125523 -0.113395 0.142834C -0.0916657 0.17528 -0.0554599 0.225543 -0.00862042 0.281924C 0.0817754 0.390189 0.232085 0.543194 0.438013 0.690187C 0.854573 0.98581 1.51434 1.2719 2.5 1.2719L 2.5 0.9281C 1.58566 0.9281 0.995425 0.664191 0.636986 0.409815C 0.455413 0.281808 0.336973 0.159814 0.255494 0.0618285C 0.216396 0.0150845 0.190883 -0.0205894 0.172378 -0.0483C 0.163813 -0.0610664 0.158586 -0.0694751 0.154407 -0.0764147C 0.152632 -0.0793501 0.15179 -0.0808009 0.150908 -0.0823412C 0.150617 -0.0828469 0.150332 -0.0833593 0.150479 -0.0830966C 0.150479 -0.0830968 0.150587 -0.0829017 0.150587 -0.0829004C 0.150552 -0.0829653 0.15074 -0.0826239 0.150722 -0.0826561C 0.150749 -0.0826072 0.150796 -0.0825214 0.150809 -0.082497C 0.150858 -0.0824073 0.150909 -0.0823133 -7.62939e-07 1.52588e-06Z"/>
<path id="path8_stroke" d="M 0.109736 -0.0598551C 0.0766783 -0.120461 0.000748674 -0.142793 -0.0598573 -0.109735C -0.120463 -0.0766775 -0.142796 -0.000747911 -0.109738 0.0598581L 0.109736 -0.0598551ZM 2.5 1.225C 2.56903 1.225 2.625 1.16904 2.625 1.1C 2.625 1.03096 2.56903 0.975 2.5 0.975L 2.5 1.225ZM -7.62939e-07 1.52588e-06C -0.109738 0.0598581 -0.109696 0.0599337 -0.109653 0.0600135C -0.109635 0.0600457 -0.109589 0.0601298 -0.109554 0.0601942C -0.109509 0.0602754 -0.109403 0.0604689 -0.109313 0.0606311C -0.109187 0.0608603 -0.108916 0.061348 -0.108661 0.0618048C -0.108257 0.0625269 -0.107482 0.0638989 -0.106664 0.0653285C -0.105244 0.0678032 -0.102746 0.0720824 -0.0998418 0.0769054C -0.0944894 0.0857743 -0.0855559 0.100069 -0.0744109 0.11676C -0.0531214 0.14856 -0.0183743 0.196833 0.0274091 0.251899C 0.116589 0.358762 0.262551 0.507537 0.465156 0.651939C 0.873788 0.941936 1.52407 1.225 2.5 1.225L 2.5 0.975C 1.57593 0.975 0.976211 0.708065 0.609843 0.448062C 0.424948 0.317465 0.30216 0.191241 0.219464 0.0918532C 0.17931 0.0437946 0.152339 0.00613041 0.133394 -0.0222261C 0.124422 -0.0356126 0.118609 -0.044951 0.114245 -0.0521954C 0.112291 -0.0554289 0.111187 -0.0573265 0.110221 -0.0590144C 0.109846 -0.0596661 0.109731 -0.0598719 0.109543 -0.0602072C 0.109503 -0.0602792 0.109511 -0.0602647 0.109532 -0.0602274C 0.109516 -0.0602564 0.109615 -0.0600763 0.109607 -0.0600907C 0.109624 -0.0600597 0.109657 -0.0600007 0.109665 -0.0599853C 0.109699 -0.0599223 0.109736 -0.0598551 -7.62939e-07 1.52588e-06Z"/>
<path id="path9_stroke" d="M 0.438947 -0.239426C 0.306716 -0.48185 0.00299739 -0.571179 -0.239427 -0.438948C -0.481851 -0.306716 -0.57118 -0.00299816 -0.438949 0.239426L 0.438947 -0.239426ZM 2.5 1.6C 2.77614 1.6 3 1.37614 3 1.1C 3 0.823858 2.77614 0.6 2.5 0.6L 2.5 1.6ZM -7.62939e-07 0C -0.438949 0.239426 -0.43879 0.239716 -0.43863 0.24001C -0.438573 0.240113 -0.438409 0.240412 -0.438296 0.24062C -0.438172 0.240844 -0.437829 0.241468 -0.437581 0.241917C -0.437295 0.242434 -0.436544 0.243787 -0.435967 0.244821C -0.435238 0.246123 -0.433475 0.249244 -0.43199 0.251841C -0.429891 0.255496 -0.425302 0.263347 -0.420972 0.270555C -0.414137 0.28186 -0.400523 0.303589 -0.386118 0.325238C -0.361312 0.362202 -0.314901 0.426389 -0.260674 0.491967C -0.161769 0.610042 0.0189555 0.792644 0.248126 0.957754C 0.720154 1.29274 1.44627 1.6 2.5 1.6L 2.5 0.6C 1.65373 0.6 1.12984 0.357259 0.826873 0.142247C 0.668543 0.0323567 0.580517 -0.0600416 0.507547 -0.148217C 0.475837 -0.185764 0.460529 -0.207515 0.445101 -0.230707C 0.439388 -0.239136 0.438257 -0.24104 0.435374 -0.245848C 0.434846 -0.246697 0.43526 -0.246038 0.435547 -0.24553C 0.435256 -0.246045 0.436988 -0.242981 0.43685 -0.243226C 0.436568 -0.243731 0.437939 -0.241266 0.4378 -0.241516C 0.437626 -0.241832 0.438436 -0.240362 0.438349 -0.240519C 0.438444 -0.240345 0.438594 -0.240072 0.438642 -0.239985C 0.438793 -0.239707 0.438947 -0.239426 -7.62939e-07 0Z"/>
<path id="path10_stroke" d="M 0.397774 -0.216968C 0.277946 -0.436653 0.00271617 -0.517603 -0.216969 -0.397775C -0.436653 -0.277947 -0.517603 -0.00271732 -0.397775 0.216967L 0.397774 -0.216968ZM 2.5 1.5531C 2.75024 1.5531 2.9531 1.35024 2.9531 1.1C 2.9531 0.84976 2.75024 0.6469 2.5 0.6469L 2.5 1.5531ZM -7.62939e-07 -3.8147e-07C -0.397775 0.216967 -0.397632 0.21723 -0.397486 0.217498C -0.397434 0.217592 -0.397285 0.217864 -0.397181 0.218054C -0.397067 0.21826 -0.396754 0.21883 -0.396526 0.219244C -0.39626 0.219725 -0.395569 0.220969 -0.395032 0.221931C -0.394344 0.223161 -0.392705 0.226063 -0.391303 0.228514C -0.389289 0.232021 -0.384961 0.239426 -0.380809 0.246335C -0.37416 0.257336 -0.361131 0.278135 -0.347134 0.299164C -0.322767 0.335482 -0.277816 0.397679 -0.224644 0.461942C -0.126955 0.578615 0.0494212 0.756986 0.275269 0.919506C 0.739368 1.24887 1.456 1.5531 2.5 1.5531L 2.5 0.6469C 1.644 0.6469 1.11063 0.401133 0.79973 0.180494C 0.638077 0.0680138 0.545704 -0.0286151 0.471518 -0.118193C 0.438752 -0.157055 0.421985 -0.180796 0.406117 -0.204633C 0.399996 -0.213682 0.398279 -0.216516 0.395212 -0.221629C 0.394505 -0.222776 0.394487 -0.222859 0.39486 -0.222204C 0.394651 -0.222573 0.396012 -0.220165 0.395915 -0.220337C 0.395674 -0.22077 0.396863 -0.218629 0.396745 -0.218844C 0.39659 -0.219124 0.397311 -0.217814 0.397234 -0.217954C 0.39732 -0.217798 0.397455 -0.217551 0.397498 -0.217473C 0.397635 -0.217223 0.397774 -0.216968 -7.62939e-07 -3.8147e-07Z"/>
<path id="path11_stroke" d="M -0.242822 4.56292C -0.484214 4.69703 -0.571186 5.00143 -0.437079 5.24282C -0.302973 5.48421 0.00142884 5.57119 0.242821 5.43708L -0.242822 4.56292ZM 9.24282 0.437079C 9.48421 0.302972 9.57118 -0.0014296 9.43708 -0.242821C 9.30297 -0.484213 8.99857 -0.571185 8.75718 -0.437079L 9.24282 0.437079ZM 0.242821 5.43708L 9.24282 0.437079L 8.75718 -0.437079L -0.242822 4.56292L 0.242821 5.43708Z"/>
<path id="path12_stroke" d="M -0.216658 4.50206C -0.436436 4.62171 -0.517601 4.89688 -0.397944 5.11666C -0.278287 5.33644 -0.00312046 5.4176 0.216658 5.29794L -0.216658 4.50206ZM 9.21666 0.397944C 9.43644 0.278287 9.5176 0.00312027 9.39795 -0.216658C 9.27829 -0.436436 9.00312 -0.5176 8.78334 -0.397943L 9.21666 0.397944ZM 0.216658 5.29794L 9.21666 0.397944L 8.78334 -0.397943L -0.216658 4.50206L 0.216658 5.29794Z"/>
<path id="path13_stroke" d="M -0.197292 4.64487C -0.393423 4.75384 -0.464088 5.00116 -0.355126 5.19729C -0.246164 5.39342 0.00116198 5.46409 0.197293 5.35513L -0.197292 4.64487ZM 9.19729 0.355126C 9.39342 0.246165 9.46409 -0.0011616 9.35512 -0.197292C 9.24616 -0.393423 8.99884 -0.464088 8.80271 -0.355126L 9.19729 0.355126ZM 0.197293 5.35513L 9.19729 0.355126L 8.80271 -0.355126L -0.197292 4.64487L 0.197293 5.35513Z"/>
<path id="path14_stroke" d="M -0.174539 4.68583C -0.348052 4.78222 -0.410567 5.00103 -0.314171 5.17454C -0.217776 5.34805 0.00102835 5.41057 0.174541 5.31417L -0.174539 4.68583ZM 9.17454 0.314172C 9.34805 0.217777 9.41057 -0.00102739 9.31417 -0.17454C 9.21778 -0.348052 8.99897 -0.410568 8.82546 -0.314172L 9.17454 0.314172ZM 0.174541 5.31417L 9.17454 0.314172L 8.82546 -0.314172L -0.174539 4.68583L 0.174541 5.31417Z"/>
<path id="path15_stroke" d="M -0.151764 4.72683C -0.302634 4.81064 -0.356992 5.00089 -0.273175 5.15176C -0.189358 5.30263 0.00089274 5.35699 0.151763 5.27317L -0.151764 4.72683ZM 9.15176 0.273174C 9.30263 0.189358 9.35699 -0.000893503 9.27317 -0.151763C 9.18936 -0.302633 8.99911 -0.356991 8.84824 -0.273174L 9.15176 0.273174ZM 0.151763 5.27317L 9.15176 0.273174L 8.84824 -0.273174L -0.151764 4.72683L 0.151763 5.27317Z"/>
<path id="path16_stroke" d="M -0.128985 4.76782C -0.257213 4.83906 -0.303412 5.00076 -0.232175 5.12899C -0.160937 5.25721 0.000760928 5.30341 0.128988 5.23218L -0.128985 4.76782ZM 9.12899 0.232176C 9.25722 0.160939 9.30342 -0.000759593 9.23218 -0.128987C 9.16094 -0.257214 8.99924 -0.303414 8.87102 -0.232176L 9.12899 0.232176ZM 0.128988 5.23218L 9.12899 0.232176L 8.87102 -0.232176L -0.128985 4.76782L 0.128988 5.23218Z"/>
<path id="path17_stroke" d="M -0.106236 4.80878C -0.211845 4.86745 -0.249895 5.00063 -0.191223 5.10623C -0.132552 5.21184 0.000623928 5.24989 0.106233 5.19122L -0.106236 4.80878ZM 9.10623 0.191222C 9.21184 0.13255 9.24989 -0.000625454 9.19122 -0.106234C 9.13255 -0.211843 8.99937 -0.249894 8.89376 -0.191222L 9.10623 0.191222ZM 0.106233 5.19122L 9.10623 0.191222L 8.89376 -0.191222L -0.106236 4.80878L 0.106233 5.19122Z"/>
<path id="path18_stroke" d="M -0.0834812 4.84973C -0.166472 4.89584 -0.196373 5.00049 -0.150267 5.08348C -0.104161 5.16647 0.000492238 5.19637 0.0834828 5.15027L -0.0834812 4.84973ZM 9.08348 0.150268C 9.16647 0.104162 9.19637 -0.000491285 9.15027 -0.0834818C 9.10416 -0.166472 8.99951 -0.196373 8.91652 -0.150267L 9.08348 0.150268ZM 0.0834828 5.15027L 9.08348 0.150268L 8.91652 -0.150267L -0.0834812 4.84973L 0.0834828 5.15027Z"/>
<path id="path19_stroke" d="M -0.0607061 4.89073C -0.121054 4.92426 -0.142797 5.00036 -0.10927 5.06071C -0.0757438 5.12105 0.000356638 5.1428 0.0607046 5.10927L -0.0607061 4.89073ZM 9.0607 0.10927C 9.12105 0.075743 9.1428 -0.000357401 9.10927 -0.0607054C 9.07574 -0.121053 8.99964 -0.142796 8.93929 -0.10927L 9.0607 0.10927ZM 0.0607046 5.10927L 9.0607 0.10927L 8.93929 -0.10927L -0.0607061 4.89073L 0.0607046 5.10927Z"/>
<path id="path20_stroke" d="M -0.321596 5.91715C -0.533039 6.09476 -0.560465 6.41015 -0.382852 6.6216C -0.20524 6.83304 0.110153 6.86046 0.321596 6.68285L -0.321596 5.91715ZM 7.8216 0.382852C 8.03304 0.20524 8.06046 -0.110152 7.88285 -0.321596C 7.70524 -0.53304 7.38985 -0.560465 7.1784 -0.382852L 7.8216 0.382852ZM 0.321596 6.68285L 7.8216 0.382852L 7.1784 -0.382852L -0.321596 5.91715L 0.321596 6.68285Z"/>
<path id="path21_stroke" d="M -0.309503 6.16193C -0.496215 6.33286 -0.509006 6.62279 -0.338072 6.8095C -0.167139 6.99621 0.122791 7.00901 0.309503 6.83807L -0.309503 6.16193ZM 7.4095 0.338071C 7.59622 0.167138 7.60901 -0.122791 7.43807 -0.309503C 7.26714 -0.496216 6.97721 -0.509007 6.7905 -0.338073L 7.4095 0.338071ZM 0.309503 6.83807L 7.4095 0.338071L 6.7905 -0.338073L -0.309503 6.16193L 0.309503 6.83807Z"/>
<path id="path22_stroke" d="M -0.290252 6.40108C -0.455339 6.56139 -0.459218 6.82516 -0.298916 6.99025C -0.138614 7.15534 0.125166 7.15922 0.290252 6.99892L -0.290252 6.40108ZM 7.19025 0.298917C 7.35534 0.138615 7.35922 -0.125164 7.19892 -0.290251C 7.03861 -0.455338 6.77484 -0.459217 6.60975 -0.298916L 7.19025 0.298917ZM 0.290252 6.99892L 7.19025 0.298917L 6.60975 -0.298916L -0.290252 6.40108L 0.290252 6.99892Z"/>
<path id="path23_stroke" d="M -0.27296 6.64286C -0.414971 6.79362 -0.407887 7.03095 -0.257136 7.17296C -0.106385 7.31497 0.130946 7.30789 0.272958 7.15713L -0.27296 6.64286ZM 6.77296 0.257135C 6.91497 0.106384 6.90789 -0.130947 6.75713 -0.272959C 6.60638 -0.414971 6.36905 -0.407886 6.22704 -0.257135L 6.77296 0.257135ZM 0.272958 7.15713L 6.77296 0.257135L 6.22704 -0.257135L -0.27296 6.64286L 0.272958 7.15713Z"/>
<path id="path24_stroke" d="M -0.254341 6.98452C -0.373349 7.12499 -0.355952 7.33533 -0.215483 7.45434C -0.0750146 7.57335 0.135333 7.55595 0.254341 7.41548L -0.254341 6.98452ZM 6.35434 0.215482C 6.47335 0.0750139 6.45595 -0.135333 6.31548 -0.254342C 6.17501 -0.37335 5.96467 -0.355952 5.84566 -0.215484L 6.35434 0.215482ZM 0.254341 7.41548L 6.35434 0.215482L 5.84566 -0.215484L -0.254341 6.98452L 0.254341 7.41548Z"/>
<path id="path25_stroke" d="M -0.226828 7.11667C -0.328076 7.24195 -0.3086 7.42558 -0.183326 7.52683C -0.0580527 7.62808 0.12558 7.6086 0.226829 7.48333L -0.226828 7.11667ZM 6.12683 0.183328C 6.22808 0.0580539 6.2086 -0.125579 6.08333 -0.226827C 5.95805 -0.328076 5.77442 -0.3086 5.67317 -0.183326L 6.12683 0.183328ZM 0.226829 7.48333L 6.12683 0.183328L 5.67317 -0.183326L -0.226828 7.11667L 0.226829 7.48333Z"/>
<path id="path26_stroke" d="M -0.20253 7.45343C -0.283477 7.56529 -0.258422 7.72158 -0.146568 7.80253C -0.0347141 7.88348 0.121582 7.85842 0.202528 7.74657L -0.20253 7.45343ZM 5.70253 0.146567C 5.78347 0.0347134 5.75842 -0.121582 5.64657 -0.202529C 5.53471 -0.283476 5.37842 -0.258421 5.29747 -0.146567L 5.70253 0.146567ZM 0.202528 7.74657L 5.70253 0.146567L 5.29747 -0.146567L -0.20253 7.45343L 0.202528 7.74657Z"/>
<path id="path27_stroke" d="M -0.174383 7.68598C -0.237354 7.78229 -0.210328 7.91141 -0.114019 7.97438C -0.0177105 8.03735 0.111411 8.01033 0.174383 7.91402L -0.174383 7.68598ZM 5.27438 0.114019C 5.33735 0.0177098 5.31033 -0.111412 5.21402 -0.174383C 5.11771 -0.237355 4.98859 -0.210329 4.92562 -0.11402L 5.27438 0.114019ZM 0.174383 7.91402L 5.27438 0.114019L 4.92562 -0.11402L -0.174383 7.68598L 0.174383 7.91402Z"/>
<path id="path28_stroke" d="M -0.142113 7.91296C -0.190186 7.99144 -0.165531 8.09404 -0.0870448 8.14211C -0.00855883 8.19019 0.0940373 8.16553 0.14211 8.08704L -0.142113 7.91296ZM 5.04211 0.0870441C 5.09018 0.00855807 5.06553 -0.094038 4.98704 -0.142111C 4.90856 -0.190183 4.80596 -0.165529 4.75789 -0.0870426L 5.04211 0.0870441ZM 0.14211 8.08704L 5.04211 0.0870441L 4.75789 -0.0870426L -0.142113 7.91296L 0.14211 8.08704Z"/>
<path id="path29_stroke" d="M -0.109889 8.24042C -0.142793 8.30111 -0.120268 8.37698 -0.0595788 8.40989C 0.00111087 8.44279 0.0769836 8.42027 0.109888 8.35958L -0.109889 8.24042ZM 4.60989 0.059578C 4.64279 -0.00111164 4.62027 -0.0769843 4.55958 -0.109888C 4.49889 -0.142792 4.42301 -0.120268 4.39011 -0.059578L 4.60989 0.059578ZM 0.109888 8.35958L 4.60989 0.059578L 4.39011 -0.059578L -0.109889 8.24042L 0.109888 8.35958Z"/>
<path id="path30_fill" d="M 76.6 55.05C 76.6 54.95 76.6 54.95 76.6 55.05C 76.6 54.95 76.6 54.85 76.5 54.75L 76.5 54.65C 76.5 54.55 76.4 54.45 76.3 54.35C 76.2 54.25 76.2 54.25 76.1 54.15L 68.7 49.85L 60.2 44.95L 60.2 26.35L 68.9 21.35C 68.9 21.35 68.9 21.35 69 21.25C 69 21.25 69 21.25 69.1 21.15C 69.2 21.05 69.3 20.95 69.3 20.85C 69.4 20.75 69.4 20.65 69.4 20.55L 69.4 20.45L 69.4 20.35C 69.4 20.25 69.4 20.15 69.4 20.05C 69.4 19.95 69.3 19.85 69.3 19.75C 69.3 19.75 69.3 19.75 69.2 19.65C 69.1 19.55 69 19.45 68.9 19.45L 35.3 0.15C 35 -0.05 34.6 -0.05 34.3 0.15L 23.1 6.65C 23.1 6.65 23 6.65 23 6.75L 8 19.65C 7.8 19.85 7.6 20.15 7.7 20.55C 7.7 20.85 7.9 21.15 8.2 21.35L 15.2 25.35L 15 45.75L 0.5 54.15C 0.4 54.15 0.4 54.25 0.3 54.35C 0.2 54.45 0.2 54.55 0.1 54.65L 0.1 54.75C 0 54.75 0 54.85 0 55.05L 0 59.35C 0 59.75 0.2 60.05 0.5 60.25L 37.8 81.75L 37.9 81.75L 38 81.75C 38.1 81.75 38.2 81.85 38.3 81.85C 38.4 81.85 38.5 81.85 38.6 81.75L 38.7 81.75L 38.8 81.75L 76.1 60.25C 76.4 60.05 76.6 59.75 76.6 59.35L 76.6 55.05ZM 58.1 50.65C 58 50.75 57.5 51.15 56.6 51.15C 55.7 51.15 55.2 50.85 55.1 50.65L 55.1 46.45L 55.1 44.25L 55.1 44.15L 55.1 41.95L 55.1 29.25L 57 28.15L 58.2 27.45L 58.2 43.75L 58.2 44.75L 58.2 46.05L 58.2 50.65L 58.1 50.65ZM 50.6 41.75L 50.6 46.75L 50.6 49.05L 50.6 54.95C 50.5 55.15 49.9 55.35 49.1 55.35C 48.2 55.35 47.7 55.05 47.6 54.85L 47.6 54.75L 47.6 50.75L 47.6 48.45L 47.6 39.95L 47.6 37.65L 47.6 33.55L 50.7 31.75L 50.7 39.35L 50.7 41.75L 50.6 41.75ZM 42.5 53.75L 42.5 59.55C 42.4 59.65 41.9 60.05 41 60.05C 40.1 60.05 39.6 59.75 39.5 59.55L 39.5 55.55L 39.5 53.25L 39.5 38.25L 42.1 36.75L 42.5 36.45L 42.5 37.05L 42.5 51.45L 42.5 53.75ZM 32.1 38.25L 32.1 35.95L 32.1 35.15L 32.8 35.55L 34.8 36.75L 37.4 38.25L 37.4 54.45L 32 57.55L 32 38.25L 32.1 38.25ZM 44.5 38.15L 44.5 35.85L 44.5 35.35L 45.6 34.75L 45.6 36.55L 45.6 38.85L 45.6 49.75L 44.5 50.35L 44.5 38.15ZM 52.6 30.65L 53 30.35L 53 40.75L 52.6 40.45L 52.6 30.65ZM 59.9 24.15L 59.8 24.25L 58.7 24.85L 58.2 25.15L 56.8 25.95L 53.1 28.05L 52.5 28.45L 52.4 28.55L 50.7 29.55L 50.7 29.45L 50.7 29.55L 45.6 32.45L 44.3 33.15L 44.2 33.15L 42.5 34.15L 42 34.45L 40.6 35.25L 41 34.25L 41.1 33.95L 41.3 33.45L 42.1 31.55L 45.3 24.15L 46.4 21.55L 46.6 21.15L 57 15.15L 66.2 20.45L 59.9 24.15ZM 34.8 2.25L 55.2 14.05L 46 19.25L 44.3 18.25L 42.3 17.05L 33 11.85L 31 10.65L 25.5 7.55L 34.8 2.25ZM 10.4 20.25L 23.7 8.75L 29 11.85L 31 13.05L 40.2 18.35L 42.2 19.55L 44.7 20.95L 43.9 22.75L 42.8 25.35L 40.1 31.55L 39.5 32.95L 39.3 33.35L 38.7 34.75L 38 36.25L 37.4 35.85L 36.8 35.45L 34.8 34.25L 32.1 32.65L 30.1 31.45L 17.2 23.95L 15.2 22.75L 10.4 20.25ZM 17.1 26.45L 30.1 33.95L 30.1 37.05L 30.1 39.35L 30.1 57.45L 17 50.05L 17 46.95L 17 44.65L 17.1 26.45ZM 15 48.05L 15 50.55C 15 50.95 15.2 51.25 15.5 51.45L 30.6 60.05L 30.7 60.05L 30.8 60.05C 30.9 60.05 31 60.05 31.1 60.05C 31.2 60.05 31.4 60.05 31.5 59.95L 31.6 59.95L 37.5 56.55L 37.5 59.45C 37.5 60.85 39 61.85 41 61.85C 43 61.85 44.5 60.85 44.5 59.45L 44.5 52.45L 45.6 51.85L 45.6 54.85C 45.6 54.95 45.6 55.15 45.7 55.25C 46 56.45 47.4 57.25 49.2 57.25C 51.2 57.25 52.7 56.25 52.7 54.85C 52.7 54.75 52.7 54.75 52.7 54.75L 52.7 47.75L 52.7 45.45L 52.7 42.75L 53.1 43.05L 53.1 45.25L 53.1 47.55L 53.1 50.65C 53.1 52.05 54.6 53.05 56.6 53.05C 58.6 53.05 60.1 52.05 60.1 50.65L 60.1 47.15L 66.1 50.65L 38.3 66.75L 10.4 50.75L 15 48.05ZM 67.2 52.45L 67.2 54.35L 39.3 70.55L 39.3 68.55L 67.2 52.45ZM 9.4 54.45L 9.4 52.45L 37.3 68.55L 37.3 70.55L 9.4 54.45ZM 7.4 52.45L 7.4 55.05C 7.4 55.45 7.6 55.75 7.9 55.95L 37.7 73.15C 37.8 73.15 37.9 73.25 37.9 73.25C 38 73.25 38.1 73.25 38.2 73.25L 38.3 73.25C 38.4 73.25 38.4 73.25 38.5 73.25C 38.5 73.25 38.5 73.25 38.6 73.25C 38.7 73.25 38.7 73.25 38.8 73.15L 68.6 55.85C 68.9 55.65 69.1 55.35 69.1 54.95L 69.1 52.35L 73.5 54.95L 38.3 75.45L 3 55.05L 7.4 52.45ZM 2 58.75L 2 56.75L 37.3 77.15L 37.3 79.15L 2 58.75ZM 39.3 79.15L 39.3 77.15L 74.6 56.75L 74.6 58.75L 39.3 79.15Z"/>
<path id="path31_fill" d="M 5.6 10.25C 6.2 10.55 6.9 10.95 7.6 11.45C 7.7 11.55 7.8 11.55 7.9 11.65C 8.1 11.75 8.2 11.75 8.4 11.75C 8.6 11.75 8.7 11.75 8.9 11.65C 9.2 11.45 9.4 11.15 9.4 10.75L 9.4 10.35L 9.4 7.95L 9.4 5.35C 9.4 4.95 9.2 4.65 8.9 4.45L 1.5 0.150001C 1.2 -0.0499992 0.8 -0.0499992 0.5 0.150001C 0.2 0.350001 -3.8147e-07 0.65 -3.8147e-07 1.05L -3.8147e-07 6.35L -3.8147e-07 6.45C -3.8147e-07 6.95 0 7.05 5.6 10.25ZM 2 2.85L 7.4 6.05L 7.4 9.05C 5.3 7.85 2.9 6.45 2 5.85L 2 2.85Z"/>
<path id="path32_fill" d="M 0.0999996 6.55C 0.2 7.05 0.199999 7.05 8 11.65C 8.2 11.75 8.3 11.75 8.5 11.75C 8.7 11.75 8.8 11.75 9 11.65C 9.3 11.45 9.5 11.15 9.5 10.75L 9.5 5.45C 9.5 5.05 9.3 4.75 9 4.55L 6.1 2.85L 4.1 1.65L 1.5 0.15C 1.2 -0.05 0.799999 -0.05 0.499999 0.15C 0.199999 0.35 -7.62939e-07 0.650002 -7.62939e-07 1.05L -7.62939e-07 4.05L -7.62939e-07 6.35C 0.0999992 6.55 0.0999996 6.55 0.0999996 6.55ZM 2.1 2.95L 4.2 4.15L 7.6 6.15L 7.6 9.15C 5.5 7.95 3.1 6.55 2.2 5.95L 2.2 5.35L 2.2 2.95L 2.1 2.95Z"/>
</defs>
</svg>
