<svg width="158" height="53" viewBox="0 0 158 53" version="1.1" xmlns="http://www.w3.org/2000/svg" xmlns:xlink="http://www.w3.org/1999/xlink" xmlns:figma="http://www.figma.com/figma/ns">
<title>logo_footer</title>
<desc>Created using Figma</desc>
<g id="Canvas" transform="translate(-171 -5228)" figma:type="canvas">
<g id="logo_footer" style="mix-blend-mode:normal;" figma:type="frame">
<g id="Group" style="mix-blend-mode:normal;" figma:type="frame">
<g id="Vector" style="mix-blend-mode:normal;" figma:type="vector">
<use xlink:href="#path0_fill" transform="translate(171 5254)" fill="#DA2727" style="mix-blend-mode:normal;"/>
</g>
<g id="Vector" style="mix-blend-mode:normal;" figma:type="vector">
<use xlink:href="#path0_fill" transform="translate(308.118 5254)" fill="#DA2727" style="mix-blend-mode:normal;"/>
</g>
<g id="Vector" style="mix-blend-mode:normal;" figma:type="vector">
<use xlink:href="#path1_fill" transform="translate(191 5252.81)" fill="#DA2727" style="mix-blend-mode:normal;"/>
</g>
<g id="Vector" style="mix-blend-mode:normal;" figma:type="vector">
<use xlink:href="#path2_fill" transform="translate(193.775 5251.68)" fill="#DA2727" style="mix-blend-mode:normal;"/>
</g>
<g id="Vector" style="mix-blend-mode:normal;" figma:type="vector">
<use xlink:href="#path3_fill" transform="translate(196.549 5248.3)" fill="#DA2727" style="mix-blend-mode:normal;"/>
</g>
<g id="Vector" style="mix-blend-mode:normal;" figma:type="vector">
<use xlink:href="#path4_fill" transform="translate(199.324 5247.17)" fill="#DA2727" style="mix-blend-mode:normal;"/>
</g>
<g id="Vector" style="mix-blend-mode:normal;" figma:type="vector">
<use xlink:href="#path2_fill" transform="translate(202.099 5251.68)" fill="#DA2727" style="mix-blend-mode:normal;"/>
</g>
<g id="Vector" style="mix-blend-mode:normal;" figma:type="vector">
<use xlink:href="#path5_fill" transform="translate(204.873 5250.55)" fill="#DA2727" style="mix-blend-mode:normal;"/>
</g>
<g id="Vector" style="mix-blend-mode:normal;" figma:type="vector">
<use xlink:href="#path6_fill" transform="translate(207.648 5249.43)" fill="#DA2727" style="mix-blend-mode:normal;"/>
</g>
<g id="Vector" style="mix-blend-mode:normal;" figma:type="vector">
<use xlink:href="#path4_fill" transform="translate(210.423 5247.17)" fill="#DA2727" style="mix-blend-mode:normal;"/>
</g>
<g id="Vector" style="mix-blend-mode:normal;" figma:type="vector">
<use xlink:href="#path7_fill" transform="matrix(-1 0 0 1 242.331 5243.79)" fill="#DA2727" style="mix-blend-mode:normal;"/>
</g>
<g id="Vector" style="mix-blend-mode:normal;" figma:type="vector">
<use xlink:href="#path8_fill" transform="matrix(-1 0 0 1 239.557 5244.92)" fill="#DA2727" style="mix-blend-mode:normal;"/>
</g>
<g id="Vector" style="mix-blend-mode:normal;" figma:type="vector">
<use xlink:href="#path9_fill" transform="matrix(-1 0 0 1 231 5236)" fill="#DA2727" style="mix-blend-mode:normal;"/>
</g>
<g id="Vector" style="mix-blend-mode:normal;" figma:type="vector">
<use xlink:href="#path10_fill" transform="matrix(-1 0 0 1 228.458 5242.66)" fill="#DA2727" style="mix-blend-mode:normal;"/>
</g>
<g id="Vector" style="mix-blend-mode:normal;" figma:type="vector">
<use xlink:href="#path11_fill" transform="translate(213.197 5239.28)" fill="#DA2727" style="mix-blend-mode:normal;"/>
</g>
<g id="Vector" style="mix-blend-mode:normal;" figma:type="vector">
<use xlink:href="#path10_fill" transform="translate(215.972 5242.66)" fill="#DA2727" style="mix-blend-mode:normal;"/>
</g>
<g id="Vector" style="mix-blend-mode:normal;" figma:type="vector">
<use xlink:href="#path12_fill" transform="translate(218.747 5235.89)" fill="#DA2727" style="mix-blend-mode:normal;"/>
</g>
<g id="Vector" style="mix-blend-mode:normal;" figma:type="vector">
<use xlink:href="#path13_fill" transform="translate(221.521 5229.13)" fill="#DA2727" style="mix-blend-mode:normal;"/>
</g>
<g id="Vector" style="mix-blend-mode:normal;" figma:type="vector">
<use xlink:href="#path14_fill" transform="translate(224.296 5232.51)" fill="#DA2727" style="mix-blend-mode:normal;"/>
</g>
<g id="Vector" style="mix-blend-mode:normal;" figma:type="vector">
<use xlink:href="#path15_fill" transform="translate(243.719 5230.26)" fill="#DA2727" style="mix-blend-mode:normal;"/>
</g>
<g id="Vector" style="mix-blend-mode:normal;" figma:type="vector">
<use xlink:href="#path16_fill" transform="translate(246.493 5231.38)" fill="#DA2727" style="mix-blend-mode:normal;"/>
</g>
<g id="Vector" style="mix-blend-mode:normal;" figma:type="vector">
<use xlink:href="#path17_fill" transform="translate(249.268 5228)" fill="#DA2727" style="mix-blend-mode:normal;"/>
</g>
<g id="Vector" style="mix-blend-mode:normal;" figma:type="vector">
<use xlink:href="#path18_fill" transform="matrix(-1 0 0 1 236.958 5242.68)" fill="#DA2727" style="mix-blend-mode:normal;"/>
</g>
<g id="Vector" style="mix-blend-mode:normal;" figma:type="vector">
<use xlink:href="#path19_fill" transform="matrix(-1 0 0 1 233.948 5240.23)" fill="#DA2727" style="mix-blend-mode:normal;"/>
</g>
<g id="Vector" style="mix-blend-mode:normal;" figma:type="vector">
<use xlink:href="#path1_fill" transform="matrix(-1 -9.95427e-17 1.50665e-16 -1 309 5256.19)" fill="#DA2727" style="mix-blend-mode:normal;"/>
</g>
<g id="Vector" style="mix-blend-mode:normal;" figma:type="vector">
<use xlink:href="#path2_fill" transform="matrix(-1 -9.95427e-17 1.50665e-16 -1 306.225 5257.32)" fill="#DA2727" style="mix-blend-mode:normal;"/>
</g>
<g id="Vector" style="mix-blend-mode:normal;" figma:type="vector">
<use xlink:href="#path3_fill" transform="matrix(-1 -9.95427e-17 1.50665e-16 -1 303.451 5260.7)" fill="#DA2727" style="mix-blend-mode:normal;"/>
</g>
<g id="Vector" style="mix-blend-mode:normal;" figma:type="vector">
<use xlink:href="#path4_fill" transform="matrix(-1 -9.95427e-17 1.50665e-16 -1 300.676 5261.83)" fill="#DA2727" style="mix-blend-mode:normal;"/>
</g>
<g id="Vector" style="mix-blend-mode:normal;" figma:type="vector">
<use xlink:href="#path2_fill" transform="matrix(-1 -9.95427e-17 1.50665e-16 -1 297.901 5257.32)" fill="#DA2727" style="mix-blend-mode:normal;"/>
</g>
<g id="Vector" style="mix-blend-mode:normal;" figma:type="vector">
<use xlink:href="#path5_fill" transform="matrix(-1 -9.95427e-17 1.50665e-16 -1 295.127 5258.45)" fill="#DA2727" style="mix-blend-mode:normal;"/>
</g>
<g id="Vector" style="mix-blend-mode:normal;" figma:type="vector">
<use xlink:href="#path6_fill" transform="matrix(-1 -9.95427e-17 1.50665e-16 -1 292.352 5259.57)" fill="#DA2727" style="mix-blend-mode:normal;"/>
</g>
<g id="Vector" style="mix-blend-mode:normal;" figma:type="vector">
<use xlink:href="#path4_fill" transform="matrix(-1 -9.95427e-17 1.50665e-16 -1 289.577 5261.83)" fill="#DA2727" style="mix-blend-mode:normal;"/>
</g>
<g id="Vector" style="mix-blend-mode:normal;" figma:type="vector">
<use xlink:href="#path7_fill" transform="matrix(-1 -9.95427e-17 1.50665e-16 -1 286.803 5265.21)" fill="#DA2727" style="mix-blend-mode:normal;"/>
</g>
<g id="Vector" style="mix-blend-mode:normal;" figma:type="vector">
<use xlink:href="#path8_fill" transform="matrix(-1 -9.95427e-17 1.50665e-16 -1 284.028 5264.08)" fill="#DA2727" style="mix-blend-mode:normal;"/>
</g>
<g id="Vector" style="mix-blend-mode:normal;" figma:type="vector">
<use xlink:href="#path4_fill" transform="matrix(-1 -9.95427e-17 1.50665e-16 -1 275.704 5261.83)" fill="#DA2727" style="mix-blend-mode:normal;"/>
</g>
<g id="Vector" style="mix-blend-mode:normal;" figma:type="vector">
<use xlink:href="#path10_fill" transform="matrix(-1 -9.95427e-17 1.50665e-16 -1 272.93 5266.34)" fill="#DA2727" style="mix-blend-mode:normal;"/>
</g>
<g id="Vector" style="mix-blend-mode:normal;" figma:type="vector">
<use xlink:href="#path11_fill" transform="matrix(-1 -9.95427e-17 1.50665e-16 -1 270.155 5269.72)" fill="#DA2727" style="mix-blend-mode:normal;"/>
</g>
<g id="Vector" style="mix-blend-mode:normal;" figma:type="vector">
<use xlink:href="#path10_fill" transform="matrix(-1 -9.95427e-17 1.50665e-16 -1 267.38 5266.34)" fill="#DA2727" style="mix-blend-mode:normal;"/>
</g>
<g id="Vector" style="mix-blend-mode:normal;" figma:type="vector">
<use xlink:href="#path12_fill" transform="matrix(-1 -9.95427e-17 1.50665e-16 -1 264.605 5273.11)" fill="#DA2727" style="mix-blend-mode:normal;"/>
</g>
<g id="Vector" style="mix-blend-mode:normal;" figma:type="vector">
<use xlink:href="#path20_fill" transform="matrix(-1 -9.95427e-17 1.50665e-16 -1 261.831 5270.85)" fill="#DA2727" style="mix-blend-mode:normal;"/>
</g>
<g id="Vector" style="mix-blend-mode:normal;" figma:type="vector">
<use xlink:href="#path14_fill" transform="matrix(-1 -9.95427e-17 1.50665e-16 -1 259.056 5276.49)" fill="#DA2727" style="mix-blend-mode:normal;"/>
</g>
<g id="Vector" style="mix-blend-mode:normal;" figma:type="vector">
<use xlink:href="#path15_fill" transform="matrix(-1 -9.95427e-17 1.50665e-16 -1 256.282 5278.74)" fill="#DA2727" style="mix-blend-mode:normal;"/>
</g>
<g id="Vector" style="mix-blend-mode:normal;" figma:type="vector">
<use xlink:href="#path21_fill" transform="matrix(-1 -9.95427e-17 1.50665e-16 -1 253.507 5268.6)" fill="#DA2727" style="mix-blend-mode:normal;"/>
</g>
<g id="Vector" style="mix-blend-mode:normal;" figma:type="vector">
<use xlink:href="#path6_fill" transform="matrix(-1 -9.95427e-17 1.50665e-16 -1 281.253 5259.57)" fill="#DA2727" style="mix-blend-mode:normal;"/>
</g>
<g id="Vector" style="mix-blend-mode:normal;" figma:type="vector">
<use xlink:href="#path22_fill" transform="matrix(-1 -9.95427e-17 1.50665e-16 -1 278.091 5273.66)" fill="#DA2727" style="mix-blend-mode:normal;"/>
</g>
</g>
<g id="&#208;&#156;&#208;&#148;&#208;&#152;&#208;&#161;" style="mix-blend-mode:normal;" figma:type="text">
<use xlink:href="#path23_fill" transform="translate(206 5236.85)" fill="#FFFFFF" style="mix-blend-mode:normal;"/>
</g>
</g>
</g>
<defs>
<path id="path0_fill" d="M 20 0L 0 0L 0 1.4L 20 1.4L 20 0Z"/>
<path id="path1_fill" d="M 1.38733 0L 0 0L 0 3.38298L 1.38733 3.38298L 1.38733 0Z"/>
<path id="path2_fill" d="M 1.38733 0L 0 0L 0 5.6383L 1.38733 5.6383L 1.38733 0Z"/>
<path id="path3_fill" d="M 1.38733 0L 0 0L 0 12.4043L 1.38733 12.4043L 1.38733 0Z"/>
<path id="path4_fill" d="M 1.38733 0L 0 0L 0 14.6596L 1.38733 14.6596L 1.38733 0Z"/>
<path id="path5_fill" d="M 1.38733 0L 0 0L 0 7.89362L 1.38733 7.89362L 1.38733 0Z"/>
<path id="path6_fill" d="M 1.38733 0L 0 0L 0 10.1489L 1.38733 10.1489L 1.38733 0Z"/>
<path id="path7_fill" d="M 1.38733 0L 0 0L 0 21.4255L 1.38733 21.4255L 1.38733 0Z"/>
<path id="path8_fill" d="M 1.38733 0L 0 0L 0 19.1702L 1.38733 19.1702L 1.38733 0Z"/>
<path id="path9_fill" d="M 1 0L 0 0L 0 37L 1 37L 1 0Z"/>
<path id="path10_fill" d="M 1.38733 0L 0 0L 0 23.6809L 1.38733 23.6809L 1.38733 0Z"/>
<path id="path11_fill" d="M 1.38733 0L 0 0L 0 30.4468L 1.38733 30.4468L 1.38733 0Z"/>
<path id="path12_fill" d="M 1.38733 0L 0 0L 0 37.2128L 1.38733 37.2128L 1.38733 0Z"/>
<path id="path13_fill" d="M 1.38733 0L 0 0L 0 50.7447L 1.38733 50.7447L 1.38733 0Z"/>
<path id="path14_fill" d="M 1.38733 0L 0 0L 0 43.9787L 1.38733 43.9787L 1.38733 0Z"/>
<path id="path15_fill" d="M 1.38733 0L 0 0L 0 48.4894L 1.38733 48.4894L 1.38733 0Z"/>
<path id="path16_fill" d="M 1.38733 0L 0 0L 0 46.234L 1.38733 46.234L 1.38733 0Z"/>
<path id="path17_fill" d="M 1.38733 0L 0 0L 0 53L 1.38733 53L 1.38733 0Z"/>
<path id="path18_fill" d="M 1.38448 0L 0 0L 0 23.6462L 1.38448 23.6462L 1.38448 0Z"/>
<path id="path19_fill" d="M 1.38448 0L 0 0L 0 28.5385L 1.38448 28.5385L 1.38448 0Z"/>
<path id="path20_fill" d="M 1.38733 0L 0 0L 0 32.7021L 1.38733 32.7021L 1.38733 0Z"/>
<path id="path21_fill" d="M 1.38733 0L 0 0L 0 28.1915L 1.38733 28.1915L 1.38733 0Z"/>
<path id="path22_fill" d="M 1.00324 0L 0 0L 0 38.3231L 1.00324 38.3231L 1.00324 0Z"/>
<path id="path23_fill" d="M 25.921 6.12L 24.549 6.12C 23.793 6.12 23.597 6.26 23.261 6.876L 17.437 17.264L 11.613 6.848C 11.305 6.26 11.053 6.12 10.269 6.12L 9.037 6.12C 8.309 6.12 8.057 6.372 8.057 7.072L 8.057 25.048C 8.057 25.748 8.309 26 9.037 26L 10.381 26C 11.109 26 11.333 25.748 11.333 25.048L 11.333 16.536C 11.333 14.772 11.193 13.12 10.745 10.936L 10.941 10.936C 11.613 13.176 12.145 14.408 13.097 16.032L 15.897 20.904C 16.205 21.464 16.401 21.576 16.989 21.576L 17.885 21.576C 18.445 21.576 18.669 21.408 18.977 20.904L 21.721 16.06C 22.617 14.436 23.317 13.036 24.017 10.936L 24.213 10.936C 23.737 13.092 23.541 14.912 23.541 16.508L 23.541 25.048C 23.541 25.748 23.765 26 24.493 26L 25.921 26C 26.649 26 26.873 25.748 26.873 25.048L 26.873 7.072C 26.873 6.372 26.649 6.12 25.921 6.12ZM 45.6203 6.12L 34.4763 6.12C 33.7483 6.12 33.5243 6.372 33.5243 7.072L 33.5243 12.868C 33.5243 20.092 32.1523 21.912 30.9483 22.724L 30.3043 22.724C 29.5763 22.724 29.3523 22.976 29.3523 23.676L 29.3523 29.332C 29.3523 30.032 29.5763 30.284 30.3043 30.284L 31.8163 30.284C 32.5443 30.284 32.7683 30.032 32.7683 29.332L 32.7683 26L 45.5643 26L 45.5643 29.332C 45.5643 30.032 45.8163 30.284 46.5163 30.284L 48.0563 30.284C 48.7843 30.284 49.0083 30.032 49.0083 29.332L 49.0083 23.676C 49.0083 22.976 48.7843 22.724 48.0563 22.724L 46.6003 22.724L 46.6003 7.072C 46.6003 6.372 46.3483 6.12 45.6203 6.12ZM 36.9123 9.396L 43.0723 9.396L 43.0723 22.724L 35.0363 22.724C 36.0723 21.1 36.9123 18.468 36.9123 12.84L 36.9123 9.396ZM 66.2075 6.12L 64.5555 6.12C 64.0515 6.12 63.8275 6.288 63.6315 6.568L 57.3315 16.144C 55.8755 18.384 55.2595 19.532 54.4195 21.688L 54.3075 21.688C 54.8115 19.196 54.9795 18.188 54.9795 15.192L 54.9795 7.072C 54.9795 6.372 54.7275 6.12 54.0275 6.12L 52.4315 6.12C 51.7035 6.12 51.4515 6.372 51.4515 7.072L 51.4515 25.048C 51.4515 25.748 51.7035 26 52.4315 26L 54.0555 26C 54.5315 26 54.7835 25.888 55.0075 25.524L 61.4195 15.752C 62.8475 13.512 63.3795 12.56 64.2195 10.432L 64.3315 10.432C 63.8275 12.896 63.6595 13.82 63.6595 16.844L 63.6595 25.048C 63.6595 25.748 63.8835 26 64.6115 26L 66.2075 26C 66.9355 26 67.1595 25.748 67.1595 25.048L 67.1595 7.072C 67.1595 6.372 66.9355 6.12 66.2075 6.12ZM 70.497 12.98L 70.497 19.112C 70.497 23.62 73.353 26.42 78.505 26.42C 82.649 26.42 85.085 24.74 86.149 21.716C 86.373 21.044 86.205 20.736 85.533 20.484L 84.021 19.952C 83.349 19.7 83.069 19.84 82.789 20.54C 82.173 22.248 80.857 23.144 78.505 23.144C 75.621 23.144 74.025 21.716 74.025 19.14L 74.025 12.952C 74.025 10.376 75.621 8.976 78.505 8.976C 80.829 8.976 82.173 9.844 82.789 11.552C 83.041 12.252 83.321 12.336 83.993 12.14L 85.533 11.608C 86.205 11.356 86.373 11.048 86.121 10.376C 85.057 7.352 82.621 5.7 78.505 5.7C 73.353 5.7 70.497 8.5 70.497 12.98Z"/>
</defs>
</svg>
