<svg width="78" height="84" viewBox="0 0 78 84" version="1.1" xmlns="http://www.w3.org/2000/svg" xmlns:xlink="http://www.w3.org/1999/xlink" xmlns:figma="http://www.figma.com/figma/ns">
<title>prom</title>
<desc>Created using Figma</desc>
<g id="Canvas" transform="translate(-1433 -1259)" figma:type="canvas">
<g id="prom" style="mix-blend-mode:normal;" figma:type="frame">
<g id="Vector" style="mix-blend-mode:normal;" figma:type="vector">
<use xlink:href="#path0_stroke" transform="translate(1434.65 1307.12)" fill="#E2112E" style="mix-blend-mode:normal;"/>
</g>
<g id="Vector" style="mix-blend-mode:normal;" figma:type="vector">
<use xlink:href="#path1_stroke" transform="translate(1434.65 1315.92)" fill="#E2112E" style="mix-blend-mode:normal;"/>
</g>
<g id="Vector" style="mix-blend-mode:normal;" figma:type="vector">
<use xlink:href="#path2_stroke" transform="translate(1475.85 1309.52)" fill="#E2112E" style="mix-blend-mode:normal;"/>
</g>
<g id="Vector" style="mix-blend-mode:normal;" figma:type="vector">
<use xlink:href="#path3_stroke" transform="translate(1453.55 1305.22)" fill="#E2112E" style="mix-blend-mode:normal;"/>
</g>
<g id="Vector" style="mix-blend-mode:normal;" figma:type="vector">
<use xlink:href="#path4_stroke" transform="translate(1460.95 1309.52)" fill="#E2112E" style="mix-blend-mode:normal;"/>
</g>
<g id="Vector" style="mix-blend-mode:normal;" figma:type="vector">
<use xlink:href="#path5_stroke" transform="translate(1472.15 1273.02)" fill="#E2112E" style="mix-blend-mode:normal;"/>
</g>
<g id="Vector" style="mix-blend-mode:normal;" figma:type="vector">
<use xlink:href="#path6_stroke" transform="translate(1449.65 1298.72)" fill="#E2112E" style="mix-blend-mode:normal;"/>
</g>
<g id="Vector" style="mix-blend-mode:normal;" figma:type="vector">
<use xlink:href="#path7_stroke" transform="translate(1449.75 1290.12)" fill="#E2112E" style="mix-blend-mode:normal;"/>
</g>
<g id="Vector" style="mix-blend-mode:normal;" figma:type="vector">
<use xlink:href="#path8_stroke" transform="translate(1464.75 1268.62)" fill="#E2112E" style="mix-blend-mode:normal;"/>
</g>
<g id="Vector" style="mix-blend-mode:normal;" figma:type="vector">
<use xlink:href="#path9_stroke" transform="translate(1464.75 1260.02)" fill="#E2112E" style="mix-blend-mode:normal;"/>
</g>
<g id="Group" style="mix-blend-mode:normal;" figma:type="frame">
<g id="Vector" style="mix-blend-mode:normal;" figma:type="vector">
<use xlink:href="#path10_fill" transform="translate(1459.45 1297.92)" fill="#FFFFFF" style="mix-blend-mode:normal;"/>
<use xlink:href="#path11_stroke" transform="translate(1459.45 1297.92)" fill="#E2112E" style="mix-blend-mode:normal;"/>
</g>
<g id="Vector" style="mix-blend-mode:normal;" figma:type="vector">
<use xlink:href="#path12_fill" transform="translate(1459.55 1274.32)" fill="#FFFFFF" style="mix-blend-mode:normal;"/>
<use xlink:href="#path13_stroke" transform="translate(1459.55 1274.32)" fill="#E2112E" style="mix-blend-mode:normal;"/>
</g>
<g id="Vector" style="mix-blend-mode:normal;" figma:type="vector">
<use xlink:href="#path14_fill" transform="translate(1459.55 1276.32)" fill="#FFFFFF" style="mix-blend-mode:normal;"/>
<use xlink:href="#path15_stroke" transform="translate(1459.55 1276.32)" fill="#E2112E" style="mix-blend-mode:normal;"/>
</g>
<g id="Vector" style="mix-blend-mode:normal;" figma:type="vector">
<use xlink:href="#path16_fill" transform="translate(1459.45 1276.32)" fill="#FFFFFF" style="mix-blend-mode:normal;"/>
<use xlink:href="#path17_stroke" transform="translate(1459.45 1276.32)" fill="#E2112E" style="mix-blend-mode:normal;"/>
</g>
</g>
<g id="Group" style="mix-blend-mode:normal;" figma:type="frame">
<g id="Vector" style="mix-blend-mode:normal;" figma:type="vector">
<use xlink:href="#path18_fill" transform="translate(1470.25 1303.72)" fill="#FFFFFF" style="mix-blend-mode:normal;"/>
<use xlink:href="#path19_stroke" transform="translate(1470.25 1303.72)" fill="#E2112E" style="mix-blend-mode:normal;"/>
</g>
<g id="Vector" style="mix-blend-mode:normal;" figma:type="vector">
<use xlink:href="#path20_fill" transform="translate(1470.25 1280.12)" fill="#FFFFFF" style="mix-blend-mode:normal;"/>
<use xlink:href="#path21_stroke" transform="translate(1470.25 1280.12)" fill="#E2112E" style="mix-blend-mode:normal;"/>
</g>
<g id="Vector" style="mix-blend-mode:normal;" figma:type="vector">
<use xlink:href="#path22_fill" transform="translate(1470.35 1282.12)" fill="#FFFFFF" style="mix-blend-mode:normal;"/>
<use xlink:href="#path23_stroke" transform="translate(1470.35 1282.12)" fill="#E2112E" style="mix-blend-mode:normal;"/>
</g>
<g id="Vector" style="mix-blend-mode:normal;" figma:type="vector">
<use xlink:href="#path24_fill" transform="translate(1477.45 1282.02)" fill="#FFFFFF" style="mix-blend-mode:normal;"/>
<use xlink:href="#path25_stroke" transform="translate(1477.45 1282.02)" fill="#E2112E" style="mix-blend-mode:normal;"/>
</g>
</g>
<g id="Group" style="mix-blend-mode:normal;" figma:type="frame">
<g id="Vector" style="mix-blend-mode:normal;" figma:type="vector">
<use xlink:href="#path26_stroke" transform="translate(1467.45 1262.02)" fill="#E2112E" style="mix-blend-mode:normal;"/>
</g>
<g id="Vector" style="mix-blend-mode:normal;" figma:type="vector">
<use xlink:href="#path27_stroke" transform="translate(1469.45 1263.12)" fill="#E2112E" style="mix-blend-mode:normal;"/>
</g>
<g id="Vector" style="mix-blend-mode:normal;" figma:type="vector">
<use xlink:href="#path28_stroke" transform="translate(1471.45 1264.22)" fill="#E2112E" style="mix-blend-mode:normal;"/>
</g>
<g id="Vector" style="mix-blend-mode:normal;" figma:type="vector">
<use xlink:href="#path29_stroke" transform="translate(1473.45 1265.32)" fill="#E2112E" style="mix-blend-mode:normal;"/>
</g>
<g id="Vector" style="mix-blend-mode:normal;" figma:type="vector">
<use xlink:href="#path30_stroke" transform="translate(1475.45 1266.42)" fill="#E2112E" style="mix-blend-mode:normal;"/>
</g>
<g id="Vector" style="mix-blend-mode:normal;" figma:type="vector">
<use xlink:href="#path31_stroke" transform="translate(1477.45 1267.62)" fill="#E2112E" style="mix-blend-mode:normal;"/>
</g>
<g id="Vector" style="mix-blend-mode:normal;" figma:type="vector">
<use xlink:href="#path32_stroke" transform="translate(1479.45 1268.72)" fill="#E2112E" style="mix-blend-mode:normal;"/>
</g>
<g id="Vector" style="mix-blend-mode:normal;" figma:type="vector">
<use xlink:href="#path33_stroke" transform="translate(1481.45 1269.82)" fill="#E2112E" style="mix-blend-mode:normal;"/>
</g>
<g id="Vector" style="mix-blend-mode:normal;" figma:type="vector">
<use xlink:href="#path34_stroke" transform="translate(1483.45 1270.92)" fill="#E2112E" style="mix-blend-mode:normal;"/>
</g>
<g id="Vector" style="mix-blend-mode:normal;" figma:type="vector">
<use xlink:href="#path35_stroke" transform="translate(1485.45 1272.02)" fill="#E2112E" style="mix-blend-mode:normal;"/>
</g>
</g>
<g id="Group" style="mix-blend-mode:normal;" figma:type="frame">
<g id="Vector" style="mix-blend-mode:normal;" figma:type="vector">
<use xlink:href="#path36_stroke" transform="translate(1459.35 1279.52)" fill="#E2112E" style="mix-blend-mode:normal;"/>
</g>
<g id="Vector" style="mix-blend-mode:normal;" figma:type="vector">
<use xlink:href="#path37_stroke" transform="translate(1459.35 1281.02)" fill="#E2112E" style="mix-blend-mode:normal;"/>
</g>
<g id="Vector" style="mix-blend-mode:normal;" figma:type="vector">
<use xlink:href="#path38_stroke" transform="translate(1459.35 1282.62)" fill="#E2112E" style="mix-blend-mode:normal;"/>
</g>
<g id="Vector" style="mix-blend-mode:normal;" figma:type="vector">
<use xlink:href="#path39_stroke" transform="translate(1459.35 1284.12)" fill="#E2112E" style="mix-blend-mode:normal;"/>
</g>
<g id="Vector" style="mix-blend-mode:normal;" figma:type="vector">
<use xlink:href="#path40_stroke" transform="translate(1459.35 1285.72)" fill="#E2112E" style="mix-blend-mode:normal;"/>
</g>
<g id="Vector" style="mix-blend-mode:normal;" figma:type="vector">
<use xlink:href="#path41_stroke" transform="translate(1459.35 1287.22)" fill="#E2112E" style="mix-blend-mode:normal;"/>
</g>
<g id="Vector" style="mix-blend-mode:normal;" figma:type="vector">
<use xlink:href="#path42_stroke" transform="translate(1459.35 1288.82)" fill="#E2112E" style="mix-blend-mode:normal;"/>
</g>
<g id="Vector" style="mix-blend-mode:normal;" figma:type="vector">
<use xlink:href="#path43_stroke" transform="translate(1459.35 1290.32)" fill="#E2112E" style="mix-blend-mode:normal;"/>
</g>
<g id="Vector" style="mix-blend-mode:normal;" figma:type="vector">
<use xlink:href="#path44_stroke" transform="translate(1459.35 1291.92)" fill="#E2112E" style="mix-blend-mode:normal;"/>
</g>
<g id="Vector" style="mix-blend-mode:normal;" figma:type="vector">
<use xlink:href="#path45_stroke" transform="translate(1459.35 1293.42)" fill="#E2112E" style="mix-blend-mode:normal;"/>
</g>
<g id="Vector" style="mix-blend-mode:normal;" figma:type="vector">
<use xlink:href="#path46_stroke" transform="translate(1459.35 1295.02)" fill="#E2112E" style="mix-blend-mode:normal;"/>
</g>
<g id="Vector" style="mix-blend-mode:normal;" figma:type="vector">
<use xlink:href="#path47_stroke" transform="translate(1459.35 1296.52)" fill="#E2112E" style="mix-blend-mode:normal;"/>
</g>
</g>
<g id="Group" style="mix-blend-mode:normal;" figma:type="frame">
<g id="Vector" style="mix-blend-mode:normal;" figma:type="vector">
<use xlink:href="#path36_stroke" transform="translate(1470.35 1285.52)" fill="#E2112E" style="mix-blend-mode:normal;"/>
</g>
<g id="Vector" style="mix-blend-mode:normal;" figma:type="vector">
<use xlink:href="#path37_stroke" transform="translate(1470.35 1287.02)" fill="#E2112E" style="mix-blend-mode:normal;"/>
</g>
<g id="Vector" style="mix-blend-mode:normal;" figma:type="vector">
<use xlink:href="#path38_stroke" transform="translate(1470.35 1288.62)" fill="#E2112E" style="mix-blend-mode:normal;"/>
</g>
<g id="Vector" style="mix-blend-mode:normal;" figma:type="vector">
<use xlink:href="#path48_stroke" transform="translate(1470.35 1290.12)" fill="#E2112E" style="mix-blend-mode:normal;"/>
</g>
<g id="Vector" style="mix-blend-mode:normal;" figma:type="vector">
<use xlink:href="#path40_stroke" transform="translate(1470.35 1291.72)" fill="#E2112E" style="mix-blend-mode:normal;"/>
</g>
<g id="Vector" style="mix-blend-mode:normal;" figma:type="vector">
<use xlink:href="#path41_stroke" transform="translate(1470.35 1293.22)" fill="#E2112E" style="mix-blend-mode:normal;"/>
</g>
<g id="Vector" style="mix-blend-mode:normal;" figma:type="vector">
<use xlink:href="#path42_stroke" transform="translate(1470.35 1294.82)" fill="#E2112E" style="mix-blend-mode:normal;"/>
</g>
<g id="Vector" style="mix-blend-mode:normal;" figma:type="vector">
<use xlink:href="#path43_stroke" transform="translate(1470.35 1296.32)" fill="#E2112E" style="mix-blend-mode:normal;"/>
</g>
<g id="Vector" style="mix-blend-mode:normal;" figma:type="vector">
<use xlink:href="#path44_stroke" transform="translate(1470.35 1297.92)" fill="#E2112E" style="mix-blend-mode:normal;"/>
</g>
<g id="Vector" style="mix-blend-mode:normal;" figma:type="vector">
<use xlink:href="#path45_stroke" transform="translate(1470.35 1299.42)" fill="#E2112E" style="mix-blend-mode:normal;"/>
</g>
<g id="Vector" style="mix-blend-mode:normal;" figma:type="vector">
<use xlink:href="#path46_stroke" transform="translate(1470.35 1301.02)" fill="#E2112E" style="mix-blend-mode:normal;"/>
</g>
<g id="Vector" style="mix-blend-mode:normal;" figma:type="vector">
<use xlink:href="#path47_stroke" transform="translate(1470.35 1302.52)" fill="#E2112E" style="mix-blend-mode:normal;"/>
</g>
</g>
</g>
</g>
<defs>
<path id="path0_stroke" d="M 37.3 30.2L 36.8024 31.0674C 37.1102 31.244 37.4886 31.2442 37.7966 31.068L 37.3 30.2ZM 74.7 8.8L 75.1966 9.66796C 75.5058 9.49106 75.6975 9.16307 75.7 8.80688C 75.7024 8.4507 75.5152 8.1201 75.2085 7.93896L 74.7 8.8ZM 59.8 -1.52588e-06L 60.3085 -0.861043C 60.0011 -1.04259 59.6203 -1.0465 59.3092 -0.87129C 58.9982 -0.696083 58.8041 -0.368343 58.8001 -0.0113643L 59.8 -1.52588e-06ZM 59.7 8.8L 60.2007 9.6656C 60.5062 9.48889 60.6959 9.16425 60.6999 8.81136L 59.7 8.8ZM 37.4 21.7L 36.9009 22.5666C 37.2105 22.7448 37.5916 22.7445 37.9007 22.5656L 37.4 21.7ZM 15 8.8L 14 8.8C 14 9.15766 14.191 9.48808 14.5009 9.66657L 15 8.8ZM 15 0.4L 16 0.4C 16 0.0450753 15.8119 -0.283256 15.5057 -0.462729C 15.1995 -0.642203 14.8211 -0.645923 14.5114 -0.472506L 15 0.4ZM 0 8.8L -0.488603 7.9275C -0.802789 8.10344 -0.998116 8.43472 -0.999987 8.79481C -1.00186 9.1549 -0.809981 9.48819 -0.497641 9.66738L 0 8.8ZM 37.7966 31.068L 75.1966 9.66796L 74.2034 7.93204L 36.8034 29.332L 37.7966 31.068ZM 75.2085 7.93896L 60.3085 -0.861043L 59.2915 0.86104L 74.1915 9.66104L 75.2085 7.93896ZM 58.8001 -0.0113643L 58.7001 8.78864L 60.6999 8.81136L 60.7999 0.0113612L 58.8001 -0.0113643ZM 59.1993 7.9344L 36.8993 20.8344L 37.9007 22.5656L 60.2007 9.6656L 59.1993 7.9344ZM 37.8991 20.8334L 15.4991 7.93343L 14.5009 9.66657L 36.9009 22.5666L 37.8991 20.8334ZM 16 8.8L 16 0.4L 14 0.4L 14 8.8L 16 8.8ZM 14.5114 -0.472506L -0.488603 7.9275L 0.488603 9.67251L 15.4886 1.27251L 14.5114 -0.472506ZM -0.497641 9.66738L 36.8024 31.0674L 37.7976 29.3326L 0.497641 7.93262L -0.497641 9.66738Z"/>
<path id="path1_stroke" d="M 1 1.52588e-06C 1 -0.552283 0.552285 -0.999998 0 -0.999998C -0.552285 -0.999998 -1 -0.552283 -1 1.52588e-06L 1 1.52588e-06ZM 0 4.7L -1 4.7C -1 5.06123 -0.805187 5.39438 -0.490372 5.57151L 0 4.7ZM 37.5 25.8L 37.0096 26.6715C 37.3183 26.8452 37.6958 26.8426 38.0021 26.6648L 37.5 25.8ZM 74.7 4.2L 75.2021 5.06479C 75.5103 4.88583 75.7 4.55638 75.7 4.2L 74.7 4.2ZM 75.7 1.52588e-06C 75.7 -0.552283 75.2523 -0.999998 74.7 -0.999998C 74.1477 -0.999998 73.7 -0.552283 73.7 1.52588e-06L 75.7 1.52588e-06ZM -1 1.52588e-06L -1 4.7L 1 4.7L 1 1.52588e-06L -1 1.52588e-06ZM -0.490372 5.57151L 37.0096 26.6715L 37.9904 24.9285L 0.490372 3.82849L -0.490372 5.57151ZM 38.0021 26.6648L 75.2021 5.06479L 74.1979 3.33521L 36.9979 24.9352L 38.0021 26.6648ZM 75.7 4.2L 75.7 1.52588e-06L 73.7 1.52588e-06L 73.7 4.2L 75.7 4.2Z"/>
<path id="path2_stroke" d="M -0.999999 17.2C -0.999999 17.7523 -0.552284 18.2 7.62939e-07 18.2C 0.552285 18.2 1 17.7523 1 17.2L -0.999999 17.2ZM 7.62939e-07 4.3L -0.497383 3.43247C -0.808258 3.6107 -0.999999 3.94166 -0.999999 4.3L 7.62939e-07 4.3ZM 7.5 0L 8.5 0C 8.5 -0.356727 8.30997 -0.686441 8.00131 -0.86527C 7.69264 -1.0441 7.31209 -1.04496 7.00262 -0.86753L 7.5 0ZM 6.5 12.9C 6.5 13.4523 6.94772 13.9 7.5 13.9C 8.05229 13.9 8.5 13.4523 8.5 12.9L 6.5 12.9ZM 1 17.2L 1 4.3L -0.999999 4.3L -0.999999 17.2L 1 17.2ZM 0.497385 5.16753L 7.99739 0.86753L 7.00262 -0.86753L -0.497383 3.43247L 0.497385 5.16753ZM 6.5 0L 6.5 12.9L 8.5 12.9L 8.5 0L 6.5 0Z"/>
<path id="path3_stroke" d="M -3.8147e-07 7.62939e-07L 0.49989 -0.866088C 0.190486 -1.04467 -0.190685 -1.04463 -0.500055 -0.865993C -0.809425 -0.687352 -1 -0.357242 -1 7.62939e-07L -3.8147e-07 7.62939e-07ZM 14.9 8.6L 15.9 8.6C 15.9 8.24269 15.7094 7.91253 15.3999 7.73391L 14.9 8.6ZM 14.9 17.2L 14.4001 18.0661C 14.7095 18.2447 15.0907 18.2446 15.4001 18.066C 15.7094 17.8874 15.9 17.5572 15.9 17.2L 14.9 17.2ZM -3.8147e-07 8.6L -1 8.6C -1 8.95731 -0.809354 9.28747 -0.499891 9.46609L -3.8147e-07 8.6ZM -0.499891 0.86609L 14.4001 9.46609L 15.3999 7.73391L 0.49989 -0.866088L -0.499891 0.86609ZM 13.9 8.6L 13.9 17.2L 15.9 17.2L 15.9 8.6L 13.9 8.6ZM 15.3999 16.3339L 0.49989 7.73391L -0.499891 9.46609L 14.4001 18.0661L 15.3999 16.3339ZM 1 8.6L 1 7.62939e-07L -1 7.62939e-07L -1 8.6L 1 8.6Z"/>
<path id="path4_stroke" d="M 0.999999 0C 0.999999 -0.552285 0.552284 -1 -7.62939e-07 -1C -0.552285 -1 -1 -0.552285 -1 0L 0.999999 0ZM -1 8.6C -1 9.15228 -0.552285 9.6 -7.62939e-07 9.6C 0.552284 9.6 0.999999 9.15228 0.999999 8.6L -1 8.6ZM -1 0L -1 8.6L 0.999999 8.6L 0.999999 0L -1 0Z"/>
<path id="path5_stroke" d="M 0 55.9L -1 55.9C -1 56.2574 -0.809242 56.5877 -0.499635 56.7662C -0.190028 56.9448 0.19135 56.9446 0.50073 56.7656L 0 55.9ZM 22.3 43L 22.8007 43.8656C 23.1097 43.6869 23.3 43.357 23.3 43L 22.3 43ZM 22.3 0L 23.3 0C 23.3 -0.418126 23.0399 -0.792111 22.6478 -0.937553C 22.2558 -1.083 21.8147 -0.969186 21.542 -0.652242L 22.3 0ZM 14.9 8.6L 14.142 7.94776C 13.9859 8.1292 13.9 8.36063 13.9 8.6L 14.9 8.6ZM 14.9 30.1L 15.3999 30.9661C 15.7094 30.7875 15.9 30.4573 15.9 30.1L 14.9 30.1ZM 0 38.7L -0.49989 37.8339C -0.809353 38.0125 -1 38.3427 -1 38.7L 0 38.7ZM 0.50073 56.7656L 22.8007 43.8656L 21.7993 42.1344L -0.50073 55.0344L 0.50073 56.7656ZM 23.3 43L 23.3 0L 21.3 0L 21.3 43L 23.3 43ZM 21.542 -0.652242L 14.142 7.94776L 15.658 9.25224L 23.058 0.652242L 21.542 -0.652242ZM 13.9 8.6L 13.9 30.1L 15.9 30.1L 15.9 8.6L 13.9 8.6ZM 14.4001 29.2339L -0.49989 37.8339L 0.49989 39.5661L 15.3999 30.9661L 14.4001 29.2339ZM -1 38.7L -1 55.9L 1 55.9L 1 38.7L -1 38.7Z"/>
<path id="path6_stroke" d="M 0.1 7.62939e-07L 0.60195 -0.864896C 0.293502 -1.04391 -0.086936 -1.0451 -0.396503 -0.868034C -0.70607 -0.690966 -0.897909 -0.362437 -0.899983 -0.00581311L 0.1 7.62939e-07ZM 22.5 13L 23.5 13C 23.5 12.6435 23.3103 12.314 23.0019 12.1351L 22.5 13ZM 22.5 30.2L 21.9997 31.0659C 22.3091 31.2446 22.6904 31.2447 22.9999 31.0661C 23.3093 30.8875 23.5 30.5573 23.5 30.2L 22.5 30.2ZM 0 17.2L -0.999983 17.1942C -1.00207 17.5534 -0.811321 17.8862 -0.500278 18.0659L 0 17.2ZM -0.401949 0.864898L 21.9981 13.8649L 23.0019 12.1351L 0.60195 -0.864896L -0.401949 0.864898ZM 21.5 13L 21.5 30.2L 23.5 30.2L 23.5 13L 21.5 13ZM 23.0003 29.3341L 0.500278 16.3341L -0.500278 18.0659L 21.9997 31.0659L 23.0003 29.3341ZM 0.999983 17.2058L 1.09998 0.00581464L -0.899983 -0.00581311L -0.999983 17.1942L 0.999983 17.2058Z"/>
<path id="path7_stroke" d="M 15 3.8147e-07L 15.5036 -0.863919C 15.1946 -1.04406 14.8129 -1.04544 14.5026 -0.86753L 15 3.8147e-07ZM 3.8147e-07 8.6L -0.497384 7.73247C -0.807441 7.91024 -0.999054 8.23996 -0.999996 8.59737C -1.00094 8.95477 -0.811065 9.2855 -0.501949 9.4649L 3.8147e-07 8.6ZM 22.4 21.6L 21.8981 22.4649C 22.2077 22.6446 22.5898 22.6451 22.8999 22.4661L 22.4 21.6ZM 37.3 13L 37.7999 13.8661C 38.1087 13.6879 38.2992 13.3587 38.3 13.0022C 38.3008 12.6456 38.1117 12.3156 37.8036 12.1361L 37.3 13ZM 14.5026 -0.86753L -0.497384 7.73247L 0.497384 9.46753L 15.4974 0.867531L 14.5026 -0.86753ZM -0.501949 9.4649L 21.8981 22.4649L 22.9019 20.7351L 0.50195 7.7351L -0.501949 9.4649ZM 22.8999 22.4661L 37.7999 13.8661L 36.8001 12.1339L 21.9001 20.7339L 22.8999 22.4661ZM 37.8036 12.1361L 15.5036 -0.863919L 14.4964 0.86392L 36.7964 13.8639L 37.8036 12.1361Z"/>
<path id="path8_stroke" d="M 3.8147e-07 21.5L -1 21.5C -1 21.8546 -0.812238 22.1826 -0.506513 22.3622L 3.8147e-07 21.5ZM 3.8147e-07 3.8147e-07L 0.506513 -0.862232C 0.197306 -1.04387 -0.185492 -1.04604 -0.496732 -0.867903C -0.807973 -0.689769 -1 -0.358612 -1 3.8147e-07L 3.8147e-07 3.8147e-07ZM 22.3 13.1L 23.3 13.1C 23.3 12.7454 23.1122 12.4174 22.8065 12.2378L 22.3 13.1ZM 22.3 34.6L 21.7935 35.4622C 22.1027 35.6439 22.4855 35.646 22.7967 35.4679C 23.108 35.2898 23.3 34.9586 23.3 34.6L 22.3 34.6ZM 1 21.5L 1 3.8147e-07L -1 3.8147e-07L -1 21.5L 1 21.5ZM -0.506513 0.862233L 21.7935 13.9622L 22.8065 12.2378L 0.506513 -0.862232L -0.506513 0.862233ZM 21.3 13.1L 21.3 34.6L 23.3 34.6L 23.3 13.1L 21.3 13.1ZM 22.8065 33.7378L 0.506514 20.6378L -0.506513 22.3622L 21.7935 35.4622L 22.8065 33.7378Z"/>
<path id="path9_stroke" d="M 3.8147e-07 8.6L -0.758011 7.94776C -0.951745 8.17291 -1.03536 8.47253 -0.986215 8.76547C -0.937067 9.0584 -0.760239 9.31433 -0.50363 9.46392L 3.8147e-07 8.6ZM 7.4 0L 7.90363 -0.863919C 7.48705 -1.10677 6.9565 -1.01775 6.64199 -0.652242L 7.4 0ZM 29.7 13L 30.458 13.6522C 30.6517 13.4271 30.7354 13.1275 30.6862 12.8345C 30.6371 12.5416 30.4602 12.2857 30.2036 12.1361L 29.7 13ZM 22.3 21.6L 21.7964 22.4639C 22.2129 22.7068 22.7435 22.6178 23.058 22.2522L 22.3 21.6ZM 0.758011 9.25224L 8.15801 0.652242L 6.64199 -0.652242L -0.758011 7.94776L 0.758011 9.25224ZM 6.89637 0.863919L 29.1964 13.8639L 30.2036 12.1361L 7.90363 -0.863919L 6.89637 0.863919ZM 28.942 12.3478L 21.542 20.9478L 23.058 22.2522L 30.458 13.6522L 28.942 12.3478ZM 22.8036 20.7361L 0.503631 7.73608L -0.50363 9.46392L 21.7964 22.4639L 22.8036 20.7361Z"/>
<path id="path10_fill" d="M -7.62939e-07 1.52588e-06C -7.62939e-07 1.1 1.6 2 3.6 2C 5.6 2 7.2 1.1 7.2 1.52588e-06"/>
<path id="path11_stroke" d="M 0.999999 1.52588e-06C 0.999999 -0.552283 0.552284 -0.999998 -7.62939e-07 -0.999998C -0.552285 -0.999998 -1 -0.552283 -1 1.52588e-06L 0.999999 1.52588e-06ZM 8.2 1.52588e-06C 8.2 -0.552283 7.75228 -0.999998 7.2 -0.999998C 6.64772 -0.999998 6.2 -0.552283 6.2 1.52588e-06L 8.2 1.52588e-06ZM -1 1.52588e-06C -1 1.07592 -0.229282 1.84405 0.562931 2.28587C 1.38836 2.7462 2.4627 3 3.6 3L 3.6 1C 2.7373 1 2.01164 0.8038 1.53707 0.539138C 1.02928 0.255949 0.999999 0.024086 0.999999 1.52588e-06L -1 1.52588e-06ZM 3.6 3C 4.7373 3 5.81164 2.7462 6.63707 2.28587C 7.42928 1.84405 8.2 1.07592 8.2 1.52588e-06L 6.2 1.52588e-06C 6.2 0.0240861 6.17072 0.255949 5.66293 0.539138C 5.18836 0.8038 4.4627 1 3.6 1L 3.6 3Z"/>
<path id="path12_fill" d="M 7.2 1.9C 7.2 0.800001 5.5 1.90735e-07 3.6 1.90735e-07C 1.6 1.90735e-07 -3.8147e-07 0.900001 -3.8147e-07 1.9"/>
<path id="path13_stroke" d="M 6.2 1.9C 6.2 2.45229 6.64771 2.9 7.2 2.9C 7.75228 2.9 8.2 2.45229 8.2 1.9L 6.2 1.9ZM -1 1.9C -1 2.45229 -0.552285 2.9 -3.8147e-07 2.9C 0.552284 2.9 1 2.45229 1 1.9L -1 1.9ZM 8.2 1.9C 8.2 0.782032 7.34924 0.0452552 6.56643 -0.353539C 5.78812 -0.741103 4.65912 -0.994029 3.6 -1L 3.6 1C 4.44088 0.994029 5.11188 1.1411 5.65857 1.42854C 5.91561 1.55541 6.02534 1.63291 6.1326 1.77459C 6.23649 1.88363 6.21925 1.82027 6.2 1.9L 8.2 1.9ZM 3.6 -1C 2.47782 -0.992507 1.33889 -0.707522 0.5759 -0.305471C -0.185311 0.104412 -1 0.841201 -1 1.9L 1 1.9C 1 1.9588 0.98531 1.74559 1.5241 1.45547C 2.06111 1.15752 2.72218 0.992508 3.6 1L 3.6 -1Z"/>
<path id="path14_fill" d="M 7.2 21.6L 7.2 -7.62939e-07C 7.2 1.1 5.6 2 3.6 2C 1.6 2 -3.8147e-07 1.1 -3.8147e-07 -7.62939e-07L -3.8147e-07 21.6"/>
<path id="path15_stroke" d="M 6.2 21.6C 6.2 22.1523 6.64771 22.6 7.2 22.6C 7.75228 22.6 8.2 22.1523 8.2 21.6L 6.2 21.6ZM 8.2 -7.62939e-07C 8.2 -0.552285 7.75228 -1 7.2 -1C 6.64771 -1 6.2 -0.552285 6.2 -7.62939e-07L 8.2 -7.62939e-07ZM 1 -7.62939e-07C 1 -0.552285 0.552284 -1 -3.8147e-07 -1C -0.552285 -1 -1 -0.552285 -1 -7.62939e-07L 1 -7.62939e-07ZM -1 21.6C -1 22.1523 -0.552285 22.6 -3.8147e-07 22.6C 0.552284 22.6 1 22.1523 1 21.6L -1 21.6ZM 8.2 21.6L 8.2 -7.62939e-07L 6.2 -7.62939e-07L 6.2 21.6L 8.2 21.6ZM 6.2 -7.62939e-07C 6.2 0.0240843 6.17072 0.255947 5.66293 0.539136C 5.18836 0.803798 4.4627 0.999999 3.6 0.999999L 3.6 3C 4.7373 3 5.81164 2.7462 6.63707 2.28586C 7.42928 1.84405 8.2 1.07591 8.2 -7.62939e-07L 6.2 -7.62939e-07ZM 3.6 0.999999C 2.7373 0.999999 2.01164 0.803798 1.53707 0.539135C 1.02928 0.255947 1 0.0240838 1 -7.62939e-07L -1 -7.62939e-07C -1 1.07591 -0.229282 1.84405 0.562931 2.28586C 1.38836 2.7462 2.4627 3 3.6 3L 3.6 0.999999ZM -1 -7.62939e-07L -1 21.6L 1 21.6L 1 -7.62939e-07L -1 -7.62939e-07Z"/>
<path id="path16_fill" d="M -7.62939e-07 -7.62939e-07C -7.62939e-07 1.1 1.6 2 3.6 2C 5.6 2 7.2 1.1 7.2 -7.62939e-07"/>
<path id="path17_stroke" d="M 0.999999 -7.62939e-07C 0.999999 -0.552285 0.552284 -1 -7.62939e-07 -1C -0.552285 -1 -1 -0.552285 -1 -7.62939e-07L 0.999999 -7.62939e-07ZM 8.2 -7.62939e-07C 8.2 -0.552285 7.75228 -1 7.2 -1C 6.64772 -1 6.2 -0.552285 6.2 -7.62939e-07L 8.2 -7.62939e-07ZM -1 -7.62939e-07C -1 1.07591 -0.229282 1.84405 0.562931 2.28586C 1.38836 2.7462 2.4627 3 3.6 3L 3.6 0.999999C 2.7373 0.999999 2.01164 0.803798 1.53707 0.539135C 1.02928 0.255947 0.999999 0.0240837 0.999999 -7.62939e-07L -1 -7.62939e-07ZM 3.6 3C 4.7373 3 5.81164 2.7462 6.63707 2.28586C 7.42928 1.84405 8.2 1.07591 8.2 -7.62939e-07L 6.2 -7.62939e-07C 6.2 0.0240838 6.17072 0.255947 5.66293 0.539135C 5.18836 0.803798 4.4627 0.999999 3.6 0.999999L 3.6 3Z"/>
<path id="path18_fill" d="M -1.52588e-06 7.62939e-07C -1.52588e-06 1.1 1.6 2 3.6 2C 5.6 2 7.2 1.1 7.2 7.62939e-07"/>
<path id="path19_stroke" d="M 0.999998 7.62939e-07C 0.999998 -0.552284 0.552283 -0.999999 -1.52588e-06 -0.999999C -0.552286 -0.999999 -1 -0.552284 -1 7.62939e-07L 0.999998 7.62939e-07ZM 8.2 7.62939e-07C 8.2 -0.552284 7.75228 -0.999999 7.2 -0.999999C 6.64771 -0.999999 6.2 -0.552284 6.2 7.62939e-07L 8.2 7.62939e-07ZM -1 7.62939e-07C -1 1.07592 -0.229282 1.84405 0.562932 2.28586C 1.38836 2.7462 2.4627 3 3.6 3L 3.6 1C 2.7373 1 2.01164 0.8038 1.53707 0.539137C 1.02928 0.255948 0.999998 0.0240847 0.999998 7.62939e-07L -1 7.62939e-07ZM 3.6 3C 4.7373 3 5.81164 2.7462 6.63707 2.28586C 7.42928 1.84405 8.2 1.07592 8.2 7.62939e-07L 6.2 7.62939e-07C 6.2 0.0240858 6.17072 0.255949 5.66293 0.539137C 5.18836 0.8038 4.4627 1 3.6 1L 3.6 3Z"/>
<path id="path20_fill" d="M 7.2 1.9C 7.2 0.8 5.5 3.8147e-07 3.6 3.8147e-07C 1.6 3.8147e-07 -1.52588e-06 0.9 -1.52588e-06 1.9"/>
<path id="path21_stroke" d="M 6.2 1.9C 6.2 2.45228 6.64771 2.9 7.2 2.9C 7.75228 2.9 8.2 2.45228 8.2 1.9L 6.2 1.9ZM -1 1.9C -1 2.45228 -0.552286 2.9 -1.52588e-06 2.9C 0.552283 2.9 0.999998 2.45228 0.999998 1.9L -1 1.9ZM 8.2 1.9C 8.2 0.782031 7.34924 0.0452545 6.56643 -0.353539C 5.78812 -0.741103 4.65912 -0.994029 3.6 -1L 3.6 1C 4.44088 0.994029 5.11188 1.1411 5.65857 1.42854C 5.91561 1.55541 6.02534 1.63291 6.13261 1.77459C 6.23649 1.88363 6.21925 1.82027 6.2 1.9L 8.2 1.9ZM 3.6 -1C 2.47782 -0.992507 1.33889 -0.707522 0.5759 -0.305471C -0.18531 0.104411 -1 0.841199 -1 1.9L 0.999998 1.9C 0.999998 1.9588 0.985309 1.74559 1.5241 1.45547C 2.06111 1.15752 2.72218 0.992508 3.6 1L 3.6 -1Z"/>
<path id="path22_fill" d="M 7.2 21.6L 7.2 3.8147e-07C 7.2 1.1 5.6 2 3.6 2C 1.6 2 7.62939e-07 1.1 7.62939e-07 3.8147e-07L 7.62939e-07 21.6"/>
<path id="path23_stroke" d="M 6.2 21.6C 6.2 22.1523 6.64772 22.6 7.2 22.6C 7.75229 22.6 8.2 22.1523 8.2 21.6L 6.2 21.6ZM 8.2 3.8147e-07C 8.2 -0.552284 7.75229 -1 7.2 -1C 6.64772 -1 6.2 -0.552284 6.2 3.8147e-07L 8.2 3.8147e-07ZM 1 3.8147e-07C 1 -0.552284 0.552285 -1 7.62939e-07 -1C -0.552284 -1 -0.999999 -0.552284 -0.999999 3.8147e-07L 1 3.8147e-07ZM -0.999999 21.6C -0.999999 22.1523 -0.552284 22.6 7.62939e-07 22.6C 0.552285 22.6 1 22.1523 1 21.6L -0.999999 21.6ZM 8.2 21.6L 8.2 3.8147e-07L 6.2 3.8147e-07L 6.2 21.6L 8.2 21.6ZM 6.2 3.8147e-07C 6.2 0.0240843 6.17072 0.255947 5.66293 0.539136C 5.18836 0.803799 4.4627 1 3.6 1L 3.6 3C 4.7373 3 5.81164 2.7462 6.63707 2.28586C 7.42928 1.84405 8.2 1.07592 8.2 3.8147e-07L 6.2 3.8147e-07ZM 3.6 1C 2.7373 1 2.01164 0.803799 1.53707 0.539137C 1.02928 0.255948 1 0.0240854 1 3.8147e-07L -0.999999 3.8147e-07C -0.999999 1.07592 -0.229282 1.84405 0.562931 2.28586C 1.38836 2.7462 2.4627 3 3.6 3L 3.6 1ZM -0.999999 3.8147e-07L -0.999999 21.6L 1 21.6L 1 3.8147e-07L -0.999999 3.8147e-07Z"/>
<path id="path24_fill" d="M -7.62939e-07 0C -7.62939e-07 0 0.0999992 0 -7.62939e-07 0L -7.62939e-07 0Z"/>
<path id="path25_stroke" d="M -7.62939e-07 -1C -0.552285 -1 -1 -0.552285 -1 0C -1 0.552285 -0.552285 1 -7.62939e-07 1L -7.62939e-07 -1ZM -7.62939e-07 -1C -0.552285 -1 -1 -0.552285 -1 0C -1 0.552285 -0.552285 1 -7.62939e-07 1L -7.62939e-07 -1ZM -7.62939e-07 0C -7.62939e-07 1 -3.8147e-07 1 3.79235e-07 1C 1.13994e-06 1 2.27988e-06 1 3.79682e-06 1C 6.83069e-06 1 1.13726e-05 1 1.74046e-05 1C 2.94685e-05 1 4.7493e-05 1 7.13348e-05 1C 0.000119019 1 0.000189972 1 0.000283051 1C 0.000469208 1 0.000743866 1 0.00109787 1C 0.00180588 1 0.00283127 1 0.0041008 1C 0.00663986 1 0.0101555 1 0.0140617 1C 0.0218742 1 0.0312492 1 0.0374992 1C 0.0406242 1 0.042968 1 0.0439445 1C 0.0441887 1 0.0443474 1 0.0444115 1C 0.0444275 1 0.0444376 1 0.0444417 1C 0.0444427 1 0.0444433 1 0.0444436 1C 0.0444438 0 0.0444437 -1 0.0444432 -1C 0.0444422 -1 0.0444396 -1 0.0444355 -1C 0.0444191 -1 0.0443779 -1 0.0443108 -1C 0.0440422 -1 0.0433586 -1 0.0421867 -1C 0.0374992 -1 0.0249992 -1 -7.62939e-07 -1L -7.62939e-07 1C 0.0249992 1 0.0374992 1 0.0421867 1C 0.0433586 1 0.0440422 1 0.0443108 1C 0.0443779 1 0.0444191 1 0.0444355 1C 0.0444396 1 0.0444422 1 0.0444432 1C 0.0444437 1 0.0444438 0 0.0444436 -1C 0.0444433 -1 0.0444427 -1 0.0444417 -1C 0.0444376 -1 0.0444275 -1 0.0444115 -1C 0.0443474 -1 0.0441887 -1 0.0439445 -1C 0.042968 -1 0.0406242 -1 0.0374992 -1C 0.0312492 -1 0.0218742 -1 0.0140617 -1C 0.0101555 -1 0.00663986 -1 0.0041008 -1C 0.00283127 -1 0.00180588 -1 0.00109787 -1C 0.000743866 -1 0.000469208 -1 0.000283051 -1C 0.000189972 -1 0.000119019 -1 7.13348e-05 -1C 4.7493e-05 -1 2.94685e-05 -1 1.74046e-05 -1C 1.13726e-05 -1 6.83069e-06 -1 3.79682e-06 -1C 2.27988e-06 -1 1.13994e-06 -1 3.79235e-07 -1C -3.8147e-07 -1 -7.62939e-07 -1 -7.62939e-07 0Z"/>
<path id="path26_stroke" d="M -0.380343 7.17544C -0.559593 7.3855 -0.534617 7.70109 -0.32456 7.88034C -0.114502 8.05959 0.201094 8.03462 0.380343 7.82456L -0.380343 7.17544ZM 6.78034 0.32456C 6.95959 0.114502 6.93462 -0.201094 6.72456 -0.380343C 6.5145 -0.559593 6.19891 -0.534617 6.01966 -0.32456L 6.78034 0.32456ZM 0.380343 7.82456L 6.78034 0.32456L 6.01966 -0.32456L -0.380343 7.17544L 0.380343 7.82456Z"/>
<path id="path27_stroke" d="M -0.348661 7.20248C -0.512979 7.39504 -0.490084 7.68434 -0.297524 7.84866C -0.104964 8.01298 0.184343 7.99008 0.348661 7.79752L -0.348661 7.20248ZM 6.74866 0.297524C 6.91298 0.104964 6.89008 -0.184343 6.69752 -0.348661C 6.50496 -0.512979 6.21566 -0.490084 6.05134 -0.297524L 6.74866 0.297524ZM 0.348661 7.79752L 6.74866 0.297524L 6.05134 -0.297524L -0.348661 7.20248L 0.348661 7.79752Z"/>
<path id="path28_stroke" d="M -0.31694 7.22954C -0.466309 7.40459 -0.445497 7.66757 -0.270456 7.81694C -0.0954144 7.96631 0.167572 7.9455 0.31694 7.77046L -0.31694 7.22954ZM 6.71694 0.270456C 6.86631 0.0954144 6.8455 -0.167572 6.67046 -0.31694C 6.49541 -0.466309 6.23243 -0.445497 6.08306 -0.270456L 6.71694 0.270456ZM 0.31694 7.77046L 6.71694 0.270456L 6.08306 -0.270456L -0.31694 7.22954L 0.31694 7.77046Z"/>
<path id="path29_stroke" d="M -0.285257 7.25658C -0.419694 7.41412 -0.400963 7.65082 -0.24342 7.78526C -0.0858764 7.91969 0.15082 7.90096 0.285257 7.74342L -0.285257 7.25658ZM 6.68526 0.24342C 6.81969 0.0858764 6.80096 -0.15082 6.64342 -0.285257C 6.48588 -0.419694 6.24918 -0.400963 6.11474 -0.24342L 6.68526 0.24342ZM 0.285257 7.74342L 6.68526 0.24342L 6.11474 -0.24342L -0.285257 7.25658L 0.285257 7.74342Z"/>
<path id="path30_stroke" d="M -0.253575 7.28362C -0.37308 7.42366 -0.356429 7.63407 -0.216384 7.75357C -0.0763384 7.87308 0.134069 7.85643 0.253575 7.71638L -0.253575 7.28362ZM 6.65358 0.216384C 6.77308 0.0763384 6.75643 -0.134069 6.61638 -0.253575C 6.47634 -0.37308 6.26593 -0.356429 6.14643 -0.216384L 6.65358 0.216384ZM 0.253575 7.71638L 6.65358 0.216384L 6.14643 -0.216384L -0.253575 7.28362L 0.253575 7.71638Z"/>
<path id="path31_stroke" d="M -0.220593 7.20922C -0.32596 7.33105 -0.312614 7.51523 -0.190783 7.62059C -0.0689531 7.72596 0.115227 7.71261 0.220593 7.59078L -0.220593 7.20922ZM 6.62059 0.190783C 6.72596 0.0689531 6.71261 -0.115227 6.59078 -0.220593C 6.46895 -0.32596 6.28477 -0.312614 6.17941 -0.190783L 6.62059 0.190783ZM 0.220593 7.59078L 6.62059 0.190783L 6.17941 -0.190783L -0.220593 7.20922L 0.220593 7.59078Z"/>
<path id="path32_stroke" d="M -0.189091 7.23646C -0.27941 7.34089 -0.26797 7.49877 -0.163538 7.58909C -0.059106 7.67941 0.0987713 7.66797 0.189091 7.56354L -0.189091 7.23646ZM 6.58909 0.163538C 6.67941 0.059106 6.66797 -0.0987713 6.56354 -0.189091C 6.45911 -0.27941 6.30123 -0.26797 6.21091 -0.163538L 6.58909 0.163538ZM 0.189091 7.56354L 6.58909 0.163538L 6.21091 -0.163538L -0.189091 7.23646L 0.189091 7.56354Z"/>
<path id="path33_stroke" d="M -0.157588 7.26371C -0.232861 7.35074 -0.223326 7.48232 -0.136293 7.55759C -0.049259 7.63286 0.082316 7.62333 0.157588 7.53629L -0.157588 7.26371ZM 6.55759 0.136293C 6.63286 0.049259 6.62333 -0.082316 6.53629 -0.157588C 6.44926 -0.232861 6.31768 -0.223326 6.24241 -0.136293L 6.55759 0.136293ZM 0.157588 7.53629L 6.55759 0.136293L 6.24241 -0.136293L -0.157588 7.26371L 0.157588 7.53629Z"/>
<path id="path34_stroke" d="M -0.126048 7.29098C -0.186255 7.3606 -0.178629 7.46584 -0.109014 7.52605C -0.0394001 7.58625 0.0658409 7.57863 0.126048 7.50901L -0.126048 7.29098ZM 6.52605 0.109014C 6.58626 0.0394001 6.57863 -0.0658409 6.50902 -0.126048C 6.4394 -0.186255 6.33416 -0.178629 6.27395 -0.109014L 6.52605 0.109014ZM 0.126048 7.50901L 6.52605 0.109014L 6.27395 -0.109014L -0.126048 7.29098L 0.126048 7.50901Z"/>
<path id="path35_stroke" d="M -0.0950858 7.41886C -0.139898 7.47137 -0.133654 7.55027 -0.0811399 7.59509C -0.0286255 7.6399 0.0502735 7.63365 0.0950858 7.58114L -0.0950858 7.41886ZM 6.49509 0.0811399C 6.5399 0.0286255 6.53366 -0.0502735 6.48114 -0.0950858C 6.42863 -0.139898 6.34973 -0.133654 6.30491 -0.0811399L 6.49509 0.0811399ZM 0.0950858 7.58114L 6.49509 0.0811399L 6.30491 -0.0811399L -0.0950858 7.41886L 0.0950858 7.58114Z"/>
<path id="path36_stroke" d="M 0.353554 -0.353553C 0.158292 -0.548816 -0.158291 -0.548816 -0.353553 -0.353553C -0.548815 -0.158291 -0.548815 0.158291 -0.353553 0.353553L 0.353554 -0.353553ZM 4 1.5C 4.27614 1.5 4.5 1.27614 4.5 1C 4.5 0.723858 4.27614 0.5 4 0.5L 4 1.5ZM 7.62939e-07 0C -0.353553 0.353553 -0.35329 0.353816 -0.353023 0.354083C -0.352928 0.354177 -0.352657 0.354447 -0.352468 0.354634C -0.352264 0.354837 -0.351697 0.3554 -0.351287 0.355805C -0.350816 0.356271 -0.349581 0.357485 -0.348633 0.358413C -0.347435 0.359581 -0.344565 0.362359 -0.342144 0.364673C -0.33872 0.367934 -0.331353 0.374833 -0.324373 0.381201C -0.313316 0.39123 -0.2919 0.410009 -0.269025 0.428934C -0.229365 0.461505 -0.158456 0.515776 -0.0742243 0.572275C 0.0808853 0.675325 0.345096 0.825261 0.689306 0.964238C 1.37974 1.24041 2.44364 1.5 4 1.5L 4 0.5C 2.55636 0.5 1.62026 0.259586 1.0607 0.0357617C 0.779905 -0.0752613 0.606616 -0.175325 0.480476 -0.259775C 0.424083 -0.297026 0.393429 -0.32088 0.366682 -0.342996C 0.356355 -0.351415 0.353356 -0.354121 0.3483 -0.35874C 0.347223 -0.359697 0.347524 -0.359459 0.348066 -0.358936C 0.34763 -0.359358 0.35032 -0.356756 0.350107 -0.356963C 0.34965 -0.35741 0.351882 -0.355217 0.351656 -0.355441C 0.351369 -0.355725 0.352705 -0.354401 0.352562 -0.354543C 0.35272 -0.354386 0.352968 -0.354138 0.353047 -0.35406C 0.353299 -0.353809 0.353554 -0.353553 7.62939e-07 0Z"/>
<path id="path37_stroke" d="M 0.329442 -0.329441C 0.147496 -0.511386 -0.147495 -0.511386 -0.32944 -0.329441C -0.511386 -0.147496 -0.511386 0.147496 -0.32944 0.329441L 0.329442 -0.329441ZM 4 1.4659C 4.25731 1.4659 4.4659 1.25731 4.4659 1C 4.4659 0.742691 4.25731 0.5341 4 0.5341L 4 1.4659ZM 7.62939e-07 0C -0.32944 0.329441 -0.329195 0.329686 -0.328946 0.329935C -0.328857 0.330023 -0.328604 0.330276 -0.328427 0.330451C -0.328235 0.330643 -0.327703 0.33117 -0.327317 0.331552C -0.326869 0.331994 -0.325706 0.333138 -0.324806 0.334019C -0.323656 0.33514 -0.320931 0.337777 -0.318608 0.339998C -0.315282 0.343166 -0.308213 0.349786 -0.301435 0.355969C -0.290582 0.365814 -0.269794 0.384044 -0.247347 0.402611C -0.208128 0.434826 -0.138592 0.48806 -0.055309 0.543902C 0.0988127 0.646318 0.359923 0.794554 0.70197 0.932577C 1.38795 1.20697 2.44749 1.4659 4 1.4659L 4 0.5341C 2.55252 0.5341 1.61206 0.293032 1.04803 0.0674227C 0.765078 -0.0445535 0.588689 -0.146318 0.461561 -0.231402C 0.404218 -0.26931 0.372192 -0.294201 0.345005 -0.316674C 0.334249 -0.325451 0.330623 -0.328704 0.325362 -0.333508C 0.324084 -0.334649 0.323889 -0.334877 0.32453 -0.33426C 0.324191 -0.334589 0.326445 -0.332409 0.32628 -0.332569C 0.325871 -0.332969 0.327888 -0.330987 0.327686 -0.331187C 0.327422 -0.331448 0.328651 -0.33023 0.32852 -0.33036C 0.328666 -0.330215 0.328897 -0.329985 0.32897 -0.329912C 0.329204 -0.329679 0.329442 -0.329441 7.62939e-07 0Z"/>
<path id="path38_stroke" d="M 0.305329 -0.305328C 0.136701 -0.473957 -0.1367 -0.473957 -0.305328 -0.305328C -0.473956 -0.1367 -0.473956 0.136701 -0.305328 0.305329L 0.305329 -0.305328ZM 4 1.4318C 4.23848 1.4318 4.4318 1.23848 4.4318 1C 4.4318 0.761524 4.23848 0.5682 4 0.5682L 4 1.4318ZM 7.62939e-07 3.8147e-07C -0.305328 0.305329 -0.3051 0.305557 -0.304869 0.305788C -0.304786 0.30587 -0.30455 0.306105 -0.304385 0.306269C -0.304205 0.306448 -0.303709 0.30694 -0.303347 0.307299C -0.302923 0.307717 -0.301831 0.308791 -0.300979 0.309625C -0.299877 0.310699 -0.297298 0.313196 -0.295072 0.315323C -0.291844 0.318398 -0.285074 0.324739 -0.278496 0.330737C -0.267849 0.340398 -0.247689 0.35808 -0.225669 0.376289C -0.186891 0.408147 -0.118727 0.460344 -0.0363937 0.51553C 0.11674 0.617311 0.37475 0.763846 0.714634 0.900917C 1.39615 1.17352 2.45133 1.4318 4 1.4318L 4 0.5682C 2.54867 0.5682 1.60385 0.326479 1.03537 0.0990841C 0.750251 -0.0138453 0.570762 -0.117311 0.442645 -0.203029C 0.384354 -0.241593 0.350955 -0.267521 0.323327 -0.29035C 0.312144 -0.299486 0.307889 -0.303288 0.302424 -0.308275C 0.300944 -0.309601 0.300255 -0.310295 0.300994 -0.309585C 0.300752 -0.30982 0.30257 -0.308061 0.302453 -0.308174C 0.302092 -0.308528 0.303894 -0.306757 0.303715 -0.306933C 0.303476 -0.30717 0.304598 -0.306058 0.304479 -0.306177C 0.304613 -0.306043 0.304826 -0.305831 0.304893 -0.305764C 0.305109 -0.305548 0.305329 -0.305328 7.62939e-07 3.8147e-07Z"/>
<path id="path39_stroke" d="M 0.281252 -0.281251C 0.125921 -0.436582 -0.12592 -0.436582 -0.281251 -0.281251C -0.436582 -0.12592 -0.436582 0.125921 -0.281251 0.281252L 0.281252 -0.281251ZM 4 1.39775C 4.21967 1.39775 4.39775 1.21967 4.39775 1C 4.39775 0.780329 4.21967 0.60225 4 0.60225L 4 1.39775ZM 7.62939e-07 3.8147e-07C -0.281251 0.281252 -0.281041 0.281462 -0.280827 0.281675C -0.28075 0.281752 -0.280532 0.281969 -0.280379 0.282121C -0.28021 0.282289 -0.27975 0.282746 -0.279411 0.283081C -0.279011 0.283476 -0.277991 0.284479 -0.277187 0.285266C -0.276133 0.286294 -0.273699 0.28865 -0.27157 0.290684C -0.26844 0.293665 -0.261968 0.299728 -0.255592 0.305542C -0.245148 0.315019 -0.225616 0.332154 -0.204024 0.350004C -0.165685 0.381507 -0.0988916 0.432668 -0.0175062 0.487198C 0.134641 0.588347 0.389556 0.733183 0.72728 0.869302C 1.40434 1.14012 2.45517 1.39775 4 1.39775L 4 0.60225C 2.54483 0.60225 1.59567 0.359876 1.02272 0.130699C 0.735446 0.0168175 0.55286 -0.088346 0.423758 -0.174698C 0.364518 -0.213917 0.329749 -0.240881 0.301681 -0.264066C 0.29007 -0.273559 0.285189 -0.277908 0.279519 -0.28308C 0.277839 -0.284591 0.276655 -0.285749 0.277492 -0.284946C 0.277348 -0.285088 0.27873 -0.283749 0.278661 -0.283816C 0.278348 -0.284122 0.279935 -0.282562 0.27978 -0.282716C 0.279564 -0.282929 0.28058 -0.281922 0.280472 -0.282029C 0.280595 -0.281907 0.28079 -0.281713 0.280851 -0.281652C 0.28105 -0.281454 0.281252 -0.281251 7.62939e-07 3.8147e-07Z"/>
<path id="path40_stroke" d="M 0.25714 -0.257139C 0.115126 -0.399153 -0.115125 -0.399153 -0.257139 -0.257139C -0.399153 -0.115124 -0.399153 0.115126 -0.257139 0.25714L 0.25714 -0.257139ZM 4 1.36365C 4.20084 1.36365 4.36365 1.20084 4.36365 1C 4.36365 0.799162 4.20084 0.636351 4 0.636351L 4 1.36365ZM 7.62939e-07 7.62939e-07C -0.257139 0.25714 -0.256946 0.257332 -0.25675 0.257528C -0.256679 0.257599 -0.256479 0.257798 -0.256338 0.257939C -0.256181 0.258095 -0.255756 0.258516 -0.255441 0.258827C -0.255065 0.259199 -0.254117 0.260132 -0.25336 0.260872C -0.252354 0.261853 -0.250065 0.264069 -0.248034 0.26601C -0.245002 0.268897 -0.238829 0.274681 -0.232654 0.28031C -0.222415 0.289602 -0.20351 0.306189 -0.182346 0.323682C -0.144447 0.354828 -0.079027 0.404951 0.00140909 0.458826C 0.152569 0.55934 0.404383 0.702476 0.739945 0.837641C 1.41254 1.10668 2.45901 1.36365 4 1.36365L 4 0.636351C 2.54099 0.636351 1.58746 0.393323 1.01006 0.16236C 0.720619 0.0475257 0.534933 -0.0593384 0.404842 -0.146324C 0.344654 -0.1862 0.308511 -0.214201 0.280004 -0.237743C 0.267965 -0.247594 0.262456 -0.252492 0.256581 -0.257848C 0.254699 -0.259543 0.253021 -0.261167 0.253956 -0.260271C 0.253909 -0.26032 0.254855 -0.259401 0.254834 -0.259421C 0.254569 -0.259681 0.255941 -0.258332 0.25581 -0.258462C 0.255618 -0.258652 0.256526 -0.257751 0.256431 -0.257846C 0.256542 -0.257736 0.256719 -0.257559 0.256774 -0.257504C 0.256955 -0.257323 0.25714 -0.257139 7.62939e-07 7.62939e-07Z"/>
<path id="path41_stroke" d="M 0.233028 -0.233026C 0.10433 -0.361724 -0.104329 -0.361724 -0.233026 -0.233026C -0.361724 -0.104329 -0.361724 0.104331 -0.233026 0.233028L 0.233028 -0.233026ZM 4 1.32955C 4.18201 1.32955 4.32955 1.18201 4.32955 1C 4.32955 0.817995 4.18201 0.670451 4 0.670451L 4 1.32955ZM 7.62939e-07 7.62939e-07C -0.233026 0.233028 -0.232852 0.233202 -0.232673 0.233381C -0.232608 0.233445 -0.232426 0.233627 -0.232296 0.233756C -0.232151 0.2339 -0.231761 0.234286 -0.231471 0.234574C -0.231118 0.234922 -0.230242 0.235784 -0.229533 0.236478C -0.228575 0.237412 -0.226431 0.239487 -0.224498 0.241335C -0.221565 0.244129 -0.215689 0.249634 -0.209716 0.255078C -0.199681 0.264186 -0.181405 0.280225 -0.160668 0.297359C -0.12321 0.328148 -0.0591625 0.377235 0.0203244 0.430453C 0.170496 0.530333 0.41921 0.671768 0.752609 0.80598C 1.42074 1.07323 2.46285 1.32955 4 1.32955L 4 0.670451C 2.53715 0.670451 1.57926 0.426769 0.997393 0.194021C 0.705792 0.0782335 0.517006 -0.0303312 0.385927 -0.117951C 0.324789 -0.158483 0.287274 -0.187522 0.258326 -0.21142C 0.24586 -0.22163 0.239722 -0.227075 0.233643 -0.232616C 0.23156 -0.234495 0.231454 -0.234606 0.23042 -0.235596C 0.23037 -0.23564 0.23098 -0.235054 0.231007 -0.235027C 0.23079 -0.235239 0.231947 -0.234102 0.231839 -0.234208C 0.231671 -0.234375 0.232473 -0.23358 0.232389 -0.233663C 0.232488 -0.233565 0.232648 -0.233405 0.232697 -0.233356C 0.232861 -0.233193 0.233028 -0.233026 7.62939e-07 7.62939e-07Z"/>
<path id="path42_stroke" d="M 0.208915 -0.208915C 0.093535 -0.324296 -0.0935336 -0.324296 -0.208914 -0.208915C -0.324294 -0.093535 -0.324294 0.0935336 -0.208914 0.208914L 0.208915 -0.208915ZM 4 1.29545C 4.16317 1.29545 4.29545 1.16317 4.29545 0.999999C 4.29545 0.836827 4.16317 0.704549 4 0.704549L 4 1.29545ZM 7.62939e-07 -7.62939e-07C -0.208914 0.208914 -0.208757 0.209071 -0.208596 0.209231C -0.208537 0.20929 -0.208372 0.209454 -0.208255 0.209571C -0.208121 0.209704 -0.207767 0.210055 -0.2075 0.210319C -0.207171 0.210644 -0.206367 0.211435 -0.205706 0.212082C -0.204797 0.212969 -0.202798 0.214904 -0.200962 0.216658C -0.198127 0.219359 -0.19255 0.224585 -0.186778 0.229845C -0.176948 0.238768 -0.159299 0.254259 -0.138991 0.271035C -0.101973 0.301467 -0.0392979 0.349517 0.0392396 0.402079C 0.188424 0.501324 0.434036 0.641059 0.765274 0.774318C 1.42894 1.03978 2.4667 1.29545 4 1.29545L 4 0.704549C 2.5333 0.704549 1.57106 0.460214 0.984728 0.225681C 0.690965 0.10894 0.499078 -0.00132556 0.367012 -0.08958C 0.304924 -0.130768 0.266037 -0.160844 0.236649 -0.185099C 0.223754 -0.195667 0.216989 -0.20166 0.210705 -0.207386C 0.208421 -0.209449 0.208016 -0.209839 0.206884 -0.210922C 0.206736 -0.21106 0.207104 -0.210708 0.20718 -0.210634C 0.207011 -0.2108 0.207953 -0.209874 0.207869 -0.209956C 0.207724 -0.210099 0.20842 -0.20941 0.208348 -0.209482C 0.208435 -0.209395 0.208577 -0.209253 0.20862 -0.20921C 0.208766 -0.209065 0.208915 -0.208915 7.62939e-07 -7.62939e-07Z"/>
<path id="path43_stroke" d="M 0.184803 -0.184803C 0.0827396 -0.286867 -0.0827381 -0.286867 -0.184802 -0.184803C -0.286865 -0.0827396 -0.286865 0.0827381 -0.184802 0.184802L 0.184803 -0.184803ZM 4 1.26135C 4.14434 1.26135 4.26135 1.14434 4.26135 0.999999C 4.26135 0.85566 4.14434 0.738649 4 0.738649L 4 1.26135ZM 7.62939e-07 -7.62939e-07C -0.184802 0.184802 -0.184662 0.184941 -0.184519 0.185084C -0.184466 0.185136 -0.184319 0.185283 -0.184213 0.185388C -0.184092 0.185509 -0.183773 0.185825 -0.18353 0.186066C -0.183225 0.186367 -0.182492 0.187088 -0.181879 0.187688C -0.181018 0.188528 -0.179164 0.190322 -0.177426 0.191983C -0.174689 0.194591 -0.169411 0.199537 -0.163839 0.204613C -0.154214 0.213351 -0.137194 0.228294 -0.117313 0.244712C -0.0807354 0.274788 -0.0194333 0.3218 0.0581549 0.373706C 0.206351 0.472317 0.448863 0.610351 0.777938 0.742657C 1.43714 1.00634 2.47054 1.26135 4 1.26135L 4 0.738649C 2.52946 0.738649 1.56286 0.49366 0.972064 0.257342C 0.676138 0.139648 0.481151 0.0276816 0.348097 -0.0612071C 0.28506 -0.103052 0.244799 -0.134165 0.214971 -0.158776C 0.201649 -0.169702 0.194255 -0.176244 0.187767 -0.182154C 0.185281 -0.184402 0.184578 -0.185071 0.183348 -0.186247C 0.183103 -0.186478 0.183229 -0.186361 0.183353 -0.18624C 0.183231 -0.186359 0.183958 -0.185644 0.183899 -0.185703C 0.183778 -0.185822 0.184366 -0.185239 0.184306 -0.185299C 0.184382 -0.185224 0.184506 -0.1851 0.184544 -0.185062C 0.184671 -0.184935 0.184803 -0.184803 7.62939e-07 -7.62939e-07Z"/>
<path id="path44_stroke" d="M 0.160691 -0.160689C 0.0719441 -0.249435 -0.0719426 -0.249435 -0.160689 -0.160688C -0.249436 -0.0719418 -0.249436 0.0719449 -0.160689 0.160692L 0.160691 -0.160689ZM 4 1.22725C 4.12551 1.22725 4.22725 1.12551 4.22725 1C 4.22725 0.874495 4.12551 0.772752 4 0.772752L 4 1.22725ZM 7.62939e-07 1.52588e-06C -0.160689 0.160692 -0.160568 0.160813 -0.160442 0.160938C -0.160395 0.160985 -0.160266 0.161114 -0.160171 0.161208C -0.160062 0.161317 -0.159779 0.161597 -0.15956 0.161814C -0.159278 0.162092 -0.158617 0.162743 -0.158052 0.163296C -0.157239 0.164089 -0.155531 0.165742 -0.153889 0.16731C -0.151251 0.169824 -0.146271 0.174492 -0.140901 0.179383C -0.131481 0.187937 -0.115088 0.202332 -0.0956356 0.218391C -0.0594981 0.248111 0.000431281 0.294086 0.0770702 0.345335C 0.224278 0.443312 0.46369 0.579645 0.790602 0.710998C 1.44534 0.972895 2.47439 1.22725 4 1.22725L 4 0.772752C 2.52562 0.772752 1.55466 0.527108 0.959399 0.289005C 0.661311 0.170358 0.463223 0.0566911 0.329181 -0.0328319C 0.265195 -0.0753329 0.223562 -0.107483 0.193293 -0.132451C 0.179543 -0.143735 0.171522 -0.150825 0.164829 -0.156919C 0.162142 -0.159352 0.16114 -0.1603 0.159811 -0.16157C 0.159469 -0.161894 0.159354 -0.162011 0.159526 -0.161843C 0.159452 -0.161915 0.159964 -0.161411 0.159928 -0.161447C 0.159831 -0.161543 0.160313 -0.161065 0.160265 -0.161113C 0.160328 -0.16105 0.160435 -0.160944 0.160467 -0.160912C 0.160577 -0.160802 0.160691 -0.160689 7.62939e-07 1.52588e-06Z"/>
<path id="path45_stroke" d="M 0.136614 -0.136612C 0.0611645 -0.212061 -0.061163 -0.212061 -0.136612 -0.136611C -0.212062 -0.0611622 -0.212062 0.0611653 -0.136612 0.136615L 0.136614 -0.136612ZM 4 1.1932C 4.1067 1.1932 4.1932 1.1067 4.1932 1C 4.1932 0.8933 4.1067 0.806802 4 0.806802L 4 1.1932ZM 7.62939e-07 1.52588e-06C -0.136612 0.136615 -0.136508 0.136718 -0.1364 0.136826C -0.136359 0.136867 -0.136248 0.136978 -0.136165 0.13706C -0.136068 0.137157 -0.13582 0.137403 -0.135624 0.137596C -0.135367 0.137851 -0.134777 0.138431 -0.134259 0.138937C -0.133495 0.139683 -0.131932 0.141197 -0.130388 0.142671C -0.127847 0.145092 -0.123166 0.149481 -0.117997 0.154188C -0.108781 0.162558 -0.0930154 0.176406 -0.0739897 0.192107C -0.038292 0.221471 0.0202667 0.26641 0.0959577 0.317004C 0.24218 0.414347 0.478496 0.548983 0.803248 0.679383C 1.45353 0.939497 2.47822 1.1932 4 1.1932L 4 0.806802C 2.52178 0.806802 1.54647 0.560506 0.946754 0.32062C 0.646506 0.201021 0.445322 0.0856558 0.310294 -0.0045006C 0.24536 -0.047657 0.202356 -0.0808428 0.171648 -0.106167C 0.15747 -0.117809 0.148821 -0.125446 0.141924 -0.131724C 0.139036 -0.134341 0.137737 -0.135568 0.13631 -0.136931C 0.13587 -0.137348 0.135514 -0.137699 0.135733 -0.137484C 0.135708 -0.13751 0.136005 -0.137217 0.135993 -0.137229C 0.13592 -0.137302 0.136295 -0.13693 0.136258 -0.136966C 0.13631 -0.136914 0.136399 -0.136826 0.136425 -0.1368C 0.136517 -0.136708 0.136614 -0.136612 7.62939e-07 1.52588e-06Z"/>
<path id="path46_stroke" d="M 0.112501 -0.112501C 0.050369 -0.174633 -0.0503675 -0.174633 -0.1125 -0.112501C -0.174632 -0.0503683 -0.174632 0.0503683 -0.1125 0.112501L 0.112501 -0.112501ZM 4 1.1591C 4.08787 1.1591 4.1591 1.08787 4.1591 1C 4.1591 0.912131 4.08787 0.8409 4 0.8409L 4 1.1591ZM 7.62939e-07 0C -0.1125 0.112501 -0.112414 0.112587 -0.112323 0.112677C -0.112288 0.112712 -0.112194 0.112806 -0.112124 0.112876C -0.112038 0.112961 -0.111826 0.113171 -0.111654 0.113341C -0.11142 0.113572 -0.110902 0.114082 -0.110432 0.114541C -0.109716 0.115241 -0.108298 0.116613 -0.106852 0.117995C -0.104409 0.120322 -0.100026 0.124432 -0.0950586 0.128955C -0.0860472 0.13714 -0.0709099 0.150439 -0.0523121 0.165783C -0.0170546 0.19479 0.0401313 0.238692 0.114873 0.288629C 0.260107 0.385339 0.493323 0.518273 0.815913 0.647721C 1.46174 0.90605 2.48207 1.1591 4 1.1591L 4 0.8409C 2.51793 0.8409 1.53827 0.59395 0.934089 0.352279C 0.631679 0.231727 0.427395 0.114661 0.291379 0.0238708C 0.225495 -0.0199419 0.181119 -0.054165 0.14997 -0.0798454C 0.135365 -0.0918457 0.126088 -0.100031 0.118986 -0.106494C 0.115897 -0.109295 0.114299 -0.110801 0.112774 -0.112257C 0.112236 -0.112768 0.112174 -0.11283 0.111906 -0.113092C 0.111884 -0.113113 0.112011 -0.112989 0.112023 -0.112977C 0.111973 -0.113026 0.112242 -0.11276 0.112217 -0.112784C 0.112257 -0.112745 0.112328 -0.112674 0.112348 -0.112654C 0.112423 -0.112579 0.112501 -0.112501 7.62939e-07 0Z"/>
<path id="path47_stroke" d="M 0.0883891 -0.0883884C 0.0395736 -0.137204 -0.0395721 -0.137204 -0.0883876 -0.0883883C -0.137203 -0.0395728 -0.137203 0.0395728 -0.0883876 0.0883884L 0.0883891 -0.0883884ZM 4 1.125C 4.06904 1.125 4.125 1.06904 4.125 1C 4.125 0.930964 4.06904 0.875 4 0.875L 4 1.125ZM 7.62939e-07 0C -0.0883876 0.0883884 -0.088319 0.0884569 -0.0882465 0.0885292C -0.0882172 0.0885584 -0.0881408 0.0886345 -0.0880822 0.0886928C -0.0880082 0.0887664 -0.0878319 0.0889412 -0.0876836 0.0890879C -0.0874738 0.0892952 -0.0870271 0.0897346 -0.0866054 0.0901468C -0.0859369 0.0907994 -0.0846644 0.0920316 -0.0833154 0.0933197C -0.0809715 0.095554 -0.0768867 0.0993846 -0.0721204 0.103723C -0.0633137 0.111724 -0.0488045 0.124475 -0.0306345 0.13946C 0.00418266 0.168111 0.0599959 0.210975 0.133788 0.260256C 0.278034 0.356331 0.50815 0.487565 0.828577 0.61606C 1.46994 0.872603 2.48591 1.125 4 1.125L 4 0.875C 2.51409 0.875 1.53007 0.627397 0.921425 0.38394C 0.616852 0.262435 0.409467 0.143669 0.272463 0.0522437C 0.205631 0.00777466 0.159881 -0.0274856 0.128292 -0.0535225C 0.113259 -0.0658811 0.103354 -0.0746142 0.0960477 -0.081262C 0.0927573 -0.0842479 0.0908607 -0.0860326 0.0892373 -0.0875824C 0.0886027 -0.0881864 0.0883951 -0.0883885 0.0880794 -0.0886972C 0.088009 -0.0887657 0.088017 -0.0887586 0.0880523 -0.0887236C 0.0880265 -0.0887492 0.0881882 -0.0885888 0.0881754 -0.0886015C 0.0882034 -0.0885736 0.0882569 -0.0885203 0.0882709 -0.0885064C 0.0883281 -0.0884493 0.0883891 -0.0883884 7.62939e-07 0Z"/>
<path id="path48_stroke" d="M 0.281252 -0.281252C 0.125921 -0.436583 -0.12592 -0.436582 -0.281251 -0.281251C -0.436582 -0.12592 -0.436582 0.125922 -0.281251 0.281252L 0.281252 -0.281252ZM 4 1.39775C 4.21967 1.39775 4.39775 1.21967 4.39775 0.999998C 4.39775 0.780327 4.21967 0.602248 4 0.602248L 4 1.39775ZM 7.62939e-07 3.8147e-07C -0.281251 0.281252 -0.281041 0.281462 -0.280827 0.281676C -0.28075 0.281752 -0.280532 0.281969 -0.280379 0.282122C -0.28021 0.282289 -0.279749 0.282746 -0.279411 0.283081C -0.279011 0.283476 -0.277991 0.284479 -0.277186 0.285266C -0.276133 0.286294 -0.273698 0.28865 -0.27157 0.290684C -0.26844 0.293666 -0.261968 0.299728 -0.255592 0.305542C -0.245148 0.315019 -0.225616 0.332154 -0.204023 0.350005C -0.165684 0.381507 -0.0988913 0.432668 -0.0175059 0.487198C 0.134642 0.588346 0.389556 0.733183 0.72728 0.869301C 1.40434 1.14012 2.45517 1.39775 4 1.39775L 4 0.602248C 2.54483 0.602248 1.59566 0.359875 1.02272 0.130698C 0.735446 0.0168166 0.55286 -0.0883466 0.423757 -0.174698C 0.364518 -0.213917 0.329748 -0.240881 0.301681 -0.264066C 0.29007 -0.273559 0.285189 -0.277909 0.279519 -0.283081C 0.277839 -0.284591 0.276655 -0.285749 0.277492 -0.284946C 0.277347 -0.285089 0.27873 -0.283749 0.27866 -0.283816C 0.278348 -0.284123 0.279935 -0.282563 0.27978 -0.282716C 0.279564 -0.282929 0.28058 -0.281923 0.280472 -0.28203C 0.280595 -0.281908 0.28079 -0.281713 0.280851 -0.281652C 0.28105 -0.281454 0.281252 -0.281252 7.62939e-07 3.8147e-07Z"/>
</defs>
</svg>
