<svg width="158" height="60" viewBox="0 0 158 60" version="1.1" xmlns="http://www.w3.org/2000/svg" xmlns:xlink="http://www.w3.org/1999/xlink" xmlns:figma="http://www.figma.com/figma/ns">
<title>wave</title>
<desc>Created using Figma</desc>
<g id="Canvas" transform="translate(-476 -1875)" figma:type="canvas">
<g id="wave" style="mix-blend-mode:normal;" figma:type="frame">
<g id="Vector" style="mix-blend-mode:normal;" figma:type="vector">
<use xlink:href="#path0_fill" transform="translate(494.573 1893.68)" fill="#FFFFFF" style="mix-blend-mode:normal;"/>
</g>
<g id="Vector" style="mix-blend-mode:normal;" figma:type="vector">
<use xlink:href="#path1_fill" transform="translate(498.224 1884.8)" fill="#FFFFFF" style="mix-blend-mode:normal;"/>
</g>
<g id="Vector" style="mix-blend-mode:normal;" figma:type="vector">
<use xlink:href="#path2_fill" transform="translate(501.876 1896.84)" fill="#FFFFFF" style="mix-blend-mode:normal;"/>
</g>
<g id="Vector" style="mix-blend-mode:normal;" figma:type="vector">
<use xlink:href="#path3_fill" transform="translate(505.344 1882.43)" fill="#FFFFFF" style="mix-blend-mode:normal;"/>
</g>
<g id="Vector" style="mix-blend-mode:normal;" figma:type="vector">
<use xlink:href="#path3_fill" transform="translate(508.995 1882.43)" fill="#FFFFFF" style="mix-blend-mode:normal;"/>
</g>
<g id="Vector" style="mix-blend-mode:normal;" figma:type="vector">
<use xlink:href="#path4_fill" transform="translate(512.646 1884.21)" fill="#FFFFFF" style="mix-blend-mode:normal;"/>
</g>
<g id="Vector" style="mix-blend-mode:normal;" figma:type="vector">
<use xlink:href="#path5_fill" transform="translate(516.298 1894.87)" fill="#FFFFFF" style="mix-blend-mode:normal;"/>
</g>
<g id="Vector" style="mix-blend-mode:normal;" figma:type="vector">
<use xlink:href="#path6_fill" transform="translate(519.949 1876.12)" fill="#FFFFFF" style="mix-blend-mode:normal;"/>
</g>
<g id="Vector" style="mix-blend-mode:normal;" figma:type="vector">
<use xlink:href="#path7_fill" transform="translate(523.417 1879.87)" fill="#FFFFFF" style="mix-blend-mode:normal;"/>
</g>
<g id="Vector" style="mix-blend-mode:normal;" figma:type="vector">
<use xlink:href="#path8_fill" transform="translate(527.069 1884.74)" fill="#FFFFFF" style="mix-blend-mode:normal;"/>
</g>
<g id="Vector" style="mix-blend-mode:normal;" figma:type="vector">
<use xlink:href="#path9_fill" transform="translate(534.371 1896.05)" fill="#FFFFFF" style="mix-blend-mode:normal;"/>
</g>
<g id="Vector" style="mix-blend-mode:normal;" figma:type="vector">
<use xlink:href="#path10_fill" transform="translate(530.537 1900.53)" fill="#FFFFFF" style="mix-blend-mode:normal;"/>
</g>
<g id="Vector" style="mix-blend-mode:normal;" figma:type="vector">
<use xlink:href="#path11_fill" transform="translate(538.022 1892.43)" fill="#FFFFFF" style="mix-blend-mode:normal;"/>
</g>
<g id="Vector" style="mix-blend-mode:normal;" figma:type="vector">
<use xlink:href="#path12_fill" transform="translate(541.491 1884.8)" fill="#FFFFFF" style="mix-blend-mode:normal;"/>
</g>
<g id="Vector" style="mix-blend-mode:normal;" figma:type="vector">
<use xlink:href="#path13_fill" transform="translate(545.142 1875)" fill="#FFFFFF" style="mix-blend-mode:normal;"/>
</g>
<g id="Vector" style="mix-blend-mode:normal;" figma:type="vector">
<use xlink:href="#path14_fill" transform="translate(548.793 1881.64)" fill="#FFFFFF" style="mix-blend-mode:normal;"/>
</g>
<g id="Vector" style="mix-blend-mode:normal;" figma:type="vector">
<use xlink:href="#path15_fill" transform="translate(552.444 1877.96)" fill="#FFFFFF" style="mix-blend-mode:normal;"/>
</g>
<g id="Vector" style="mix-blend-mode:normal;" figma:type="vector">
<use xlink:href="#path16_fill" transform="translate(556.095 1884.21)" fill="#FFFFFF" style="mix-blend-mode:normal;"/>
</g>
<g id="Vector" style="mix-blend-mode:normal;" figma:type="vector">
<use xlink:href="#path17_fill" transform="translate(559.564 1890.33)" fill="#FFFFFF" style="mix-blend-mode:normal;"/>
</g>
<g id="Vector" style="mix-blend-mode:normal;" figma:type="vector">
<use xlink:href="#path18_fill" transform="translate(476.5 1903.55)" fill="#FFFFFF" style="mix-blend-mode:normal;"/>
</g>
<g id="Vector" style="mix-blend-mode:normal;" figma:type="vector">
<use xlink:href="#path19_fill" transform="translate(480.151 1902.83)" fill="#FFFFFF" style="mix-blend-mode:normal;"/>
</g>
<g id="Vector" style="mix-blend-mode:normal;" figma:type="vector">
<use xlink:href="#path20_fill" transform="translate(483.802 1901.32)" fill="#FFFFFF" style="mix-blend-mode:normal;"/>
</g>
<g id="Vector" style="mix-blend-mode:normal;" figma:type="vector">
<use xlink:href="#path21_fill" transform="translate(487.271 1899.21)" fill="#FFFFFF" style="mix-blend-mode:normal;"/>
</g>
<g id="Vector" style="mix-blend-mode:normal;" figma:type="vector">
<use xlink:href="#path22_fill" transform="translate(490.922 1895.46)" fill="#FFFFFF" style="mix-blend-mode:normal;"/>
</g>
<g id="Vector" style="mix-blend-mode:normal;" figma:type="vector">
<use xlink:href="#path23_fill" transform="translate(574.169 1893.68)" fill="#FFFFFF" style="mix-blend-mode:normal;"/>
</g>
<g id="Vector" style="mix-blend-mode:normal;" figma:type="vector">
<use xlink:href="#path24_fill" transform="translate(577.82 1884.8)" fill="#FFFFFF" style="mix-blend-mode:normal;"/>
</g>
<g id="Vector" style="mix-blend-mode:normal;" figma:type="vector">
<use xlink:href="#path25_fill" transform="translate(581.471 1896.84)" fill="#FFFFFF" style="mix-blend-mode:normal;"/>
</g>
<g id="Vector" style="mix-blend-mode:normal;" figma:type="vector">
<use xlink:href="#path26_fill" transform="translate(563.398 1901.32)" fill="#FFFFFF" style="mix-blend-mode:normal;"/>
</g>
<g id="Vector" style="mix-blend-mode:normal;" figma:type="vector">
<use xlink:href="#path27_fill" transform="translate(566.866 1899.21)" fill="#FFFFFF" style="mix-blend-mode:normal;"/>
</g>
<g id="Vector" style="mix-blend-mode:normal;" figma:type="vector">
<use xlink:href="#path28_fill" transform="translate(570.517 1895.46)" fill="#FFFFFF" style="mix-blend-mode:normal;"/>
</g>
<g id="Vector" style="mix-blend-mode:normal;" figma:type="vector">
<use xlink:href="#path29_fill" transform="translate(581.106 1880.39)" fill="#FFFFFF" style="mix-blend-mode:normal;"/>
</g>
<g id="Vector" style="mix-blend-mode:normal;" figma:type="vector">
<use xlink:href="#path30_fill" transform="translate(584.757 1890.33)" fill="#FFFFFF" style="mix-blend-mode:normal;"/>
</g>
<g id="Vector" style="mix-blend-mode:normal;" figma:type="vector">
<use xlink:href="#path31_fill" transform="translate(588.408 1885.59)" fill="#FFFFFF" style="mix-blend-mode:normal;"/>
</g>
<g id="Vector" style="mix-blend-mode:normal;" figma:type="vector">
<use xlink:href="#path32_fill" transform="translate(592.059 1895.26)" fill="#FFFFFF" style="mix-blend-mode:normal;"/>
</g>
<g id="Vector" style="mix-blend-mode:normal;" figma:type="vector">
<use xlink:href="#path33_fill" transform="translate(595.528 1880.39)" fill="#FFFFFF" style="mix-blend-mode:normal;"/>
</g>
<g id="Vector" style="mix-blend-mode:normal;" figma:type="vector">
<use xlink:href="#path34_fill" transform="translate(599.179 1890.33)" fill="#FFFFFF" style="mix-blend-mode:normal;"/>
</g>
<g id="Vector" style="mix-blend-mode:normal;" figma:type="vector">
<use xlink:href="#path35_fill" transform="translate(602.83 1895.26)" fill="#FFFFFF" style="mix-blend-mode:normal;"/>
</g>
<g id="Vector" style="mix-blend-mode:normal;" figma:type="vector">
<use xlink:href="#path34_fill" transform="translate(606.481 1890.33)" fill="#FFFFFF" style="mix-blend-mode:normal;"/>
</g>
<g id="Vector" style="mix-blend-mode:normal;" figma:type="vector">
<use xlink:href="#path36_fill" transform="translate(610.133 1885.59)" fill="#FFFFFF" style="mix-blend-mode:normal;"/>
</g>
<g id="Vector" style="mix-blend-mode:normal;" figma:type="vector">
<use xlink:href="#path37_fill" transform="translate(613.601 1890.33)" fill="#FFFFFF" style="mix-blend-mode:normal;"/>
</g>
<g id="Vector" style="mix-blend-mode:normal;" figma:type="vector">
<use xlink:href="#path38_fill" transform="translate(617.252 1894.01)" fill="#FFFFFF" style="mix-blend-mode:normal;"/>
</g>
<g id="Vector" style="mix-blend-mode:normal;" figma:type="vector">
<use xlink:href="#path39_fill" transform="translate(620.904 1897.63)" fill="#FFFFFF" style="mix-blend-mode:normal;"/>
</g>
<g id="Vector" style="mix-blend-mode:normal;" figma:type="vector">
<use xlink:href="#path26_fill" transform="translate(624.555 1901.32)" fill="#FFFFFF" style="mix-blend-mode:normal;"/>
</g>
<g id="Vector" style="mix-blend-mode:normal;" figma:type="vector">
<use xlink:href="#path40_fill" transform="translate(628.206 1902.57)" fill="#FFFFFF" style="mix-blend-mode:normal;"/>
</g>
<g id="Vector" style="mix-blend-mode:normal;" figma:type="vector">
<use xlink:href="#path18_fill" transform="translate(631.674 1903.55)" fill="#FFFFFF" style="mix-blend-mode:normal;"/>
</g>
<g id="Vector" style="mix-blend-mode:normal;" figma:type="vector">
<use xlink:href="#path0_fill" transform="translate(494.573 1905)" fill="#FFFFFF" style="mix-blend-mode:normal;"/>
</g>
<g id="Vector" style="mix-blend-mode:normal;" figma:type="vector">
<use xlink:href="#path41_fill" transform="translate(498.224 1905)" fill="#FFFFFF" style="mix-blend-mode:normal;"/>
</g>
<g id="Vector" style="mix-blend-mode:normal;" figma:type="vector">
<use xlink:href="#path42_fill" transform="translate(501.876 1905)" fill="#FFFFFF" style="mix-blend-mode:normal;"/>
</g>
<g id="Vector" style="mix-blend-mode:normal;" figma:type="vector">
<use xlink:href="#path43_fill" transform="translate(505.344 1905)" fill="#FFFFFF" style="mix-blend-mode:normal;"/>
</g>
<g id="Vector" style="mix-blend-mode:normal;" figma:type="vector">
<use xlink:href="#path43_fill" transform="translate(508.995 1905)" fill="#FFFFFF" style="mix-blend-mode:normal;"/>
</g>
<g id="Vector" style="mix-blend-mode:normal;" figma:type="vector">
<use xlink:href="#path4_fill" transform="translate(512.646 1905)" fill="#FFFFFF" style="mix-blend-mode:normal;"/>
</g>
<g id="Vector" style="mix-blend-mode:normal;" figma:type="vector">
<use xlink:href="#path44_fill" transform="translate(516.298 1905)" fill="#FFFFFF" style="mix-blend-mode:normal;"/>
</g>
<g id="Vector" style="mix-blend-mode:normal;" figma:type="vector">
<use xlink:href="#path45_fill" transform="translate(519.949 1905)" fill="#FFFFFF" style="mix-blend-mode:normal;"/>
</g>
<g id="Vector" style="mix-blend-mode:normal;" figma:type="vector">
<use xlink:href="#path46_fill" transform="translate(523.417 1905)" fill="#FFFFFF" style="mix-blend-mode:normal;"/>
</g>
<g id="Vector" style="mix-blend-mode:normal;" figma:type="vector">
<use xlink:href="#path47_fill" transform="translate(527.069 1905)" fill="#FFFFFF" style="mix-blend-mode:normal;"/>
</g>
<g id="Vector" style="mix-blend-mode:normal;" figma:type="vector">
<use xlink:href="#path48_fill" transform="translate(534.371 1905)" fill="#FFFFFF" style="mix-blend-mode:normal;"/>
</g>
<g id="Vector" style="mix-blend-mode:normal;" figma:type="vector">
<use xlink:href="#path49_fill" transform="translate(530.537 1905)" fill="#FFFFFF" style="mix-blend-mode:normal;"/>
</g>
<g id="Vector" style="mix-blend-mode:normal;" figma:type="vector">
<use xlink:href="#path50_fill" transform="translate(538.022 1905)" fill="#FFFFFF" style="mix-blend-mode:normal;"/>
</g>
<g id="Vector" style="mix-blend-mode:normal;" figma:type="vector">
<use xlink:href="#path51_fill" transform="translate(541.491 1905)" fill="#FFFFFF" style="mix-blend-mode:normal;"/>
</g>
<g id="Vector" style="mix-blend-mode:normal;" figma:type="vector">
<use xlink:href="#path13_fill" transform="translate(545.142 1905)" fill="#FFFFFF" style="mix-blend-mode:normal;"/>
</g>
<g id="Vector" style="mix-blend-mode:normal;" figma:type="vector">
<use xlink:href="#path14_fill" transform="translate(548.793 1905)" fill="#FFFFFF" style="mix-blend-mode:normal;"/>
</g>
<g id="Vector" style="mix-blend-mode:normal;" figma:type="vector">
<use xlink:href="#path15_fill" transform="translate(552.444 1905)" fill="#FFFFFF" style="mix-blend-mode:normal;"/>
</g>
<g id="Vector" style="mix-blend-mode:normal;" figma:type="vector">
<use xlink:href="#path16_fill" transform="translate(556.095 1905)" fill="#FFFFFF" style="mix-blend-mode:normal;"/>
</g>
<g id="Vector" style="mix-blend-mode:normal;" figma:type="vector">
<use xlink:href="#path52_fill" transform="translate(559.564 1905)" fill="#FFFFFF" style="mix-blend-mode:normal;"/>
</g>
<g id="Vector" style="mix-blend-mode:normal;" figma:type="vector">
<use xlink:href="#path53_fill" transform="translate(476.5 1905)" fill="#FFFFFF" style="mix-blend-mode:normal;"/>
</g>
<g id="Vector" style="mix-blend-mode:normal;" figma:type="vector">
<use xlink:href="#path54_fill" transform="translate(480.151 1905)" fill="#FFFFFF" style="mix-blend-mode:normal;"/>
</g>
<g id="Vector" style="mix-blend-mode:normal;" figma:type="vector">
<use xlink:href="#path55_fill" transform="translate(483.802 1905)" fill="#FFFFFF" style="mix-blend-mode:normal;"/>
</g>
<g id="Vector" style="mix-blend-mode:normal;" figma:type="vector">
<use xlink:href="#path56_fill" transform="translate(487.271 1905)" fill="#FFFFFF" style="mix-blend-mode:normal;"/>
</g>
<g id="Vector" style="mix-blend-mode:normal;" figma:type="vector">
<use xlink:href="#path22_fill" transform="translate(490.922 1905)" fill="#FFFFFF" style="mix-blend-mode:normal;"/>
</g>
<g id="Vector" style="mix-blend-mode:normal;" figma:type="vector">
<use xlink:href="#path23_fill" transform="translate(574.169 1905)" fill="#FFFFFF" style="mix-blend-mode:normal;"/>
</g>
<g id="Vector" style="mix-blend-mode:normal;" figma:type="vector">
<use xlink:href="#path57_fill" transform="translate(577.82 1905)" fill="#FFFFFF" style="mix-blend-mode:normal;"/>
</g>
<g id="Vector" style="mix-blend-mode:normal;" figma:type="vector">
<use xlink:href="#path58_fill" transform="translate(581.471 1905)" fill="#FFFFFF" style="mix-blend-mode:normal;"/>
</g>
<g id="Vector" style="mix-blend-mode:normal;" figma:type="vector">
<use xlink:href="#path59_fill" transform="translate(563.398 1905)" fill="#FFFFFF" style="mix-blend-mode:normal;"/>
</g>
<g id="Vector" style="mix-blend-mode:normal;" figma:type="vector">
<use xlink:href="#path60_fill" transform="translate(566.866 1905)" fill="#FFFFFF" style="mix-blend-mode:normal;"/>
</g>
<g id="Vector" style="mix-blend-mode:normal;" figma:type="vector">
<use xlink:href="#path28_fill" transform="translate(570.517 1905)" fill="#FFFFFF" style="mix-blend-mode:normal;"/>
</g>
<g id="Vector" style="mix-blend-mode:normal;" figma:type="vector">
<use xlink:href="#path61_fill" transform="translate(581.106 1905)" fill="#FFFFFF" style="mix-blend-mode:normal;"/>
</g>
<g id="Vector" style="mix-blend-mode:normal;" figma:type="vector">
<use xlink:href="#path62_fill" transform="translate(584.757 1905)" fill="#FFFFFF" style="mix-blend-mode:normal;"/>
</g>
<g id="Vector" style="mix-blend-mode:normal;" figma:type="vector">
<use xlink:href="#path31_fill" transform="translate(588.408 1905)" fill="#FFFFFF" style="mix-blend-mode:normal;"/>
</g>
<g id="Vector" style="mix-blend-mode:normal;" figma:type="vector">
<use xlink:href="#path63_fill" transform="translate(592.059 1905)" fill="#FFFFFF" style="mix-blend-mode:normal;"/>
</g>
<g id="Vector" style="mix-blend-mode:normal;" figma:type="vector">
<use xlink:href="#path64_fill" transform="translate(595.528 1905)" fill="#FFFFFF" style="mix-blend-mode:normal;"/>
</g>
<g id="Vector" style="mix-blend-mode:normal;" figma:type="vector">
<use xlink:href="#path65_fill" transform="translate(599.179 1905)" fill="#FFFFFF" style="mix-blend-mode:normal;"/>
</g>
<g id="Vector" style="mix-blend-mode:normal;" figma:type="vector">
<use xlink:href="#path66_fill" transform="translate(602.83 1905)" fill="#FFFFFF" style="mix-blend-mode:normal;"/>
</g>
<g id="Vector" style="mix-blend-mode:normal;" figma:type="vector">
<use xlink:href="#path65_fill" transform="translate(606.481 1905)" fill="#FFFFFF" style="mix-blend-mode:normal;"/>
</g>
<g id="Vector" style="mix-blend-mode:normal;" figma:type="vector">
<use xlink:href="#path36_fill" transform="translate(610.133 1905)" fill="#FFFFFF" style="mix-blend-mode:normal;"/>
</g>
<g id="Vector" style="mix-blend-mode:normal;" figma:type="vector">
<use xlink:href="#path67_fill" transform="translate(613.601 1905)" fill="#FFFFFF" style="mix-blend-mode:normal;"/>
</g>
<g id="Vector" style="mix-blend-mode:normal;" figma:type="vector">
<use xlink:href="#path38_fill" transform="translate(617.252 1905)" fill="#FFFFFF" style="mix-blend-mode:normal;"/>
</g>
<g id="Vector" style="mix-blend-mode:normal;" figma:type="vector">
<use xlink:href="#path39_fill" transform="translate(620.904 1905)" fill="#FFFFFF" style="mix-blend-mode:normal;"/>
</g>
<g id="Vector" style="mix-blend-mode:normal;" figma:type="vector">
<use xlink:href="#path59_fill" transform="translate(624.555 1905)" fill="#FFFFFF" style="mix-blend-mode:normal;"/>
</g>
<g id="Vector" style="mix-blend-mode:normal;" figma:type="vector">
<use xlink:href="#path68_fill" transform="translate(628.206 1905)" fill="#FFFFFF" style="mix-blend-mode:normal;"/>
</g>
<g id="Vector" style="mix-blend-mode:normal;" figma:type="vector">
<use xlink:href="#path53_fill" transform="translate(631.674 1905)" fill="#FFFFFF" style="mix-blend-mode:normal;"/>
</g>
</g>
</g>
<defs>
<path id="path0_fill" d="M 1.82558 0L 0 0L 0 11.3158L 1.82558 11.3158L 1.82558 0Z"/>
<path id="path1_fill" d="M 1.82558 0L 0 0L 0 20.1974L 1.82558 20.1974L 1.82558 0Z"/>
<path id="path2_fill" d="M 1.82558 0L 0 0L 0 8.15789L 1.82558 8.15789L 1.82558 0Z"/>
<path id="path3_fill" d="M 1.82558 0L 0 0L 0 22.5658L 1.82558 22.5658L 1.82558 0Z"/>
<path id="path4_fill" d="M 1.82558 0L 0 0L 0 20.7895L 1.82558 20.7895L 1.82558 0Z"/>
<path id="path5_fill" d="M 1.82558 0L 0 0L 0 10.1316L 1.82558 10.1316L 1.82558 0Z"/>
<path id="path6_fill" d="M 1.82558 0L 0 0L 0 28.8816L 1.82558 28.8816L 1.82558 0Z"/>
<path id="path7_fill" d="M 1.82558 0L 0 0L 0 25.1316L 1.82558 25.1316L 1.82558 0Z"/>
<path id="path8_fill" d="M 1.82558 0L 0 0L 0 20.2632L 1.82558 20.2632L 1.82558 0Z"/>
<path id="path9_fill" d="M 1.82558 0L 0 0L 0 8.94737L 1.82558 8.94737L 1.82558 0Z"/>
<path id="path10_fill" d="M 1.82558 0L 0 0L 0 4.47368L 1.82558 4.47368L 1.82558 0Z"/>
<path id="path11_fill" d="M 1.82558 0L 0 0L 0 12.5658L 1.82558 12.5658L 1.82558 0Z"/>
<path id="path12_fill" d="M 1.82558 0L -2.78562e-06 0L -2.78562e-06 20.1974L 1.82558 20.1974L 1.82558 0Z"/>
<path id="path13_fill" d="M 1.82558 0L -2.78562e-06 0L -2.78562e-06 30L 1.82558 30L 1.82558 0Z"/>
<path id="path14_fill" d="M 1.82558 0L -2.78562e-06 0L -2.78562e-06 23.3553L 1.82558 23.3553L 1.82558 0Z"/>
<path id="path15_fill" d="M 1.82558 0L -2.78562e-06 0L -2.78562e-06 27.0395L 1.82558 27.0395L 1.82558 0Z"/>
<path id="path16_fill" d="M 1.82558 0L -2.78562e-06 0L -2.78562e-06 20.7895L 1.82558 20.7895L 1.82558 0Z"/>
<path id="path17_fill" d="M 1.82558 0L 0 0L 0 14.6711L 1.82558 14.6711L 1.82558 0Z"/>
<path id="path18_fill" d="M 1.82558 0L 0 0L 0 1.44737L 1.82558 1.44737L 1.82558 0Z"/>
<path id="path19_fill" d="M 1.82558 0L 0 0L 0 2.17105L 1.82558 2.17105L 1.82558 0Z"/>
<path id="path20_fill" d="M 1.82558 0L 0 0L 0 3.68421L 1.82558 3.68421L 1.82558 0Z"/>
<path id="path21_fill" d="M 1.82558 0L 0 0L 0 5.78947L 1.82558 5.78947L 1.82558 0Z"/>
<path id="path22_fill" d="M 1.82558 0L 0 0L 0 9.60526L 1.82558 9.60526L 1.82558 0Z"/>
<path id="path23_fill" d="M 1.82558 0L 0 0L 0 11.3158L 1.82558 11.3158L 1.82558 0Z"/>
<path id="path24_fill" d="M 1.82558 0L 0 0L 0 20.1974L 1.82558 20.1974L 1.82558 0Z"/>
<path id="path25_fill" d="M 1.82558 0L 0 0L 0 8.15789L 1.82558 8.15789L 1.82558 0Z"/>
<path id="path26_fill" d="M 1.82558 0L -2.78562e-06 0L -2.78562e-06 3.68421L 1.82558 3.68421L 1.82558 0Z"/>
<path id="path27_fill" d="M 1.82558 0L 0 0L 0 5.78947L 1.82558 5.78947L 1.82558 0Z"/>
<path id="path28_fill" d="M 1.82558 0L 0 0L 0 9.60526L 1.82558 9.60526L 1.82558 0Z"/>
<path id="path29_fill" d="M 1.82558 0L 0 0L 0 24.6053L 1.82558 24.6053L 1.82558 0Z"/>
<path id="path30_fill" d="M 1.82558 0L 0 0L 0 14.6711L 1.82558 14.6711L 1.82558 0Z"/>
<path id="path31_fill" d="M 1.82558 0L 0 0L 0 19.4079L 1.82558 19.4079L 1.82558 0Z"/>
<path id="path32_fill" d="M 1.82559 0L 0 0L 0 9.73684L 1.82559 9.73684L 1.82559 0Z"/>
<path id="path33_fill" d="M 1.82558 0L -5.57123e-06 0L -5.57123e-06 24.6053L 1.82558 24.6053L 1.82558 0Z"/>
<path id="path34_fill" d="M 1.82558 0L -5.57123e-06 0L -5.57123e-06 14.6711L 1.82558 14.6711L 1.82558 0Z"/>
<path id="path35_fill" d="M 1.82558 0L -5.57123e-06 0L -5.57123e-06 9.73684L 1.82558 9.73684L 1.82558 0Z"/>
<path id="path36_fill" d="M 1.82558 0L -5.57123e-06 0L -5.57123e-06 19.4079L 1.82558 19.4079L 1.82558 0Z"/>
<path id="path37_fill" d="M 1.82558 0L -2.78562e-06 0L -2.78562e-06 14.6711L 1.82558 14.6711L 1.82558 0Z"/>
<path id="path38_fill" d="M 1.82558 0L -2.78562e-06 0L -2.78562e-06 10.9868L 1.82558 10.9868L 1.82558 0Z"/>
<path id="path39_fill" d="M 1.82558 0L -2.78562e-06 0L -2.78562e-06 7.36842L 1.82558 7.36842L 1.82558 0Z"/>
<path id="path40_fill" d="M 1.82558 0L -2.78562e-06 0L -2.78562e-06 2.43421L 1.82558 2.43421L 1.82558 0Z"/>
<path id="path41_fill" d="M 1.82558 0L 0 0L 0 20.1974L 1.82558 20.1974L 1.82558 0Z"/>
<path id="path42_fill" d="M 1.82558 0L 0 0L 0 8.1579L 1.82558 8.1579L 1.82558 0Z"/>
<path id="path43_fill" d="M 1.82558 0L 0 0L 0 22.5658L 1.82558 22.5658L 1.82558 0Z"/>
<path id="path44_fill" d="M 1.82558 0L 0 0L 0 10.1316L 1.82558 10.1316L 1.82558 0Z"/>
<path id="path45_fill" d="M 1.82558 0L 0 0L 0 28.8816L 1.82558 28.8816L 1.82558 0Z"/>
<path id="path46_fill" d="M 1.82558 0L 0 0L 0 25.1316L 1.82558 25.1316L 1.82558 0Z"/>
<path id="path47_fill" d="M 1.82558 0L 0 0L 0 20.2632L 1.82558 20.2632L 1.82558 0Z"/>
<path id="path48_fill" d="M 1.82558 0L 0 0L 0 8.94737L 1.82558 8.94737L 1.82558 0Z"/>
<path id="path49_fill" d="M 1.82558 0L 0 0L 0 4.47369L 1.82558 4.47369L 1.82558 0Z"/>
<path id="path50_fill" d="M 1.82558 0L 0 0L 0 12.5658L 1.82558 12.5658L 1.82558 0Z"/>
<path id="path51_fill" d="M 1.82558 0L -2.78562e-06 0L -2.78562e-06 20.1974L 1.82558 20.1974L 1.82558 0Z"/>
<path id="path52_fill" d="M 1.82558 0L 0 0L 0 14.6711L 1.82558 14.6711L 1.82558 0Z"/>
<path id="path53_fill" d="M 1.82558 0L 0 0L 0 1.44737L 1.82558 1.44737L 1.82558 0Z"/>
<path id="path54_fill" d="M 1.82558 0L 0 0L 0 2.17105L 1.82558 2.17105L 1.82558 0Z"/>
<path id="path55_fill" d="M 1.82558 0L 0 0L 0 3.68421L 1.82558 3.68421L 1.82558 0Z"/>
<path id="path56_fill" d="M 1.82558 0L 0 0L 0 5.78947L 1.82558 5.78947L 1.82558 0Z"/>
<path id="path57_fill" d="M 1.82558 0L 0 0L 0 20.1974L 1.82558 20.1974L 1.82558 0Z"/>
<path id="path58_fill" d="M 1.82558 0L 0 0L 0 8.1579L 1.82558 8.1579L 1.82558 0Z"/>
<path id="path59_fill" d="M 1.82558 0L -2.78562e-06 0L -2.78562e-06 3.68421L 1.82558 3.68421L 1.82558 0Z"/>
<path id="path60_fill" d="M 1.82558 0L 0 0L 0 5.78947L 1.82558 5.78947L 1.82558 0Z"/>
<path id="path61_fill" d="M 1.82558 0L 0 0L 0 24.6053L 1.82558 24.6053L 1.82558 0Z"/>
<path id="path62_fill" d="M 1.82558 0L 0 0L 0 14.6711L 1.82558 14.6711L 1.82558 0Z"/>
<path id="path63_fill" d="M 1.82559 0L 0 0L 0 9.73684L 1.82559 9.73684L 1.82559 0Z"/>
<path id="path64_fill" d="M 1.82558 0L -5.57123e-06 0L -5.57123e-06 24.6053L 1.82558 24.6053L 1.82558 0Z"/>
<path id="path65_fill" d="M 1.82558 0L -5.57123e-06 0L -5.57123e-06 14.6711L 1.82558 14.6711L 1.82558 0Z"/>
<path id="path66_fill" d="M 1.82558 0L -5.57123e-06 0L -5.57123e-06 9.73684L 1.82558 9.73684L 1.82558 0Z"/>
<path id="path67_fill" d="M 1.82558 0L -2.78562e-06 0L -2.78562e-06 14.6711L 1.82558 14.6711L 1.82558 0Z"/>
<path id="path68_fill" d="M 1.82558 0L -2.78562e-06 0L -2.78562e-06 2.43421L 1.82558 2.43421L 1.82558 0Z"/>
</defs>
</svg>
