<svg width="78" height="90" viewBox="0 0 78 90" version="1.1" xmlns="http://www.w3.org/2000/svg" xmlns:xlink="http://www.w3.org/1999/xlink" xmlns:figma="http://www.figma.com/figma/ns">
<title>transprot</title>
<desc>Created using Figma</desc>
<g id="Canvas" transform="translate(-1914 -1552)" figma:type="canvas">
<g id="transprot" style="mix-blend-mode:normal;" figma:type="frame">
<g id="Group" style="mix-blend-mode:normal;" figma:type="frame">
<g id="Vector" style="mix-blend-mode:normal;" figma:type="vector">
<use xlink:href="#path0_fill" transform="translate(1914.7 1552.82)" fill="#E2112E" style="mix-blend-mode:normal;"/>
</g>
<g id="Vector" style="mix-blend-mode:normal;" figma:type="vector">
<use xlink:href="#path1_fill" transform="translate(1955.7 1580.82)" fill="#E2112E" style="mix-blend-mode:normal;"/>
</g>
</g>
<g id="Group" style="mix-blend-mode:normal;" figma:type="frame">
<g id="Vector" style="mix-blend-mode:normal;" figma:type="vector">
<use xlink:href="#path2_stroke" transform="translate(1937.9 1558.07)" fill="#E2112E" style="mix-blend-mode:normal;"/>
</g>
<g id="Vector" style="mix-blend-mode:normal;" figma:type="vector">
<use xlink:href="#path3_stroke" transform="translate(1940.4 1560.38)" fill="#E2112E" style="mix-blend-mode:normal;"/>
</g>
<g id="Vector" style="mix-blend-mode:normal;" figma:type="vector">
<use xlink:href="#path4_stroke" transform="translate(1942.9 1562.67)" fill="#E2112E" style="mix-blend-mode:normal;"/>
</g>
<g id="Vector" style="mix-blend-mode:normal;" figma:type="vector">
<use xlink:href="#path5_stroke" transform="translate(1945.4 1564.97)" fill="#E2112E" style="mix-blend-mode:normal;"/>
</g>
<g id="Vector" style="mix-blend-mode:normal;" figma:type="vector">
<use xlink:href="#path6_stroke" transform="translate(1947.9 1567.27)" fill="#E2112E" style="mix-blend-mode:normal;"/>
</g>
<g id="Vector" style="mix-blend-mode:normal;" figma:type="vector">
<use xlink:href="#path7_stroke" transform="translate(1950.4 1569.57)" fill="#E2112E" style="mix-blend-mode:normal;"/>
</g>
</g>
<g id="Group" style="mix-blend-mode:normal;" figma:type="frame">
<g id="Vector" style="mix-blend-mode:normal;" figma:type="vector">
<use xlink:href="#path8_stroke" transform="translate(1938.5 1611.27)" fill="#E2112E" style="mix-blend-mode:normal;"/>
</g>
<g id="Vector" style="mix-blend-mode:normal;" figma:type="vector">
<use xlink:href="#path9_stroke" transform="translate(1938.4 1608.17)" fill="#E2112E" style="mix-blend-mode:normal;"/>
</g>
<g id="Vector" style="mix-blend-mode:normal;" figma:type="vector">
<use xlink:href="#path10_stroke" transform="translate(1938.3 1605.07)" fill="#E2112E" style="mix-blend-mode:normal;"/>
</g>
<g id="Vector" style="mix-blend-mode:normal;" figma:type="vector">
<use xlink:href="#path11_stroke" transform="translate(1938.2 1601.97)" fill="#E2112E" style="mix-blend-mode:normal;"/>
</g>
<g id="Vector" style="mix-blend-mode:normal;" figma:type="vector">
<use xlink:href="#path12_stroke" transform="translate(1938.1 1598.87)" fill="#E2112E" style="mix-blend-mode:normal;"/>
</g>
<g id="Vector" style="mix-blend-mode:normal;" figma:type="vector">
<use xlink:href="#path13_stroke" transform="translate(1938 1595.77)" fill="#E2112E" style="mix-blend-mode:normal;"/>
</g>
</g>
</g>
</g>
<defs>
<path id="path0_fill" d="M 76.6 61.55C 76.6 61.45 76.6 61.35 76.5 61.25L 76.5 61.15C 76.5 61.05 76.4 60.95 76.3 60.85C 76.2 60.75 76.2 60.75 76.1 60.65L 54.2 48.05L 54.2 22.75L 57.9 12.15L 57.9 12.05L 57.9 11.95C 57.9 11.85 57.9 11.75 57.9 11.65C 57.9 11.55 57.8 11.45 57.7 11.35C 57.7 11.35 57.7 11.35 57.6 11.25L 57.5 11.15C 57.5 11.15 57.4 11.15 57.4 11.05L 38.8 0.15C 38.5 -0.05 38.1 -0.05 37.8 0.15L 19.1 10.95C 19.1 10.95 19 10.95 19 11.05L 18.9 11.15L 18.8 11.25C 18.7 11.35 18.7 11.45 18.6 11.55C 18.6 11.65 18.6 11.75 18.6 11.85L 18.6 11.95L 18.6 12.05L 22.3 22.65L 22.3 48.05L 0.5 60.65C 0.4 60.65 0.4 60.75 0.3 60.85C 0.2 60.95 0.2 61.05 0.1 61.15L 0.1 61.25C 0 61.25 0 61.35 0 61.55L 0 65.85C 0 66.25 0.2 66.55 0.5 66.75L 37.8 88.25L 37.9 88.25L 38 88.25C 38.1 88.25 38.2 88.35 38.3 88.35C 38.4 88.35 38.5 88.35 38.6 88.25L 38.7 88.25L 38.8 88.25L 76.1 66.75C 76.4 66.55 76.6 66.25 76.6 65.85L 76.6 61.55ZM 22.8 62.25L 37.7 70.75C 37.9 70.85 38 70.85 38.2 70.85C 38.3 70.85 38.4 70.85 38.4 70.85C 38.4 70.85 38.4 70.85 38.5 70.85C 38.6 70.85 38.6 70.85 38.7 70.75L 53.6 61.95C 53.9 61.75 54.1 61.45 54.1 61.05L 54.1 50.25L 73.5 61.45L 38.3 81.95L 3 61.55L 22.3 50.35L 22.3 61.45C 22.3 61.75 22.5 62.15 22.8 62.25ZM 32.1 43.55L 31.1 42.95L 24.3 39.05L 24.3 37.15L 32.7 41.95L 33.7 42.55L 34.7 43.15L 37.2 44.65L 37.2 46.55L 33 44.15L 32.1 43.55ZM 30.3 19.15L 37.2 23.15L 37.2 29.45L 31.6 26.25L 30.3 19.15ZM 44.5 43.55L 43.5 44.15L 39.2 46.65L 39.2 44.65L 41.8 43.15L 42.8 42.55L 43.8 41.95L 52.1 37.15L 52.1 39.05L 45.5 43.05L 44.5 43.55ZM 52.2 34.95L 41.9 40.95L 40.9 41.55L 39.9 42.15L 39.3 42.45L 39.3 41.75L 39.3 40.55L 39.3 39.35L 39.3 31.75L 52.2 24.35L 52.2 34.95ZM 44.8 26.25L 39.2 29.45L 39.2 23.15L 46.1 19.15L 44.8 26.25ZM 37.3 31.75L 37.3 39.45L 37.3 40.65L 37.3 41.85L 37.3 42.45L 36.7 42.05L 35.7 41.45L 34.7 40.85L 24.3 34.85L 24.3 24.35L 37.3 31.75ZM 48.5 62.75L 46.8 63.75L 46.8 57.55L 48.6 56.55L 48.5 62.75ZM 52.2 48.05L 52.2 49.25L 52.2 60.65L 50.5 61.65L 50.6 54.95C 50.6 54.55 50.4 54.25 50.1 54.05C 49.8 53.85 49.4 53.85 49.1 54.05L 45.3 56.05C 45 56.25 44.8 56.55 44.8 56.95L 44.8 64.95L 39.3 68.15L 39.3 48.95L 45.6 45.35L 46.6 44.75L 47.6 44.15L 52.3 41.45L 52.3 46.85L 52.2 48.05ZM 52.4 21.85L 47.2 24.85L 48.6 17.75L 55.2 13.95L 52.4 21.85ZM 38.3 2.25L 55 11.85L 47 16.35L 38.2 21.45L 21.6 11.85L 38.3 2.25ZM 21.4 14.05L 28 17.85L 29.4 24.95L 24.2 21.95L 21.4 14.05ZM 24.3 41.35L 29.1 44.15L 30.1 44.75L 31.1 45.35L 37.3 48.95L 37.3 68.25L 24.4 60.85L 24.4 49.15L 24.4 48.05L 24.4 46.85L 24.4 41.35L 24.3 41.35ZM 2 65.25L 2 63.25L 37.3 83.65L 37.3 85.65L 2 65.25ZM 39.3 85.65L 39.3 83.65L 74.6 63.25L 74.6 65.25L 39.3 85.65Z"/>
<path id="path1_fill" d="M 0.5 10.55C 0.7 10.65 0.8 10.65 1 10.65C 1.2 10.65 1.3 10.65 1.5 10.55L 9 6.25C 9.3 6.05 9.5 5.75 9.5 5.35L 9.5 1.05C 9.5 0.65 9.3 0.35 9 0.15C 8.7 -0.0499996 8.3 -0.0499996 8 0.15L 0.5 4.45C 0.2 4.65 0 4.95 0 5.35L 0 9.65C 0 10.05 0.2 10.35 0.5 10.55ZM 7.5 4.75L 5.8 5.75L 5.8 3.75L 7.5 2.75L 7.5 4.75ZM 2 5.95L 3.7 4.95L 3.7 6.95L 2 7.95L 2 5.95Z"/>
<path id="path2_stroke" d="M -0.244115 7.56364C -0.485108 7.69846 -0.571178 8.00312 -0.436356 8.24412C -0.301535 8.48511 0.00312327 8.57118 0.244117 8.43636L -0.244115 7.56364ZM 14.5441 0.436357C 14.7851 0.301535 14.8712 -0.00312269 14.7364 -0.244116C 14.6015 -0.485109 14.2969 -0.571179 14.0559 -0.436357L 14.5441 0.436357ZM 0.244117 8.43636L 14.5441 0.436357L 14.0559 -0.436357L -0.244115 7.56364L 0.244117 8.43636Z"/>
<path id="path3_stroke" d="M -0.20836 6.82958C -0.412937 6.94465 -0.485493 7.20378 -0.370419 7.40836C -0.255344 7.61294 0.0037847 7.68549 0.208362 7.57042L -0.20836 6.82958ZM 13.0084 0.37042C 13.2129 0.255345 13.2855 -0.00378393 13.1704 -0.208361C 13.0553 -0.412938 12.7962 -0.485494 12.5916 -0.37042L 13.0084 0.37042ZM 0.208362 7.57042L 13.0084 0.37042L 12.5916 -0.37042L -0.20836 6.82958L 0.208362 7.57042Z"/>
<path id="path4_stroke" d="M -0.173361 6.19595C -0.341282 6.29169 -0.399793 6.50544 -0.304048 6.67336C -0.208304 6.84128 0.00544041 6.89979 0.173362 6.80405L -0.173361 6.19595ZM 11.5734 0.304049C 11.7413 0.208304 11.7998 -0.00543946 11.704 -0.173361C 11.6083 -0.341283 11.3946 -0.399794 11.2266 -0.304049L 11.5734 0.304049ZM 0.173362 6.80405L 11.5734 0.304049L 11.2266 -0.304049L -0.173361 6.19595L 0.173362 6.80405Z"/>
<path id="path5_stroke" d="M -0.137214 5.46168C -0.268836 5.53746 -0.314102 5.70559 -0.23832 5.83721C -0.162539 5.96884 0.00559484 6.0141 0.137216 5.93832L -0.137214 5.46168ZM 10.0372 0.238322C 10.1688 0.16254 10.2141 -0.00559369 10.1383 -0.137215C 10.0625 -0.268836 9.8944 -0.314103 9.76278 -0.238321L 10.0372 0.238322ZM 0.137216 5.93832L 10.0372 0.238322L 9.76278 -0.238321L -0.137214 5.46168L 0.137216 5.93832Z"/>
<path id="path6_stroke" d="M -0.102296 4.82814C -0.197211 4.88464 -0.228355 5.00738 -0.171858 5.1023C -0.115361 5.19721 0.00738269 5.22835 0.102298 5.17186L -0.102296 4.82814ZM 8.5023 0.171858C 8.59721 0.115361 8.62835 -0.00738231 8.57186 -0.102297C 8.51536 -0.197212 8.39262 -0.228356 8.2977 -0.171859L 8.5023 0.171858ZM 0.102298 5.17186L 8.5023 0.171858L 8.2977 -0.171859L -0.102296 4.82814L 0.102298 5.17186Z"/>
<path id="path7_stroke" d="M -0.0649926 4.09323C -0.123963 4.12912 -0.142669 4.20602 -0.106774 4.26499C -0.0708792 4.32396 0.00602403 4.34267 0.0649941 4.30677L -0.0649926 4.09323ZM 6.96499 0.106776C 7.02396 0.0708807 7.04267 -0.00602251 7.00677 -0.0649926C 6.97088 -0.123963 6.89398 -0.142669 6.83501 -0.106774L 6.96499 0.106776ZM 0.0649941 4.30677L 6.96499 0.106776L 6.83501 -0.106774L -0.0649926 4.09323L 0.0649941 4.30677Z"/>
<path id="path8_stroke" d="M 0.245304 -0.435688C 0.00467861 -0.571166 -0.300213 -0.485928 -0.435691 -0.245303C -0.571169 -0.00467784 -0.48593 0.300214 -0.245305 0.435692L 0.245304 -0.435688ZM 11.6547 7.13569C 11.8953 7.27117 12.2002 7.18593 12.3357 6.9453C 12.4712 6.70468 12.3859 6.39979 12.1453 6.26431L 11.6547 7.13569ZM -0.245305 0.435692L 11.6547 7.13569L 12.1453 6.26431L 0.245304 -0.435688L -0.245305 0.435692Z"/>
<path id="path9_stroke" d="M 0.209012 -0.370054C 0.00463763 -0.485488 -0.254618 -0.413387 -0.370052 -0.209012C -0.485486 -0.00463763 -0.413385 0.254618 -0.209011 0.370052L 0.209012 -0.370054ZM 10.591 6.47005C 10.7954 6.58549 11.0546 6.51339 11.1701 6.30901C 11.2855 6.10464 11.2134 5.84538 11.009 5.72995L 10.591 6.47005ZM -0.209011 0.370052L 10.591 6.47005L 11.009 5.72995L 0.209012 -0.370054L -0.209011 0.370052Z"/>
<path id="path10_stroke" d="M 0.170243 -0.305805C 0.00135087 -0.399828 -0.211783 -0.339134 -0.305806 -0.170242C -0.399828 -0.00134972 -0.339134 0.211785 -0.170242 0.305807L 0.170243 -0.305805ZM 9.52976 5.7058C 9.69865 5.79983 9.91178 5.73913 10.0058 5.57024C 10.0998 5.40135 10.0391 5.18821 9.87024 5.09419L 9.52976 5.7058ZM -0.170242 0.305807L 9.52976 5.7058L 9.87024 5.09419L 0.170243 -0.305805L -0.170242 0.305807Z"/>
<path id="path11_stroke" d="M 0.135223 -0.239459C 0.00297442 -0.31414 -0.164776 -0.267473 -0.239457 -0.135225C -0.314139 -0.00297594 -0.267472 0.164774 -0.135223 0.239456L 0.135223 -0.239459ZM 8.36478 5.03946C 8.49703 5.11414 8.66478 5.06747 8.73946 4.93522C 8.81414 4.80298 8.76747 4.63523 8.63522 4.56054L 8.36478 5.03946ZM -0.135223 0.239456L 8.36478 5.03946L 8.63522 4.56054L 0.135223 -0.239459L -0.135223 0.239456Z"/>
<path id="path12_stroke" d="M 0.0987207 -0.173937C 0.00265789 -0.228459 -0.119415 -0.194784 -0.173938 -0.0987211C -0.22846 -0.00265827 -0.194784 0.119415 -0.0987215 0.173937L 0.0987207 -0.173937ZM 7.30128 4.37394C 7.39734 4.42846 7.51941 4.39478 7.57394 4.29872C 7.62846 4.20266 7.59478 4.08059 7.49872 4.02606L 7.30128 4.37394ZM -0.0987215 0.173937L 7.30128 4.37394L 7.49872 4.02606L 0.0987207 -0.173937L -0.0987215 0.173937Z"/>
<path id="path13_stroke" d="M 0.0627661 -0.108097C 0.00306492 -0.142762 -0.0734342 -0.122467 -0.108099 -0.0627654C -0.142765 -0.00306416 -0.122469 0.0734349 -0.0627677 0.1081L 0.0627661 -0.108097ZM 6.13723 3.7081C 6.19693 3.74276 6.27343 3.72247 6.3081 3.66277C 6.34276 3.60307 6.32247 3.52657 6.26277 3.4919L 6.13723 3.7081ZM -0.0627677 0.1081L 6.13723 3.7081L 6.26277 3.4919L 0.0627661 -0.108097L -0.0627677 0.1081Z"/>
</defs>
</svg>
