<svg xmlns="http://www.w3.org/2000/svg" viewBox="0 0 318.38 512"><defs><style>.cls-1{fill:#fff;}</style></defs><title>Asset 1</title><g id="Layer_2" data-name="Layer 2"><g id="Layer_1-2" data-name="Layer 1"><path class="cls-1" d="M159,23.27a131.61,131.61,0,0,1,68.09,18.39,134.27,134.27,0,0,1,49.59,49.59,131.6,131.6,0,0,1,18.39,68.08v7a31.13,31.13,0,0,0-.58,6.11v2.79c-2.22,19.4-7.81,43-16.63,70.12a820.33,820.33,0,0,1-34,86.66c-15.25,33.38-27.6,59.18-38.87,81.21-5.92,11.57-12.28,23.19-18.44,34.43-6.69,12.22-13.6,24.86-20.06,37.61-1,2-4.37,3.46-8,3.46-2.93,0-5.58-1-6.16-2.32l-.44-1-.53-.95c-13.72-24.69-26.17-48-38.08-71.25-12.77-25-26-52.28-39.16-81.2a821.61,821.61,0,0,1-34-86.67c-8.54-26.27-14-49.85-16.34-70.12v-9.18l-.58-1.75v-5c0-24.94,5.92-47.21,18.1-68.09A134.27,134.27,0,0,1,91,41.66,131.61,131.61,0,0,1,159,23.27M159,0A155.49,155.49,0,0,0,79.23,21.56a158,158,0,0,0-58,58C7,104,0,130.5,0,159.34v6.41a12.07,12.07,0,0,0,.58,4.08v6.7c2.33,21.56,8,46.94,17.47,76a841.17,841.17,0,0,0,35,89.14q20.8,45.53,39.62,82.14c12.53,24.47,25.34,48.35,38.45,71.95,4.78,10.87,16,16.22,27.47,16.22s23.3-5.46,28.75-16.22c12.2-24.08,25.93-47.48,38.45-71.95s25.51-51.9,39.32-82.14a839.54,839.54,0,0,0,35-89.14q14.21-43.76,17.77-76v-4.08a4.18,4.18,0,0,1,.58-2.62V159.34a155.49,155.49,0,0,0-21.56-79.81,158,158,0,0,0-58-58A155.49,155.49,0,0,0,159,0Z"/><path class="cls-1" d="M159,107.78A56.77,56.77,0,0,0,117.68,125c-11.36,11.36-16.89,25.34-16.89,41.36s5.53,30,16.89,41.36a58.37,58.37,0,0,0,82.73,0,58.38,58.38,0,0,0,0-82.73A56.77,56.77,0,0,0,159,107.78ZM159,192.7a26.28,26.28,0,0,1,0-52.56,26.58,26.58,0,0,1,18.7,7.83,25.68,25.68,0,0,1,0,37A26.56,26.56,0,0,1,159,192.7Z"/></g></g></svg>