<svg xmlns="http://www.w3.org/2000/svg" viewBox="0 0 370.96 512"><defs><style>.cls-1{fill:#fff;}</style></defs><title>Asset 2</title><g id="Layer_2" data-name="Layer 2"><g id="Layer_1-2" data-name="Layer 1"><path class="cls-1" d="M360.76,0H10.2A10.2,10.2,0,0,0,0,10.2V501.8A10.2,10.2,0,0,0,10.2,512H276.76a10.2,10.2,0,0,0,7.21-3l84-84a10.2,10.2,0,0,0,3-7.21V10.2A10.2,10.2,0,0,0,360.76,0ZM286.94,477.2l0-49.26,49.26,0Zm63.62-69.6-73.86-.07h0a10.2,10.2,0,0,0-10.2,10.21l.07,73.86H20.4V20.4H350.56Z"/><path class="cls-1" d="M104.5,368A46.51,46.51,0,1,0,151,414.49,46.57,46.57,0,0,0,104.5,368Zm0,72.63a26.12,26.12,0,1,1,26.12-26.12A26.15,26.15,0,0,1,104.5,440.61Z"/><path class="cls-1" d="M237.49,405.93H181.4a10.2,10.2,0,0,0,0,20.4h56.1a10.2,10.2,0,1,0,0-20.4Z"/><path class="cls-1" d="M100.82,61.19H71.25a10.2,10.2,0,1,0,0,20.4h29.58a10.2,10.2,0,1,0,0-20.4Z"/><path class="cls-1" d="M303.79,61.19H215.06a10.2,10.2,0,1,0,0,20.4h88.73a10.2,10.2,0,1,0,0-20.4Z"/><path class="cls-1" d="M303.79,105.05H152.84a10.2,10.2,0,1,0,0,20.4H303.79a10.2,10.2,0,1,0,0-20.4Z"/><path class="cls-1" d="M304.3,185.63H66.66a10.2,10.2,0,0,0,0,20.4H304.3a10.2,10.2,0,0,0,0-20.4Z"/><path class="cls-1" d="M304.3,220.3H66.66a10.2,10.2,0,0,0,0,20.4H304.3a10.2,10.2,0,0,0,0-20.4Z"/><path class="cls-1" d="M304.3,258H66.66a10.2,10.2,0,0,0,0,20.4H304.3a10.2,10.2,0,0,0,0-20.4Z"/><path class="cls-1" d="M304.3,292.72h-5.61a10.2,10.2,0,0,0,0,20.4h5.61a10.2,10.2,0,1,0,0-20.4Z"/><path class="cls-1" d="M263,292.72H66.66a10.2,10.2,0,0,0,0,20.4H263a10.2,10.2,0,0,0,0-20.4Z"/></g></g></svg>