<svg xmlns="http://www.w3.org/2000/svg" viewBox="0 0 19.83 31.89"><title>Asset 3</title><g id="Layer_2" data-name="Layer 2"><g id="Layer_1-2" data-name="Layer 1"><path style="fill: #f89a32" d="M9.91,1.8A7.86,7.86,0,0,1,14,2.9a8,8,0,0,1,3,3A7.86,7.86,0,0,1,18,9.93v.4h0a2.32,2.32,0,0,0,0,.42v.15a22.86,22.86,0,0,1-1,4.28,50.76,50.76,0,0,1-2.1,5.36c-.95,2.07-1.72,3.68-2.41,5-.37.72-.76,1.44-1.14,2.14s-.85,1.55-1.24,2.33a.37.37,0,0,1-.2.05h-.1l0-.07c-.85-1.53-1.63-3-2.37-4.43s-1.61-3.25-2.43-5a50.83,50.83,0,0,1-2.1-5.36,22.5,22.5,0,0,1-1-4.28v-.61l0-.11V9.93A7.85,7.85,0,0,1,2.88,5.86a8,8,0,0,1,3-3A7.86,7.86,0,0,1,9.91,1.8m0-1.8a9.69,9.69,0,0,0-5,1.34A9.84,9.84,0,0,0,1.32,5,9.67,9.67,0,0,0,0,9.93v.4a.75.75,0,0,0,0,.25V11a23.93,23.93,0,0,0,1.09,4.74A52.4,52.4,0,0,0,3.3,21.29q1.3,2.84,2.47,5.12c.78,1.52,1.58,3,2.4,4.48a1.81,1.81,0,0,0,1.71,1,2,2,0,0,0,1.79-1c.76-1.5,1.62-3,2.4-4.48s1.59-3.23,2.45-5.12a52.3,52.3,0,0,0,2.18-5.55A24.1,24.1,0,0,0,19.8,11v-.25a.26.26,0,0,1,0-.16V9.93a9.69,9.69,0,0,0-1.34-5,9.84,9.84,0,0,0-3.61-3.61A9.69,9.69,0,0,0,9.91,0Z"/><path style="fill: #f89a32" d="M9.91,6.71a3.62,3.62,0,0,0-3.63,3.65A3.62,3.62,0,0,0,9.91,14a3.66,3.66,0,0,0,3.65-3.65A3.66,3.66,0,0,0,9.91,6.71ZM9.9,12a1.64,1.64,0,0,1,0-3.27,1.66,1.66,0,0,1,1.17.49,1.6,1.6,0,0,1,0,2.3A1.65,1.65,0,0,1,9.9,12Z"/></g></g></svg>