<svg xmlns="http://www.w3.org/2000/svg" viewBox="0 0 32 32"><title>Asset 4</title><g id="Layer_2" data-name="Layer 2"><g id="Layer_1-2" data-name="Layer 1"><path style="fill: #f89a32" d="M30.78,25l-6.27-6.27a1.92,1.92,0,0,0-2.71,0L20.17,20.4a1.92,1.92,0,0,0-.49,1.89l-.62.62h0c-.44.44-3.16-.23-6.45-3.52s-4-6-3.52-6.45h0l.62-.62a1.92,1.92,0,0,0,1.89-.49l1.63-1.63a1.92,1.92,0,0,0,0-2.71L7,1.22a1.92,1.92,0,0,0-2.71,0L2.62,2.85a1.92,1.92,0,0,0-.49,1.89l-.55.56c-1.73,1.93-2.06,5-.91,8.59a27.35,27.35,0,0,0,6.84,10.6,27.35,27.35,0,0,0,10.6,6.84,13.27,13.27,0,0,0,4,.68,6.61,6.61,0,0,0,4.83-1.79l.34-.34a1.93,1.93,0,0,0,.53.08,1.91,1.91,0,0,0,1.36-.56l1.63-1.63A1.92,1.92,0,0,0,30.78,25ZM5.61,2.57l6.27,6.27-1.63,1.63h0l0,0L7.11,7.34,4,4.2Zm20,26.28h0c-1.38,1.38-3.82,1.61-6.87.64a25.42,25.42,0,0,1-9.82-6.36,25.42,25.42,0,0,1-6.36-9.82c-1-3.05-.74-5.49.64-6.87h0l.17-.17,4.87,4.87-.45.45h0c-1.85,1.85.37,6,3.52,9.16,2.36,2.36,5.28,4.2,7.38,4.2a2.42,2.42,0,0,0,1.78-.67h0l.45-.45,4.87,4.87ZM27.8,28l-6.27-6.27,1.63-1.63,6.27,6.27Z"/><path style="fill: #f89a32" d="M24.3,7.7a9.6,9.6,0,0,0-6.83-2.83,1,1,0,0,0,0,1.92,7.75,7.75,0,0,1,7.75,7.75,1,1,0,1,0,1.92,0A9.6,9.6,0,0,0,24.3,7.7Z"/><path style="fill: #f89a32" d="M27.74,4.26A14.44,14.44,0,0,0,17.47,0a1,1,0,0,0,0,1.92A12.61,12.61,0,0,1,30.08,14.53a1,1,0,0,0,1.92,0A14.44,14.44,0,0,0,27.74,4.26Z"/><path style="fill: #f89a32" d="M20.86,11.14a4.7,4.7,0,0,0-3.39-1.4h0a1,1,0,0,0,0,1.92h0a2.78,2.78,0,0,1,2,.84,2.82,2.82,0,0,1,.84,2,1,1,0,0,0,1,1h0a1,1,0,0,0,1-1A4.7,4.7,0,0,0,20.86,11.14Z"/></g></g></svg>