<svg xmlns="http://www.w3.org/2000/svg" viewBox="0 0 32 25.14"><title>Asset 2</title><g id="Layer_2" data-name="Layer 2"><g id="Layer_1-2" data-name="Layer 1"><path style="fill: #f89a32" d="M31.16.84a2.75,2.75,0,0,0-2-.84H2.86a2.75,2.75,0,0,0-2,.84,2.75,2.75,0,0,0-.84,2V22.29a2.75,2.75,0,0,0,.84,2,2.75,2.75,0,0,0,2,.84H29.14A2.87,2.87,0,0,0,32,22.29V2.86A2.75,2.75,0,0,0,31.16.84Zm-1,21.73a.6.6,0,0,1-.59.59H2.47a.6.6,0,0,1-.59-.59V8.45A10.76,10.76,0,0,0,3.15,9.67Q8.07,13.45,11,15.88q.94.79,1.53,1.23A8.48,8.48,0,0,0,14.1,18a4.61,4.61,0,0,0,1.88.45h0A4.61,4.61,0,0,0,17.9,18a8.47,8.47,0,0,0,1.59-.89q.59-.44,1.53-1.23,2.91-2.43,7.83-6.21a10.71,10.71,0,0,0,1.27-1.21V22.57ZM30.12,3v.2a6.43,6.43,0,0,1-.85,3,8.65,8.65,0,0,1-1.85,2.12L20,14.18l-.64.54q-.53.45-.85.69t-.82.58a4.91,4.91,0,0,1-.93.51,2.18,2.18,0,0,1-.79.17h0a2.19,2.19,0,0,1-.79-.17,4.9,4.9,0,0,1-.93-.51q-.51-.34-.82-.58t-.85-.69L12,14.18,4.58,8.35a7.49,7.49,0,0,1-2.7-5.78A.6.6,0,0,1,2.47,2H29.53a.32.32,0,0,0,.26,0c.07,0,.13,0,.17.14s.07.17.1.17,0,.07.06.23V3Z"/></g></g></svg>