<?xml version="1.0" encoding="utf-8"?>
<!-- Generator: Adobe Illustrator 19.2.1, SVG Export Plug-In . SVG Version: 6.00 Build 0)  -->
<svg version="1.1" id="Layer_1" xmlns="http://www.w3.org/2000/svg" xmlns:xlink="http://www.w3.org/1999/xlink" x="0px" y="0px"
	 viewBox="0 0 64.5 44" style="enable-background:new 0 0 64.5 44;" xml:space="preserve">
<g id="altan_x5F_logo">
	<path d="M51.7,0c-0.4,0-0.8,0-1.2,0H26.6c-0.7,0-1.3,0-2,0c-4.8,0.3-9.7,2.7-13.9,6.4C6,10.7,2.8,17.1,1.2,22.1
		C-0.6,27.5-0.3,32.4,1.5,36c2.2,4.4,6.3,8,12.2,8h26c4.4-0.1,9.6-3.9,12.2-6.2l-35.2,0c-1.2,0-2.6-0.1-3.3-0.4
		c-1.9-0.7-3.3-2-4.3-3.9c-1.5-2.9-1.6-7-0.1-11.6c0.6-1.8,1.3-3.4,2.2-5c2.3-1.3,6.1-2.3,8,0c-0.8,1.1-1.6,2.1-2.1,3.3
		c-0.9,1.9-1.4,4-1.3,6.1c0.1,1.5,0.7,3.8,2.9,3.9c1.2,0.1,2.4-0.6,3.3-1.2c1.7-1.2,3.1-3.1,4-5c0.4-0.9,0.8-1.8,1-2.8
		c0.9-3.2,0.5-6.1-0.7-8.3c-1.2-2.1-3.2-3.5-5.9-4C19.5,9,18.8,9,18,9c2.7-2.1,5.8-3.4,9-3.4c3,0.1,5.4,1.8,6.7,4.5
		c1.4,3,1.6,7.1,0.3,11.6c-1.1,3.2-2.8,6.1-4.9,8.6h8c2-2.7,3.7-5.8,4.6-8.8c1.6-5.4,1.3-10.3-0.5-13.8C41,7,40.7,6.5,40.3,6
		c1.9,0.7,3.3,2.1,4.3,4c1.4,3,1.6,7.1,0.3,11.6c-1.1,3.1-2.8,6.1-4.9,8.6h8c2.1-2.9,3.8-6,4.7-9.3c1.4-5.2,1.1-9.9-0.6-13.4
		C51.9,7,51.6,6.5,51.2,6c1.9,0.7,3.3,2.1,4.3,4c1.4,3,1.6,7.1,0.3,11.6c-1.1,3.2-2.8,6.1-4.9,8.6h8c2.1-2.8,3.8-5.9,4.7-9.2
		c1.5-5.2,1.1-10-0.6-13.5C61.2,3.8,56.3,0.3,51.7,0z"/>
</g>
</svg>
