<?xml version="1.0" encoding="utf-8"?>
<!-- Generator: Adobe Illustrator 19.2.1, SVG Export Plug-In . SVG Version: 6.00 Build 0)  -->
<svg version="1.1" id="Layer_1" xmlns="http://www.w3.org/2000/svg" xmlns:xlink="http://www.w3.org/1999/xlink" x="0px" y="0px"
	 viewBox="0 0 512 512" style="enable-background:new 0 0 512 512;" xml:space="preserve">
<style type="text/css">
	.st0{fill:#E2E41A;}
</style>	 
<g>
	<path class="st0" d="M494.8,241.4L444.2,192c-50.1-48.9-116.9-75.8-188.2-75.8S117.9,143.1,67.8,192l-50.6,49.4c-11.3,12.3-4.3,25.4,0,29.2
		L67.8,320c50.1,48.9,116.9,75.8,188.2,75.8s138.1-26.9,188.2-75.8l50.6-49.4C498.8,266.8,506.5,254.2,494.8,241.4L494.8,241.4z
		 M256,325.8c-38.5,0-69.8-31.3-69.8-69.8s31.3-69.8,69.8-69.8s69.8,31.3,69.8,69.8S294.5,325.8,256,325.8z M60.7,256l35.7-34.8
		c27-26.4,59.8-45.2,95.7-55.4c-28.2,20.1-46.6,53-46.6,90.1s18.4,70.1,46.6,90.1c-35.9-10.2-68.7-29-95.7-55.3L60.7,256L60.7,256z
		 M415.7,290.8c-27,26.3-59.8,45.1-95.7,55.3c28.2-20.1,46.6-53,46.6-90.1c0-37.2-18.4-70.1-46.6-90.1c35.9,10.2,68.7,29,95.7,55.4
		l35.6,34.8L415.7,290.8L415.7,290.8z"/>
</g>
</svg>
