<?xml version="1.0" encoding="utf-8"?>
<!-- Generator: Adobe Illustrator 21.0.0, SVG Export Plug-In . SVG Version: 6.00 Build 0)  -->
<svg version="1.1" id="Layer_1" xmlns="http://www.w3.org/2000/svg" xmlns:xlink="http://www.w3.org/1999/xlink" x="0px" y="0px"
	 viewBox="0 0 93 36" style="enable-background:new 0 0 93 36;" xml:space="preserve">
<style type="text/css">
	.st0{fill:#FFFFFF;}
</style>
<g>
	<g>
		<g id="XMLID_14_">
			<g>
				<path class="st0" d="M42.8,4.4c1.4,1.5,2.6,3,1.7,4.9c-0.1,0.1-0.2,0.2-0.3,0.3c0,0-0.1,0-0.1,0c-0.1,0-0.2,0-0.3-0.1l-3.3-3
					l-1.6,0.2c-0.8,1.7-2.1,3.6-3.6,5.6c0.5,1.4,0.8,3,0.8,4.6c0,7.7-6.3,14-14,14c-1.6,0-3.2-0.3-4.7-0.8c-4.8,3.6-9.2,6.1-12,6.1
					c-0.5,0-0.9-0.1-1.3-0.3l0,0c0,0,0,0-0.1,0c-0.1-0.1-0.3-0.2-0.4-0.3c-1.8-1.2-2.9-3-3-3l0,0C-1.6,30,3.4,23,8,17.5
					c0-0.2,0-0.4,0-0.6c0-7.7,6.3-14,14-14c3.1,0,5.9,1,8.2,2.7c1.8,1.3,3.3,3,4.3,5C35.8,8.9,37,7.4,37.9,6l-0.8-1.1l-4.5-0.5
					c-0.1,0-0.2,0-0.2-0.1c-0.1,0-0.1-0.1-0.2-0.2c-0.1-0.1-0.1-0.3,0-0.4c0.8-1.9,2.7-2,4.8-1.9c2,0.1,3.7-1.7,3.7-1.8
					c0.2-0.2,0.4-0.2,0.6-0.1c0.2,0.1,0.3,0.3,0.3,0.5C41.7,0.5,41.4,2.9,42.8,4.4z M43.8,8.1c0.1-0.8-0.4-1.7-1.7-3.1
					c-1-1.1-1.3-2.6-1.4-3.6c-0.1,0.1-0.2,0.2-0.4,0.3c-0.3,0.2-0.6,0.4-1,0.6c-0.7,0.3-1.4,0.5-2.2,0.5c-1.9-0.1-2.9,0.1-3.4,0.7
					l3.9,0.4c0.1,0,0.3,0.1,0.4,0.2L38.4,5l0.4,0.6l0,0l0,0l0.5-0.1l1.2-0.2c0,0,0,0,0.1,0c0.1,0,0.2,0.1,0.3,0.1L43.8,8.1z
					 M35,17.5c0-0.2,0-0.5,0-0.7c0-1.3-0.2-2.5-0.5-3.7C33,15,31.3,16.9,29.4,19C32.4,18.6,34.4,18,35,17.5z M32,25.1
					c1.6-1.9,2.7-4.4,2.9-7c-1.1,0.6-3.4,1.1-6.1,1.4c-0.3,0.3-0.6,0.6-1,1c-0.3,2.4-0.9,4.5-1.6,6.2C28.9,26.3,31.1,25.6,32,25.1z
					 M33.8,11.3c-0.3-0.7-0.7-1.3-1.1-1.9c-0.6,0.7-2.5,1.3-5,1.7c0.4,1.7,0.5,3.7,0.5,5.7c0,0.1,0,0.2,0,0.2
					C30.2,15.1,32.1,13.1,33.8,11.3z M32.3,9C32.3,9,32.3,9,32.3,9c-1.4-1.9-3.3-3.3-5.5-4.2c-0.4-0.2-0.7-0.3-1.1-0.4
					c-0.5-0.1-0.9-0.2-1.4-0.3c1.4,1.2,2.5,3.6,3.2,6.6C30.5,10.1,32.3,9.3,32.3,9z M31.5,15.2c-1.1,1.1-2.2,2.2-3.4,3.3
					c-0.2,0.2-0.4,0.3-0.5,0.5c-0.1,0.1-0.1,0.1-0.2,0.2c-0.2,0.2-0.4,0.4-0.6,0.5c-0.3,0.3-0.7,0.6-1.1,1c-2.5,2.2-5.1,4.2-7.6,6
					c-0.1,0.1-0.2,0.1-0.3,0.2c0,0-0.1,0-0.1,0.1c-0.2,0.1-0.3,0.2-0.5,0.3c-0.5,0.3-0.9,0.6-1.4,0.9c-0.3,0.2-0.6,0.4-0.9,0.6
					c-4.4,2.7-8.4,4.3-11.1,4.5c-0.2,0-0.4,0-0.6,0c-0.1,0-0.2,0-0.4,0c0,0-0.1,0-0.2,0c0.1,0.1,0.1,0.1,0.2,0.2
					c0.4,0.4,0.9,0.8,1.4,1.2c0,0,0,0,0,0c0.1,0.1,0.2,0.2,0.3,0.2c1.7,0.8,6.1-1.2,11.8-5.4c0.3-0.2,0.6-0.5,0.9-0.7
					c0.4-0.3,0.7-0.6,1.1-0.9c0.1-0.1,0.3-0.2,0.4-0.3c0.1-0.1,0.2-0.1,0.2-0.2c0.2-0.1,0.4-0.3,0.6-0.4c2.1-1.8,4.4-3.8,6.7-6.1
					c0.4-0.4,0.8-0.8,1.2-1.2c0.1-0.1,0.1-0.1,0.2-0.2c0.1-0.1,0.2-0.2,0.3-0.3c0.1-0.1,0.1-0.2,0.2-0.2
					C29.3,17.6,30.4,16.4,31.5,15.2z M27.6,17.5c0-0.2,0-0.5,0-0.7c0-2-0.2-3.9-0.5-5.6c-1.6,0.2-3.5,0.4-5.3,0.4
					c-1.8,0-3.5-0.1-5-0.4c-0.3,1.7-0.5,3.6-0.5,5.6c0,0.8,0,1.6,0.1,2.4c1.7,0.2,3.6,0.3,5.6,0.3c1.3,0,2.6,0,3.8-0.1
					C26.4,18.7,27,18.1,27.6,17.5z M27.4,21.1c-0.2,0.2-0.4,0.4-0.5,0.5c-1.9,1.9-3.9,3.8-5.9,5.5c0.4,0,0.8,0,1.1,0
					c1.2,0,2.5-0.1,3.6-0.3C26.5,25.3,27,23.3,27.4,21.1z M31.2,26c-1.3,0.5-3.2,1-5.1,1.2c-0.5,1-1.1,1.8-1.7,2.4
					C27,29.1,29.4,27.8,31.2,26z M27,10.7c-0.8-3.4-2.1-5.9-3.8-6.8c-0.4,0-0.8-0.1-1.2-0.1c-0.5,0-0.9,0-1.4,0.1
					c-1.6,0.9-3,3.4-3.8,6.8c1.4,0.2,3.1,0.3,4.9,0.3C23.8,11.1,25.5,10.9,27,10.7z M25,20c0,0,0.1-0.1,0.1-0.1
					c-1.1,0.1-2.1,0.1-3.2,0.1c-1.9,0-3.8-0.1-5.6-0.3c0.2,2.3,0.7,4.4,1.4,6.1C20,24.1,22.5,22.2,25,20z M23.2,29.8
					c0.8-0.4,1.5-1.3,2.2-2.4c-1.1,0.1-2.3,0.2-3.4,0.3c-0.2,0-0.4,0-0.6,0c-0.4,0-0.8,0-1.1,0c-0.4,0.3-0.8,0.6-1.1,0.9
					c0.4,0.6,0.9,1,1.4,1.2c0.5,0.1,0.9,0.1,1.4,0.1C22.4,29.8,22.8,29.8,23.2,29.8z M19.5,29.6c-0.2-0.2-0.5-0.5-0.7-0.8
					c-0.2,0.1-0.4,0.3-0.5,0.5C18.7,29.4,19.1,29.5,19.5,29.6z M16.4,10.7c0.7-3,1.8-5.3,3.2-6.6c-3.3,0.6-6.1,2.5-8.1,5.2
					C12,9.6,13.7,10.3,16.4,10.7z M16.4,26.7c0.3-0.2,0.6-0.4,0.9-0.6c-0.7-1.8-1.2-4-1.4-6.4c-2.9-0.3-5.5-0.8-6.8-1.5
					c0.1,0.8,0.2,1.6,0.5,2.4c0.1,0.4,0.2,0.8,0.4,1.1c0.6,1.4,1.4,2.7,2.4,3.9C13.1,25.9,14.5,26.3,16.4,26.7z M14.8,27.6
					c0.3-0.2,0.6-0.4,0.9-0.6c-1-0.2-1.8-0.4-2.5-0.7C13.7,26.8,14.2,27.3,14.8,27.6z M15.7,16.8c0-2,0.2-3.9,0.5-5.7
					c-2.4-0.4-4.3-0.9-5-1.6C9.8,11.7,9,14.2,9,16.8c0,0.3,0,0.5,0,0.8c0.8,0.5,3.3,1.1,6.8,1.5C15.8,18.4,15.7,17.6,15.7,16.8z
					 M13.9,28.2c-2-1.4-3.6-3.4-4.6-5.6c-3,4.1-4.9,7.5-5.4,9.7C6.2,32,9.7,30.7,13.9,28.2z M8.8,21.5c-0.3-0.8-0.5-1.7-0.6-2.6
					c-6.6,8-7.8,12-6.8,13c0.3,0.3,0.8,0.4,1.4,0.5C3.3,29.6,5.6,25.7,8.8,21.5z"/>
				<path class="st0" d="M42.1,5.1c1.3,1.4,1.8,2.2,1.7,3.1l-2.9-2.6c-0.1-0.1-0.2-0.1-0.3-0.1c0,0,0,0-0.1,0l-1.2,0.2l-0.5,0.1l0,0
					l0,0L38.4,5l-0.6-0.9c-0.1-0.1-0.2-0.2-0.4-0.2l-3.9-0.4c0.6-0.6,1.5-0.8,3.4-0.7c0.8,0,1.6-0.2,2.2-0.5c0.4-0.2,0.7-0.4,1-0.6
					c0.1-0.1,0.3-0.2,0.4-0.3C40.7,2.5,41.1,4,42.1,5.1z"/>
				<path class="st0" d="M8.2,18.9c0.1,0.9,0.3,1.8,0.6,2.6c-3.2,4.2-5.5,8.1-6,10.9c-0.7,0-1.2-0.2-1.4-0.5
					C0.3,30.9,1.6,26.8,8.2,18.9z"/>
			</g>
			<g>
			</g>
		</g>
	</g>
	<g>
		<path class="st0" d="M56,17.8v5.4c-0.3,0.2-0.7,0.3-1,0.3c-0.5,0-0.9-0.5-0.9-1.2v-0.3c-0.7,1-1.7,1.5-2.8,1.5
			c-1.7,0-2.7-1-2.7-2.6c0-1.7,1.4-2.7,3.8-2.7c0.5,0,1,0,1.6,0.1v-0.1c0-1.3-0.5-2-1.8-2c-0.8,0-1.6,0.2-2.3,0.7l-0.8-1.2
			c1-0.6,2.1-0.9,3.4-0.9C54.8,14.6,56,15.8,56,17.8z M54.1,19.4c-0.5,0-1-0.1-1.5-0.1c-1.3,0-2.1,0.5-2.1,1.4
			c0,0.8,0.5,1.3,1.3,1.3C53,22,54.1,21.2,54.1,19.4z"/>
		<path class="st0" d="M65.7,20.9c0,1.6-1.3,2.5-3.5,2.5c-1.4,0-2.6-0.1-3.6-0.2v-8.5c0.9-0.1,2-0.2,3.4-0.2c2.2,0,3.4,0.9,3.4,2.4
			c0,0.8-0.5,1.5-1.3,1.8C65.1,19.2,65.7,19.9,65.7,20.9z M60.5,16.1v2.4H62c1,0,1.5-0.5,1.5-1.2c0-0.7-0.6-1.2-1.5-1.2
			C61.4,16.1,61,16.1,60.5,16.1z M63.8,20.7c0-0.8-0.6-1.3-1.6-1.3h-1.7V22c0.5,0,1.1,0,1.7,0C63.2,22,63.8,21.5,63.8,20.7z"/>
		<path class="st0" d="M74.6,17.8v5.4c-0.3,0.2-0.7,0.3-1,0.3c-0.5,0-0.9-0.5-0.9-1.2v-0.3c-0.7,1-1.7,1.5-2.8,1.5
			c-1.7,0-2.7-1-2.7-2.6c0-1.7,1.4-2.7,3.8-2.7c0.5,0,1,0,1.6,0.1v-0.1c0-1.3-0.5-2-1.8-2c-0.8,0-1.6,0.2-2.3,0.7l-0.8-1.2
			c1-0.6,2.1-0.9,3.4-0.9C73.3,14.6,74.6,15.8,74.6,17.8z M72.7,19.4c-0.5,0-1-0.1-1.5-0.1c-1.3,0-2.1,0.5-2.1,1.4
			c0,0.8,0.5,1.3,1.3,1.3C71.5,22,72.6,21.2,72.7,19.4z"/>
		<path class="st0" d="M79.1,15.7v7.6h-1.9v-8.4c0.3-0.2,0.7-0.3,1-0.3C78.7,14.6,79.1,15,79.1,15.7z M85.4,23.1
			c-0.4,0.2-0.8,0.3-1.2,0.3c-0.7,0-1.1-0.2-1.5-0.7l-3.5-3.9l3.8-4.2l1.8,0.3l-3.5,3.8L85.4,23.1z"/>
		<path class="st0" d="M90,23.4c-2.6,0-4.1-1.6-4.1-4.4c0-2.8,1.7-4.4,4-4.4c1,0,2.5,0.4,3,2.1l-1.4,0.6c-0.3-0.7-0.8-1.1-1.5-1.1
			c-1.4,0-2.2,1-2.2,2.8c0,1.8,0.9,2.9,2.3,2.9c0.9,0,1.8-0.3,2.4-0.8l0.6,1.4C92.3,23.1,91.2,23.4,90,23.4z"/>
	</g>
</g>
</svg>
